<?xml version="1.0" encoding="UTF-8" standalone="no"?>
<svg
   version="1.0"
   width="896.51434pt"
   height="976.94678pt"
   viewBox="0 0 896.51434 976.94678"
   preserveAspectRatio="xMidYMid meet"
   id="svg20"
   sodipodi:docname="easterrabbit.svg"
   inkscape:version="1.1.2 (0a00cf5339, 2022-02-04)"
   xmlns:inkscape="http://www.inkscape.org/namespaces/inkscape"
   xmlns:sodipodi="http://sodipodi.sourceforge.net/DTD/sodipodi-0.dtd"
   xmlns="http://www.w3.org/2000/svg"
   xmlns:svg="http://www.w3.org/2000/svg">
  <defs
     id="defs24" />
  <sodipodi:namedview
     id="namedview22"
     pagecolor="#ffffff"
     bordercolor="#666666"
     borderopacity="1.0"
     inkscape:pageshadow="2"
     inkscape:pageopacity="0.0"
     inkscape:pagecheckerboard="0"
     inkscape:document-units="pt"
     showgrid="false"
     inkscape:zoom="0.48370759"
     inkscape:cx="945.81936"
     inkscape:cy="848.65322"
     inkscape:window-width="1553"
     inkscape:window-height="1081"
     inkscape:window-x="2258"
     inkscape:window-y="52"
     inkscape:window-maximized="0"
     inkscape:current-layer="text3236" />
  <g
     transform="matrix(0.1,0,0,-0.1,8.7710678,1021.9468)"
     fill="#000000"
     stroke="none"
     id="g18">
    <g
       id="g280"
       transform="translate(-496.70877,-272.78483)">
      <path
         d="M 8805,8915 C 8256,8787 7412,8206 6285,7180 5553,6513 4567,5513 3687,4545 l -245,-270 113,-110 c 62,-60 137,-138 167,-172 l 54,-62 310,153 c 542,268 1058,560 1579,895 1845,1184 3001,2413 3325,3533 32,113 65,264 78,366 l 9,62 -86,-1 c -52,0 -125,-10 -186,-24 z"
         id="path2" />
      <path
         d="M 9112,8823 C 9085,8635 9008,8374 8918,8160 8587,7379 7852,6533 6781,5702 6097,5170 5266,4641 4405,4187 c -183,-97 -547,-276 -588,-290 -15,-5 61,-107 80,-107 8,0 76,23 151,51 1221,455 2686,1425 4181,2768 254,228 634,607 721,719 222,285 333,490 397,730 22,83 26,119 27,247 1,127 -3,162 -22,228 -36,127 -118,272 -194,345 l -34,32 z"
         id="path4" />
    </g>
    <g
       id="g196"
       transform="matrix(-0.50246935,-0.66440598,0.66440598,-0.50246935,-2195.1277,17780.581)">
      <path
         d="m 5840.1737,7663.2785 c 447.2361,150.9575 1134.7904,836.163 2052.8871,2046.1817 596.3149,786.6298 1399.5477,1965.9858 2116.4292,3107.6018 l 199.586,318.426 -92.054,129.729 c -50.508,70.761 -111.605,162.751 -136.0446,202.849 l -43.9904,73.12 -252.5377,-180.441 c -441.5337,-316.068 -861.8868,-660.439 -1286.313,-1055.523 -1503.0067,-1396.357 -2444.728,-2845.7852 -2708.6706,-4166.6633 -26.0684,-133.2671 -52.9514,-311.3498 -63.5417,-431.6441 l -7.3318,-73.12 70.0589,1.1794 c 42.3611,0 101.8297,11.7935 151.5226,28.3045 z"
         id="path2-6"
         style="stroke-width:0.980177" />
      <path
         d="m 5590.0799,7771.7792 c 21.9952,221.7188 84.7223,529.5306 158.0397,781.9127 269.6451,921.0766 868.4039,1918.8111 1740.8809,2898.8561 557.2122,627.417 1234.1762,1251.296 1935.5793,1786.723 149.0787,114.398 445.6069,325.502 479.007,342.013 12.2196,5.897 -49.6929,126.191 -65.171,126.191 -6.5171,0 -61.9125,-27.125 -123.0103,-60.147 -994.6727,-536.607 -2188.117,-1680.581 -3406.0005,-3264.456 -206.918,-268.893 -516.4803,-715.8686 -587.3538,-847.9564 -180.8496,-336.1163 -271.2744,-577.8842 -323.4112,-860.9295 -17.922,-97.8865 -21.1806,-140.3433 -21.9952,-291.3008 -0.8146,-149.7781 2.4439,-191.0556 17.922,-268.893 29.327,-149.7782 96.1273,-320.7847 158.0398,-406.8777 l 27.6976,-37.7393 z"
         id="path4-7"
         style="stroke-width:0.980177" />
    </g>
    <path
       d="M 1085,3493 C 910,3456 719,3345 593,3206 385,2977 275,2657 310,2382 c 25,-206 99,-363 230,-493 90,-90 213,-157 336,-184 155,-35 384,-6 525,66 l 37,18 6,-50 c 39,-290 249,-519 551,-600 113,-31 315,-31 436,-1 388,95 683,387 775,767 25,102 23,286 -5,388 -67,250 -257,437 -516,509 -64,17 -108,22 -220,22 -158,1 -254,-19 -396,-79 l -78,-34 -5,47 c -31,257 -95,403 -241,548 -137,136 -307,205 -503,203 -48,0 -118,-7 -157,-16 z m 368,-51 c 108,-39 180,-84 259,-164 62,-63 86,-96 123,-172 133,-273 106,-609 -73,-911 -65,-110 -229,-273 -339,-339 -45,-26 -122,-62 -170,-79 -82,-29 -97,-31 -233,-31 -135,0 -150,1 -220,28 -352,133 -532,526 -431,941 91,372 386,671 734,745 74,16 285,5 350,-18 z m 1197,-672 c 256,-62 441,-238 506,-481 22,-84 22,-251 0,-342 -41,-171 -140,-339 -278,-473 -197,-191 -434,-294 -683,-297 -219,-2 -381,59 -520,196 -94,93 -144,180 -176,305 -30,119 -28,131 38,172 81,51 200,173 269,276 96,143 158,313 173,469 l 6,70 55,27 c 189,93 421,123 610,78 z"
       id="path10" />
    <path
       d="m 1033,2543 c -61,-21 -136,-92 -163,-155 -19,-44 -22,-65 -18,-133 5,-97 31,-149 103,-213 57,-50 119,-72 205,-72 156,0 277,114 287,270 13,175 -129,322 -310,319 -34,0 -81,-7 -104,-16 z m 107,-92 c 7,-14 5,-24 -8,-41 -20,-24 -48,-19 -57,11 -14,42 44,68 65,30 z"
       id="path12" />
    <path
       d="m 2150,1891 c -120,-39 -201,-150 -202,-276 0,-75 14,-125 54,-183 131,-191 419,-169 513,39 24,55 27,71 23,138 -10,168 -123,281 -288,288 -41,1 -86,-1 -100,-6 z m 294,-197 c 19,-19 20,-36 4,-52 -18,-18 -46,-14 -58,9 -9,16 -8,25 6,40 21,23 28,24 48,3 z"
       id="path14" />
    <path
       d="m 769,1413 c -34,-88 -18,-284 41,-481 54,-183 179,-482 201,-482 11,0 888,446 901,459 11,9 -101,106 -196,169 -190,128 -498,254 -807,332 -65,17 -120,30 -124,30 -3,0 -10,-12 -16,-27 z"
       id="path16" />
    <g
       aria-label="Easter
   Challenge"
       transform="scale(0.7159278,-1.3967889)"
       id="text3236"
       style="font-weight:bold;font-size:901.211px;line-height:1;font-family:LKLUG;-inkscape-font-specification:'LKLUG Bold';stroke-width:7.94548">
      <path
         d="m 5873.4935,-2343.2267 h 457.2062 v 128.0529 h -287.7891 v 122.3324 h 270.6273 v 128.0529 h -270.6273 v 150.4952 h 297.47 v 128.0529 h -466.8871 z"
         id="path78986" />
      <path
         d="m 6702.9772,-1908.0228 q -49.285,0 -74.3675,16.7217 -24.6425,16.7217 -24.6425,49.285 0,29.923 19.802,47.0848 20.2421,16.7217 55.8857,16.7217 44.4444,0 74.8075,-31.6832 30.3631,-32.1233 30.3631,-80.0881 v -18.0419 z m 240.7043,-59.4059 v 281.1883 h -158.856 v -73.0473 q -31.6832,44.8845 -71.2872,65.5666 -39.604,20.242 -96.3697,20.242 -76.5678,0 -124.5326,-44.4445 -47.5248,-44.8845 -47.5248,-116.1717 0,-86.6887 59.406,-127.1728 59.846,-40.4841 187.4589,-40.4841 h 92.8494 v -12.3213 q 0,-37.4037 -29.483,-54.5655 -29.483,-17.6017 -91.9693,-17.6017 -50.6051,0 -94.1695,10.121 -43.5644,10.121 -80.9682,30.363 v -120.1321 q 50.6051,-12.3212 101.6503,-18.4819 51.0452,-6.6006 102.0903,-6.6006 133.3335,0 192.2994,52.8053 59.406,52.3653 59.406,170.7373 z"
         id="path78988" />
      <path
         d="m 7475.2552,-2163.6886 v 119.6921 q -50.6051,-21.1221 -97.6899,-31.6832 -47.0847,-10.561 -88.8889,-10.561 -44.8846,0 -66.8868,11.4411 -21.5622,11.0011 -21.5622,34.3235 0,18.9219 16.2817,29.0429 16.7217,10.121 59.406,14.9615 l 27.7228,3.9604 q 121.0122,15.4016 162.8164,50.6051 41.8042,35.2036 41.8042,110.4512 0,78.7679 -58.0858,118.3719 -58.0859,39.604 -173.3775,39.604 -48.845,0 -101.2103,-7.9208 -51.9252,-7.4807 -106.9307,-22.8823 v -119.6921 q 47.0847,22.8823 96.3697,34.3235 49.725,11.4412 100.7702,11.4412 46.2046,0 69.527,-12.7613 23.3223,-12.7613 23.3223,-37.8439 0,-21.1221 -16.2816,-31.2431 -15.8416,-10.5611 -63.8065,-16.2817 l -27.7228,-3.5203 q -105.1706,-13.2013 -147.4148,-48.8449 -42.2443,-35.6436 -42.2443,-108.251 0,-78.3279 53.6854,-116.1717 53.6854,-37.8438 164.5766,-37.8438 43.5644,0 91.5293,6.6006 47.9648,6.6007 104.2905,20.6821 z"
         id="path78990" />
      <path
         d="m 7798.6879,-2319.0243 v 139.9342 h 162.3764 v 112.6514 h -162.3764 v 209.0211 q 0,34.3234 13.6414,46.6447 13.6413,11.8812 54.1254,11.8812 h 80.9682 v 112.6513 h -135.0936 q -93.2895,0 -132.4534,-38.7239 -38.7239,-39.1639 -38.7239,-132.4533 v -209.0211 h -78.3279 v -112.6514 h 78.3279 v -139.9342 z"
         id="path78992" />
      <path
         d="m 8549.4037,-1933.9854 v 44.8846 h -368.3172 q 5.7205,55.4456 40.044,83.1684 34.3235,27.7228 95.9297,27.7228 49.725,0 101.6503,-14.5215 52.3652,-14.9615 107.3708,-44.8845 v 121.4522 q -55.8856,21.1222 -111.7713,31.6832 -55.8856,11.0011 -111.7713,11.0011 -133.7735,0 -208.141,-67.7668 -73.9275,-68.2069 -73.9275,-190.9793 0,-120.5722 72.6074,-189.6591 73.0474,-69.087 200.6602,-69.087 116.1718,0 185.6988,69.967 69.9671,69.9671 69.9671,187.0189 z m -161.9364,-52.3653 q 0,-44.8845 -26.4027,-72.1672 -25.9626,-27.7228 -68.2068,-27.7228 -45.7647,0 -74.3676,25.9626 -28.6028,25.5226 -35.6436,73.9274 z"
         id="path78994" />
      <path
         d="m 9034.7726,-2044.8766 q -20.6821,-9.6809 -41.3641,-14.0814 -20.2421,-4.8405 -40.9242,-4.8405 -60.7261,0 -93.7294,39.164 -32.5633,38.7239 -32.5633,111.3312 v 227.0629 h -157.5359 v -492.8497 h 157.5359 v 80.9682 q 30.363,-48.4049 69.527,-70.4072 39.604,-22.4422 94.6095,-22.4422 7.9208,0 17.1618,0.8801 9.2409,0.44 26.8427,2.6402 z"
         id="path78996" />
      <path
         d="m 7335.7611,-746.58417 q -46.6447,24.20245 -97.2498,36.52369 -50.6051,12.32125 -105.6107,12.32125 -164.1366,0 -260.0662,-91.52925 -95.9297,-91.96928 -95.9297,-249.06512 0,-157.5359 95.9297,-249.0652 95.9296,-91.9693 260.0662,-91.9693 55.0056,0 105.6107,12.3213 50.6051,12.3212 97.2498,36.5237 v 135.9737 q -47.0848,-32.1232 -92.8494,-47.0848 -45.7646,-14.9615 -96.3697,-14.9615 -90.6492,0 -142.5744,58.0859 -51.9252,58.0859 -51.9252,160.1762 0,101.65024 51.9252,159.7361 51.9252,58.08587 142.5744,58.08587 50.6051,0 96.3697,-14.96151 45.7646,-14.96151 92.8494,-47.08476 z"
         id="path78998" />
      <path
         d="m 7964.5847,-1010.6108 v 300.11028 h -158.416 v -48.84493 -179.97818 q 0,-64.68657 -3.0804,-88.88897 -2.6402,-24.2024 -9.6809,-35.6436 -9.241,-15.4016 -25.0826,-23.7624 -15.8416,-8.8009 -36.0836,-8.8009 -49.285,0 -77.4478,38.2839 -28.1629,37.8438 -28.1629,105.1706 v 242.46448 h -157.5359 v -684.70918 h 157.5359 v 264.0267 q 35.6436,-43.1244 75.6877,-63.3664 40.044,-20.6821 88.4489,-20.6821 85.3686,0 129.3731,52.3653 44.4445,52.3653 44.4445,152.2554 z"
         id="path79000" />
      <path
         d="m 8331.5816,-932.28292 q -49.2849,0 -74.3675,16.72169 -24.6425,16.72169 -24.6425,49.28498 0,29.92302 19.802,47.08475 20.2421,16.72169 55.8857,16.72169 44.4445,0 74.8075,-31.6832 30.3631,-32.12324 30.3631,-80.08808 v -18.04183 z m 240.7044,-59.40599 v 281.18839 h -158.8561 v -73.04738 q -31.6832,44.88453 -71.2872,65.56662 -39.604,20.24205 -96.3697,20.24205 -76.5677,0 -124.5326,-44.44449 -47.5248,-44.88453 -47.5248,-116.17173 0,-86.68875 59.406,-127.17284 59.8461,-40.48411 187.4589,-40.48411 h 92.8494 v -12.3212 q 0,-37.4038 -29.483,-54.5655 -29.4829,-17.6018 -91.9693,-17.6018 -50.6051,0 -94.1695,10.121 -43.5644,10.121 -80.9681,30.3631 v -120.1322 q 50.6051,-12.3212 101.6502,-18.4818 51.0452,-6.6007 102.0903,-6.6007 133.3335,0 192.2995,52.8053 59.406,52.3653 59.406,170.73729 z"
         id="path79002" />
      <path
         d="m 8718.8207,-1395.2097 h 157.5359 v 684.70918 h -157.5359 z"
         id="path79004" />
      <path
         d="m 9027.7321,-1395.2097 h 157.5359 v 684.70918 h -157.5359 z"
         id="path79006" />
      <path
         d="m 9828.6129,-958.24554 v 44.88453 h -368.3172 q 5.7206,55.4456 40.044,83.1684 34.3235,27.7228 95.9297,27.7228 49.725,0 101.6503,-14.52146 52.3653,-14.96152 107.3708,-44.88454 v 121.45227 q -55.8856,21.12213 -111.7713,31.6832 -55.8856,11.00111 -111.7712,11.00111 -133.7735,0 -208.1411,-67.76685 -73.9274,-68.20688 -73.9274,-190.97928 0,-120.57214 72.6073,-189.65914 73.0474,-69.087 200.6603,-69.087 116.1717,0 185.6987,69.9671 69.9671,69.967 69.9671,187.01886 z m -161.9364,-52.36526 q 0,-44.8846 -26.4026,-72.1673 -25.9627,-27.7228 -68.2069,-27.7228 -45.7646,0 -74.3675,25.9626 -28.6029,25.5226 -35.6436,73.9275 z"
         id="path79008" />
      <path
         d="m 10443.355,-1010.6108 v 300.11028 h -158.416 v -48.84493 -180.85827 q 0,-63.80648 -3.08,-88.00888 -2.641,-24.2024 -9.681,-35.6436 -9.241,-15.4016 -25.083,-23.7624 -15.841,-8.8009 -36.084,-8.8009 -49.285,0 -77.447,38.2839 -28.163,37.8438 -28.163,105.1706 v 242.46448 h -157.5361 v -492.84978 h 157.5361 v 72.1673 q 35.643,-43.1244 75.687,-63.3664 40.044,-20.6821 88.449,-20.6821 85.369,0 129.373,52.3653 44.445,52.3653 44.445,152.2554 z"
         id="path79010" />
      <path
         d="m 10924.764,-794.10896 q -32.564,43.12435 -71.728,63.36639 -39.163,20.24205 -90.649,20.24205 -90.209,0 -149.175,-70.84716 -58.966,-71.28719 -58.966,-181.2983 0,-110.45112 58.966,-180.85822 58.966,-70.8472 149.175,-70.8472 51.486,0 90.649,20.242 39.164,20.2421 71.728,63.8065 v -73.0474 h 158.416 v 443.12476 q 0,118.81199 -75.248,181.2983 -74.807,62.92636 -217.382,62.92636 -46.205,0 -89.329,-7.04071 -43.124,-7.04071 -86.689,-21.56218 v -122.7724 q 41.365,23.7624 80.969,35.20356 39.604,11.8812 79.648,11.8812 77.447,0 113.531,-33.88342 36.084,-33.88343 36.084,-106.05071 z m -103.851,-306.71094 q -48.845,0 -76.127,36.0836 -27.283,36.0837 -27.283,102.09032 0,67.76684 26.402,102.9704 26.403,34.76351 77.008,34.76351 49.285,0 76.568,-36.08365 27.283,-36.08364 27.283,-101.65026 0,-66.00662 -27.283,-102.09032 -27.283,-36.0836 -76.568,-36.0836 z"
         id="path79012" />
      <path
         d="m 11726.525,-958.24554 v 44.88453 h -368.318 q 5.721,55.4456 40.044,83.1684 34.324,27.7228 95.93,27.7228 49.725,0 101.65,-14.52146 52.366,-14.96152 107.371,-44.88454 v 121.45227 q -55.885,21.12213 -111.771,31.6832 -55.886,11.00111 -111.771,11.00111 -133.774,0 -208.141,-67.76685 -73.928,-68.20688 -73.928,-190.97928 0,-120.57214 72.607,-189.65914 73.048,-69.087 200.661,-69.087 116.171,0 185.698,69.9671 69.968,69.967 69.968,187.01886 z m -161.937,-52.36526 q 0,-44.8846 -26.403,-72.1673 -25.962,-27.7228 -68.206,-27.7228 -45.765,0 -74.368,25.9626 -28.603,25.5226 -35.644,73.9275 z"
         id="path79014" />
    </g>
  </g>
</svg>
