<?xml version="1.0" encoding="UTF-8"?>
<svg xmlns="http://www.w3.org/2000/svg" xmlns:xlink="http://www.w3.org/1999/xlink" width="308pt" height="229pt" viewBox="0 0 308 229" version="1.1">
<defs>
<clipPath id="clip1">
  <path d="M 102 9 L 104 9 L 104 182.25 L 102 182.25 Z M 102 9 "/>
</clipPath>
<clipPath id="clip2">
  <path d="M 176 9 L 178 9 L 178 182.25 L 176 182.25 Z M 176 9 "/>
</clipPath>
<clipPath id="clip3">
  <path d="M 250 9 L 252 9 L 252 182.25 L 250 182.25 Z M 250 9 "/>
</clipPath>
<clipPath id="clip4">
  <path d="M 54.726562 173 L 298.851562 173 L 298.851562 176 L 54.726562 176 Z M 54.726562 173 "/>
</clipPath>
<clipPath id="clip5">
  <path d="M 54.726562 142 L 298.851562 142 L 298.851562 144 L 54.726562 144 Z M 54.726562 142 "/>
</clipPath>
<clipPath id="clip6">
  <path d="M 54.726562 110 L 298.851562 110 L 298.851562 113 L 54.726562 113 Z M 54.726562 110 "/>
</clipPath>
<clipPath id="clip7">
  <path d="M 54.726562 79 L 298.851562 79 L 298.851562 81 L 54.726562 81 Z M 54.726562 79 "/>
</clipPath>
<clipPath id="clip8">
  <path d="M 54.726562 47 L 298.851562 47 L 298.851562 49 L 54.726562 49 Z M 54.726562 47 "/>
</clipPath>
<clipPath id="clip9">
  <path d="M 54.726562 15 L 298.851562 15 L 298.851562 18 L 54.726562 18 Z M 54.726562 15 "/>
</clipPath>
</defs>
<g id="surface1">
<path style=" stroke:none;fill-rule:nonzero;fill:rgb(100%,100%,100%);fill-opacity:1;" d="M 0 229.195312 L 307.851562 229.195312 L 307.851562 0 L 0 0 Z M 0 229.195312 "/>
<path style=" stroke:none;fill-rule:nonzero;fill:rgb(100%,100%,100%);fill-opacity:1;" d="M 54.726562 182.25 L 298.851562 182.25 L 298.851562 9 L 54.726562 9 Z M 54.726562 182.25 "/>
<g clip-path="url(#clip1)" clip-rule="nonzero">
<path style="fill:none;stroke-width:0.8;stroke-linecap:square;stroke-linejoin:round;stroke:rgb(69.019608%,69.019608%,69.019608%);stroke-opacity:1;stroke-miterlimit:4;" d="M 82.3 145.8 L 82.3 7.2 " transform="matrix(1.25,0,0,1.25,0,0)"/>
</g>
<path style="fill:none;stroke-width:0.8;stroke-linecap:butt;stroke-linejoin:round;stroke:rgb(0%,0%,0%);stroke-opacity:1;stroke-miterlimit:4;" d="M 0.001168 0 L 0.001168 3.5 " transform="matrix(1.25,0,0,1.25,102.87354,182.25)"/>
<path style=" stroke:none;fill-rule:nonzero;fill:rgb(0%,0%,0%);fill-opacity:1;" d="M 94.984375 196.0625 L 102.808594 196.0625 L 102.808594 197.097656 L 94.984375 197.097656 Z M 94.984375 196.0625 "/>
<path style=" stroke:none;fill-rule:nonzero;fill:rgb(0%,0%,0%);fill-opacity:1;" d="M 106.53125 199.460938 L 110.835938 199.460938 L 110.835938 200.5 L 105.050781 200.5 L 105.050781 199.460938 C 105.515625 198.976562 106.152344 198.328125 106.960938 197.511719 C 107.769531 196.695312 108.277344 196.167969 108.484375 195.933594 C 108.878906 195.488281 109.15625 195.113281 109.3125 194.808594 C 109.46875 194.5 109.546875 194.199219 109.546875 193.902344 C 109.546875 193.417969 109.378906 193.023438 109.039062 192.71875 C 108.699219 192.410156 108.253906 192.257812 107.710938 192.257812 C 107.324219 192.257812 106.914062 192.324219 106.484375 192.460938 C 106.054688 192.59375 105.597656 192.796875 105.109375 193.070312 L 105.109375 191.824219 C 105.605469 191.625 106.070312 191.476562 106.5 191.375 C 106.933594 191.273438 107.328125 191.222656 107.6875 191.222656 C 108.628906 191.222656 109.382812 191.457031 109.945312 191.929688 C 110.503906 192.402344 110.785156 193.03125 110.785156 193.820312 C 110.785156 194.195312 110.714844 194.550781 110.574219 194.886719 C 110.433594 195.222656 110.179688 195.617188 109.808594 196.074219 C 109.707031 196.191406 109.382812 196.53125 108.839844 197.097656 C 108.292969 197.660156 107.523438 198.449219 106.53125 199.460938 Z M 106.53125 199.460938 "/>
<g clip-path="url(#clip2)" clip-rule="nonzero">
<path style="fill:none;stroke-width:0.8;stroke-linecap:square;stroke-linejoin:round;stroke:rgb(69.019608%,69.019608%,69.019608%);stroke-opacity:1;stroke-miterlimit:4;" d="M 141.578125 145.8 L 141.578125 7.2 " transform="matrix(1.25,0,0,1.25,0,0)"/>
</g>
<path style="fill:none;stroke-width:0.8;stroke-linecap:butt;stroke-linejoin:round;stroke:rgb(0%,0%,0%);stroke-opacity:1;stroke-miterlimit:4;" d="M -0.001326 0 L -0.001326 3.5 " transform="matrix(1.25,0,0,1.25,176.974314,182.25)"/>
<path style=" stroke:none;fill-rule:nonzero;fill:rgb(0%,0%,0%);fill-opacity:1;" d="M 176.96875 192.199219 C 176.335938 192.199219 175.859375 192.511719 175.539062 193.136719 C 175.21875 193.757812 175.058594 194.699219 175.058594 195.953125 C 175.058594 197.199219 175.21875 198.136719 175.539062 198.761719 C 175.859375 199.386719 176.335938 199.699219 176.96875 199.699219 C 177.609375 199.699219 178.089844 199.386719 178.40625 198.761719 C 178.726562 198.136719 178.886719 197.199219 178.886719 195.953125 C 178.886719 194.699219 178.726562 193.757812 178.40625 193.136719 C 178.089844 192.511719 177.609375 192.199219 176.96875 192.199219 Z M 176.96875 191.222656 C 177.992188 191.222656 178.773438 191.625 179.3125 192.433594 C 179.851562 193.242188 180.121094 194.414062 180.121094 195.953125 C 180.121094 197.484375 179.851562 198.65625 179.3125 199.464844 C 178.773438 200.273438 177.992188 200.675781 176.96875 200.675781 C 175.949219 200.675781 175.167969 200.273438 174.628906 199.464844 C 174.089844 198.65625 173.820312 197.484375 173.820312 195.953125 C 173.820312 194.414062 174.089844 193.242188 174.628906 192.433594 C 175.167969 191.625 175.949219 191.222656 176.96875 191.222656 Z M 176.96875 191.222656 "/>
<g clip-path="url(#clip3)" clip-rule="nonzero">
<path style="fill:none;stroke-width:0.8;stroke-linecap:square;stroke-linejoin:round;stroke:rgb(69.019608%,69.019608%,69.019608%);stroke-opacity:1;stroke-miterlimit:4;" d="M 200.859375 145.8 L 200.859375 7.2 " transform="matrix(1.25,0,0,1.25,0,0)"/>
</g>
<path style="fill:none;stroke-width:0.8;stroke-linecap:butt;stroke-linejoin:round;stroke:rgb(0%,0%,0%);stroke-opacity:1;stroke-miterlimit:4;" d="M -0.000696 0 L -0.000696 3.5 " transform="matrix(1.25,0,0,1.25,251.075089,182.25)"/>
<path style=" stroke:none;fill-rule:nonzero;fill:rgb(0%,0%,0%);fill-opacity:1;" d="M 249.496094 199.460938 L 253.800781 199.460938 L 253.800781 200.5 L 248.015625 200.5 L 248.015625 199.460938 C 248.480469 198.976562 249.121094 198.328125 249.925781 197.511719 C 250.734375 196.695312 251.242188 196.167969 251.449219 195.933594 C 251.84375 195.488281 252.121094 195.113281 252.277344 194.808594 C 252.433594 194.5 252.511719 194.199219 252.511719 193.902344 C 252.511719 193.417969 252.34375 193.023438 252.003906 192.71875 C 251.664062 192.410156 251.21875 192.257812 250.675781 192.257812 C 250.289062 192.257812 249.878906 192.324219 249.449219 192.460938 C 249.023438 192.59375 248.5625 192.796875 248.074219 193.070312 L 248.074219 191.824219 C 248.570312 191.625 249.035156 191.476562 249.464844 191.375 C 249.898438 191.273438 250.292969 191.222656 250.652344 191.222656 C 251.59375 191.222656 252.347656 191.457031 252.910156 191.929688 C 253.46875 192.402344 253.75 193.03125 253.75 193.820312 C 253.75 194.195312 253.679688 194.550781 253.539062 194.886719 C 253.402344 195.222656 253.144531 195.617188 252.773438 196.074219 C 252.671875 196.191406 252.347656 196.53125 251.804688 197.097656 C 251.257812 197.660156 250.492188 198.449219 249.496094 199.460938 Z M 249.496094 199.460938 "/>
<path style=" stroke:none;fill-rule:nonzero;fill:rgb(0%,0%,0%);fill-opacity:1;" d="M 179.953125 210.761719 L 177.476562 214.085938 L 180.078125 217.597656 L 178.753906 217.597656 L 176.765625 214.910156 L 174.773438 217.597656 L 173.449219 217.597656 L 176.105469 214.019531 L 173.675781 210.761719 L 175 210.761719 L 176.8125 213.195312 L 178.625 210.761719 Z M 179.953125 210.761719 "/>
<g clip-path="url(#clip4)" clip-rule="nonzero">
<path style="fill:none;stroke-width:0.8;stroke-linecap:square;stroke-linejoin:round;stroke:rgb(69.019608%,69.019608%,69.019608%);stroke-opacity:1;stroke-miterlimit:4;" d="M 43.78125 139.671875 L 239.08125 139.671875 " transform="matrix(1.25,0,0,1.25,0,0)"/>
</g>
<path style="fill:none;stroke-width:0.8;stroke-linecap:butt;stroke-linejoin:round;stroke:rgb(0%,0%,0%);stroke-opacity:1;stroke-miterlimit:4;" d="M 0 0.00132 L -3.5 0.00132 " transform="matrix(1.25,0,0,1.25,54.726562,174.588194)"/>
<path style=" stroke:none;fill-rule:nonzero;fill:rgb(0%,0%,0%);fill-opacity:1;" d="M 30.070312 171.035156 C 29.4375 171.035156 28.960938 171.347656 28.640625 171.972656 C 28.320312 172.597656 28.160156 173.535156 28.160156 174.789062 C 28.160156 176.039062 28.320312 176.976562 28.640625 177.601562 C 28.960938 178.226562 29.4375 178.539062 30.070312 178.539062 C 30.710938 178.539062 31.1875 178.226562 31.507812 177.601562 C 31.828125 176.976562 31.988281 176.039062 31.988281 174.789062 C 31.988281 173.535156 31.828125 172.597656 31.507812 171.972656 C 31.1875 171.347656 30.710938 171.035156 30.070312 171.035156 Z M 30.070312 170.058594 C 31.09375 170.058594 31.875 170.464844 32.414062 171.273438 C 32.953125 172.078125 33.21875 173.253906 33.21875 174.789062 C 33.21875 176.324219 32.953125 177.496094 32.414062 178.304688 C 31.875 179.109375 31.09375 179.515625 30.070312 179.515625 C 29.050781 179.515625 28.269531 179.109375 27.730469 178.304688 C 27.191406 177.496094 26.921875 176.324219 26.921875 174.789062 C 26.921875 173.253906 27.191406 172.078125 27.730469 171.273438 C 28.269531 170.464844 29.050781 170.058594 30.070312 170.058594 Z M 30.070312 170.058594 "/>
<path style=" stroke:none;fill-rule:nonzero;fill:rgb(0%,0%,0%);fill-opacity:1;" d="M 35.386719 177.785156 L 36.675781 177.785156 L 36.675781 179.335938 L 35.386719 179.335938 Z M 35.386719 177.785156 "/>
<path style=" stroke:none;fill-rule:nonzero;fill:rgb(0%,0%,0%);fill-opacity:1;" d="M 41.996094 171.035156 C 41.363281 171.035156 40.886719 171.347656 40.566406 171.972656 C 40.246094 172.597656 40.085938 173.535156 40.085938 174.789062 C 40.085938 176.039062 40.246094 176.976562 40.566406 177.601562 C 40.886719 178.226562 41.363281 178.539062 41.996094 178.539062 C 42.636719 178.539062 43.113281 178.226562 43.433594 177.601562 C 43.753906 176.976562 43.914062 176.039062 43.914062 174.789062 C 43.914062 173.535156 43.753906 172.597656 43.433594 171.972656 C 43.113281 171.347656 42.636719 171.035156 41.996094 171.035156 Z M 41.996094 170.058594 C 43.019531 170.058594 43.800781 170.464844 44.339844 171.273438 C 44.878906 172.078125 45.148438 173.253906 45.148438 174.789062 C 45.148438 176.324219 44.878906 177.496094 44.339844 178.304688 C 43.800781 179.109375 43.019531 179.515625 41.996094 179.515625 C 40.976562 179.515625 40.195312 179.109375 39.65625 178.304688 C 39.117188 177.496094 38.847656 176.324219 38.847656 174.789062 C 38.847656 173.253906 39.117188 172.078125 39.65625 171.273438 C 40.195312 170.464844 40.976562 170.058594 41.996094 170.058594 Z M 41.996094 170.058594 "/>
<g clip-path="url(#clip5)" clip-rule="nonzero">
<path style="fill:none;stroke-width:0.8;stroke-linecap:square;stroke-linejoin:round;stroke:rgb(69.019608%,69.019608%,69.019608%);stroke-opacity:1;stroke-miterlimit:4;" d="M 43.78125 114.4 L 239.08125 114.4 " transform="matrix(1.25,0,0,1.25,0,0)"/>
</g>
<path style="fill:none;stroke-width:0.8;stroke-linecap:butt;stroke-linejoin:round;stroke:rgb(0%,0%,0%);stroke-opacity:1;stroke-miterlimit:4;" d="M 0 -0.001197 L -3.5 -0.001197 " transform="matrix(1.25,0,0,1.25,54.726562,143.001496)"/>
<path style=" stroke:none;fill-rule:nonzero;fill:rgb(0%,0%,0%);fill-opacity:1;" d="M 30.070312 139.449219 C 29.4375 139.449219 28.960938 139.761719 28.640625 140.386719 C 28.320312 141.011719 28.160156 141.949219 28.160156 143.203125 C 28.160156 144.453125 28.320312 145.390625 28.640625 146.015625 C 28.960938 146.640625 29.4375 146.953125 30.070312 146.953125 C 30.710938 146.953125 31.1875 146.640625 31.507812 146.015625 C 31.828125 145.390625 31.988281 144.453125 31.988281 143.203125 C 31.988281 141.949219 31.828125 141.011719 31.507812 140.386719 C 31.1875 139.761719 30.710938 139.449219 30.070312 139.449219 Z M 30.070312 138.472656 C 31.09375 138.472656 31.875 138.878906 32.414062 139.6875 C 32.953125 140.492188 33.21875 141.664062 33.21875 143.203125 C 33.21875 144.738281 32.953125 145.910156 32.414062 146.71875 C 31.875 147.523438 31.09375 147.929688 30.070312 147.929688 C 29.050781 147.929688 28.269531 147.523438 27.730469 146.71875 C 27.191406 145.910156 26.921875 144.738281 26.921875 143.203125 C 26.921875 141.664062 27.191406 140.492188 27.730469 139.6875 C 28.269531 138.878906 29.050781 138.472656 30.070312 138.472656 Z M 30.070312 138.472656 "/>
<path style=" stroke:none;fill-rule:nonzero;fill:rgb(0%,0%,0%);fill-opacity:1;" d="M 35.386719 146.199219 L 36.675781 146.199219 L 36.675781 147.75 L 35.386719 147.75 Z M 35.386719 146.199219 "/>
<path style=" stroke:none;fill-rule:nonzero;fill:rgb(0%,0%,0%);fill-opacity:1;" d="M 40.421875 146.714844 L 44.726562 146.714844 L 44.726562 147.75 L 38.941406 147.75 L 38.941406 146.714844 C 39.40625 146.230469 40.042969 145.578125 40.851562 144.765625 C 41.660156 143.949219 42.167969 143.421875 42.375 143.183594 C 42.769531 142.742188 43.046875 142.367188 43.203125 142.058594 C 43.359375 141.75 43.4375 141.449219 43.4375 141.152344 C 43.4375 140.667969 43.269531 140.273438 42.929688 139.96875 C 42.589844 139.664062 42.144531 139.511719 41.601562 139.511719 C 41.214844 139.511719 40.804688 139.578125 40.375 139.710938 C 39.945312 139.84375 39.488281 140.050781 39 140.324219 L 39 139.078125 C 39.496094 138.878906 39.960938 138.726562 40.390625 138.625 C 40.824219 138.523438 41.21875 138.472656 41.578125 138.472656 C 42.519531 138.472656 43.273438 138.710938 43.835938 139.183594 C 44.394531 139.652344 44.675781 140.285156 44.675781 141.074219 C 44.675781 141.449219 44.605469 141.804688 44.464844 142.140625 C 44.324219 142.472656 44.070312 142.867188 43.699219 143.324219 C 43.597656 143.441406 43.273438 143.785156 42.730469 144.347656 C 42.183594 144.910156 41.414062 145.699219 40.421875 146.714844 Z M 40.421875 146.714844 "/>
<g clip-path="url(#clip6)" clip-rule="nonzero">
<path style="fill:none;stroke-width:0.8;stroke-linecap:square;stroke-linejoin:round;stroke:rgb(69.019608%,69.019608%,69.019608%);stroke-opacity:1;stroke-miterlimit:4;" d="M 43.78125 89.13125 L 239.08125 89.13125 " transform="matrix(1.25,0,0,1.25,0,0)"/>
</g>
<path style="fill:none;stroke-width:0.8;stroke-linecap:butt;stroke-linejoin:round;stroke:rgb(0%,0%,0%);stroke-opacity:1;stroke-miterlimit:4;" d="M 0 -0.000588 L -3.5 -0.000588 " transform="matrix(1.25,0,0,1.25,54.726562,111.414798)"/>
<path style=" stroke:none;fill-rule:nonzero;fill:rgb(0%,0%,0%);fill-opacity:1;" d="M 30.070312 107.863281 C 29.4375 107.863281 28.960938 108.175781 28.640625 108.800781 C 28.320312 109.425781 28.160156 110.363281 28.160156 111.617188 C 28.160156 112.867188 28.320312 113.800781 28.640625 114.425781 C 28.960938 115.050781 29.4375 115.363281 30.070312 115.363281 C 30.710938 115.363281 31.1875 115.050781 31.507812 114.425781 C 31.828125 113.800781 31.988281 112.867188 31.988281 111.617188 C 31.988281 110.363281 31.828125 109.425781 31.507812 108.800781 C 31.1875 108.175781 30.710938 107.863281 30.070312 107.863281 Z M 30.070312 106.886719 C 31.09375 106.886719 31.875 107.289062 32.414062 108.097656 C 32.953125 108.90625 33.21875 110.078125 33.21875 111.617188 C 33.21875 113.152344 32.953125 114.320312 32.414062 115.128906 C 31.875 115.9375 31.09375 116.339844 30.070312 116.339844 C 29.050781 116.339844 28.269531 115.9375 27.730469 115.128906 C 27.191406 114.320312 26.921875 113.152344 26.921875 111.617188 C 26.921875 110.078125 27.191406 108.90625 27.730469 108.097656 C 28.269531 107.289062 29.050781 106.886719 30.070312 106.886719 Z M 30.070312 106.886719 "/>
<path style=" stroke:none;fill-rule:nonzero;fill:rgb(0%,0%,0%);fill-opacity:1;" d="M 35.386719 114.613281 L 36.675781 114.613281 L 36.675781 116.164062 L 35.386719 116.164062 Z M 35.386719 114.613281 "/>
<path style=" stroke:none;fill-rule:nonzero;fill:rgb(0%,0%,0%);fill-opacity:1;" d="M 42.75 108.125 L 39.636719 112.988281 L 42.75 112.988281 Z M 42.425781 107.050781 L 43.976562 107.050781 L 43.976562 112.988281 L 45.277344 112.988281 L 45.277344 114.015625 L 43.976562 114.015625 L 43.976562 116.164062 L 42.75 116.164062 L 42.75 114.015625 L 38.636719 114.015625 L 38.636719 112.824219 Z M 42.425781 107.050781 "/>
<g clip-path="url(#clip7)" clip-rule="nonzero">
<path style="fill:none;stroke-width:0.8;stroke-linecap:square;stroke-linejoin:round;stroke:rgb(69.019608%,69.019608%,69.019608%);stroke-opacity:1;stroke-miterlimit:4;" d="M 43.78125 63.8625 L 239.08125 63.8625 " transform="matrix(1.25,0,0,1.25,0,0)"/>
</g>
<path style="fill:none;stroke-width:0.8;stroke-linecap:butt;stroke-linejoin:round;stroke:rgb(0%,0%,0%);stroke-opacity:1;stroke-miterlimit:4;" d="M 0 0.00002 L -3.5 0.00002 " transform="matrix(1.25,0,0,1.25,54.726562,79.8281)"/>
<path style=" stroke:none;fill-rule:nonzero;fill:rgb(0%,0%,0%);fill-opacity:1;" d="M 30.070312 76.277344 C 29.4375 76.277344 28.960938 76.589844 28.640625 77.214844 C 28.320312 77.835938 28.160156 78.777344 28.160156 80.03125 C 28.160156 81.277344 28.320312 82.214844 28.640625 82.839844 C 28.960938 83.464844 29.4375 83.777344 30.070312 83.777344 C 30.710938 83.777344 31.1875 83.464844 31.507812 82.839844 C 31.828125 82.214844 31.988281 81.277344 31.988281 80.03125 C 31.988281 78.777344 31.828125 77.835938 31.507812 77.214844 C 31.1875 76.589844 30.710938 76.277344 30.070312 76.277344 Z M 30.070312 75.300781 C 31.09375 75.300781 31.875 75.703125 32.414062 76.511719 C 32.953125 77.320312 33.21875 78.492188 33.21875 80.03125 C 33.21875 81.5625 32.953125 82.734375 32.414062 83.542969 C 31.875 84.351562 31.09375 84.753906 30.070312 84.753906 C 29.050781 84.753906 28.269531 84.351562 27.730469 83.542969 C 27.191406 82.734375 26.921875 81.5625 26.921875 80.03125 C 26.921875 78.492188 27.191406 77.320312 27.730469 76.511719 C 28.269531 75.703125 29.050781 75.300781 30.070312 75.300781 Z M 30.070312 75.300781 "/>
<path style=" stroke:none;fill-rule:nonzero;fill:rgb(0%,0%,0%);fill-opacity:1;" d="M 35.386719 83.027344 L 36.675781 83.027344 L 36.675781 84.578125 L 35.386719 84.578125 Z M 35.386719 83.027344 "/>
<path style=" stroke:none;fill-rule:nonzero;fill:rgb(0%,0%,0%);fill-opacity:1;" d="M 42.152344 79.53125 C 41.597656 79.53125 41.160156 79.71875 40.835938 80.097656 C 40.511719 80.476562 40.351562 80.996094 40.351562 81.652344 C 40.351562 82.308594 40.511719 82.828125 40.835938 83.207031 C 41.160156 83.589844 41.597656 83.777344 42.152344 83.777344 C 42.703125 83.777344 43.140625 83.589844 43.464844 83.207031 C 43.789062 82.828125 43.949219 82.308594 43.949219 81.652344 C 43.949219 80.996094 43.789062 80.476562 43.464844 80.097656 C 43.140625 79.71875 42.703125 79.53125 42.152344 79.53125 Z M 44.597656 75.664062 L 44.597656 76.789062 C 44.289062 76.640625 43.976562 76.53125 43.660156 76.453125 C 43.34375 76.375 43.03125 76.335938 42.722656 76.335938 C 41.910156 76.335938 41.289062 76.613281 40.859375 77.160156 C 40.429688 77.710938 40.183594 78.539062 40.125 79.652344 C 40.363281 79.296875 40.664062 79.027344 41.027344 78.835938 C 41.390625 78.648438 41.789062 78.554688 42.222656 78.554688 C 43.136719 78.554688 43.863281 78.832031 44.394531 79.386719 C 44.925781 79.941406 45.191406 80.699219 45.191406 81.652344 C 45.191406 82.589844 44.914062 83.339844 44.359375 83.90625 C 43.804688 84.472656 43.070312 84.753906 42.152344 84.753906 C 41.097656 84.753906 40.289062 84.351562 39.734375 83.542969 C 39.175781 82.734375 38.898438 81.5625 38.898438 80.03125 C 38.898438 78.589844 39.238281 77.441406 39.921875 76.585938 C 40.605469 75.726562 41.523438 75.300781 42.675781 75.300781 C 42.984375 75.300781 43.296875 75.332031 43.613281 75.390625 C 43.925781 75.453125 44.253906 75.542969 44.597656 75.664062 Z M 44.597656 75.664062 "/>
<g clip-path="url(#clip8)" clip-rule="nonzero">
<path style="fill:none;stroke-width:0.8;stroke-linecap:square;stroke-linejoin:round;stroke:rgb(69.019608%,69.019608%,69.019608%);stroke-opacity:1;stroke-miterlimit:4;" d="M 43.78125 38.59375 L 239.08125 38.59375 " transform="matrix(1.25,0,0,1.25,0,0)"/>
</g>
<path style="fill:none;stroke-width:0.8;stroke-linecap:butt;stroke-linejoin:round;stroke:rgb(0%,0%,0%);stroke-opacity:1;stroke-miterlimit:4;" d="M 0 0.000629 L -3.5 0.000629 " transform="matrix(1.25,0,0,1.25,54.726562,48.241401)"/>
<path style=" stroke:none;fill-rule:nonzero;fill:rgb(0%,0%,0%);fill-opacity:1;" d="M 30.070312 44.691406 C 29.4375 44.691406 28.960938 45.003906 28.640625 45.628906 C 28.320312 46.25 28.160156 47.191406 28.160156 48.445312 C 28.160156 49.691406 28.320312 50.628906 28.640625 51.253906 C 28.960938 51.878906 29.4375 52.191406 30.070312 52.191406 C 30.710938 52.191406 31.1875 51.878906 31.507812 51.253906 C 31.828125 50.628906 31.988281 49.691406 31.988281 48.445312 C 31.988281 47.191406 31.828125 46.25 31.507812 45.628906 C 31.1875 45.003906 30.710938 44.691406 30.070312 44.691406 Z M 30.070312 43.714844 C 31.09375 43.714844 31.875 44.117188 32.414062 44.925781 C 32.953125 45.734375 33.21875 46.90625 33.21875 48.445312 C 33.21875 49.976562 32.953125 51.148438 32.414062 51.957031 C 31.875 52.765625 31.09375 53.167969 30.070312 53.167969 C 29.050781 53.167969 28.269531 52.765625 27.730469 51.957031 C 27.191406 51.148438 26.921875 49.976562 26.921875 48.445312 C 26.921875 46.90625 27.191406 45.734375 27.730469 44.925781 C 28.269531 44.117188 29.050781 43.714844 30.070312 43.714844 Z M 30.070312 43.714844 "/>
<path style=" stroke:none;fill-rule:nonzero;fill:rgb(0%,0%,0%);fill-opacity:1;" d="M 35.386719 51.441406 L 36.675781 51.441406 L 36.675781 52.992188 L 35.386719 52.992188 Z M 35.386719 51.441406 "/>
<path style=" stroke:none;fill-rule:nonzero;fill:rgb(0%,0%,0%);fill-opacity:1;" d="M 41.996094 48.664062 C 41.410156 48.664062 40.949219 48.820312 40.613281 49.132812 C 40.277344 49.445312 40.113281 49.878906 40.113281 50.425781 C 40.113281 50.976562 40.277344 51.40625 40.613281 51.722656 C 40.949219 52.035156 41.410156 52.191406 41.996094 52.191406 C 42.582031 52.191406 43.042969 52.035156 43.382812 51.71875 C 43.71875 51.402344 43.890625 50.972656 43.890625 50.425781 C 43.890625 49.878906 43.722656 49.445312 43.386719 49.132812 C 43.050781 48.820312 42.585938 48.664062 41.996094 48.664062 Z M 40.765625 48.140625 C 40.234375 48.007812 39.824219 47.761719 39.527344 47.402344 C 39.234375 47.039062 39.085938 46.59375 39.085938 46.074219 C 39.085938 45.347656 39.34375 44.769531 39.863281 44.347656 C 40.382812 43.925781 41.09375 43.714844 41.996094 43.714844 C 42.902344 43.714844 43.617188 43.925781 44.132812 44.347656 C 44.648438 44.769531 44.910156 45.347656 44.910156 46.074219 C 44.910156 46.59375 44.761719 47.039062 44.464844 47.402344 C 44.171875 47.761719 43.761719 48.007812 43.238281 48.140625 C 43.832031 48.277344 44.292969 48.546875 44.625 48.953125 C 44.957031 49.355469 45.121094 49.84375 45.121094 50.425781 C 45.121094 51.308594 44.851562 51.988281 44.3125 52.460938 C 43.773438 52.933594 43 53.167969 41.996094 53.167969 C 40.992188 53.167969 40.21875 52.933594 39.679688 52.460938 C 39.140625 51.988281 38.871094 51.308594 38.871094 50.425781 C 38.871094 49.84375 39.039062 49.355469 39.371094 48.953125 C 39.707031 48.546875 40.171875 48.277344 40.765625 48.140625 Z M 40.3125 46.191406 C 40.3125 46.664062 40.460938 47.03125 40.753906 47.296875 C 41.050781 47.558594 41.464844 47.691406 41.996094 47.691406 C 42.527344 47.691406 42.941406 47.558594 43.238281 47.296875 C 43.539062 47.03125 43.6875 46.664062 43.6875 46.191406 C 43.6875 45.71875 43.539062 45.351562 43.238281 45.085938 C 42.941406 44.820312 42.527344 44.691406 41.996094 44.691406 C 41.464844 44.691406 41.050781 44.820312 40.753906 45.085938 C 40.460938 45.351562 40.3125 45.71875 40.3125 46.191406 Z M 40.3125 46.191406 "/>
<g clip-path="url(#clip9)" clip-rule="nonzero">
<path style="fill:none;stroke-width:0.8;stroke-linecap:square;stroke-linejoin:round;stroke:rgb(69.019608%,69.019608%,69.019608%);stroke-opacity:1;stroke-miterlimit:4;" d="M 43.78125 13.325 L 239.08125 13.325 " transform="matrix(1.25,0,0,1.25,0,0)"/>
</g>
<path style="fill:none;stroke-width:0.8;stroke-linecap:butt;stroke-linejoin:round;stroke:rgb(0%,0%,0%);stroke-opacity:1;stroke-miterlimit:4;" d="M 0 0.001237 L -3.5 0.001237 " transform="matrix(1.25,0,0,1.25,54.726562,16.654704)"/>
<path style=" stroke:none;fill-rule:nonzero;fill:rgb(0%,0%,0%);fill-opacity:1;" d="M 27.648438 20.367188 L 29.664062 20.367188 L 29.664062 13.414062 L 27.46875 13.851562 L 27.46875 12.730469 L 29.648438 12.289062 L 30.882812 12.289062 L 30.882812 20.367188 L 32.898438 20.367188 L 32.898438 21.402344 L 27.648438 21.402344 Z M 27.648438 20.367188 "/>
<path style=" stroke:none;fill-rule:nonzero;fill:rgb(0%,0%,0%);fill-opacity:1;" d="M 35.386719 19.851562 L 36.675781 19.851562 L 36.675781 21.402344 L 35.386719 21.402344 Z M 35.386719 19.851562 "/>
<path style=" stroke:none;fill-rule:nonzero;fill:rgb(0%,0%,0%);fill-opacity:1;" d="M 41.996094 13.101562 C 41.363281 13.101562 40.886719 13.414062 40.566406 14.039062 C 40.246094 14.664062 40.085938 15.601562 40.085938 16.855469 C 40.085938 18.105469 40.246094 19.042969 40.566406 19.667969 C 40.886719 20.292969 41.363281 20.605469 41.996094 20.605469 C 42.636719 20.605469 43.113281 20.292969 43.433594 19.667969 C 43.753906 19.042969 43.914062 18.105469 43.914062 16.855469 C 43.914062 15.601562 43.753906 14.664062 43.433594 14.039062 C 43.113281 13.414062 42.636719 13.101562 41.996094 13.101562 Z M 41.996094 12.125 C 43.019531 12.125 43.800781 12.53125 44.339844 13.339844 C 44.878906 14.148438 45.148438 15.320312 45.148438 16.855469 C 45.148438 18.390625 44.878906 19.5625 44.339844 20.371094 C 43.800781 21.179688 43.019531 21.582031 41.996094 21.582031 C 40.976562 21.582031 40.195312 21.179688 39.65625 20.371094 C 39.117188 19.5625 38.847656 18.390625 38.847656 16.855469 C 38.847656 15.320312 39.117188 14.148438 39.65625 13.339844 C 40.195312 12.53125 40.976562 12.125 41.996094 12.125 Z M 41.996094 12.125 "/>
<path style=" stroke:none;fill-rule:nonzero;fill:rgb(0%,0%,0%);fill-opacity:1;" d="M 11.921875 104.636719 L 12.972656 104.636719 C 12.796875 104.957031 12.667969 105.273438 12.578125 105.59375 C 12.492188 105.910156 12.449219 106.234375 12.449219 106.558594 C 12.449219 107.289062 12.679688 107.855469 13.140625 108.257812 C 13.601562 108.660156 14.25 108.863281 15.085938 108.863281 C 15.921875 108.863281 16.570312 108.660156 17.03125 108.257812 C 17.492188 107.855469 17.722656 107.289062 17.722656 106.558594 C 17.722656 106.234375 17.679688 105.910156 17.589844 105.59375 C 17.503906 105.273438 17.371094 104.957031 17.195312 104.636719 L 18.234375 104.636719 C 18.382812 104.953125 18.492188 105.277344 18.5625 105.613281 C 18.636719 105.945312 18.675781 106.304688 18.675781 106.683594 C 18.675781 107.710938 18.351562 108.53125 17.703125 109.136719 C 17.058594 109.742188 16.183594 110.046875 15.085938 110.046875 C 13.972656 110.046875 13.09375 109.738281 12.457031 109.128906 C 11.816406 108.515625 11.496094 107.675781 11.496094 106.609375 C 11.496094 106.261719 11.535156 105.925781 11.605469 105.597656 C 11.675781 105.265625 11.78125 104.949219 11.921875 104.636719 Z M 11.921875 104.636719 "/>
<path style=" stroke:none;fill-rule:nonzero;fill:rgb(0%,0%,0%);fill-opacity:1;" d="M 16.945312 102.527344 L 16.945312 101.238281 L 18.496094 101.238281 L 18.496094 102.527344 Z M 16.945312 102.527344 "/>
<path style=" stroke:none;fill-rule:nonzero;fill:rgb(0%,0%,0%);fill-opacity:1;" d="M 12.699219 94.214844 L 9 94.214844 L 9 93.089844 L 18.496094 93.089844 L 18.496094 94.214844 L 17.472656 94.214844 C 17.878906 94.449219 18.179688 94.746094 18.378906 95.109375 C 18.578125 95.46875 18.675781 95.898438 18.675781 96.40625 C 18.675781 97.230469 18.347656 97.902344 17.6875 98.421875 C 17.027344 98.941406 16.160156 99.199219 15.085938 99.199219 C 14.011719 99.199219 13.144531 98.941406 12.484375 98.421875 C 11.828125 97.902344 11.496094 97.230469 11.496094 96.40625 C 11.496094 95.898438 11.597656 95.46875 11.792969 95.109375 C 11.992188 94.746094 12.292969 94.449219 12.699219 94.214844 Z M 15.085938 98.039062 C 15.910156 98.039062 16.558594 97.871094 17.027344 97.53125 C 17.5 97.191406 17.734375 96.722656 17.734375 96.128906 C 17.734375 95.535156 17.5 95.070312 17.027344 94.726562 C 16.558594 94.386719 15.910156 94.214844 15.085938 94.214844 C 14.261719 94.214844 13.613281 94.386719 13.140625 94.726562 C 12.671875 95.070312 12.4375 95.535156 12.4375 96.128906 C 12.4375 96.722656 12.671875 97.191406 13.140625 97.53125 C 13.613281 97.871094 14.261719 98.039062 15.085938 98.039062 Z M 15.085938 98.039062 "/>
<path style=" stroke:none;fill-rule:nonzero;fill:rgb(0%,0%,0%);fill-opacity:1;" d="M 16.945312 90.617188 L 16.945312 89.328125 L 18.496094 89.328125 L 18.496094 90.617188 Z M 16.945312 90.617188 "/>
<path style=" stroke:none;fill-rule:nonzero;fill:rgb(0%,0%,0%);fill-opacity:1;" d="M 9 83.34375 L 9.933594 83.34375 L 9.933594 84.417969 C 9.933594 84.820312 10.015625 85.097656 10.179688 85.257812 C 10.34375 85.414062 10.636719 85.492188 11.058594 85.492188 L 11.660156 85.492188 L 11.660156 83.640625 L 12.535156 83.640625 L 12.535156 85.492188 L 18.496094 85.492188 L 18.496094 86.621094 L 12.535156 86.621094 L 12.535156 87.695312 L 11.660156 87.695312 L 11.660156 86.621094 L 11.183594 86.621094 C 10.425781 86.621094 9.871094 86.441406 9.523438 86.089844 C 9.175781 85.734375 9 85.171875 9 84.40625 Z M 9 83.34375 "/>
<path style=" stroke:none;fill-rule:nonzero;fill:rgb(0%,0%,0%);fill-opacity:1;" d="M 16.945312 83.152344 L 16.945312 81.863281 L 18.496094 81.863281 L 18.496094 83.152344 Z M 16.945312 83.152344 "/>
<path style="fill:none;stroke-width:1.5;stroke-linecap:square;stroke-linejoin:round;stroke:rgb(12.156863%,46.666667%,70.588235%);stroke-opacity:1;stroke-miterlimit:4;" d="M 52.659375 139.5 L 61.846875 139.21875 L 68.665625 138.79375 L 74 138.24375 L 78.446875 137.575 L 82.59375 136.728125 L 86.153125 135.7875 L 89.709375 134.609375 L 92.96875 133.290625 L 95.934375 131.865625 L 98.896875 130.203125 L 101.8625 128.284375 L 104.825 126.090625 L 107.790625 123.60625 L 110.753125 120.821875 L 113.71875 117.734375 L 116.68125 114.34375 L 119.940625 110.26875 L 123.5 105.440625 L 127.353125 99.79375 L 131.503125 93.309375 L 136.8375 84.528125 L 153.140625 57.325 L 157.2875 50.98125 L 161.140625 45.49375 L 164.7 40.828125 L 167.959375 36.915625 L 171.21875 33.36875 L 174.184375 30.465625 L 177.146875 27.8625 L 180.1125 25.553125 L 183.075 23.528125 L 186.040625 21.765625 L 189.003125 20.246875 L 192.265625 18.8375 L 195.525 17.66875 L 199.08125 16.63125 L 202.934375 15.753125 L 207.084375 15.0375 L 211.828125 14.446875 L 217.459375 13.984375 L 224.275 13.65625 L 230.203125 13.5 " transform="matrix(1.25,0,0,1.25,0,0)"/>
<path style="fill:none;stroke-width:0.8;stroke-linecap:square;stroke-linejoin:miter;stroke:rgb(0%,0%,0%);stroke-opacity:1;stroke-miterlimit:4;" d="M 43.78125 145.8 L 43.78125 7.2 " transform="matrix(1.25,0,0,1.25,0,0)"/>
<path style="fill:none;stroke-width:0.8;stroke-linecap:square;stroke-linejoin:miter;stroke:rgb(0%,0%,0%);stroke-opacity:1;stroke-miterlimit:4;" d="M 239.08125 145.8 L 239.08125 7.2 " transform="matrix(1.25,0,0,1.25,0,0)"/>
<path style="fill:none;stroke-width:0.8;stroke-linecap:square;stroke-linejoin:miter;stroke:rgb(0%,0%,0%);stroke-opacity:1;stroke-miterlimit:4;" d="M 43.78125 145.8 L 239.08125 145.8 " transform="matrix(1.25,0,0,1.25,0,0)"/>
<path style="fill:none;stroke-width:0.8;stroke-linecap:square;stroke-linejoin:miter;stroke:rgb(0%,0%,0%);stroke-opacity:1;stroke-miterlimit:4;" d="M 43.78125 7.2 L 239.08125 7.2 " transform="matrix(1.25,0,0,1.25,0,0)"/>
</g>
</svg>
