<?xml version="1.0" encoding="UTF-8"?>
<svg xmlns="http://www.w3.org/2000/svg" xmlns:xlink="http://www.w3.org/1999/xlink" width="291pt" height="212pt" viewBox="0 0 291 212" version="1.1">
<g id="surface1">
<path style=" stroke:none;fill-rule:nonzero;fill:rgb(100%,100%,100%);fill-opacity:1;" d="M 0 212.097656 L 290.753906 212.097656 L 290.753906 0 L 0 0 Z M 0 212.097656 "/>
<path style=" stroke:none;fill-rule:nonzero;fill:rgb(100%,100%,100%);fill-opacity:1;" d="M 37.628906 182.25 L 281.753906 182.25 L 281.753906 9 L 37.628906 9 Z M 37.628906 182.25 "/>
<path style=" stroke:none;fill-rule:nonzero;fill:rgb(12.156863%,46.666667%,70.588235%);fill-opacity:1;" d="M 115.371094 174.375 L 115.371094 78.855469 L 115.59375 77.898438 L 115.816406 76.945312 L 116.039062 75.988281 L 116.484375 74.082031 L 116.703125 73.128906 L 117.371094 70.28125 L 117.816406 68.390625 L 118.039062 67.449219 L 118.257812 66.507812 L 118.480469 65.570312 L 118.703125 64.636719 L 119.148438 62.777344 L 119.371094 61.851562 L 119.816406 60.015625 L 120.035156 59.101562 L 120.480469 57.289062 L 120.703125 56.390625 L 120.925781 55.496094 L 121.148438 54.609375 L 121.371094 53.726562 L 121.59375 52.847656 L 121.8125 51.976562 L 122.035156 51.109375 L 122.257812 50.25 L 122.480469 49.394531 L 122.703125 48.550781 L 122.925781 47.710938 L 123.148438 46.878906 L 123.371094 46.050781 L 123.589844 45.234375 L 123.8125 44.425781 L 124.035156 43.625 L 124.257812 42.828125 L 124.480469 42.042969 L 124.703125 41.269531 L 124.925781 40.5 L 125.144531 39.742188 L 125.367188 38.992188 L 125.589844 38.253906 L 125.8125 37.523438 L 126.035156 36.800781 L 126.257812 36.09375 L 126.480469 35.390625 L 126.703125 34.703125 L 126.921875 34.023438 L 127.144531 33.355469 L 127.367188 32.699219 L 127.589844 32.050781 L 127.8125 31.417969 L 128.035156 30.792969 L 128.257812 30.179688 L 128.480469 29.582031 L 128.699219 28.992188 L 128.921875 28.417969 L 129.144531 27.855469 L 129.367188 27.304688 L 129.589844 26.765625 L 129.8125 26.242188 L 130.035156 25.730469 L 130.257812 25.230469 L 130.476562 24.746094 L 130.699219 24.273438 L 130.921875 23.8125 L 131.144531 23.371094 L 131.367188 22.9375 L 131.589844 22.519531 L 131.8125 22.117188 L 132.035156 21.730469 L 132.253906 21.355469 L 132.476562 20.992188 L 132.699219 20.648438 L 132.921875 20.316406 L 133.144531 20 L 133.367188 19.699219 L 133.589844 19.414062 L 133.808594 19.140625 L 134.03125 18.882812 L 134.253906 18.644531 L 134.476562 18.417969 L 134.699219 18.207031 L 134.921875 18.011719 L 135.144531 17.828125 L 135.367188 17.664062 L 135.585938 17.515625 L 135.808594 17.382812 L 136.03125 17.261719 L 136.253906 17.160156 L 136.476562 17.074219 L 136.699219 17.003906 L 136.921875 16.949219 L 137.144531 16.90625 L 137.363281 16.882812 L 137.585938 16.875 L 137.808594 16.882812 L 138.03125 16.90625 L 138.253906 16.945312 L 138.476562 17 L 138.699219 17.070312 L 138.921875 17.15625 L 139.140625 17.257812 L 139.363281 17.375 L 139.585938 17.507812 L 139.808594 17.652344 L 140.03125 17.816406 L 140.253906 17.996094 L 140.476562 18.191406 L 140.695312 18.402344 L 140.917969 18.625 L 141.140625 18.867188 L 141.363281 19.121094 L 141.585938 19.390625 L 141.808594 19.675781 L 142.03125 19.976562 L 142.253906 20.292969 L 142.472656 20.621094 L 142.695312 20.96875 L 142.917969 21.324219 L 143.140625 21.699219 L 143.363281 22.085938 L 143.585938 22.488281 L 143.808594 22.902344 L 144.03125 23.332031 L 144.25 23.777344 L 144.472656 24.234375 L 144.695312 24.703125 L 144.917969 25.1875 L 145.140625 25.683594 L 145.363281 26.195312 L 145.585938 26.71875 L 145.808594 27.253906 L 146.027344 27.800781 L 146.25 28.363281 L 146.472656 28.9375 L 146.695312 29.519531 L 146.917969 30.117188 L 147.140625 30.726562 L 147.363281 31.347656 L 147.585938 31.980469 L 147.804688 32.625 L 148.027344 33.277344 L 148.25 33.945312 L 148.472656 34.621094 L 148.695312 35.308594 L 148.917969 36.003906 L 149.140625 36.710938 L 149.359375 37.429688 L 149.582031 38.15625 L 149.804688 38.890625 L 150.027344 39.636719 L 150.25 40.390625 L 150.472656 41.15625 L 150.695312 41.929688 L 150.917969 42.710938 L 151.136719 43.5 L 151.359375 44.296875 L 151.582031 45.101562 L 151.804688 45.914062 L 152.027344 46.734375 L 152.25 47.5625 L 152.472656 48.394531 L 152.695312 49.238281 L 152.914062 50.085938 L 153.136719 50.9375 L 153.582031 52.664062 L 154.027344 54.414062 L 154.25 55.296875 L 154.472656 56.183594 L 154.691406 57.078125 L 154.914062 57.972656 L 155.136719 58.875 L 155.359375 59.78125 L 155.804688 61.601562 L 156.027344 62.519531 L 156.246094 63.4375 L 156.914062 66.214844 L 157.136719 67.144531 L 157.582031 69.011719 L 157.804688 69.949219 L 158.023438 70.886719 L 158.246094 71.824219 L 159.359375 76.53125 L 159.582031 77.476562 L 159.800781 78.417969 L 160.46875 81.242188 L 161.359375 84.992188 L 161.578125 85.925781 L 161.800781 86.859375 L 162.023438 87.789062 L 162.46875 89.640625 L 162.914062 91.484375 L 163.136719 92.402344 L 163.355469 93.316406 L 163.578125 94.226562 L 163.800781 95.132812 L 164.246094 96.9375 L 164.691406 98.726562 L 164.910156 99.613281 L 165.132812 100.496094 L 165.355469 101.375 L 165.578125 102.25 L 166.023438 103.984375 L 166.246094 104.84375 L 166.46875 105.695312 L 166.6875 106.546875 L 166.910156 107.390625 L 167.132812 108.226562 L 167.355469 109.058594 L 167.578125 109.886719 L 167.800781 110.707031 L 168.023438 111.519531 L 168.246094 112.328125 L 168.464844 113.132812 L 168.6875 113.929688 L 168.910156 114.71875 L 169.132812 115.5 L 169.355469 116.277344 L 169.578125 117.046875 L 169.800781 117.808594 L 170.023438 118.5625 L 170.242188 119.3125 L 170.464844 120.054688 L 170.6875 120.789062 L 170.910156 121.515625 L 171.132812 122.238281 L 171.355469 122.949219 L 171.578125 123.65625 L 171.796875 124.351562 L 172.019531 125.042969 L 172.242188 125.726562 L 172.464844 126.398438 L 172.6875 127.066406 L 172.910156 127.726562 L 173.132812 128.378906 L 173.355469 129.019531 L 173.574219 129.65625 L 173.796875 130.285156 L 174.019531 130.90625 L 174.242188 131.515625 L 174.464844 132.121094 L 174.6875 132.714844 L 174.910156 133.300781 L 175.132812 133.882812 L 175.351562 134.453125 L 175.574219 135.015625 L 175.796875 135.570312 L 176.019531 136.117188 L 176.242188 136.652344 L 176.464844 137.183594 L 176.6875 137.707031 L 176.910156 138.21875 L 177.128906 138.722656 L 177.351562 139.21875 L 177.574219 139.707031 L 177.796875 140.1875 L 178.019531 140.660156 L 178.242188 141.121094 L 178.464844 141.578125 L 178.90625 142.460938 L 179.128906 142.890625 L 179.351562 143.3125 L 179.574219 143.726562 L 179.796875 144.132812 L 180.019531 144.527344 L 180.242188 144.917969 L 180.460938 145.296875 L 180.683594 145.671875 L 180.90625 146.035156 L 181.128906 146.390625 L 181.351562 146.738281 L 181.574219 147.078125 L 181.796875 147.410156 L 182.019531 147.734375 L 182.238281 148.046875 L 182.460938 148.355469 L 182.683594 148.65625 L 182.90625 148.949219 L 183.128906 149.230469 L 183.351562 149.507812 L 183.574219 149.777344 L 183.796875 150.039062 L 184.015625 150.289062 L 184.238281 150.535156 L 184.460938 150.773438 L 184.683594 151.003906 L 184.90625 151.226562 L 185.128906 151.441406 L 185.351562 151.648438 L 185.574219 151.851562 L 185.792969 152.042969 L 186.015625 152.230469 L 186.238281 152.40625 L 186.460938 152.578125 L 186.683594 152.742188 L 186.90625 152.902344 L 187.128906 153.050781 L 187.347656 153.195312 L 187.570312 153.332031 L 187.792969 153.460938 L 188.015625 153.582031 L 188.238281 153.699219 L 188.460938 153.808594 L 188.683594 153.910156 L 188.90625 154.007812 L 189.125 154.097656 L 189.347656 154.179688 L 189.570312 154.257812 L 189.792969 154.328125 L 190.015625 154.390625 L 190.238281 154.449219 L 190.460938 154.5 L 190.683594 154.546875 L 190.902344 154.585938 L 191.125 154.621094 L 191.347656 154.648438 L 191.570312 154.671875 L 191.792969 154.6875 L 192.015625 154.699219 L 192.238281 154.707031 L 192.460938 154.707031 L 192.679688 154.699219 L 192.902344 154.691406 L 193.347656 154.652344 L 193.570312 154.625 L 193.792969 154.59375 L 194.015625 154.558594 L 194.238281 154.515625 L 194.457031 154.46875 L 194.679688 154.417969 L 194.902344 154.363281 L 195.347656 154.238281 L 195.570312 154.167969 L 195.792969 154.09375 L 196.011719 154.015625 L 196.457031 153.84375 L 196.679688 153.753906 L 197.125 153.558594 L 197.347656 153.457031 L 197.570312 153.347656 L 197.789062 153.238281 L 198.011719 153.125 L 198.234375 153.007812 L 198.902344 152.632812 L 199.125 152.5 L 199.347656 152.363281 L 199.566406 152.226562 L 199.789062 152.085938 L 200.234375 151.796875 L 200.902344 151.339844 L 201.125 151.179688 L 201.34375 151.019531 L 201.566406 150.859375 L 202.234375 150.355469 L 202.679688 150.011719 L 202.898438 149.835938 L 203.121094 149.65625 L 203.34375 149.480469 L 204.234375 148.746094 L 204.457031 148.558594 L 204.675781 148.371094 L 205.566406 147.605469 L 206.234375 147.019531 L 206.453125 146.824219 L 206.675781 146.628906 L 206.898438 146.429688 L 207.121094 146.234375 L 207.566406 145.835938 L 207.789062 145.640625 L 208.011719 145.441406 L 208.230469 145.242188 L 208.898438 144.644531 L 209.121094 144.449219 L 209.566406 144.050781 L 209.789062 143.855469 L 210.007812 143.65625 L 210.453125 143.265625 L 210.675781 143.074219 L 210.898438 142.878906 L 211.121094 142.6875 L 211.34375 142.492188 L 211.5625 142.304688 L 211.785156 142.113281 L 212.453125 141.550781 L 212.898438 141.183594 L 213.121094 141.003906 L 213.339844 140.824219 L 213.5625 140.644531 L 214.007812 140.292969 L 214.453125 139.949219 L 214.898438 139.613281 L 215.117188 139.449219 L 215.339844 139.285156 L 215.785156 138.964844 L 216.007812 138.808594 L 216.453125 138.503906 L 216.675781 138.355469 L 216.894531 138.210938 L 217.117188 138.066406 L 217.339844 137.925781 L 217.785156 137.652344 L 218.007812 137.519531 L 218.230469 137.390625 L 218.449219 137.265625 L 218.671875 137.140625 L 218.894531 137.019531 L 219.117188 136.902344 L 219.5625 136.675781 L 219.785156 136.566406 L 220.007812 136.464844 L 220.226562 136.359375 L 220.449219 136.261719 L 220.894531 136.074219 L 221.339844 135.902344 L 221.5625 135.820312 L 221.785156 135.742188 L 222.003906 135.667969 L 222.449219 135.527344 L 222.671875 135.464844 L 223.117188 135.347656 L 223.5625 135.246094 L 223.78125 135.199219 L 224.226562 135.121094 L 224.449219 135.085938 L 224.671875 135.054688 L 225.117188 135.007812 L 225.339844 134.988281 L 225.558594 134.972656 L 225.78125 134.960938 L 226.003906 134.953125 L 226.226562 134.949219 L 226.226562 174.375 Z M 115.371094 174.375 "/>
<path style="fill:none;stroke-width:0.8;stroke-linecap:butt;stroke-linejoin:round;stroke:rgb(0%,0%,0%);stroke-opacity:1;stroke-miterlimit:4;" d="M 0.000409 0.000000000000028422 L 0.000409 3.5 " transform="matrix(1.25,0,0,1.25,70.940895,182.25)"/>
<path style=" stroke:none;fill-rule:nonzero;fill:rgb(0%,0%,0%);fill-opacity:1;" d="M 63.050781 196.0625 L 70.875 196.0625 L 70.875 197.097656 L 63.050781 197.097656 Z M 63.050781 196.0625 "/>
<path style=" stroke:none;fill-rule:nonzero;fill:rgb(0%,0%,0%);fill-opacity:1;" d="M 76.925781 192.460938 L 73.8125 197.324219 L 76.925781 197.324219 Z M 76.601562 191.386719 L 78.152344 191.386719 L 78.152344 197.324219 L 79.453125 197.324219 L 79.453125 198.351562 L 78.152344 198.351562 L 78.152344 200.5 L 76.925781 200.5 L 76.925781 198.351562 L 72.8125 198.351562 L 72.8125 197.160156 Z M 76.601562 191.386719 "/>
<path style="fill:none;stroke-width:0.8;stroke-linecap:butt;stroke-linejoin:round;stroke:rgb(0%,0%,0%);stroke-opacity:1;stroke-miterlimit:4;" d="M -0.000477 0.000000000000028422 L -0.000477 3.5 " transform="matrix(1.25,0,0,1.25,115.37169,182.25)"/>
<path style=" stroke:none;fill-rule:nonzero;fill:rgb(0%,0%,0%);fill-opacity:1;" d="M 107.480469 196.0625 L 115.304688 196.0625 L 115.304688 197.097656 L 107.480469 197.097656 Z M 107.480469 196.0625 "/>
<path style=" stroke:none;fill-rule:nonzero;fill:rgb(0%,0%,0%);fill-opacity:1;" d="M 119.03125 199.460938 L 123.332031 199.460938 L 123.332031 200.5 L 117.546875 200.5 L 117.546875 199.460938 C 118.015625 198.976562 118.652344 198.328125 119.460938 197.511719 C 120.269531 196.695312 120.777344 196.167969 120.984375 195.933594 C 121.378906 195.488281 121.652344 195.113281 121.808594 194.808594 C 121.964844 194.5 122.046875 194.199219 122.046875 193.902344 C 122.046875 193.417969 121.875 193.023438 121.535156 192.71875 C 121.195312 192.410156 120.753906 192.257812 120.207031 192.257812 C 119.820312 192.257812 119.414062 192.324219 118.984375 192.460938 C 118.554688 192.59375 118.097656 192.796875 117.609375 193.070312 L 117.609375 191.824219 C 118.105469 191.625 118.566406 191.476562 119 191.375 C 119.429688 191.273438 119.824219 191.222656 120.183594 191.222656 C 121.128906 191.222656 121.878906 191.457031 122.441406 191.929688 C 123.003906 192.402344 123.285156 193.03125 123.285156 193.820312 C 123.285156 194.195312 123.214844 194.550781 123.074219 194.886719 C 122.933594 195.222656 122.679688 195.617188 122.308594 196.074219 C 122.207031 196.191406 121.882812 196.53125 121.335938 197.097656 C 120.792969 197.660156 120.023438 198.449219 119.03125 199.460938 Z M 119.03125 199.460938 "/>
<path style="fill:none;stroke-width:0.8;stroke-linecap:butt;stroke-linejoin:round;stroke:rgb(0%,0%,0%);stroke-opacity:1;stroke-miterlimit:4;" d="M -0.001364 0.000000000000028422 L -0.001364 3.5 " transform="matrix(1.25,0,0,1.25,159.802486,182.25)"/>
<path style=" stroke:none;fill-rule:nonzero;fill:rgb(0%,0%,0%);fill-opacity:1;" d="M 159.796875 192.199219 C 159.164062 192.199219 158.6875 192.511719 158.367188 193.136719 C 158.046875 193.757812 157.886719 194.699219 157.886719 195.953125 C 157.886719 197.199219 158.046875 198.136719 158.367188 198.761719 C 158.6875 199.386719 159.164062 199.699219 159.796875 199.699219 C 160.4375 199.699219 160.917969 199.386719 161.234375 198.761719 C 161.554688 198.136719 161.714844 197.199219 161.714844 195.953125 C 161.714844 194.699219 161.554688 193.757812 161.234375 193.136719 C 160.917969 192.511719 160.4375 192.199219 159.796875 192.199219 Z M 159.796875 191.222656 C 160.820312 191.222656 161.601562 191.625 162.140625 192.433594 C 162.679688 193.242188 162.949219 194.414062 162.949219 195.953125 C 162.949219 197.484375 162.679688 198.65625 162.140625 199.464844 C 161.601562 200.273438 160.820312 200.675781 159.796875 200.675781 C 158.777344 200.675781 157.996094 200.273438 157.457031 199.464844 C 156.917969 198.65625 156.648438 197.484375 156.648438 195.953125 C 156.648438 194.414062 156.917969 193.242188 157.457031 192.433594 C 157.996094 191.625 158.777344 191.222656 159.796875 191.222656 Z M 159.796875 191.222656 "/>
<path style="fill:none;stroke-width:0.8;stroke-linecap:butt;stroke-linejoin:round;stroke:rgb(0%,0%,0%);stroke-opacity:1;stroke-miterlimit:4;" d="M 0.000875 0.000000000000028422 L 0.000875 3.5 " transform="matrix(1.25,0,0,1.25,204.233281,182.25)"/>
<path style=" stroke:none;fill-rule:nonzero;fill:rgb(0%,0%,0%);fill-opacity:1;" d="M 202.65625 199.460938 L 206.957031 199.460938 L 206.957031 200.5 L 201.171875 200.5 L 201.171875 199.460938 C 201.640625 198.976562 202.277344 198.328125 203.085938 197.511719 C 203.894531 196.695312 204.402344 196.167969 204.609375 195.933594 C 205.003906 195.488281 205.277344 195.113281 205.433594 194.808594 C 205.59375 194.5 205.671875 194.199219 205.671875 193.902344 C 205.671875 193.417969 205.5 193.023438 205.160156 192.71875 C 204.820312 192.410156 204.378906 192.257812 203.832031 192.257812 C 203.445312 192.257812 203.039062 192.324219 202.609375 192.460938 C 202.179688 192.59375 201.722656 192.796875 201.234375 193.070312 L 201.234375 191.824219 C 201.730469 191.625 202.191406 191.476562 202.625 191.375 C 203.054688 191.273438 203.453125 191.222656 203.808594 191.222656 C 204.753906 191.222656 205.507812 191.457031 206.066406 191.929688 C 206.628906 192.402344 206.910156 193.03125 206.910156 193.820312 C 206.910156 194.195312 206.839844 194.550781 206.699219 194.886719 C 206.558594 195.222656 206.304688 195.617188 205.933594 196.074219 C 205.832031 196.191406 205.507812 196.53125 204.960938 197.097656 C 204.417969 197.660156 203.648438 198.449219 202.65625 199.460938 Z M 202.65625 199.460938 "/>
<path style="fill:none;stroke-width:0.8;stroke-linecap:butt;stroke-linejoin:round;stroke:rgb(0%,0%,0%);stroke-opacity:1;stroke-miterlimit:4;" d="M -0.000011 0.000000000000028422 L -0.000011 3.5 " transform="matrix(1.25,0,0,1.25,248.664076,182.25)"/>
<path style=" stroke:none;fill-rule:nonzero;fill:rgb(0%,0%,0%);fill-opacity:1;" d="M 249.414062 192.460938 L 246.300781 197.324219 L 249.414062 197.324219 Z M 249.089844 191.386719 L 250.640625 191.386719 L 250.640625 197.324219 L 251.941406 197.324219 L 251.941406 198.351562 L 250.640625 198.351562 L 250.640625 200.5 L 249.414062 200.5 L 249.414062 198.351562 L 245.300781 198.351562 L 245.300781 197.160156 Z M 249.089844 191.386719 "/>
<path style="fill:none;stroke-width:0.8;stroke-linecap:butt;stroke-linejoin:round;stroke:rgb(0%,0%,0%);stroke-opacity:1;stroke-miterlimit:4;" d="M 0 0.000000000000028422 L -3.5 0.000000000000028422 " transform="matrix(1.25,0,0,1.25,37.628906,174.375)"/>
<path style=" stroke:none;fill-rule:nonzero;fill:rgb(0%,0%,0%);fill-opacity:1;" d="M 12.972656 170.824219 C 12.339844 170.824219 11.859375 171.136719 11.539062 171.761719 C 11.222656 172.382812 11.0625 173.324219 11.0625 174.578125 C 11.0625 175.824219 11.222656 176.761719 11.539062 177.386719 C 11.859375 178.011719 12.339844 178.324219 12.972656 178.324219 C 13.613281 178.324219 14.089844 178.011719 14.410156 177.386719 C 14.730469 176.761719 14.890625 175.824219 14.890625 174.578125 C 14.890625 173.324219 14.730469 172.382812 14.410156 171.761719 C 14.089844 171.136719 13.613281 170.824219 12.972656 170.824219 Z M 12.972656 169.847656 C 13.996094 169.847656 14.773438 170.25 15.3125 171.058594 C 15.851562 171.867188 16.125 173.039062 16.125 174.578125 C 16.125 176.109375 15.851562 177.28125 15.3125 178.089844 C 14.773438 178.898438 13.996094 179.300781 12.972656 179.300781 C 11.953125 179.300781 11.171875 178.898438 10.632812 178.089844 C 10.09375 177.28125 9.824219 176.109375 9.824219 174.578125 C 9.824219 173.039062 10.09375 171.867188 10.632812 171.058594 C 11.171875 170.25 11.953125 169.847656 12.972656 169.847656 Z M 12.972656 169.847656 "/>
<path style=" stroke:none;fill-rule:nonzero;fill:rgb(0%,0%,0%);fill-opacity:1;" d="M 18.289062 177.574219 L 19.578125 177.574219 L 19.578125 179.125 L 18.289062 179.125 Z M 18.289062 177.574219 "/>
<path style=" stroke:none;fill-rule:nonzero;fill:rgb(0%,0%,0%);fill-opacity:1;" d="M 24.898438 170.824219 C 24.265625 170.824219 23.789062 171.136719 23.46875 171.761719 C 23.148438 172.382812 22.988281 173.324219 22.988281 174.578125 C 22.988281 175.824219 23.148438 176.761719 23.46875 177.386719 C 23.789062 178.011719 24.265625 178.324219 24.898438 178.324219 C 25.539062 178.324219 26.015625 178.011719 26.335938 177.386719 C 26.65625 176.761719 26.816406 175.824219 26.816406 174.578125 C 26.816406 173.324219 26.65625 172.382812 26.335938 171.761719 C 26.015625 171.136719 25.539062 170.824219 24.898438 170.824219 Z M 24.898438 169.847656 C 25.921875 169.847656 26.703125 170.25 27.242188 171.058594 C 27.78125 171.867188 28.050781 173.039062 28.050781 174.578125 C 28.050781 176.109375 27.78125 177.28125 27.242188 178.089844 C 26.703125 178.898438 25.921875 179.300781 24.898438 179.300781 C 23.878906 179.300781 23.097656 178.898438 22.558594 178.089844 C 22.019531 177.28125 21.75 176.109375 21.75 174.578125 C 21.75 173.039062 22.019531 171.867188 22.558594 171.058594 C 23.097656 170.25 23.878906 169.847656 24.898438 169.847656 Z M 24.898438 169.847656 "/>
<path style="fill:none;stroke-width:0.8;stroke-linecap:butt;stroke-linejoin:round;stroke:rgb(0%,0%,0%);stroke-opacity:1;stroke-miterlimit:4;" d="M 0 0.001086 L -3.5 0.001086 " transform="matrix(1.25,0,0,1.25,37.628906,125.029892)"/>
<path style=" stroke:none;fill-rule:nonzero;fill:rgb(0%,0%,0%);fill-opacity:1;" d="M 12.972656 121.476562 C 12.339844 121.476562 11.859375 121.789062 11.539062 122.414062 C 11.222656 123.039062 11.0625 123.976562 11.0625 125.230469 C 11.0625 126.480469 11.222656 127.417969 11.539062 128.042969 C 11.859375 128.667969 12.339844 128.980469 12.972656 128.980469 C 13.613281 128.980469 14.089844 128.667969 14.410156 128.042969 C 14.730469 127.417969 14.890625 126.480469 14.890625 125.230469 C 14.890625 123.976562 14.730469 123.039062 14.410156 122.414062 C 14.089844 121.789062 13.613281 121.476562 12.972656 121.476562 Z M 12.972656 120.5 C 13.996094 120.5 14.773438 120.90625 15.3125 121.714844 C 15.851562 122.523438 16.125 123.695312 16.125 125.230469 C 16.125 126.765625 15.851562 127.9375 15.3125 128.746094 C 14.773438 129.554688 13.996094 129.957031 12.972656 129.957031 C 11.953125 129.957031 11.171875 129.554688 10.632812 128.746094 C 10.09375 127.9375 9.824219 126.765625 9.824219 125.230469 C 9.824219 123.695312 10.09375 122.523438 10.632812 121.714844 C 11.171875 120.90625 11.953125 120.5 12.972656 120.5 Z M 12.972656 120.5 "/>
<path style=" stroke:none;fill-rule:nonzero;fill:rgb(0%,0%,0%);fill-opacity:1;" d="M 18.289062 128.226562 L 19.578125 128.226562 L 19.578125 129.777344 L 18.289062 129.777344 Z M 18.289062 128.226562 "/>
<path style=" stroke:none;fill-rule:nonzero;fill:rgb(0%,0%,0%);fill-opacity:1;" d="M 22.476562 128.742188 L 24.492188 128.742188 L 24.492188 121.789062 L 22.300781 122.226562 L 22.300781 121.105469 L 24.480469 120.664062 L 25.710938 120.664062 L 25.710938 128.742188 L 27.726562 128.742188 L 27.726562 129.777344 L 22.476562 129.777344 Z M 22.476562 128.742188 "/>
<path style="fill:none;stroke-width:0.8;stroke-linecap:butt;stroke-linejoin:round;stroke:rgb(0%,0%,0%);stroke-opacity:1;stroke-miterlimit:4;" d="M 0 -0.000953 L -3.5 -0.000953 " transform="matrix(1.25,0,0,1.25,37.628906,75.684785)"/>
<path style=" stroke:none;fill-rule:nonzero;fill:rgb(0%,0%,0%);fill-opacity:1;" d="M 12.972656 72.132812 C 12.339844 72.132812 11.859375 72.445312 11.539062 73.070312 C 11.222656 73.695312 11.0625 74.632812 11.0625 75.886719 C 11.0625 77.136719 11.222656 78.074219 11.539062 78.699219 C 11.859375 79.324219 12.339844 79.636719 12.972656 79.636719 C 13.613281 79.636719 14.089844 79.324219 14.410156 78.699219 C 14.730469 78.074219 14.890625 77.136719 14.890625 75.886719 C 14.890625 74.632812 14.730469 73.695312 14.410156 73.070312 C 14.089844 72.445312 13.613281 72.132812 12.972656 72.132812 Z M 12.972656 71.15625 C 13.996094 71.15625 14.773438 71.5625 15.3125 72.371094 C 15.851562 73.175781 16.125 74.347656 16.125 75.886719 C 16.125 77.421875 15.851562 78.59375 15.3125 79.402344 C 14.773438 80.207031 13.996094 80.613281 12.972656 80.613281 C 11.953125 80.613281 11.171875 80.207031 10.632812 79.402344 C 10.09375 78.59375 9.824219 77.421875 9.824219 75.886719 C 9.824219 74.347656 10.09375 73.175781 10.632812 72.371094 C 11.171875 71.5625 11.953125 71.15625 12.972656 71.15625 Z M 12.972656 71.15625 "/>
<path style=" stroke:none;fill-rule:nonzero;fill:rgb(0%,0%,0%);fill-opacity:1;" d="M 18.289062 78.882812 L 19.578125 78.882812 L 19.578125 80.433594 L 18.289062 80.433594 Z M 18.289062 78.882812 "/>
<path style=" stroke:none;fill-rule:nonzero;fill:rgb(0%,0%,0%);fill-opacity:1;" d="M 23.324219 79.398438 L 27.628906 79.398438 L 27.628906 80.433594 L 21.84375 80.433594 L 21.84375 79.398438 C 22.308594 78.914062 22.945312 78.261719 23.753906 77.449219 C 24.5625 76.632812 25.070312 76.105469 25.277344 75.867188 C 25.671875 75.425781 25.949219 75.050781 26.105469 74.742188 C 26.261719 74.433594 26.339844 74.132812 26.339844 73.835938 C 26.339844 73.351562 26.171875 72.957031 25.832031 72.652344 C 25.492188 72.347656 25.046875 72.195312 24.503906 72.195312 C 24.117188 72.195312 23.707031 72.261719 23.277344 72.394531 C 22.847656 72.527344 22.390625 72.734375 21.902344 73.007812 L 21.902344 71.761719 C 22.398438 71.5625 22.863281 71.410156 23.292969 71.308594 C 23.726562 71.207031 24.121094 71.15625 24.480469 71.15625 C 25.421875 71.15625 26.175781 71.394531 26.738281 71.867188 C 27.296875 72.335938 27.578125 72.96875 27.578125 73.757812 C 27.578125 74.132812 27.507812 74.488281 27.367188 74.824219 C 27.226562 75.15625 26.972656 75.550781 26.601562 76.007812 C 26.5 76.125 26.175781 76.46875 25.632812 77.03125 C 25.085938 77.59375 24.316406 78.382812 23.324219 79.398438 Z M 23.324219 79.398438 "/>
<path style="fill:none;stroke-width:0.8;stroke-linecap:butt;stroke-linejoin:round;stroke:rgb(0%,0%,0%);stroke-opacity:1;stroke-miterlimit:4;" d="M 0 0.000134 L -3.5 0.000134 " transform="matrix(1.25,0,0,1.25,37.628906,26.339676)"/>
<path style=" stroke:none;fill-rule:nonzero;fill:rgb(0%,0%,0%);fill-opacity:1;" d="M 12.972656 22.789062 C 12.339844 22.789062 11.859375 23.101562 11.539062 23.726562 C 11.222656 24.347656 11.0625 25.289062 11.0625 26.542969 C 11.0625 27.789062 11.222656 28.726562 11.539062 29.351562 C 11.859375 29.976562 12.339844 30.289062 12.972656 30.289062 C 13.613281 30.289062 14.089844 29.976562 14.410156 29.351562 C 14.730469 28.726562 14.890625 27.789062 14.890625 26.542969 C 14.890625 25.289062 14.730469 24.347656 14.410156 23.726562 C 14.089844 23.101562 13.613281 22.789062 12.972656 22.789062 Z M 12.972656 21.8125 C 13.996094 21.8125 14.773438 22.214844 15.3125 23.023438 C 15.851562 23.832031 16.125 25.003906 16.125 26.542969 C 16.125 28.074219 15.851562 29.246094 15.3125 30.054688 C 14.773438 30.863281 13.996094 31.265625 12.972656 31.265625 C 11.953125 31.265625 11.171875 30.863281 10.632812 30.054688 C 10.09375 29.246094 9.824219 28.074219 9.824219 26.542969 C 9.824219 25.003906 10.09375 23.832031 10.632812 23.023438 C 11.171875 22.214844 11.953125 21.8125 12.972656 21.8125 Z M 12.972656 21.8125 "/>
<path style=" stroke:none;fill-rule:nonzero;fill:rgb(0%,0%,0%);fill-opacity:1;" d="M 18.289062 29.539062 L 19.578125 29.539062 L 19.578125 31.089844 L 18.289062 31.089844 Z M 18.289062 29.539062 "/>
<path style=" stroke:none;fill-rule:nonzero;fill:rgb(0%,0%,0%);fill-opacity:1;" d="M 26 26.175781 C 26.589844 26.300781 27.046875 26.5625 27.378906 26.964844 C 27.710938 27.363281 27.878906 27.855469 27.878906 28.441406 C 27.878906 29.339844 27.566406 30.035156 26.949219 30.527344 C 26.332031 31.019531 25.453125 31.265625 24.3125 31.265625 C 23.929688 31.265625 23.539062 31.230469 23.132812 31.152344 C 22.726562 31.078125 22.308594 30.964844 21.878906 30.8125 L 21.878906 29.625 C 22.21875 29.824219 22.59375 29.972656 23 30.074219 C 23.40625 30.175781 23.832031 30.226562 24.277344 30.226562 C 25.050781 30.226562 25.636719 30.074219 26.042969 29.769531 C 26.449219 29.464844 26.652344 29.023438 26.652344 28.441406 C 26.652344 27.902344 26.460938 27.484375 26.085938 27.179688 C 25.710938 26.878906 25.1875 26.726562 24.515625 26.726562 L 23.453125 26.726562 L 23.453125 25.710938 L 24.566406 25.710938 C 25.171875 25.710938 25.632812 25.589844 25.957031 25.347656 C 26.277344 25.105469 26.4375 24.757812 26.4375 24.300781 C 26.4375 23.835938 26.273438 23.476562 25.941406 23.226562 C 25.609375 22.972656 25.132812 22.847656 24.515625 22.847656 C 24.175781 22.847656 23.816406 22.886719 23.429688 22.960938 C 23.042969 23.03125 22.617188 23.144531 22.152344 23.300781 L 22.152344 22.203125 C 22.621094 22.070312 23.058594 21.972656 23.46875 21.910156 C 23.878906 21.84375 24.261719 21.8125 24.625 21.8125 C 25.5625 21.8125 26.300781 22.023438 26.847656 22.449219 C 27.390625 22.875 27.664062 23.449219 27.664062 24.171875 C 27.664062 24.679688 27.519531 25.105469 27.230469 25.453125 C 26.941406 25.800781 26.53125 26.039062 26 26.175781 Z M 26 26.175781 "/>
<path style="fill:none;stroke-width:1.5;stroke-linecap:square;stroke-linejoin:round;stroke:rgb(0%,0%,0%);stroke-opacity:1;stroke-miterlimit:4;" d="M 38.98125 139.45625 L 46.8 139.278125 L 51.421875 138.95625 L 54.796875 138.5 L 57.4625 137.921875 L 59.775 137.203125 L 61.90625 136.296875 L 63.8625 135.209375 L 65.6375 133.965625 L 67.415625 132.428125 L 69.015625 130.759375 L 70.615625 128.78125 L 72.215625 126.4625 L 73.815625 123.771875 L 75.590625 120.309375 L 77.36875 116.31875 L 79.146875 111.771875 L 81.1 106.128125 L 83.234375 99.209375 L 85.54375 90.88125 L 88.209375 80.36875 L 91.940625 64.6125 L 96.91875 43.6875 L 99.228125 34.9 L 101.184375 28.3125 L 102.784375 23.665625 L 104.20625 20.184375 L 105.45 17.69375 L 106.515625 16 L 107.58125 14.734375 L 108.46875 14.0125 L 109.359375 13.603125 L 110.06875 13.5 L 110.78125 13.6 L 111.490625 13.9 L 112.38125 14.553125 L 113.26875 15.5125 L 114.334375 17.059375 L 115.4 19.021875 L 116.646875 21.803125 L 118.06875 25.584375 L 119.665625 30.525 L 121.621875 37.3875 L 123.93125 46.378125 L 127.665625 61.98125 L 132.284375 81.1 L 134.95 91.14375 L 137.084375 98.359375 L 139.0375 104.228125 L 140.815625 108.89375 L 142.415625 112.528125 L 144.015625 115.621875 L 145.4375 117.928125 L 146.859375 119.821875 L 148.28125 121.31875 L 149.525 122.321875 L 150.76875 123.046875 L 152.0125 123.5125 L 153.25625 123.7375 L 154.5 123.7375 L 155.74375 123.534375 L 157.165625 123.075 L 158.765625 122.30625 L 160.54375 121.19375 L 162.675 119.584375 L 165.696875 116.9875 L 171.028125 112.375 L 173.340625 110.684375 L 175.29375 109.521875 L 177.071875 108.721875 L 178.671875 108.2375 L 180.271875 107.990625 L 181.86875 107.990625 L 183.46875 108.24375 L 185.06875 108.7375 L 186.66875 109.46875 L 188.446875 110.534375 L 190.4 111.98125 L 192.7125 113.996875 L 195.553125 116.809375 L 201.0625 122.678125 L 204.975 126.665625 L 207.99375 129.428125 L 210.6625 131.559375 L 213.15 133.265625 L 215.6375 134.703125 L 216.525 135.15 " transform="matrix(1.25,0,0,1.25,0,0)"/>
<path style="fill:none;stroke-width:0.8;stroke-linecap:square;stroke-linejoin:miter;stroke:rgb(0%,0%,0%);stroke-opacity:1;stroke-miterlimit:4;" d="M 30.103125 145.8 L 30.103125 7.2 " transform="matrix(1.25,0,0,1.25,0,0)"/>
<path style="fill:none;stroke-width:0.8;stroke-linecap:square;stroke-linejoin:miter;stroke:rgb(0%,0%,0%);stroke-opacity:1;stroke-miterlimit:4;" d="M 225.403125 145.8 L 225.403125 7.2 " transform="matrix(1.25,0,0,1.25,0,0)"/>
<path style="fill:none;stroke-width:0.8;stroke-linecap:square;stroke-linejoin:miter;stroke:rgb(0%,0%,0%);stroke-opacity:1;stroke-miterlimit:4;" d="M 30.103125 145.8 L 225.403125 145.8 " transform="matrix(1.25,0,0,1.25,0,0)"/>
<path style="fill:none;stroke-width:0.8;stroke-linecap:square;stroke-linejoin:miter;stroke:rgb(0%,0%,0%);stroke-opacity:1;stroke-miterlimit:4;" d="M 30.103125 7.2 L 225.403125 7.2 " transform="matrix(1.25,0,0,1.25,0,0)"/>
</g>
</svg>
