<?xml version="1.0" encoding="UTF-8"?>
<svg xmlns="http://www.w3.org/2000/svg" xmlns:xlink="http://www.w3.org/1999/xlink" width="308pt" height="229pt" viewBox="0 0 308 229" version="1.1">
<defs>
<clipPath id="clip1">
  <path d="M 65 9 L 67 9 L 67 182.25 L 65 182.25 Z M 65 9 "/>
</clipPath>
<clipPath id="clip2">
  <path d="M 120 9 L 123 9 L 123 182.25 L 120 182.25 Z M 120 9 "/>
</clipPath>
<clipPath id="clip3">
  <path d="M 176 9 L 178 9 L 178 182.25 L 176 182.25 Z M 176 9 "/>
</clipPath>
<clipPath id="clip4">
  <path d="M 231 9 L 234 9 L 234 182.25 L 231 182.25 Z M 231 9 "/>
</clipPath>
<clipPath id="clip5">
  <path d="M 287 9 L 290 9 L 290 182.25 L 287 182.25 Z M 287 9 "/>
</clipPath>
<clipPath id="clip6">
  <path d="M 54.726562 173 L 298.851562 173 L 298.851562 176 L 54.726562 176 Z M 54.726562 173 "/>
</clipPath>
<clipPath id="clip7">
  <path d="M 54.726562 142 L 298.851562 142 L 298.851562 144 L 54.726562 144 Z M 54.726562 142 "/>
</clipPath>
<clipPath id="clip8">
  <path d="M 54.726562 110 L 298.851562 110 L 298.851562 113 L 54.726562 113 Z M 54.726562 110 "/>
</clipPath>
<clipPath id="clip9">
  <path d="M 54.726562 79 L 298.851562 79 L 298.851562 81 L 54.726562 81 Z M 54.726562 79 "/>
</clipPath>
<clipPath id="clip10">
  <path d="M 54.726562 47 L 298.851562 47 L 298.851562 50 L 54.726562 50 Z M 54.726562 47 "/>
</clipPath>
<clipPath id="clip11">
  <path d="M 54.726562 16 L 298.851562 16 L 298.851562 18 L 54.726562 18 Z M 54.726562 16 "/>
</clipPath>
</defs>
<g id="surface1">
<path style=" stroke:none;fill-rule:nonzero;fill:rgb(100%,100%,100%);fill-opacity:1;" d="M 0 229.195312 L 307.851562 229.195312 L 307.851562 0 L 0 0 Z M 0 229.195312 "/>
<path style=" stroke:none;fill-rule:nonzero;fill:rgb(100%,100%,100%);fill-opacity:1;" d="M 54.726562 182.25 L 298.851562 182.25 L 298.851562 9 L 54.726562 9 Z M 54.726562 182.25 "/>
<g clip-path="url(#clip1)" clip-rule="nonzero">
<path style="fill:none;stroke-width:0.8;stroke-linecap:square;stroke-linejoin:round;stroke:rgb(69.019608%,69.019608%,69.019608%);stroke-opacity:1;stroke-miterlimit:4;" d="M 52.659375 145.8 L 52.659375 7.2 " transform="matrix(1.25,0,0,1.25,0,0)"/>
</g>
<path style="fill:none;stroke-width:0.8;stroke-linecap:butt;stroke-linejoin:round;stroke:rgb(0%,0%,0%);stroke-opacity:1;stroke-miterlimit:4;" d="M 0.000852 0 L 0.000852 3.5 " transform="matrix(1.25,0,0,1.25,65.823154,182.25)"/>
<path style=" stroke:none;fill-rule:nonzero;fill:rgb(0%,0%,0%);fill-opacity:1;" d="M 65.820312 192.199219 C 65.183594 192.199219 64.707031 192.511719 64.386719 193.136719 C 64.070312 193.757812 63.910156 194.699219 63.910156 195.953125 C 63.910156 197.199219 64.070312 198.136719 64.386719 198.761719 C 64.707031 199.386719 65.183594 199.699219 65.820312 199.699219 C 66.457031 199.699219 66.9375 199.386719 67.257812 198.761719 C 67.578125 198.136719 67.738281 197.199219 67.738281 195.953125 C 67.738281 194.699219 67.578125 193.757812 67.257812 193.136719 C 66.9375 192.511719 66.457031 192.199219 65.820312 192.199219 Z M 65.820312 191.222656 C 66.839844 191.222656 67.621094 191.625 68.160156 192.433594 C 68.699219 193.242188 68.96875 194.414062 68.96875 195.953125 C 68.96875 197.484375 68.699219 198.65625 68.160156 199.464844 C 67.621094 200.273438 66.839844 200.675781 65.820312 200.675781 C 64.796875 200.675781 64.019531 200.273438 63.480469 199.464844 C 62.941406 198.65625 62.671875 197.484375 62.671875 195.953125 C 62.671875 194.414062 62.941406 193.242188 63.480469 192.433594 C 64.019531 191.625 64.796875 191.222656 65.820312 191.222656 Z M 65.820312 191.222656 "/>
<g clip-path="url(#clip2)" clip-rule="nonzero">
<path style="fill:none;stroke-width:0.8;stroke-linecap:square;stroke-linejoin:round;stroke:rgb(69.019608%,69.019608%,69.019608%);stroke-opacity:1;stroke-miterlimit:4;" d="M 97.15625 145.8 L 97.15625 7.2 " transform="matrix(1.25,0,0,1.25,0,0)"/>
</g>
<path style="fill:none;stroke-width:0.8;stroke-linecap:butt;stroke-linejoin:round;stroke:rgb(0%,0%,0%);stroke-opacity:1;stroke-miterlimit:4;" d="M 0.00012 0 L 0.00012 3.5 " transform="matrix(1.25,0,0,1.25,121.445163,182.25)"/>
<path style=" stroke:none;fill-rule:nonzero;fill:rgb(0%,0%,0%);fill-opacity:1;" d="M 119.019531 199.460938 L 121.03125 199.460938 L 121.03125 192.507812 L 118.839844 192.949219 L 118.839844 191.824219 L 121.019531 191.386719 L 122.253906 191.386719 L 122.253906 199.460938 L 124.265625 199.460938 L 124.265625 200.5 L 119.019531 200.5 Z M 119.019531 199.460938 "/>
<g clip-path="url(#clip3)" clip-rule="nonzero">
<path style="fill:none;stroke-width:0.8;stroke-linecap:square;stroke-linejoin:round;stroke:rgb(69.019608%,69.019608%,69.019608%);stroke-opacity:1;stroke-miterlimit:4;" d="M 141.653125 145.8 L 141.653125 7.2 " transform="matrix(1.25,0,0,1.25,0,0)"/>
</g>
<path style="fill:none;stroke-width:0.8;stroke-linecap:butt;stroke-linejoin:round;stroke:rgb(0%,0%,0%);stroke-opacity:1;stroke-miterlimit:4;" d="M -0.000613 0 L -0.000613 3.5 " transform="matrix(1.25,0,0,1.25,177.067172,182.25)"/>
<path style=" stroke:none;fill-rule:nonzero;fill:rgb(0%,0%,0%);fill-opacity:1;" d="M 175.488281 199.460938 L 179.792969 199.460938 L 179.792969 200.5 L 174.007812 200.5 L 174.007812 199.460938 C 174.472656 198.976562 175.113281 198.328125 175.917969 197.511719 C 176.726562 196.695312 177.234375 196.167969 177.441406 195.933594 C 177.835938 195.488281 178.113281 195.113281 178.269531 194.808594 C 178.425781 194.5 178.503906 194.199219 178.503906 193.902344 C 178.503906 193.417969 178.335938 193.023438 177.996094 192.71875 C 177.65625 192.410156 177.210938 192.257812 176.667969 192.257812 C 176.28125 192.257812 175.871094 192.324219 175.441406 192.460938 C 175.015625 192.59375 174.554688 192.796875 174.066406 193.070312 L 174.066406 191.824219 C 174.5625 191.625 175.027344 191.476562 175.457031 191.375 C 175.890625 191.273438 176.285156 191.222656 176.644531 191.222656 C 177.585938 191.222656 178.339844 191.457031 178.902344 191.929688 C 179.460938 192.402344 179.742188 193.03125 179.742188 193.820312 C 179.742188 194.195312 179.671875 194.550781 179.53125 194.886719 C 179.394531 195.222656 179.136719 195.617188 178.765625 196.074219 C 178.664062 196.191406 178.339844 196.53125 177.796875 197.097656 C 177.25 197.660156 176.484375 198.449219 175.488281 199.460938 Z M 175.488281 199.460938 "/>
<g clip-path="url(#clip4)" clip-rule="nonzero">
<path style="fill:none;stroke-width:0.8;stroke-linecap:square;stroke-linejoin:round;stroke:rgb(69.019608%,69.019608%,69.019608%);stroke-opacity:1;stroke-miterlimit:4;" d="M 186.15 145.8 L 186.15 7.2 " transform="matrix(1.25,0,0,1.25,0,0)"/>
</g>
<path style="fill:none;stroke-width:0.8;stroke-linecap:butt;stroke-linejoin:round;stroke:rgb(0%,0%,0%);stroke-opacity:1;stroke-miterlimit:4;" d="M -0.001345 0 L -0.001345 3.5 " transform="matrix(1.25,0,0,1.25,232.689181,182.25)"/>
<path style=" stroke:none;fill-rule:nonzero;fill:rgb(0%,0%,0%);fill-opacity:1;" d="M 233.785156 195.585938 C 234.375 195.710938 234.835938 195.972656 235.164062 196.375 C 235.496094 196.773438 235.664062 197.265625 235.664062 197.851562 C 235.664062 198.75 235.355469 199.445312 234.734375 199.9375 C 234.117188 200.429688 233.238281 200.675781 232.097656 200.675781 C 231.71875 200.675781 231.324219 200.636719 230.917969 200.5625 C 230.515625 200.488281 230.097656 200.375 229.664062 200.222656 L 229.664062 199.035156 C 230.007812 199.234375 230.378906 199.382812 230.785156 199.484375 C 231.195312 199.585938 231.621094 199.636719 232.0625 199.636719 C 232.835938 199.636719 233.425781 199.484375 233.828125 199.179688 C 234.234375 198.875 234.4375 198.433594 234.4375 197.851562 C 234.4375 197.3125 234.25 196.890625 233.871094 196.589844 C 233.496094 196.285156 232.972656 196.136719 232.300781 196.136719 L 231.238281 196.136719 L 231.238281 195.121094 L 232.351562 195.121094 C 232.957031 195.121094 233.421875 195 233.742188 194.757812 C 234.0625 194.515625 234.222656 194.167969 234.222656 193.710938 C 234.222656 193.242188 234.058594 192.886719 233.726562 192.636719 C 233.394531 192.382812 232.921875 192.257812 232.300781 192.257812 C 231.964844 192.257812 231.601562 192.296875 231.214844 192.371094 C 230.828125 192.441406 230.402344 192.554688 229.9375 192.710938 L 229.9375 191.613281 C 230.40625 191.480469 230.847656 191.382812 231.253906 191.320312 C 231.664062 191.253906 232.050781 191.222656 232.410156 191.222656 C 233.347656 191.222656 234.089844 191.433594 234.632812 191.859375 C 235.179688 192.285156 235.449219 192.859375 235.449219 193.582031 C 235.449219 194.085938 235.304688 194.515625 235.015625 194.863281 C 234.726562 195.210938 234.316406 195.449219 233.785156 195.585938 Z M 233.785156 195.585938 "/>
<g clip-path="url(#clip5)" clip-rule="nonzero">
<path style="fill:none;stroke-width:0.8;stroke-linecap:square;stroke-linejoin:round;stroke:rgb(69.019608%,69.019608%,69.019608%);stroke-opacity:1;stroke-miterlimit:4;" d="M 230.65 145.8 L 230.65 7.2 " transform="matrix(1.25,0,0,1.25,0,0)"/>
</g>
<path style="fill:none;stroke-width:0.8;stroke-linecap:butt;stroke-linejoin:round;stroke:rgb(0%,0%,0%);stroke-opacity:1;stroke-miterlimit:4;" d="M 0.001047 0 L 0.001047 3.5 " transform="matrix(1.25,0,0,1.25,288.311191,182.25)"/>
<path style=" stroke:none;fill-rule:nonzero;fill:rgb(0%,0%,0%);fill-opacity:1;" d="M 289.058594 192.460938 L 285.945312 197.324219 L 289.058594 197.324219 Z M 288.734375 191.386719 L 290.285156 191.386719 L 290.285156 197.324219 L 291.585938 197.324219 L 291.585938 198.351562 L 290.285156 198.351562 L 290.285156 200.5 L 289.058594 200.5 L 289.058594 198.351562 L 284.945312 198.351562 L 284.945312 197.160156 Z M 288.734375 191.386719 "/>
<path style=" stroke:none;fill-rule:nonzero;fill:rgb(0%,0%,0%);fill-opacity:1;" d="M 179.953125 210.761719 L 177.476562 214.085938 L 180.078125 217.597656 L 178.753906 217.597656 L 176.765625 214.910156 L 174.773438 217.597656 L 173.449219 217.597656 L 176.105469 214.019531 L 173.675781 210.761719 L 175 210.761719 L 176.8125 213.195312 L 178.625 210.761719 Z M 179.953125 210.761719 "/>
<g clip-path="url(#clip6)" clip-rule="nonzero">
<path style="fill:none;stroke-width:0.8;stroke-linecap:square;stroke-linejoin:round;stroke:rgb(69.019608%,69.019608%,69.019608%);stroke-opacity:1;stroke-miterlimit:4;" d="M 43.78125 139.5 L 239.08125 139.5 " transform="matrix(1.25,0,0,1.25,0,0)"/>
</g>
<path style="fill:none;stroke-width:0.8;stroke-linecap:butt;stroke-linejoin:round;stroke:rgb(0%,0%,0%);stroke-opacity:1;stroke-miterlimit:4;" d="M 0 0 L -3.5 0 " transform="matrix(1.25,0,0,1.25,54.726562,174.375)"/>
<path style=" stroke:none;fill-rule:nonzero;fill:rgb(0%,0%,0%);fill-opacity:1;" d="M 30.070312 170.824219 C 29.4375 170.824219 28.960938 171.136719 28.640625 171.761719 C 28.320312 172.382812 28.160156 173.324219 28.160156 174.578125 C 28.160156 175.824219 28.320312 176.761719 28.640625 177.386719 C 28.960938 178.011719 29.4375 178.324219 30.070312 178.324219 C 30.710938 178.324219 31.1875 178.011719 31.507812 177.386719 C 31.828125 176.761719 31.988281 175.824219 31.988281 174.578125 C 31.988281 173.324219 31.828125 172.382812 31.507812 171.761719 C 31.1875 171.136719 30.710938 170.824219 30.070312 170.824219 Z M 30.070312 169.847656 C 31.09375 169.847656 31.875 170.25 32.414062 171.058594 C 32.953125 171.867188 33.21875 173.039062 33.21875 174.578125 C 33.21875 176.109375 32.953125 177.28125 32.414062 178.089844 C 31.875 178.898438 31.09375 179.300781 30.070312 179.300781 C 29.050781 179.300781 28.269531 178.898438 27.730469 178.089844 C 27.191406 177.28125 26.921875 176.109375 26.921875 174.578125 C 26.921875 173.039062 27.191406 171.867188 27.730469 171.058594 C 28.269531 170.25 29.050781 169.847656 30.070312 169.847656 Z M 30.070312 169.847656 "/>
<path style=" stroke:none;fill-rule:nonzero;fill:rgb(0%,0%,0%);fill-opacity:1;" d="M 35.386719 177.574219 L 36.675781 177.574219 L 36.675781 179.125 L 35.386719 179.125 Z M 35.386719 177.574219 "/>
<path style=" stroke:none;fill-rule:nonzero;fill:rgb(0%,0%,0%);fill-opacity:1;" d="M 41.996094 170.824219 C 41.363281 170.824219 40.886719 171.136719 40.566406 171.761719 C 40.246094 172.382812 40.085938 173.324219 40.085938 174.578125 C 40.085938 175.824219 40.246094 176.761719 40.566406 177.386719 C 40.886719 178.011719 41.363281 178.324219 41.996094 178.324219 C 42.636719 178.324219 43.113281 178.011719 43.433594 177.386719 C 43.753906 176.761719 43.914062 175.824219 43.914062 174.578125 C 43.914062 173.324219 43.753906 172.382812 43.433594 171.761719 C 43.113281 171.136719 42.636719 170.824219 41.996094 170.824219 Z M 41.996094 169.847656 C 43.019531 169.847656 43.800781 170.25 44.339844 171.058594 C 44.878906 171.867188 45.148438 173.039062 45.148438 174.578125 C 45.148438 176.109375 44.878906 177.28125 44.339844 178.089844 C 43.800781 178.898438 43.019531 179.300781 41.996094 179.300781 C 40.976562 179.300781 40.195312 178.898438 39.65625 178.089844 C 39.117188 177.28125 38.847656 176.109375 38.847656 174.578125 C 38.847656 173.039062 39.117188 171.867188 39.65625 171.058594 C 40.195312 170.25 40.976562 169.847656 41.996094 169.847656 Z M 41.996094 169.847656 "/>
<g clip-path="url(#clip7)" clip-rule="nonzero">
<path style="fill:none;stroke-width:0.8;stroke-linecap:square;stroke-linejoin:round;stroke:rgb(69.019608%,69.019608%,69.019608%);stroke-opacity:1;stroke-miterlimit:4;" d="M 43.78125 114.3 L 239.08125 114.3 " transform="matrix(1.25,0,0,1.25,0,0)"/>
</g>
<path style="fill:none;stroke-width:0.8;stroke-linecap:butt;stroke-linejoin:round;stroke:rgb(0%,0%,0%);stroke-opacity:1;stroke-miterlimit:4;" d="M 0 0 L -3.5 0 " transform="matrix(1.25,0,0,1.25,54.726562,142.875)"/>
<path style=" stroke:none;fill-rule:nonzero;fill:rgb(0%,0%,0%);fill-opacity:1;" d="M 30.070312 139.324219 C 29.4375 139.324219 28.960938 139.636719 28.640625 140.261719 C 28.320312 140.882812 28.160156 141.824219 28.160156 143.078125 C 28.160156 144.324219 28.320312 145.261719 28.640625 145.886719 C 28.960938 146.511719 29.4375 146.824219 30.070312 146.824219 C 30.710938 146.824219 31.1875 146.511719 31.507812 145.886719 C 31.828125 145.261719 31.988281 144.324219 31.988281 143.078125 C 31.988281 141.824219 31.828125 140.882812 31.507812 140.261719 C 31.1875 139.636719 30.710938 139.324219 30.070312 139.324219 Z M 30.070312 138.347656 C 31.09375 138.347656 31.875 138.75 32.414062 139.558594 C 32.953125 140.367188 33.21875 141.539062 33.21875 143.078125 C 33.21875 144.609375 32.953125 145.78125 32.414062 146.589844 C 31.875 147.398438 31.09375 147.800781 30.070312 147.800781 C 29.050781 147.800781 28.269531 147.398438 27.730469 146.589844 C 27.191406 145.78125 26.921875 144.609375 26.921875 143.078125 C 26.921875 141.539062 27.191406 140.367188 27.730469 139.558594 C 28.269531 138.75 29.050781 138.347656 30.070312 138.347656 Z M 30.070312 138.347656 "/>
<path style=" stroke:none;fill-rule:nonzero;fill:rgb(0%,0%,0%);fill-opacity:1;" d="M 35.386719 146.074219 L 36.675781 146.074219 L 36.675781 147.625 L 35.386719 147.625 Z M 35.386719 146.074219 "/>
<path style=" stroke:none;fill-rule:nonzero;fill:rgb(0%,0%,0%);fill-opacity:1;" d="M 40.421875 146.585938 L 44.726562 146.585938 L 44.726562 147.625 L 38.941406 147.625 L 38.941406 146.585938 C 39.40625 146.101562 40.042969 145.453125 40.851562 144.636719 C 41.660156 143.820312 42.167969 143.292969 42.375 143.058594 C 42.769531 142.613281 43.046875 142.238281 43.203125 141.933594 C 43.359375 141.625 43.4375 141.324219 43.4375 141.027344 C 43.4375 140.542969 43.269531 140.148438 42.929688 139.84375 C 42.589844 139.535156 42.144531 139.382812 41.601562 139.382812 C 41.214844 139.382812 40.804688 139.449219 40.375 139.585938 C 39.945312 139.71875 39.488281 139.921875 39 140.195312 L 39 138.949219 C 39.496094 138.75 39.960938 138.601562 40.390625 138.5 C 40.824219 138.398438 41.21875 138.347656 41.578125 138.347656 C 42.519531 138.347656 43.273438 138.582031 43.835938 139.054688 C 44.394531 139.527344 44.675781 140.15625 44.675781 140.945312 C 44.675781 141.320312 44.605469 141.675781 44.464844 142.011719 C 44.324219 142.347656 44.070312 142.742188 43.699219 143.199219 C 43.597656 143.316406 43.273438 143.65625 42.730469 144.222656 C 42.183594 144.785156 41.414062 145.574219 40.421875 146.585938 Z M 40.421875 146.585938 "/>
<g clip-path="url(#clip8)" clip-rule="nonzero">
<path style="fill:none;stroke-width:0.8;stroke-linecap:square;stroke-linejoin:round;stroke:rgb(69.019608%,69.019608%,69.019608%);stroke-opacity:1;stroke-miterlimit:4;" d="M 43.78125 89.1 L 239.08125 89.1 " transform="matrix(1.25,0,0,1.25,0,0)"/>
</g>
<path style="fill:none;stroke-width:0.8;stroke-linecap:butt;stroke-linejoin:round;stroke:rgb(0%,0%,0%);stroke-opacity:1;stroke-miterlimit:4;" d="M 0 0 L -3.5 0 " transform="matrix(1.25,0,0,1.25,54.726562,111.375)"/>
<path style=" stroke:none;fill-rule:nonzero;fill:rgb(0%,0%,0%);fill-opacity:1;" d="M 30.070312 107.824219 C 29.4375 107.824219 28.960938 108.136719 28.640625 108.761719 C 28.320312 109.382812 28.160156 110.324219 28.160156 111.578125 C 28.160156 112.824219 28.320312 113.761719 28.640625 114.386719 C 28.960938 115.011719 29.4375 115.324219 30.070312 115.324219 C 30.710938 115.324219 31.1875 115.011719 31.507812 114.386719 C 31.828125 113.761719 31.988281 112.824219 31.988281 111.578125 C 31.988281 110.324219 31.828125 109.382812 31.507812 108.761719 C 31.1875 108.136719 30.710938 107.824219 30.070312 107.824219 Z M 30.070312 106.847656 C 31.09375 106.847656 31.875 107.25 32.414062 108.058594 C 32.953125 108.867188 33.21875 110.039062 33.21875 111.578125 C 33.21875 113.109375 32.953125 114.28125 32.414062 115.089844 C 31.875 115.898438 31.09375 116.300781 30.070312 116.300781 C 29.050781 116.300781 28.269531 115.898438 27.730469 115.089844 C 27.191406 114.28125 26.921875 113.109375 26.921875 111.578125 C 26.921875 110.039062 27.191406 108.867188 27.730469 108.058594 C 28.269531 107.25 29.050781 106.847656 30.070312 106.847656 Z M 30.070312 106.847656 "/>
<path style=" stroke:none;fill-rule:nonzero;fill:rgb(0%,0%,0%);fill-opacity:1;" d="M 35.386719 114.574219 L 36.675781 114.574219 L 36.675781 116.125 L 35.386719 116.125 Z M 35.386719 114.574219 "/>
<path style=" stroke:none;fill-rule:nonzero;fill:rgb(0%,0%,0%);fill-opacity:1;" d="M 42.75 108.085938 L 39.636719 112.949219 L 42.75 112.949219 Z M 42.425781 107.011719 L 43.976562 107.011719 L 43.976562 112.949219 L 45.277344 112.949219 L 45.277344 113.976562 L 43.976562 113.976562 L 43.976562 116.125 L 42.75 116.125 L 42.75 113.976562 L 38.636719 113.976562 L 38.636719 112.785156 Z M 42.425781 107.011719 "/>
<g clip-path="url(#clip9)" clip-rule="nonzero">
<path style="fill:none;stroke-width:0.8;stroke-linecap:square;stroke-linejoin:round;stroke:rgb(69.019608%,69.019608%,69.019608%);stroke-opacity:1;stroke-miterlimit:4;" d="M 43.78125 63.9 L 239.08125 63.9 " transform="matrix(1.25,0,0,1.25,0,0)"/>
</g>
<path style="fill:none;stroke-width:0.8;stroke-linecap:butt;stroke-linejoin:round;stroke:rgb(0%,0%,0%);stroke-opacity:1;stroke-miterlimit:4;" d="M 0 0 L -3.5 0 " transform="matrix(1.25,0,0,1.25,54.726562,79.875)"/>
<path style=" stroke:none;fill-rule:nonzero;fill:rgb(0%,0%,0%);fill-opacity:1;" d="M 30.070312 76.324219 C 29.4375 76.324219 28.960938 76.636719 28.640625 77.261719 C 28.320312 77.882812 28.160156 78.824219 28.160156 80.078125 C 28.160156 81.324219 28.320312 82.261719 28.640625 82.886719 C 28.960938 83.511719 29.4375 83.824219 30.070312 83.824219 C 30.710938 83.824219 31.1875 83.511719 31.507812 82.886719 C 31.828125 82.261719 31.988281 81.324219 31.988281 80.078125 C 31.988281 78.824219 31.828125 77.882812 31.507812 77.261719 C 31.1875 76.636719 30.710938 76.324219 30.070312 76.324219 Z M 30.070312 75.347656 C 31.09375 75.347656 31.875 75.75 32.414062 76.558594 C 32.953125 77.367188 33.21875 78.539062 33.21875 80.078125 C 33.21875 81.609375 32.953125 82.78125 32.414062 83.589844 C 31.875 84.398438 31.09375 84.800781 30.070312 84.800781 C 29.050781 84.800781 28.269531 84.398438 27.730469 83.589844 C 27.191406 82.78125 26.921875 81.609375 26.921875 80.078125 C 26.921875 78.539062 27.191406 77.367188 27.730469 76.558594 C 28.269531 75.75 29.050781 75.347656 30.070312 75.347656 Z M 30.070312 75.347656 "/>
<path style=" stroke:none;fill-rule:nonzero;fill:rgb(0%,0%,0%);fill-opacity:1;" d="M 35.386719 83.074219 L 36.675781 83.074219 L 36.675781 84.625 L 35.386719 84.625 Z M 35.386719 83.074219 "/>
<path style=" stroke:none;fill-rule:nonzero;fill:rgb(0%,0%,0%);fill-opacity:1;" d="M 42.152344 79.578125 C 41.597656 79.578125 41.160156 79.765625 40.835938 80.144531 C 40.511719 80.523438 40.351562 81.042969 40.351562 81.699219 C 40.351562 82.355469 40.511719 82.875 40.835938 83.253906 C 41.160156 83.636719 41.597656 83.824219 42.152344 83.824219 C 42.703125 83.824219 43.140625 83.636719 43.464844 83.253906 C 43.789062 82.875 43.949219 82.355469 43.949219 81.699219 C 43.949219 81.042969 43.789062 80.523438 43.464844 80.144531 C 43.140625 79.765625 42.703125 79.578125 42.152344 79.578125 Z M 44.597656 75.710938 L 44.597656 76.835938 C 44.289062 76.6875 43.976562 76.578125 43.660156 76.5 C 43.34375 76.421875 43.03125 76.382812 42.722656 76.382812 C 41.910156 76.382812 41.289062 76.660156 40.859375 77.207031 C 40.429688 77.757812 40.183594 78.585938 40.125 79.699219 C 40.363281 79.34375 40.664062 79.074219 41.027344 78.882812 C 41.390625 78.695312 41.789062 78.601562 42.222656 78.601562 C 43.136719 78.601562 43.863281 78.878906 44.394531 79.433594 C 44.925781 79.988281 45.191406 80.746094 45.191406 81.699219 C 45.191406 82.636719 44.914062 83.386719 44.359375 83.953125 C 43.804688 84.519531 43.070312 84.800781 42.152344 84.800781 C 41.097656 84.800781 40.289062 84.398438 39.734375 83.589844 C 39.175781 82.78125 38.898438 81.609375 38.898438 80.078125 C 38.898438 78.636719 39.238281 77.488281 39.921875 76.632812 C 40.605469 75.773438 41.523438 75.347656 42.675781 75.347656 C 42.984375 75.347656 43.296875 75.378906 43.613281 75.4375 C 43.925781 75.5 44.253906 75.589844 44.597656 75.710938 Z M 44.597656 75.710938 "/>
<g clip-path="url(#clip10)" clip-rule="nonzero">
<path style="fill:none;stroke-width:0.8;stroke-linecap:square;stroke-linejoin:round;stroke:rgb(69.019608%,69.019608%,69.019608%);stroke-opacity:1;stroke-miterlimit:4;" d="M 43.78125 38.7 L 239.08125 38.7 " transform="matrix(1.25,0,0,1.25,0,0)"/>
</g>
<path style="fill:none;stroke-width:0.8;stroke-linecap:butt;stroke-linejoin:round;stroke:rgb(0%,0%,0%);stroke-opacity:1;stroke-miterlimit:4;" d="M 0 0 L -3.5 0 " transform="matrix(1.25,0,0,1.25,54.726562,48.375)"/>
<path style=" stroke:none;fill-rule:nonzero;fill:rgb(0%,0%,0%);fill-opacity:1;" d="M 30.070312 44.824219 C 29.4375 44.824219 28.960938 45.136719 28.640625 45.761719 C 28.320312 46.382812 28.160156 47.324219 28.160156 48.578125 C 28.160156 49.824219 28.320312 50.761719 28.640625 51.386719 C 28.960938 52.011719 29.4375 52.324219 30.070312 52.324219 C 30.710938 52.324219 31.1875 52.011719 31.507812 51.386719 C 31.828125 50.761719 31.988281 49.824219 31.988281 48.578125 C 31.988281 47.324219 31.828125 46.382812 31.507812 45.761719 C 31.1875 45.136719 30.710938 44.824219 30.070312 44.824219 Z M 30.070312 43.847656 C 31.09375 43.847656 31.875 44.25 32.414062 45.058594 C 32.953125 45.867188 33.21875 47.039062 33.21875 48.578125 C 33.21875 50.109375 32.953125 51.28125 32.414062 52.089844 C 31.875 52.898438 31.09375 53.300781 30.070312 53.300781 C 29.050781 53.300781 28.269531 52.898438 27.730469 52.089844 C 27.191406 51.28125 26.921875 50.109375 26.921875 48.578125 C 26.921875 47.039062 27.191406 45.867188 27.730469 45.058594 C 28.269531 44.25 29.050781 43.847656 30.070312 43.847656 Z M 30.070312 43.847656 "/>
<path style=" stroke:none;fill-rule:nonzero;fill:rgb(0%,0%,0%);fill-opacity:1;" d="M 35.386719 51.574219 L 36.675781 51.574219 L 36.675781 53.125 L 35.386719 53.125 Z M 35.386719 51.574219 "/>
<path style=" stroke:none;fill-rule:nonzero;fill:rgb(0%,0%,0%);fill-opacity:1;" d="M 41.996094 48.796875 C 41.410156 48.796875 40.949219 48.953125 40.613281 49.265625 C 40.277344 49.582031 40.113281 50.011719 40.113281 50.558594 C 40.113281 51.109375 40.277344 51.539062 40.613281 51.855469 C 40.949219 52.167969 41.410156 52.324219 41.996094 52.324219 C 42.582031 52.324219 43.042969 52.167969 43.382812 51.851562 C 43.71875 51.535156 43.890625 51.105469 43.890625 50.558594 C 43.890625 50.011719 43.722656 49.582031 43.386719 49.265625 C 43.050781 48.953125 42.585938 48.796875 41.996094 48.796875 Z M 40.765625 48.273438 C 40.234375 48.140625 39.824219 47.894531 39.527344 47.535156 C 39.234375 47.171875 39.085938 46.730469 39.085938 46.207031 C 39.085938 45.480469 39.34375 44.90625 39.863281 44.480469 C 40.382812 44.058594 41.09375 43.847656 41.996094 43.847656 C 42.902344 43.847656 43.617188 44.058594 44.132812 44.480469 C 44.648438 44.90625 44.910156 45.480469 44.910156 46.207031 C 44.910156 46.730469 44.761719 47.171875 44.464844 47.535156 C 44.171875 47.894531 43.761719 48.140625 43.238281 48.273438 C 43.832031 48.410156 44.292969 48.679688 44.625 49.085938 C 44.957031 49.488281 45.121094 49.980469 45.121094 50.558594 C 45.121094 51.445312 44.851562 52.121094 44.3125 52.59375 C 43.773438 53.066406 43 53.300781 41.996094 53.300781 C 40.992188 53.300781 40.21875 53.066406 39.679688 52.59375 C 39.140625 52.121094 38.871094 51.445312 38.871094 50.558594 C 38.871094 49.980469 39.039062 49.488281 39.371094 49.085938 C 39.707031 48.679688 40.171875 48.410156 40.765625 48.273438 Z M 40.3125 46.324219 C 40.3125 46.796875 40.460938 47.164062 40.753906 47.429688 C 41.050781 47.691406 41.464844 47.824219 41.996094 47.824219 C 42.527344 47.824219 42.941406 47.691406 43.238281 47.429688 C 43.539062 47.164062 43.6875 46.796875 43.6875 46.324219 C 43.6875 45.851562 43.539062 45.484375 43.238281 45.21875 C 42.941406 44.957031 42.527344 44.824219 41.996094 44.824219 C 41.464844 44.824219 41.050781 44.957031 40.753906 45.21875 C 40.460938 45.484375 40.3125 45.851562 40.3125 46.324219 Z M 40.3125 46.324219 "/>
<g clip-path="url(#clip11)" clip-rule="nonzero">
<path style="fill:none;stroke-width:0.8;stroke-linecap:square;stroke-linejoin:round;stroke:rgb(69.019608%,69.019608%,69.019608%);stroke-opacity:1;stroke-miterlimit:4;" d="M 43.78125 13.5 L 239.08125 13.5 " transform="matrix(1.25,0,0,1.25,0,0)"/>
</g>
<path style="fill:none;stroke-width:0.8;stroke-linecap:butt;stroke-linejoin:round;stroke:rgb(0%,0%,0%);stroke-opacity:1;stroke-miterlimit:4;" d="M 0 0 L -3.5 0 " transform="matrix(1.25,0,0,1.25,54.726562,16.875)"/>
<path style=" stroke:none;fill-rule:nonzero;fill:rgb(0%,0%,0%);fill-opacity:1;" d="M 27.648438 20.585938 L 29.664062 20.585938 L 29.664062 13.632812 L 27.46875 14.074219 L 27.46875 12.949219 L 29.648438 12.511719 L 30.882812 12.511719 L 30.882812 20.585938 L 32.898438 20.585938 L 32.898438 21.625 L 27.648438 21.625 Z M 27.648438 20.585938 "/>
<path style=" stroke:none;fill-rule:nonzero;fill:rgb(0%,0%,0%);fill-opacity:1;" d="M 35.386719 20.074219 L 36.675781 20.074219 L 36.675781 21.625 L 35.386719 21.625 Z M 35.386719 20.074219 "/>
<path style=" stroke:none;fill-rule:nonzero;fill:rgb(0%,0%,0%);fill-opacity:1;" d="M 41.996094 13.324219 C 41.363281 13.324219 40.886719 13.636719 40.566406 14.261719 C 40.246094 14.882812 40.085938 15.824219 40.085938 17.078125 C 40.085938 18.324219 40.246094 19.261719 40.566406 19.886719 C 40.886719 20.511719 41.363281 20.824219 41.996094 20.824219 C 42.636719 20.824219 43.113281 20.511719 43.433594 19.886719 C 43.753906 19.261719 43.914062 18.324219 43.914062 17.078125 C 43.914062 15.824219 43.753906 14.882812 43.433594 14.261719 C 43.113281 13.636719 42.636719 13.324219 41.996094 13.324219 Z M 41.996094 12.347656 C 43.019531 12.347656 43.800781 12.75 44.339844 13.558594 C 44.878906 14.367188 45.148438 15.539062 45.148438 17.078125 C 45.148438 18.609375 44.878906 19.78125 44.339844 20.589844 C 43.800781 21.398438 43.019531 21.800781 41.996094 21.800781 C 40.976562 21.800781 40.195312 21.398438 39.65625 20.589844 C 39.117188 19.78125 38.847656 18.609375 38.847656 17.078125 C 38.847656 15.539062 39.117188 14.367188 39.65625 13.558594 C 40.195312 12.75 40.976562 12.347656 41.996094 12.347656 Z M 41.996094 12.347656 "/>
<path style=" stroke:none;fill-rule:nonzero;fill:rgb(0%,0%,0%);fill-opacity:1;" d="M 11.921875 104.636719 L 12.972656 104.636719 C 12.796875 104.957031 12.667969 105.273438 12.578125 105.59375 C 12.492188 105.910156 12.449219 106.234375 12.449219 106.558594 C 12.449219 107.289062 12.679688 107.855469 13.140625 108.257812 C 13.601562 108.660156 14.25 108.863281 15.085938 108.863281 C 15.921875 108.863281 16.570312 108.660156 17.03125 108.257812 C 17.492188 107.855469 17.722656 107.289062 17.722656 106.558594 C 17.722656 106.234375 17.679688 105.910156 17.589844 105.59375 C 17.503906 105.273438 17.371094 104.957031 17.195312 104.636719 L 18.234375 104.636719 C 18.382812 104.953125 18.492188 105.277344 18.5625 105.613281 C 18.636719 105.945312 18.675781 106.304688 18.675781 106.683594 C 18.675781 107.710938 18.351562 108.53125 17.703125 109.136719 C 17.058594 109.742188 16.183594 110.046875 15.085938 110.046875 C 13.972656 110.046875 13.09375 109.738281 12.457031 109.128906 C 11.816406 108.515625 11.496094 107.675781 11.496094 106.609375 C 11.496094 106.261719 11.535156 105.925781 11.605469 105.597656 C 11.675781 105.265625 11.78125 104.949219 11.921875 104.636719 Z M 11.921875 104.636719 "/>
<path style=" stroke:none;fill-rule:nonzero;fill:rgb(0%,0%,0%);fill-opacity:1;" d="M 16.945312 102.527344 L 16.945312 101.238281 L 18.496094 101.238281 L 18.496094 102.527344 Z M 16.945312 102.527344 "/>
<path style=" stroke:none;fill-rule:nonzero;fill:rgb(0%,0%,0%);fill-opacity:1;" d="M 12.699219 94.214844 L 9 94.214844 L 9 93.089844 L 18.496094 93.089844 L 18.496094 94.214844 L 17.472656 94.214844 C 17.878906 94.449219 18.179688 94.746094 18.378906 95.109375 C 18.578125 95.46875 18.675781 95.898438 18.675781 96.40625 C 18.675781 97.230469 18.347656 97.902344 17.6875 98.421875 C 17.027344 98.941406 16.160156 99.199219 15.085938 99.199219 C 14.011719 99.199219 13.144531 98.941406 12.484375 98.421875 C 11.828125 97.902344 11.496094 97.230469 11.496094 96.40625 C 11.496094 95.898438 11.597656 95.46875 11.792969 95.109375 C 11.992188 94.746094 12.292969 94.449219 12.699219 94.214844 Z M 15.085938 98.039062 C 15.910156 98.039062 16.558594 97.871094 17.027344 97.53125 C 17.5 97.191406 17.734375 96.722656 17.734375 96.128906 C 17.734375 95.535156 17.5 95.070312 17.027344 94.726562 C 16.558594 94.386719 15.910156 94.214844 15.085938 94.214844 C 14.261719 94.214844 13.613281 94.386719 13.140625 94.726562 C 12.671875 95.070312 12.4375 95.535156 12.4375 96.128906 C 12.4375 96.722656 12.671875 97.191406 13.140625 97.53125 C 13.613281 97.871094 14.261719 98.039062 15.085938 98.039062 Z M 15.085938 98.039062 "/>
<path style=" stroke:none;fill-rule:nonzero;fill:rgb(0%,0%,0%);fill-opacity:1;" d="M 16.945312 90.617188 L 16.945312 89.328125 L 18.496094 89.328125 L 18.496094 90.617188 Z M 16.945312 90.617188 "/>
<path style=" stroke:none;fill-rule:nonzero;fill:rgb(0%,0%,0%);fill-opacity:1;" d="M 9 83.34375 L 9.933594 83.34375 L 9.933594 84.417969 C 9.933594 84.820312 10.015625 85.097656 10.179688 85.257812 C 10.34375 85.414062 10.636719 85.492188 11.058594 85.492188 L 11.660156 85.492188 L 11.660156 83.640625 L 12.535156 83.640625 L 12.535156 85.492188 L 18.496094 85.492188 L 18.496094 86.621094 L 12.535156 86.621094 L 12.535156 87.695312 L 11.660156 87.695312 L 11.660156 86.621094 L 11.183594 86.621094 C 10.425781 86.621094 9.871094 86.441406 9.523438 86.089844 C 9.175781 85.734375 9 85.171875 9 84.40625 Z M 9 83.34375 "/>
<path style=" stroke:none;fill-rule:nonzero;fill:rgb(0%,0%,0%);fill-opacity:1;" d="M 16.945312 83.152344 L 16.945312 81.863281 L 18.496094 81.863281 L 18.496094 83.152344 Z M 16.945312 83.152344 "/>
<path style="fill:none;stroke-width:1.5;stroke-linecap:square;stroke-linejoin:round;stroke:rgb(12.156863%,46.666667%,70.588235%);stroke-opacity:1;stroke-miterlimit:4;" d="M 52.659375 139.5 L 97.15625 139.5 L 186.15 13.5 L 230.203125 13.5 " transform="matrix(1.25,0,0,1.25,0,0)"/>
<path style="fill:none;stroke-width:0.8;stroke-linecap:square;stroke-linejoin:miter;stroke:rgb(0%,0%,0%);stroke-opacity:1;stroke-miterlimit:4;" d="M 43.78125 145.8 L 43.78125 7.2 " transform="matrix(1.25,0,0,1.25,0,0)"/>
<path style="fill:none;stroke-width:0.8;stroke-linecap:square;stroke-linejoin:miter;stroke:rgb(0%,0%,0%);stroke-opacity:1;stroke-miterlimit:4;" d="M 239.08125 145.8 L 239.08125 7.2 " transform="matrix(1.25,0,0,1.25,0,0)"/>
<path style="fill:none;stroke-width:0.8;stroke-linecap:square;stroke-linejoin:miter;stroke:rgb(0%,0%,0%);stroke-opacity:1;stroke-miterlimit:4;" d="M 43.78125 145.8 L 239.08125 145.8 " transform="matrix(1.25,0,0,1.25,0,0)"/>
<path style="fill:none;stroke-width:0.8;stroke-linecap:square;stroke-linejoin:miter;stroke:rgb(0%,0%,0%);stroke-opacity:1;stroke-miterlimit:4;" d="M 43.78125 7.2 L 239.08125 7.2 " transform="matrix(1.25,0,0,1.25,0,0)"/>
</g>
</svg>
