<?xml version="1.0" encoding="UTF-8"?>
<svg xmlns="http://www.w3.org/2000/svg" xmlns:xlink="http://www.w3.org/1999/xlink" width="308pt" height="229pt" viewBox="0 0 308 229" version="1.1">
<defs>
<clipPath id="clip1">
  <path d="M 87 9 L 89 9 L 89 182.25 L 87 182.25 Z M 87 9 "/>
</clipPath>
<clipPath id="clip2">
  <path d="M 131 9 L 134 9 L 134 182.25 L 131 182.25 Z M 131 9 "/>
</clipPath>
<clipPath id="clip3">
  <path d="M 176 9 L 178 9 L 178 182.25 L 176 182.25 Z M 176 9 "/>
</clipPath>
<clipPath id="clip4">
  <path d="M 220 9 L 223 9 L 223 182.25 L 220 182.25 Z M 220 9 "/>
</clipPath>
<clipPath id="clip5">
  <path d="M 265 9 L 267 9 L 267 182.25 L 265 182.25 Z M 265 9 "/>
</clipPath>
<clipPath id="clip6">
  <path d="M 54.726562 179 L 298.851562 179 L 298.851562 182 L 54.726562 182 Z M 54.726562 179 "/>
</clipPath>
<clipPath id="clip7">
  <path d="M 54.726562 147 L 298.851562 147 L 298.851562 149 L 54.726562 149 Z M 54.726562 147 "/>
</clipPath>
<clipPath id="clip8">
  <path d="M 54.726562 114 L 298.851562 114 L 298.851562 116 L 54.726562 116 Z M 54.726562 114 "/>
</clipPath>
<clipPath id="clip9">
  <path d="M 54.726562 81 L 298.851562 81 L 298.851562 84 L 54.726562 84 Z M 54.726562 81 "/>
</clipPath>
<clipPath id="clip10">
  <path d="M 54.726562 48 L 298.851562 48 L 298.851562 51 L 54.726562 51 Z M 54.726562 48 "/>
</clipPath>
<clipPath id="clip11">
  <path d="M 54.726562 16 L 298.851562 16 L 298.851562 18 L 54.726562 18 Z M 54.726562 16 "/>
</clipPath>
</defs>
<g id="surface1">
<path style=" stroke:none;fill-rule:nonzero;fill:rgb(100%,100%,100%);fill-opacity:1;" d="M 0 229.195312 L 307.851562 229.195312 L 307.851562 0 L 0 0 Z M 0 229.195312 "/>
<path style=" stroke:none;fill-rule:nonzero;fill:rgb(100%,100%,100%);fill-opacity:1;" d="M 54.726562 182.25 L 298.851562 182.25 L 298.851562 9 L 54.726562 9 Z M 54.726562 182.25 "/>
<g clip-path="url(#clip1)" clip-rule="nonzero">
<path style="fill:none;stroke-width:0.8;stroke-linecap:square;stroke-linejoin:round;stroke:rgb(69.019608%,69.019608%,69.019608%);stroke-opacity:1;stroke-miterlimit:4;" d="M 70.43125 145.8 L 70.43125 7.2 " transform="matrix(1.25,0,0,1.25,0,0)"/>
</g>
<path style="fill:none;stroke-width:0.8;stroke-linecap:butt;stroke-linejoin:round;stroke:rgb(0%,0%,0%);stroke-opacity:1;stroke-miterlimit:4;" d="M 0.000409 0 L 0.000409 3.5 " transform="matrix(1.25,0,0,1.25,88.038551,182.25)"/>
<path style=" stroke:none;fill-rule:nonzero;fill:rgb(0%,0%,0%);fill-opacity:1;" d="M 80.148438 196.0625 L 87.972656 196.0625 L 87.972656 197.097656 L 80.148438 197.097656 Z M 80.148438 196.0625 "/>
<path style=" stroke:none;fill-rule:nonzero;fill:rgb(0%,0%,0%);fill-opacity:1;" d="M 94.023438 192.460938 L 90.910156 197.324219 L 94.023438 197.324219 Z M 93.699219 191.386719 L 95.25 191.386719 L 95.25 197.324219 L 96.550781 197.324219 L 96.550781 198.351562 L 95.25 198.351562 L 95.25 200.5 L 94.023438 200.5 L 94.023438 198.351562 L 89.910156 198.351562 L 89.910156 197.160156 Z M 93.699219 191.386719 "/>
<g clip-path="url(#clip2)" clip-rule="nonzero">
<path style="fill:none;stroke-width:0.8;stroke-linecap:square;stroke-linejoin:round;stroke:rgb(69.019608%,69.019608%,69.019608%);stroke-opacity:1;stroke-miterlimit:4;" d="M 105.975 145.8 L 105.975 7.2 " transform="matrix(1.25,0,0,1.25,0,0)"/>
</g>
<path style="fill:none;stroke-width:0.8;stroke-linecap:butt;stroke-linejoin:round;stroke:rgb(0%,0%,0%);stroke-opacity:1;stroke-miterlimit:4;" d="M -0.000477 0 L -0.000477 3.5 " transform="matrix(1.25,0,0,1.25,132.469346,182.25)"/>
<path style=" stroke:none;fill-rule:nonzero;fill:rgb(0%,0%,0%);fill-opacity:1;" d="M 124.578125 196.0625 L 132.402344 196.0625 L 132.402344 197.097656 L 124.578125 197.097656 Z M 124.578125 196.0625 "/>
<path style=" stroke:none;fill-rule:nonzero;fill:rgb(0%,0%,0%);fill-opacity:1;" d="M 136.128906 199.460938 L 140.429688 199.460938 L 140.429688 200.5 L 134.644531 200.5 L 134.644531 199.460938 C 135.113281 198.976562 135.75 198.328125 136.558594 197.511719 C 137.367188 196.695312 137.875 196.167969 138.082031 195.933594 C 138.476562 195.488281 138.75 195.113281 138.90625 194.808594 C 139.0625 194.5 139.144531 194.199219 139.144531 193.902344 C 139.144531 193.417969 138.972656 193.023438 138.632812 192.71875 C 138.292969 192.410156 137.851562 192.257812 137.304688 192.257812 C 136.917969 192.257812 136.511719 192.324219 136.082031 192.460938 C 135.652344 192.59375 135.195312 192.796875 134.707031 193.070312 L 134.707031 191.824219 C 135.203125 191.625 135.664062 191.476562 136.097656 191.375 C 136.527344 191.273438 136.921875 191.222656 137.28125 191.222656 C 138.226562 191.222656 138.976562 191.457031 139.539062 191.929688 C 140.101562 192.402344 140.382812 193.03125 140.382812 193.820312 C 140.382812 194.195312 140.3125 194.550781 140.171875 194.886719 C 140.03125 195.222656 139.777344 195.617188 139.40625 196.074219 C 139.304688 196.191406 138.980469 196.53125 138.433594 197.097656 C 137.890625 197.660156 137.121094 198.449219 136.128906 199.460938 Z M 136.128906 199.460938 "/>
<g clip-path="url(#clip3)" clip-rule="nonzero">
<path style="fill:none;stroke-width:0.8;stroke-linecap:square;stroke-linejoin:round;stroke:rgb(69.019608%,69.019608%,69.019608%);stroke-opacity:1;stroke-miterlimit:4;" d="M 141.51875 145.8 L 141.51875 7.2 " transform="matrix(1.25,0,0,1.25,0,0)"/>
</g>
<path style="fill:none;stroke-width:0.8;stroke-linecap:butt;stroke-linejoin:round;stroke:rgb(0%,0%,0%);stroke-opacity:1;stroke-miterlimit:4;" d="M -0.001364 0 L -0.001364 3.5 " transform="matrix(1.25,0,0,1.25,176.900143,182.25)"/>
<path style=" stroke:none;fill-rule:nonzero;fill:rgb(0%,0%,0%);fill-opacity:1;" d="M 176.894531 192.199219 C 176.261719 192.199219 175.785156 192.511719 175.464844 193.136719 C 175.144531 193.757812 174.984375 194.699219 174.984375 195.953125 C 174.984375 197.199219 175.144531 198.136719 175.464844 198.761719 C 175.785156 199.386719 176.261719 199.699219 176.894531 199.699219 C 177.535156 199.699219 178.015625 199.386719 178.332031 198.761719 C 178.652344 198.136719 178.8125 197.199219 178.8125 195.953125 C 178.8125 194.699219 178.652344 193.757812 178.332031 193.136719 C 178.015625 192.511719 177.535156 192.199219 176.894531 192.199219 Z M 176.894531 191.222656 C 177.917969 191.222656 178.699219 191.625 179.238281 192.433594 C 179.777344 193.242188 180.046875 194.414062 180.046875 195.953125 C 180.046875 197.484375 179.777344 198.65625 179.238281 199.464844 C 178.699219 200.273438 177.917969 200.675781 176.894531 200.675781 C 175.875 200.675781 175.09375 200.273438 174.554688 199.464844 C 174.015625 198.65625 173.746094 197.484375 173.746094 195.953125 C 173.746094 194.414062 174.015625 193.242188 174.554688 192.433594 C 175.09375 191.625 175.875 191.222656 176.894531 191.222656 Z M 176.894531 191.222656 "/>
<g clip-path="url(#clip4)" clip-rule="nonzero">
<path style="fill:none;stroke-width:0.8;stroke-linecap:square;stroke-linejoin:round;stroke:rgb(69.019608%,69.019608%,69.019608%);stroke-opacity:1;stroke-miterlimit:4;" d="M 177.065625 145.8 L 177.065625 7.2 " transform="matrix(1.25,0,0,1.25,0,0)"/>
</g>
<path style="fill:none;stroke-width:0.8;stroke-linecap:butt;stroke-linejoin:round;stroke:rgb(0%,0%,0%);stroke-opacity:1;stroke-miterlimit:4;" d="M 0.000875 0 L 0.000875 3.5 " transform="matrix(1.25,0,0,1.25,221.330938,182.25)"/>
<path style=" stroke:none;fill-rule:nonzero;fill:rgb(0%,0%,0%);fill-opacity:1;" d="M 219.753906 199.460938 L 224.054688 199.460938 L 224.054688 200.5 L 218.269531 200.5 L 218.269531 199.460938 C 218.738281 198.976562 219.375 198.328125 220.183594 197.511719 C 220.992188 196.695312 221.5 196.167969 221.707031 195.933594 C 222.101562 195.488281 222.375 195.113281 222.53125 194.808594 C 222.691406 194.5 222.769531 194.199219 222.769531 193.902344 C 222.769531 193.417969 222.597656 193.023438 222.257812 192.71875 C 221.917969 192.410156 221.476562 192.257812 220.929688 192.257812 C 220.542969 192.257812 220.136719 192.324219 219.707031 192.460938 C 219.277344 192.59375 218.820312 192.796875 218.332031 193.070312 L 218.332031 191.824219 C 218.828125 191.625 219.289062 191.476562 219.722656 191.375 C 220.152344 191.273438 220.550781 191.222656 220.90625 191.222656 C 221.851562 191.222656 222.605469 191.457031 223.164062 191.929688 C 223.726562 192.402344 224.007812 193.03125 224.007812 193.820312 C 224.007812 194.195312 223.9375 194.550781 223.796875 194.886719 C 223.65625 195.222656 223.402344 195.617188 223.03125 196.074219 C 222.929688 196.191406 222.605469 196.53125 222.058594 197.097656 C 221.515625 197.660156 220.746094 198.449219 219.753906 199.460938 Z M 219.753906 199.460938 "/>
<g clip-path="url(#clip5)" clip-rule="nonzero">
<path style="fill:none;stroke-width:0.8;stroke-linecap:square;stroke-linejoin:round;stroke:rgb(69.019608%,69.019608%,69.019608%);stroke-opacity:1;stroke-miterlimit:4;" d="M 212.609375 145.8 L 212.609375 7.2 " transform="matrix(1.25,0,0,1.25,0,0)"/>
</g>
<path style="fill:none;stroke-width:0.8;stroke-linecap:butt;stroke-linejoin:round;stroke:rgb(0%,0%,0%);stroke-opacity:1;stroke-miterlimit:4;" d="M -0.000011 0 L -0.000011 3.5 " transform="matrix(1.25,0,0,1.25,265.761732,182.25)"/>
<path style=" stroke:none;fill-rule:nonzero;fill:rgb(0%,0%,0%);fill-opacity:1;" d="M 266.511719 192.460938 L 263.398438 197.324219 L 266.511719 197.324219 Z M 266.1875 191.386719 L 267.738281 191.386719 L 267.738281 197.324219 L 269.039062 197.324219 L 269.039062 198.351562 L 267.738281 198.351562 L 267.738281 200.5 L 266.511719 200.5 L 266.511719 198.351562 L 262.398438 198.351562 L 262.398438 197.160156 Z M 266.1875 191.386719 "/>
<path style=" stroke:none;fill-rule:nonzero;fill:rgb(0%,0%,0%);fill-opacity:1;" d="M 179.953125 210.761719 L 177.476562 214.085938 L 180.078125 217.597656 L 178.753906 217.597656 L 176.765625 214.910156 L 174.773438 217.597656 L 173.449219 217.597656 L 176.105469 214.019531 L 173.675781 210.761719 L 175 210.761719 L 176.8125 213.195312 L 178.625 210.761719 Z M 179.953125 210.761719 "/>
<g clip-path="url(#clip6)" clip-rule="nonzero">
<path style="fill:none;stroke-width:0.8;stroke-linecap:square;stroke-linejoin:round;stroke:rgb(69.019608%,69.019608%,69.019608%);stroke-opacity:1;stroke-miterlimit:4;" d="M 43.78125 144.540625 L 239.08125 144.540625 " transform="matrix(1.25,0,0,1.25,0,0)"/>
</g>
<path style="fill:none;stroke-width:0.8;stroke-linecap:butt;stroke-linejoin:round;stroke:rgb(0%,0%,0%);stroke-opacity:1;stroke-miterlimit:4;" d="M 0 0.000625 L -3.5 0.000625 " transform="matrix(1.25,0,0,1.25,54.726562,180.675)"/>
<path style=" stroke:none;fill-rule:nonzero;fill:rgb(0%,0%,0%);fill-opacity:1;" d="M 30.070312 177.125 C 29.4375 177.125 28.960938 177.4375 28.640625 178.0625 C 28.320312 178.683594 28.160156 179.625 28.160156 180.878906 C 28.160156 182.125 28.320312 183.0625 28.640625 183.6875 C 28.960938 184.3125 29.4375 184.625 30.070312 184.625 C 30.710938 184.625 31.1875 184.3125 31.507812 183.6875 C 31.828125 183.0625 31.988281 182.125 31.988281 180.878906 C 31.988281 179.625 31.828125 178.683594 31.507812 178.0625 C 31.1875 177.4375 30.710938 177.125 30.070312 177.125 Z M 30.070312 176.148438 C 31.09375 176.148438 31.875 176.550781 32.414062 177.359375 C 32.953125 178.167969 33.21875 179.339844 33.21875 180.878906 C 33.21875 182.410156 32.953125 183.582031 32.414062 184.390625 C 31.875 185.199219 31.09375 185.601562 30.070312 185.601562 C 29.050781 185.601562 28.269531 185.199219 27.730469 184.390625 C 27.191406 183.582031 26.921875 182.410156 26.921875 180.878906 C 26.921875 179.339844 27.191406 178.167969 27.730469 177.359375 C 28.269531 176.550781 29.050781 176.148438 30.070312 176.148438 Z M 30.070312 176.148438 "/>
<path style=" stroke:none;fill-rule:nonzero;fill:rgb(0%,0%,0%);fill-opacity:1;" d="M 35.386719 183.875 L 36.675781 183.875 L 36.675781 185.425781 L 35.386719 185.425781 Z M 35.386719 183.875 "/>
<path style=" stroke:none;fill-rule:nonzero;fill:rgb(0%,0%,0%);fill-opacity:1;" d="M 41.996094 177.125 C 41.363281 177.125 40.886719 177.4375 40.566406 178.0625 C 40.246094 178.683594 40.085938 179.625 40.085938 180.878906 C 40.085938 182.125 40.246094 183.0625 40.566406 183.6875 C 40.886719 184.3125 41.363281 184.625 41.996094 184.625 C 42.636719 184.625 43.113281 184.3125 43.433594 183.6875 C 43.753906 183.0625 43.914062 182.125 43.914062 180.878906 C 43.914062 179.625 43.753906 178.683594 43.433594 178.0625 C 43.113281 177.4375 42.636719 177.125 41.996094 177.125 Z M 41.996094 176.148438 C 43.019531 176.148438 43.800781 176.550781 44.339844 177.359375 C 44.878906 178.167969 45.148438 179.339844 45.148438 180.878906 C 45.148438 182.410156 44.878906 183.582031 44.339844 184.390625 C 43.800781 185.199219 43.019531 185.601562 41.996094 185.601562 C 40.976562 185.601562 40.195312 185.199219 39.65625 184.390625 C 39.117188 183.582031 38.847656 182.410156 38.847656 180.878906 C 38.847656 179.339844 39.117188 178.167969 39.65625 177.359375 C 40.195312 176.550781 40.976562 176.148438 41.996094 176.148438 Z M 41.996094 176.148438 "/>
<g clip-path="url(#clip7)" clip-rule="nonzero">
<path style="fill:none;stroke-width:0.8;stroke-linecap:square;stroke-linejoin:round;stroke:rgb(69.019608%,69.019608%,69.019608%);stroke-opacity:1;stroke-miterlimit:4;" d="M 43.78125 118.33125 L 239.08125 118.33125 " transform="matrix(1.25,0,0,1.25,0,0)"/>
</g>
<path style="fill:none;stroke-width:0.8;stroke-linecap:butt;stroke-linejoin:round;stroke:rgb(0%,0%,0%);stroke-opacity:1;stroke-miterlimit:4;" d="M 0 -0.00075 L -3.5 -0.00075 " transform="matrix(1.25,0,0,1.25,54.726562,147.915)"/>
<path style=" stroke:none;fill-rule:nonzero;fill:rgb(0%,0%,0%);fill-opacity:1;" d="M 30.070312 144.363281 C 29.4375 144.363281 28.960938 144.675781 28.640625 145.300781 C 28.320312 145.925781 28.160156 146.863281 28.160156 148.117188 C 28.160156 149.367188 28.320312 150.300781 28.640625 150.925781 C 28.960938 151.550781 29.4375 151.863281 30.070312 151.863281 C 30.710938 151.863281 31.1875 151.550781 31.507812 150.925781 C 31.828125 150.300781 31.988281 149.367188 31.988281 148.117188 C 31.988281 146.863281 31.828125 145.925781 31.507812 145.300781 C 31.1875 144.675781 30.710938 144.363281 30.070312 144.363281 Z M 30.070312 143.386719 C 31.09375 143.386719 31.875 143.789062 32.414062 144.597656 C 32.953125 145.40625 33.21875 146.578125 33.21875 148.117188 C 33.21875 149.652344 32.953125 150.820312 32.414062 151.628906 C 31.875 152.4375 31.09375 152.839844 30.070312 152.839844 C 29.050781 152.839844 28.269531 152.4375 27.730469 151.628906 C 27.191406 150.820312 26.921875 149.652344 26.921875 148.117188 C 26.921875 146.578125 27.191406 145.40625 27.730469 144.597656 C 28.269531 143.789062 29.050781 143.386719 30.070312 143.386719 Z M 30.070312 143.386719 "/>
<path style=" stroke:none;fill-rule:nonzero;fill:rgb(0%,0%,0%);fill-opacity:1;" d="M 35.386719 151.113281 L 36.675781 151.113281 L 36.675781 152.664062 L 35.386719 152.664062 Z M 35.386719 151.113281 "/>
<path style=" stroke:none;fill-rule:nonzero;fill:rgb(0%,0%,0%);fill-opacity:1;" d="M 40.421875 151.625 L 44.726562 151.625 L 44.726562 152.664062 L 38.941406 152.664062 L 38.941406 151.625 C 39.40625 151.140625 40.042969 150.492188 40.851562 149.675781 C 41.660156 148.859375 42.167969 148.335938 42.375 148.097656 C 42.769531 147.65625 43.046875 147.28125 43.203125 146.972656 C 43.359375 146.664062 43.4375 146.363281 43.4375 146.066406 C 43.4375 145.582031 43.269531 145.1875 42.929688 144.882812 C 42.589844 144.578125 42.144531 144.421875 41.601562 144.421875 C 41.214844 144.421875 40.804688 144.492188 40.375 144.625 C 39.945312 144.757812 39.488281 144.960938 39 145.234375 L 39 143.988281 C 39.496094 143.789062 39.960938 143.640625 40.390625 143.539062 C 40.824219 143.4375 41.21875 143.386719 41.578125 143.386719 C 42.519531 143.386719 43.273438 143.621094 43.835938 144.09375 C 44.394531 144.566406 44.675781 145.195312 44.675781 145.984375 C 44.675781 146.359375 44.605469 146.714844 44.464844 147.050781 C 44.324219 147.386719 44.070312 147.78125 43.699219 148.238281 C 43.597656 148.355469 43.273438 148.699219 42.730469 149.261719 C 42.183594 149.824219 41.414062 150.613281 40.421875 151.625 Z M 40.421875 151.625 "/>
<g clip-path="url(#clip8)" clip-rule="nonzero">
<path style="fill:none;stroke-width:0.8;stroke-linecap:square;stroke-linejoin:round;stroke:rgb(69.019608%,69.019608%,69.019608%);stroke-opacity:1;stroke-miterlimit:4;" d="M 43.78125 92.125 L 239.08125 92.125 " transform="matrix(1.25,0,0,1.25,0,0)"/>
</g>
<path style="fill:none;stroke-width:0.8;stroke-linecap:butt;stroke-linejoin:round;stroke:rgb(0%,0%,0%);stroke-opacity:1;stroke-miterlimit:4;" d="M 0 0.001 L -3.5 0.001 " transform="matrix(1.25,0,0,1.25,54.726562,115.155)"/>
<path style=" stroke:none;fill-rule:nonzero;fill:rgb(0%,0%,0%);fill-opacity:1;" d="M 30.070312 111.601562 C 29.4375 111.601562 28.960938 111.914062 28.640625 112.539062 C 28.320312 113.164062 28.160156 114.101562 28.160156 115.355469 C 28.160156 116.605469 28.320312 117.542969 28.640625 118.167969 C 28.960938 118.792969 29.4375 119.105469 30.070312 119.105469 C 30.710938 119.105469 31.1875 118.792969 31.507812 118.167969 C 31.828125 117.542969 31.988281 116.605469 31.988281 115.355469 C 31.988281 114.101562 31.828125 113.164062 31.507812 112.539062 C 31.1875 111.914062 30.710938 111.601562 30.070312 111.601562 Z M 30.070312 110.625 C 31.09375 110.625 31.875 111.03125 32.414062 111.839844 C 32.953125 112.648438 33.21875 113.820312 33.21875 115.355469 C 33.21875 116.890625 32.953125 118.0625 32.414062 118.871094 C 31.875 119.679688 31.09375 120.082031 30.070312 120.082031 C 29.050781 120.082031 28.269531 119.679688 27.730469 118.871094 C 27.191406 118.0625 26.921875 116.890625 26.921875 115.355469 C 26.921875 113.820312 27.191406 112.648438 27.730469 111.839844 C 28.269531 111.03125 29.050781 110.625 30.070312 110.625 Z M 30.070312 110.625 "/>
<path style=" stroke:none;fill-rule:nonzero;fill:rgb(0%,0%,0%);fill-opacity:1;" d="M 35.386719 118.351562 L 36.675781 118.351562 L 36.675781 119.902344 L 35.386719 119.902344 Z M 35.386719 118.351562 "/>
<path style=" stroke:none;fill-rule:nonzero;fill:rgb(0%,0%,0%);fill-opacity:1;" d="M 42.75 111.863281 L 39.636719 116.730469 L 42.75 116.730469 Z M 42.425781 110.789062 L 43.976562 110.789062 L 43.976562 116.730469 L 45.277344 116.730469 L 45.277344 117.753906 L 43.976562 117.753906 L 43.976562 119.902344 L 42.75 119.902344 L 42.75 117.753906 L 38.636719 117.753906 L 38.636719 116.566406 Z M 42.425781 110.789062 "/>
<g clip-path="url(#clip9)" clip-rule="nonzero">
<path style="fill:none;stroke-width:0.8;stroke-linecap:square;stroke-linejoin:round;stroke:rgb(69.019608%,69.019608%,69.019608%);stroke-opacity:1;stroke-miterlimit:4;" d="M 43.78125 65.915625 L 239.08125 65.915625 " transform="matrix(1.25,0,0,1.25,0,0)"/>
</g>
<path style="fill:none;stroke-width:0.8;stroke-linecap:butt;stroke-linejoin:round;stroke:rgb(0%,0%,0%);stroke-opacity:1;stroke-miterlimit:4;" d="M 0 -0.000375 L -3.5 -0.000375 " transform="matrix(1.25,0,0,1.25,54.726562,82.395)"/>
<path style=" stroke:none;fill-rule:nonzero;fill:rgb(0%,0%,0%);fill-opacity:1;" d="M 30.070312 78.84375 C 29.4375 78.84375 28.960938 79.15625 28.640625 79.78125 C 28.320312 80.40625 28.160156 81.34375 28.160156 82.597656 C 28.160156 83.847656 28.320312 84.78125 28.640625 85.40625 C 28.960938 86.03125 29.4375 86.34375 30.070312 86.34375 C 30.710938 86.34375 31.1875 86.03125 31.507812 85.40625 C 31.828125 84.78125 31.988281 83.847656 31.988281 82.597656 C 31.988281 81.34375 31.828125 80.40625 31.507812 79.78125 C 31.1875 79.15625 30.710938 78.84375 30.070312 78.84375 Z M 30.070312 77.867188 C 31.09375 77.867188 31.875 78.269531 32.414062 79.078125 C 32.953125 79.886719 33.21875 81.058594 33.21875 82.597656 C 33.21875 84.132812 32.953125 85.300781 32.414062 86.109375 C 31.875 86.917969 31.09375 87.320312 30.070312 87.320312 C 29.050781 87.320312 28.269531 86.917969 27.730469 86.109375 C 27.191406 85.300781 26.921875 84.132812 26.921875 82.597656 C 26.921875 81.058594 27.191406 79.886719 27.730469 79.078125 C 28.269531 78.269531 29.050781 77.867188 30.070312 77.867188 Z M 30.070312 77.867188 "/>
<path style=" stroke:none;fill-rule:nonzero;fill:rgb(0%,0%,0%);fill-opacity:1;" d="M 35.386719 85.59375 L 36.675781 85.59375 L 36.675781 87.144531 L 35.386719 87.144531 Z M 35.386719 85.59375 "/>
<path style=" stroke:none;fill-rule:nonzero;fill:rgb(0%,0%,0%);fill-opacity:1;" d="M 42.152344 82.097656 C 41.597656 82.097656 41.160156 82.285156 40.835938 82.664062 C 40.511719 83.042969 40.351562 83.5625 40.351562 84.21875 C 40.351562 84.875 40.511719 85.394531 40.835938 85.773438 C 41.160156 86.15625 41.597656 86.34375 42.152344 86.34375 C 42.703125 86.34375 43.140625 86.15625 43.464844 85.773438 C 43.789062 85.394531 43.949219 84.875 43.949219 84.21875 C 43.949219 83.5625 43.789062 83.042969 43.464844 82.664062 C 43.140625 82.285156 42.703125 82.097656 42.152344 82.097656 Z M 44.597656 78.230469 L 44.597656 79.355469 C 44.289062 79.210938 43.976562 79.097656 43.660156 79.019531 C 43.34375 78.941406 43.03125 78.902344 42.722656 78.902344 C 41.910156 78.902344 41.289062 79.179688 40.859375 79.726562 C 40.429688 80.277344 40.183594 81.109375 40.125 82.21875 C 40.363281 81.863281 40.664062 81.59375 41.027344 81.402344 C 41.390625 81.214844 41.789062 81.121094 42.222656 81.121094 C 43.136719 81.121094 43.863281 81.398438 44.394531 81.953125 C 44.925781 82.507812 45.191406 83.265625 45.191406 84.21875 C 45.191406 85.15625 44.914062 85.90625 44.359375 86.472656 C 43.804688 87.039062 43.070312 87.320312 42.152344 87.320312 C 41.097656 87.320312 40.289062 86.917969 39.734375 86.109375 C 39.175781 85.300781 38.898438 84.132812 38.898438 82.597656 C 38.898438 81.15625 39.238281 80.007812 39.921875 79.152344 C 40.605469 78.296875 41.523438 77.867188 42.675781 77.867188 C 42.984375 77.867188 43.296875 77.898438 43.613281 77.957031 C 43.925781 78.019531 44.253906 78.109375 44.597656 78.230469 Z M 44.597656 78.230469 "/>
<g clip-path="url(#clip10)" clip-rule="nonzero">
<path style="fill:none;stroke-width:0.8;stroke-linecap:square;stroke-linejoin:round;stroke:rgb(69.019608%,69.019608%,69.019608%);stroke-opacity:1;stroke-miterlimit:4;" d="M 43.78125 39.709375 L 239.08125 39.709375 " transform="matrix(1.25,0,0,1.25,0,0)"/>
</g>
<path style="fill:none;stroke-width:0.8;stroke-linecap:butt;stroke-linejoin:round;stroke:rgb(0%,0%,0%);stroke-opacity:1;stroke-miterlimit:4;" d="M 0 0.001375 L -3.5 0.001375 " transform="matrix(1.25,0,0,1.25,54.726562,49.635)"/>
<path style=" stroke:none;fill-rule:nonzero;fill:rgb(0%,0%,0%);fill-opacity:1;" d="M 30.070312 46.082031 C 29.4375 46.082031 28.960938 46.394531 28.640625 47.019531 C 28.320312 47.644531 28.160156 48.582031 28.160156 49.835938 C 28.160156 51.085938 28.320312 52.023438 28.640625 52.648438 C 28.960938 53.273438 29.4375 53.585938 30.070312 53.585938 C 30.710938 53.585938 31.1875 53.273438 31.507812 52.648438 C 31.828125 52.023438 31.988281 51.085938 31.988281 49.835938 C 31.988281 48.582031 31.828125 47.644531 31.507812 47.019531 C 31.1875 46.394531 30.710938 46.082031 30.070312 46.082031 Z M 30.070312 45.105469 C 31.09375 45.105469 31.875 45.511719 32.414062 46.320312 C 32.953125 47.125 33.21875 48.300781 33.21875 49.835938 C 33.21875 51.371094 32.953125 52.542969 32.414062 53.351562 C 31.875 54.15625 31.09375 54.5625 30.070312 54.5625 C 29.050781 54.5625 28.269531 54.15625 27.730469 53.351562 C 27.191406 52.542969 26.921875 51.371094 26.921875 49.835938 C 26.921875 48.300781 27.191406 47.125 27.730469 46.320312 C 28.269531 45.511719 29.050781 45.105469 30.070312 45.105469 Z M 30.070312 45.105469 "/>
<path style=" stroke:none;fill-rule:nonzero;fill:rgb(0%,0%,0%);fill-opacity:1;" d="M 35.386719 52.832031 L 36.675781 52.832031 L 36.675781 54.382812 L 35.386719 54.382812 Z M 35.386719 52.832031 "/>
<path style=" stroke:none;fill-rule:nonzero;fill:rgb(0%,0%,0%);fill-opacity:1;" d="M 41.996094 50.054688 C 41.410156 50.054688 40.949219 50.210938 40.613281 50.527344 C 40.277344 50.839844 40.113281 51.269531 40.113281 51.820312 C 40.113281 52.367188 40.277344 52.800781 40.613281 53.113281 C 40.949219 53.429688 41.410156 53.585938 41.996094 53.585938 C 42.582031 53.585938 43.042969 53.425781 43.382812 53.113281 C 43.71875 52.796875 43.890625 52.363281 43.890625 51.820312 C 43.890625 51.269531 43.722656 50.839844 43.386719 50.527344 C 43.050781 50.210938 42.585938 50.054688 41.996094 50.054688 Z M 40.765625 49.53125 C 40.234375 49.402344 39.824219 49.15625 39.527344 48.792969 C 39.234375 48.429688 39.085938 47.988281 39.085938 47.46875 C 39.085938 46.738281 39.34375 46.164062 39.863281 45.742188 C 40.382812 45.316406 41.09375 45.105469 41.996094 45.105469 C 42.902344 45.105469 43.617188 45.316406 44.132812 45.742188 C 44.648438 46.164062 44.910156 46.738281 44.910156 47.46875 C 44.910156 47.988281 44.761719 48.429688 44.464844 48.792969 C 44.171875 49.15625 43.761719 49.402344 43.238281 49.53125 C 43.832031 49.671875 44.292969 49.941406 44.625 50.34375 C 44.957031 50.746094 45.121094 51.238281 45.121094 51.820312 C 45.121094 52.703125 44.851562 53.382812 44.3125 53.855469 C 43.773438 54.324219 43 54.5625 41.996094 54.5625 C 40.992188 54.5625 40.21875 54.324219 39.679688 53.855469 C 39.140625 53.382812 38.871094 52.703125 38.871094 51.820312 C 38.871094 51.238281 39.039062 50.746094 39.371094 50.34375 C 39.707031 49.941406 40.171875 49.671875 40.765625 49.53125 Z M 40.3125 47.585938 C 40.3125 48.054688 40.460938 48.425781 40.753906 48.6875 C 41.050781 48.953125 41.464844 49.085938 41.996094 49.085938 C 42.527344 49.085938 42.941406 48.953125 43.238281 48.6875 C 43.539062 48.425781 43.6875 48.054688 43.6875 47.585938 C 43.6875 47.113281 43.539062 46.742188 43.238281 46.480469 C 42.941406 46.214844 42.527344 46.082031 41.996094 46.082031 C 41.464844 46.082031 41.050781 46.214844 40.753906 46.480469 C 40.460938 46.742188 40.3125 47.113281 40.3125 47.585938 Z M 40.3125 47.585938 "/>
<g clip-path="url(#clip11)" clip-rule="nonzero">
<path style="fill:none;stroke-width:0.8;stroke-linecap:square;stroke-linejoin:round;stroke:rgb(69.019608%,69.019608%,69.019608%);stroke-opacity:1;stroke-miterlimit:4;" d="M 43.78125 13.5 L 239.08125 13.5 " transform="matrix(1.25,0,0,1.25,0,0)"/>
</g>
<path style="fill:none;stroke-width:0.8;stroke-linecap:butt;stroke-linejoin:round;stroke:rgb(0%,0%,0%);stroke-opacity:1;stroke-miterlimit:4;" d="M 0 0 L -3.5 0 " transform="matrix(1.25,0,0,1.25,54.726562,16.875)"/>
<path style=" stroke:none;fill-rule:nonzero;fill:rgb(0%,0%,0%);fill-opacity:1;" d="M 27.648438 20.585938 L 29.664062 20.585938 L 29.664062 13.632812 L 27.46875 14.074219 L 27.46875 12.949219 L 29.648438 12.511719 L 30.882812 12.511719 L 30.882812 20.585938 L 32.898438 20.585938 L 32.898438 21.625 L 27.648438 21.625 Z M 27.648438 20.585938 "/>
<path style=" stroke:none;fill-rule:nonzero;fill:rgb(0%,0%,0%);fill-opacity:1;" d="M 35.386719 20.074219 L 36.675781 20.074219 L 36.675781 21.625 L 35.386719 21.625 Z M 35.386719 20.074219 "/>
<path style=" stroke:none;fill-rule:nonzero;fill:rgb(0%,0%,0%);fill-opacity:1;" d="M 41.996094 13.324219 C 41.363281 13.324219 40.886719 13.636719 40.566406 14.261719 C 40.246094 14.882812 40.085938 15.824219 40.085938 17.078125 C 40.085938 18.324219 40.246094 19.261719 40.566406 19.886719 C 40.886719 20.511719 41.363281 20.824219 41.996094 20.824219 C 42.636719 20.824219 43.113281 20.511719 43.433594 19.886719 C 43.753906 19.261719 43.914062 18.324219 43.914062 17.078125 C 43.914062 15.824219 43.753906 14.882812 43.433594 14.261719 C 43.113281 13.636719 42.636719 13.324219 41.996094 13.324219 Z M 41.996094 12.347656 C 43.019531 12.347656 43.800781 12.75 44.339844 13.558594 C 44.878906 14.367188 45.148438 15.539062 45.148438 17.078125 C 45.148438 18.609375 44.878906 19.78125 44.339844 20.589844 C 43.800781 21.398438 43.019531 21.800781 41.996094 21.800781 C 40.976562 21.800781 40.195312 21.398438 39.65625 20.589844 C 39.117188 19.78125 38.847656 18.609375 38.847656 17.078125 C 38.847656 15.539062 39.117188 14.367188 39.65625 13.558594 C 40.195312 12.75 40.976562 12.347656 41.996094 12.347656 Z M 41.996094 12.347656 "/>
<path style=" stroke:none;fill-rule:nonzero;fill:rgb(0%,0%,0%);fill-opacity:1;" d="M 17.472656 109.003906 L 21.097656 109.003906 L 21.097656 110.132812 L 11.660156 110.132812 L 11.660156 109.003906 L 12.699219 109.003906 C 12.292969 108.765625 11.992188 108.46875 11.792969 108.109375 C 11.597656 107.746094 11.496094 107.316406 11.496094 106.816406 C 11.496094 105.988281 11.828125 105.3125 12.484375 104.792969 C 13.144531 104.273438 14.011719 104.015625 15.085938 104.015625 C 16.160156 104.015625 17.027344 104.273438 17.6875 104.792969 C 18.347656 105.3125 18.675781 105.988281 18.675781 106.816406 C 18.675781 107.316406 18.578125 107.746094 18.378906 108.109375 C 18.179688 108.46875 17.878906 108.765625 17.472656 109.003906 Z M 15.085938 105.179688 C 14.261719 105.179688 13.613281 105.351562 13.140625 105.691406 C 12.671875 106.03125 12.4375 106.496094 12.4375 107.089844 C 12.4375 107.6875 12.671875 108.152344 13.140625 108.492188 C 13.613281 108.832031 14.261719 109.003906 15.085938 109.003906 C 15.910156 109.003906 16.558594 108.832031 17.027344 108.492188 C 17.5 108.152344 17.734375 107.6875 17.734375 107.089844 C 17.734375 106.496094 17.5 106.03125 17.027344 105.691406 C 16.558594 105.351562 15.910156 105.179688 15.085938 105.179688 Z M 15.085938 105.179688 "/>
<path style=" stroke:none;fill-rule:nonzero;fill:rgb(0%,0%,0%);fill-opacity:1;" d="M 16.945312 101.996094 L 16.945312 100.707031 L 18.496094 100.707031 L 18.496094 101.996094 Z M 16.945312 101.996094 "/>
<path style=" stroke:none;fill-rule:nonzero;fill:rgb(0%,0%,0%);fill-opacity:1;" d="M 12.699219 93.683594 L 9 93.683594 L 9 92.558594 L 18.496094 92.558594 L 18.496094 93.683594 L 17.472656 93.683594 C 17.878906 93.917969 18.179688 94.214844 18.378906 94.578125 C 18.578125 94.9375 18.675781 95.367188 18.675781 95.875 C 18.675781 96.699219 18.347656 97.371094 17.6875 97.890625 C 17.027344 98.410156 16.160156 98.667969 15.085938 98.667969 C 14.011719 98.667969 13.144531 98.410156 12.484375 97.890625 C 11.828125 97.371094 11.496094 96.699219 11.496094 95.875 C 11.496094 95.367188 11.597656 94.9375 11.792969 94.578125 C 11.992188 94.214844 12.292969 93.917969 12.699219 93.683594 Z M 15.085938 97.507812 C 15.910156 97.507812 16.558594 97.339844 17.027344 97 C 17.5 96.660156 17.734375 96.191406 17.734375 95.597656 C 17.734375 95.003906 17.5 94.539062 17.027344 94.195312 C 16.558594 93.855469 15.910156 93.683594 15.085938 93.683594 C 14.261719 93.683594 13.613281 93.855469 13.140625 94.195312 C 12.671875 94.539062 12.4375 95.003906 12.4375 95.597656 C 12.4375 96.191406 12.671875 96.660156 13.140625 97 C 13.613281 97.339844 14.261719 97.507812 15.085938 97.507812 Z M 15.085938 97.507812 "/>
<path style=" stroke:none;fill-rule:nonzero;fill:rgb(0%,0%,0%);fill-opacity:1;" d="M 16.945312 90.089844 L 16.945312 88.800781 L 18.496094 88.800781 L 18.496094 90.089844 Z M 16.945312 90.089844 "/>
<path style=" stroke:none;fill-rule:nonzero;fill:rgb(0%,0%,0%);fill-opacity:1;" d="M 9 82.8125 L 9.933594 82.8125 L 9.933594 83.886719 C 9.933594 84.289062 10.015625 84.570312 10.179688 84.726562 C 10.34375 84.882812 10.636719 84.960938 11.058594 84.960938 L 11.660156 84.960938 L 11.660156 83.109375 L 12.535156 83.109375 L 12.535156 84.960938 L 18.496094 84.960938 L 18.496094 86.089844 L 12.535156 86.089844 L 12.535156 87.164062 L 11.660156 87.164062 L 11.660156 86.089844 L 11.183594 86.089844 C 10.425781 86.089844 9.871094 85.914062 9.523438 85.558594 C 9.175781 85.203125 9 84.644531 9 83.875 Z M 9 82.8125 "/>
<path style=" stroke:none;fill-rule:nonzero;fill:rgb(0%,0%,0%);fill-opacity:1;" d="M 16.945312 82.621094 L 16.945312 81.332031 L 18.496094 81.332031 L 18.496094 82.621094 Z M 16.945312 82.621094 "/>
<path style="fill:none;stroke-width:1.5;stroke-linecap:square;stroke-linejoin:round;stroke:rgb(12.156863%,46.666667%,70.588235%);stroke-opacity:1;stroke-miterlimit:4;" d="M 52.659375 139.5 L 60.3 138.553125 L 66.7 137.540625 L 72.209375 136.45625 L 77.00625 135.296875 L 81.271875 134.05 L 85.18125 132.68125 L 88.7375 131.196875 L 91.934375 129.621875 L 94.778125 127.9875 L 97.44375 126.2125 L 99.934375 124.303125 L 102.24375 122.26875 L 104.553125 119.9375 L 106.6875 117.475 L 108.81875 114.659375 L 110.775 111.721875 L 112.728125 108.384375 L 114.684375 104.590625 L 116.6375 100.26875 L 118.59375 95.353125 L 120.55 89.765625 L 122.503125 83.446875 L 124.459375 76.346875 L 126.590625 67.709375 L 129.078125 56.59375 L 135.65625 26.36875 L 137.078125 21.209375 L 138.14375 18.065625 L 139.03125 16.01875 L 139.921875 14.553125 L 140.63125 13.828125 L 141.165625 13.553125 L 141.696875 13.5125 L 142.23125 13.709375 L 142.765625 14.1375 L 143.475 15.065625 L 144.1875 16.384375 L 145.075 18.540625 L 146.140625 21.796875 L 147.384375 26.36875 L 148.984375 33.15 L 151.65 45.634375 L 155.559375 63.85625 L 157.871875 73.56875 L 160.003125 81.5875 L 161.959375 88.11875 L 163.9125 93.9 L 165.86875 98.990625 L 167.821875 103.465625 L 169.778125 107.396875 L 171.734375 110.853125 L 173.865625 114.153125 L 175.996875 117.03125 L 178.13125 119.55 L 180.440625 121.93125 L 182.753125 124.009375 L 185.240625 125.95625 L 187.90625 127.765625 L 190.75 129.43125 L 193.95 131.034375 L 197.325 132.471875 L 201.05625 133.81875 L 205.14375 135.05625 L 209.765625 136.21875 L 214.91875 137.284375 L 220.784375 138.26875 L 227.5375 139.175 L 230.203125 139.48125 " transform="matrix(1.25,0,0,1.25,0,0)"/>
<path style="fill:none;stroke-width:0.8;stroke-linecap:square;stroke-linejoin:miter;stroke:rgb(0%,0%,0%);stroke-opacity:1;stroke-miterlimit:4;" d="M 43.78125 145.8 L 43.78125 7.2 " transform="matrix(1.25,0,0,1.25,0,0)"/>
<path style="fill:none;stroke-width:0.8;stroke-linecap:square;stroke-linejoin:miter;stroke:rgb(0%,0%,0%);stroke-opacity:1;stroke-miterlimit:4;" d="M 239.08125 145.8 L 239.08125 7.2 " transform="matrix(1.25,0,0,1.25,0,0)"/>
<path style="fill:none;stroke-width:0.8;stroke-linecap:square;stroke-linejoin:miter;stroke:rgb(0%,0%,0%);stroke-opacity:1;stroke-miterlimit:4;" d="M 43.78125 145.8 L 239.08125 145.8 " transform="matrix(1.25,0,0,1.25,0,0)"/>
<path style="fill:none;stroke-width:0.8;stroke-linecap:square;stroke-linejoin:miter;stroke:rgb(0%,0%,0%);stroke-opacity:1;stroke-miterlimit:4;" d="M 43.78125 7.2 L 239.08125 7.2 " transform="matrix(1.25,0,0,1.25,0,0)"/>
</g>
</svg>
