<?xml version="1.0" encoding="UTF-8"?>
<svg xmlns="http://www.w3.org/2000/svg" xmlns:xlink="http://www.w3.org/1999/xlink" width="308pt" height="229pt" viewBox="0 0 308 229" version="1.1">
<defs>
<clipPath id="clip1">
  <path d="M 102 9 L 104 9 L 104 182.25 L 102 182.25 Z M 102 9 "/>
</clipPath>
<clipPath id="clip2">
  <path d="M 176 9 L 178 9 L 178 182.25 L 176 182.25 Z M 176 9 "/>
</clipPath>
<clipPath id="clip3">
  <path d="M 250 9 L 252 9 L 252 182.25 L 250 182.25 Z M 250 9 "/>
</clipPath>
<clipPath id="clip4">
  <path d="M 54.726562 175 L 298.851562 175 L 298.851562 177 L 54.726562 177 Z M 54.726562 175 "/>
</clipPath>
<clipPath id="clip5">
  <path d="M 54.726562 135 L 298.851562 135 L 298.851562 137 L 54.726562 137 Z M 54.726562 135 "/>
</clipPath>
<clipPath id="clip6">
  <path d="M 54.726562 95 L 298.851562 95 L 298.851562 98 L 54.726562 98 Z M 54.726562 95 "/>
</clipPath>
<clipPath id="clip7">
  <path d="M 54.726562 55 L 298.851562 55 L 298.851562 58 L 54.726562 58 Z M 54.726562 55 "/>
</clipPath>
<clipPath id="clip8">
  <path d="M 54.726562 15 L 298.851562 15 L 298.851562 18 L 54.726562 18 Z M 54.726562 15 "/>
</clipPath>
</defs>
<g id="surface1">
<path style=" stroke:none;fill-rule:nonzero;fill:rgb(100%,100%,100%);fill-opacity:1;" d="M 0 229.195312 L 307.851562 229.195312 L 307.851562 0 L 0 0 Z M 0 229.195312 "/>
<path style=" stroke:none;fill-rule:nonzero;fill:rgb(100%,100%,100%);fill-opacity:1;" d="M 54.726562 182.25 L 298.851562 182.25 L 298.851562 9 L 54.726562 9 Z M 54.726562 182.25 "/>
<g clip-path="url(#clip1)" clip-rule="nonzero">
<path style="fill:none;stroke-width:0.8;stroke-linecap:square;stroke-linejoin:round;stroke:rgb(69.019608%,69.019608%,69.019608%);stroke-opacity:1;stroke-miterlimit:4;" d="M 82.3 145.8 L 82.3 7.2 " transform="matrix(1.25,0,0,1.25,0,0)"/>
</g>
<path style="fill:none;stroke-width:0.8;stroke-linecap:butt;stroke-linejoin:round;stroke:rgb(0%,0%,0%);stroke-opacity:1;stroke-miterlimit:4;" d="M 0.001168 0 L 0.001168 3.5 " transform="matrix(1.25,0,0,1.25,102.87354,182.25)"/>
<path style=" stroke:none;fill-rule:nonzero;fill:rgb(0%,0%,0%);fill-opacity:1;" d="M 94.984375 196.0625 L 102.808594 196.0625 L 102.808594 197.097656 L 94.984375 197.097656 Z M 94.984375 196.0625 "/>
<path style=" stroke:none;fill-rule:nonzero;fill:rgb(0%,0%,0%);fill-opacity:1;" d="M 106.53125 199.460938 L 110.835938 199.460938 L 110.835938 200.5 L 105.050781 200.5 L 105.050781 199.460938 C 105.515625 198.976562 106.152344 198.328125 106.960938 197.511719 C 107.769531 196.695312 108.277344 196.167969 108.484375 195.933594 C 108.878906 195.488281 109.15625 195.113281 109.3125 194.808594 C 109.46875 194.5 109.546875 194.199219 109.546875 193.902344 C 109.546875 193.417969 109.378906 193.023438 109.039062 192.71875 C 108.699219 192.410156 108.253906 192.257812 107.710938 192.257812 C 107.324219 192.257812 106.914062 192.324219 106.484375 192.460938 C 106.054688 192.59375 105.597656 192.796875 105.109375 193.070312 L 105.109375 191.824219 C 105.605469 191.625 106.070312 191.476562 106.5 191.375 C 106.933594 191.273438 107.328125 191.222656 107.6875 191.222656 C 108.628906 191.222656 109.382812 191.457031 109.945312 191.929688 C 110.503906 192.402344 110.785156 193.03125 110.785156 193.820312 C 110.785156 194.195312 110.714844 194.550781 110.574219 194.886719 C 110.433594 195.222656 110.179688 195.617188 109.808594 196.074219 C 109.707031 196.191406 109.382812 196.53125 108.839844 197.097656 C 108.292969 197.660156 107.523438 198.449219 106.53125 199.460938 Z M 106.53125 199.460938 "/>
<g clip-path="url(#clip2)" clip-rule="nonzero">
<path style="fill:none;stroke-width:0.8;stroke-linecap:square;stroke-linejoin:round;stroke:rgb(69.019608%,69.019608%,69.019608%);stroke-opacity:1;stroke-miterlimit:4;" d="M 141.578125 145.8 L 141.578125 7.2 " transform="matrix(1.25,0,0,1.25,0,0)"/>
</g>
<path style="fill:none;stroke-width:0.8;stroke-linecap:butt;stroke-linejoin:round;stroke:rgb(0%,0%,0%);stroke-opacity:1;stroke-miterlimit:4;" d="M -0.001326 0 L -0.001326 3.5 " transform="matrix(1.25,0,0,1.25,176.974314,182.25)"/>
<path style=" stroke:none;fill-rule:nonzero;fill:rgb(0%,0%,0%);fill-opacity:1;" d="M 176.96875 192.199219 C 176.335938 192.199219 175.859375 192.511719 175.539062 193.136719 C 175.21875 193.757812 175.058594 194.699219 175.058594 195.953125 C 175.058594 197.199219 175.21875 198.136719 175.539062 198.761719 C 175.859375 199.386719 176.335938 199.699219 176.96875 199.699219 C 177.609375 199.699219 178.089844 199.386719 178.40625 198.761719 C 178.726562 198.136719 178.886719 197.199219 178.886719 195.953125 C 178.886719 194.699219 178.726562 193.757812 178.40625 193.136719 C 178.089844 192.511719 177.609375 192.199219 176.96875 192.199219 Z M 176.96875 191.222656 C 177.992188 191.222656 178.773438 191.625 179.3125 192.433594 C 179.851562 193.242188 180.121094 194.414062 180.121094 195.953125 C 180.121094 197.484375 179.851562 198.65625 179.3125 199.464844 C 178.773438 200.273438 177.992188 200.675781 176.96875 200.675781 C 175.949219 200.675781 175.167969 200.273438 174.628906 199.464844 C 174.089844 198.65625 173.820312 197.484375 173.820312 195.953125 C 173.820312 194.414062 174.089844 193.242188 174.628906 192.433594 C 175.167969 191.625 175.949219 191.222656 176.96875 191.222656 Z M 176.96875 191.222656 "/>
<g clip-path="url(#clip3)" clip-rule="nonzero">
<path style="fill:none;stroke-width:0.8;stroke-linecap:square;stroke-linejoin:round;stroke:rgb(69.019608%,69.019608%,69.019608%);stroke-opacity:1;stroke-miterlimit:4;" d="M 200.859375 145.8 L 200.859375 7.2 " transform="matrix(1.25,0,0,1.25,0,0)"/>
</g>
<path style="fill:none;stroke-width:0.8;stroke-linecap:butt;stroke-linejoin:round;stroke:rgb(0%,0%,0%);stroke-opacity:1;stroke-miterlimit:4;" d="M -0.000696 0 L -0.000696 3.5 " transform="matrix(1.25,0,0,1.25,251.075089,182.25)"/>
<path style=" stroke:none;fill-rule:nonzero;fill:rgb(0%,0%,0%);fill-opacity:1;" d="M 249.496094 199.460938 L 253.800781 199.460938 L 253.800781 200.5 L 248.015625 200.5 L 248.015625 199.460938 C 248.480469 198.976562 249.121094 198.328125 249.925781 197.511719 C 250.734375 196.695312 251.242188 196.167969 251.449219 195.933594 C 251.84375 195.488281 252.121094 195.113281 252.277344 194.808594 C 252.433594 194.5 252.511719 194.199219 252.511719 193.902344 C 252.511719 193.417969 252.34375 193.023438 252.003906 192.71875 C 251.664062 192.410156 251.21875 192.257812 250.675781 192.257812 C 250.289062 192.257812 249.878906 192.324219 249.449219 192.460938 C 249.023438 192.59375 248.5625 192.796875 248.074219 193.070312 L 248.074219 191.824219 C 248.570312 191.625 249.035156 191.476562 249.464844 191.375 C 249.898438 191.273438 250.292969 191.222656 250.652344 191.222656 C 251.59375 191.222656 252.347656 191.457031 252.910156 191.929688 C 253.46875 192.402344 253.75 193.03125 253.75 193.820312 C 253.75 194.195312 253.679688 194.550781 253.539062 194.886719 C 253.402344 195.222656 253.144531 195.617188 252.773438 196.074219 C 252.671875 196.191406 252.347656 196.53125 251.804688 197.097656 C 251.257812 197.660156 250.492188 198.449219 249.496094 199.460938 Z M 249.496094 199.460938 "/>
<path style=" stroke:none;fill-rule:nonzero;fill:rgb(0%,0%,0%);fill-opacity:1;" d="M 179.953125 210.761719 L 177.476562 214.085938 L 180.078125 217.597656 L 178.753906 217.597656 L 176.765625 214.910156 L 174.773438 217.597656 L 173.449219 217.597656 L 176.105469 214.019531 L 173.675781 210.761719 L 175 210.761719 L 176.8125 213.195312 L 178.625 210.761719 Z M 179.953125 210.761719 "/>
<g clip-path="url(#clip4)" clip-rule="nonzero">
<path style="fill:none;stroke-width:0.8;stroke-linecap:square;stroke-linejoin:round;stroke:rgb(69.019608%,69.019608%,69.019608%);stroke-opacity:1;stroke-miterlimit:4;" d="M 43.78125 140.915625 L 239.08125 140.915625 " transform="matrix(1.25,0,0,1.25,0,0)"/>
</g>
<path style="fill:none;stroke-width:0.8;stroke-linecap:butt;stroke-linejoin:round;stroke:rgb(0%,0%,0%);stroke-opacity:1;stroke-miterlimit:4;" d="M 0 0.000167 L -3.5 0.000167 " transform="matrix(1.25,0,0,1.25,54.726562,176.144322)"/>
<path style=" stroke:none;fill-rule:nonzero;fill:rgb(0%,0%,0%);fill-opacity:1;" d="M 30.070312 172.59375 C 29.4375 172.59375 28.960938 172.90625 28.640625 173.53125 C 28.320312 174.152344 28.160156 175.09375 28.160156 176.347656 C 28.160156 177.59375 28.320312 178.53125 28.640625 179.15625 C 28.960938 179.78125 29.4375 180.09375 30.070312 180.09375 C 30.710938 180.09375 31.1875 179.78125 31.507812 179.15625 C 31.828125 178.53125 31.988281 177.59375 31.988281 176.347656 C 31.988281 175.09375 31.828125 174.152344 31.507812 173.53125 C 31.1875 172.90625 30.710938 172.59375 30.070312 172.59375 Z M 30.070312 171.617188 C 31.09375 171.617188 31.875 172.019531 32.414062 172.828125 C 32.953125 173.636719 33.21875 174.808594 33.21875 176.347656 C 33.21875 177.878906 32.953125 179.050781 32.414062 179.859375 C 31.875 180.667969 31.09375 181.070312 30.070312 181.070312 C 29.050781 181.070312 28.269531 180.667969 27.730469 179.859375 C 27.191406 179.050781 26.921875 177.878906 26.921875 176.347656 C 26.921875 174.808594 27.191406 173.636719 27.730469 172.828125 C 28.269531 172.019531 29.050781 171.617188 30.070312 171.617188 Z M 30.070312 171.617188 "/>
<path style=" stroke:none;fill-rule:nonzero;fill:rgb(0%,0%,0%);fill-opacity:1;" d="M 35.386719 179.34375 L 36.675781 179.34375 L 36.675781 180.894531 L 35.386719 180.894531 Z M 35.386719 179.34375 "/>
<path style=" stroke:none;fill-rule:nonzero;fill:rgb(0%,0%,0%);fill-opacity:1;" d="M 41.996094 172.59375 C 41.363281 172.59375 40.886719 172.90625 40.566406 173.53125 C 40.246094 174.152344 40.085938 175.09375 40.085938 176.347656 C 40.085938 177.59375 40.246094 178.53125 40.566406 179.15625 C 40.886719 179.78125 41.363281 180.09375 41.996094 180.09375 C 42.636719 180.09375 43.113281 179.78125 43.433594 179.15625 C 43.753906 178.53125 43.914062 177.59375 43.914062 176.347656 C 43.914062 175.09375 43.753906 174.152344 43.433594 173.53125 C 43.113281 172.90625 42.636719 172.59375 41.996094 172.59375 Z M 41.996094 171.617188 C 43.019531 171.617188 43.800781 172.019531 44.339844 172.828125 C 44.878906 173.636719 45.148438 174.808594 45.148438 176.347656 C 45.148438 177.878906 44.878906 179.050781 44.339844 179.859375 C 43.800781 180.667969 43.019531 181.070312 41.996094 181.070312 C 40.976562 181.070312 40.195312 180.667969 39.65625 179.859375 C 39.117188 179.050781 38.847656 177.878906 38.847656 176.347656 C 38.847656 174.808594 39.117188 173.636719 39.65625 172.828125 C 40.195312 172.019531 40.976562 171.617188 41.996094 171.617188 Z M 41.996094 171.617188 "/>
<g clip-path="url(#clip5)" clip-rule="nonzero">
<path style="fill:none;stroke-width:0.8;stroke-linecap:square;stroke-linejoin:round;stroke:rgb(69.019608%,69.019608%,69.019608%);stroke-opacity:1;stroke-miterlimit:4;" d="M 43.78125 108.978125 L 239.08125 108.978125 " transform="matrix(1.25,0,0,1.25,0,0)"/>
</g>
<path style="fill:none;stroke-width:0.8;stroke-linecap:butt;stroke-linejoin:round;stroke:rgb(0%,0%,0%);stroke-opacity:1;stroke-miterlimit:4;" d="M 0 0.000985 L -3.5 0.000985 " transform="matrix(1.25,0,0,1.25,54.726562,136.221425)"/>
<path style=" stroke:none;fill-rule:nonzero;fill:rgb(0%,0%,0%);fill-opacity:1;" d="M 30.070312 132.667969 C 29.4375 132.667969 28.960938 132.980469 28.640625 133.605469 C 28.320312 134.230469 28.160156 135.167969 28.160156 136.421875 C 28.160156 137.671875 28.320312 138.609375 28.640625 139.234375 C 28.960938 139.859375 29.4375 140.171875 30.070312 140.171875 C 30.710938 140.171875 31.1875 139.859375 31.507812 139.234375 C 31.828125 138.609375 31.988281 137.671875 31.988281 136.421875 C 31.988281 135.167969 31.828125 134.230469 31.507812 133.605469 C 31.1875 132.980469 30.710938 132.667969 30.070312 132.667969 Z M 30.070312 131.691406 C 31.09375 131.691406 31.875 132.097656 32.414062 132.90625 C 32.953125 133.714844 33.21875 134.886719 33.21875 136.421875 C 33.21875 137.957031 32.953125 139.128906 32.414062 139.9375 C 31.875 140.746094 31.09375 141.148438 30.070312 141.148438 C 29.050781 141.148438 28.269531 140.746094 27.730469 139.9375 C 27.191406 139.128906 26.921875 137.957031 26.921875 136.421875 C 26.921875 134.886719 27.191406 133.714844 27.730469 132.90625 C 28.269531 132.097656 29.050781 131.691406 30.070312 131.691406 Z M 30.070312 131.691406 "/>
<path style=" stroke:none;fill-rule:nonzero;fill:rgb(0%,0%,0%);fill-opacity:1;" d="M 35.386719 139.417969 L 36.675781 139.417969 L 36.675781 140.96875 L 35.386719 140.96875 Z M 35.386719 139.417969 "/>
<path style=" stroke:none;fill-rule:nonzero;fill:rgb(0%,0%,0%);fill-opacity:1;" d="M 39.574219 139.933594 L 41.589844 139.933594 L 41.589844 132.980469 L 39.398438 133.417969 L 39.398438 132.296875 L 41.578125 131.855469 L 42.808594 131.855469 L 42.808594 139.933594 L 44.824219 139.933594 L 44.824219 140.96875 L 39.574219 140.96875 Z M 39.574219 139.933594 "/>
<g clip-path="url(#clip6)" clip-rule="nonzero">
<path style="fill:none;stroke-width:0.8;stroke-linecap:square;stroke-linejoin:round;stroke:rgb(69.019608%,69.019608%,69.019608%);stroke-opacity:1;stroke-miterlimit:4;" d="M 43.78125 77.0375 L 239.08125 77.0375 " transform="matrix(1.25,0,0,1.25,0,0)"/>
</g>
<path style="fill:none;stroke-width:0.8;stroke-linecap:butt;stroke-linejoin:round;stroke:rgb(0%,0%,0%);stroke-opacity:1;stroke-miterlimit:4;" d="M 0 -0.001322 L -3.5 -0.001322 " transform="matrix(1.25,0,0,1.25,54.726562,96.298527)"/>
<path style=" stroke:none;fill-rule:nonzero;fill:rgb(0%,0%,0%);fill-opacity:1;" d="M 30.070312 92.746094 C 29.4375 92.746094 28.960938 93.058594 28.640625 93.683594 C 28.320312 94.308594 28.160156 95.246094 28.160156 96.5 C 28.160156 97.75 28.320312 98.6875 28.640625 99.3125 C 28.960938 99.9375 29.4375 100.25 30.070312 100.25 C 30.710938 100.25 31.1875 99.9375 31.507812 99.3125 C 31.828125 98.6875 31.988281 97.75 31.988281 96.5 C 31.988281 95.246094 31.828125 94.308594 31.507812 93.683594 C 31.1875 93.058594 30.710938 92.746094 30.070312 92.746094 Z M 30.070312 91.769531 C 31.09375 91.769531 31.875 92.175781 32.414062 92.984375 C 32.953125 93.789062 33.21875 94.964844 33.21875 96.5 C 33.21875 98.035156 32.953125 99.207031 32.414062 100.015625 C 31.875 100.820312 31.09375 101.226562 30.070312 101.226562 C 29.050781 101.226562 28.269531 100.820312 27.730469 100.015625 C 27.191406 99.207031 26.921875 98.035156 26.921875 96.5 C 26.921875 94.964844 27.191406 93.789062 27.730469 92.984375 C 28.269531 92.175781 29.050781 91.769531 30.070312 91.769531 Z M 30.070312 91.769531 "/>
<path style=" stroke:none;fill-rule:nonzero;fill:rgb(0%,0%,0%);fill-opacity:1;" d="M 35.386719 99.496094 L 36.675781 99.496094 L 36.675781 101.046875 L 35.386719 101.046875 Z M 35.386719 99.496094 "/>
<path style=" stroke:none;fill-rule:nonzero;fill:rgb(0%,0%,0%);fill-opacity:1;" d="M 40.421875 100.011719 L 44.726562 100.011719 L 44.726562 101.046875 L 38.941406 101.046875 L 38.941406 100.011719 C 39.40625 99.527344 40.042969 98.875 40.851562 98.0625 C 41.660156 97.246094 42.167969 96.71875 42.375 96.480469 C 42.769531 96.039062 43.046875 95.664062 43.203125 95.355469 C 43.359375 95.050781 43.4375 94.746094 43.4375 94.449219 C 43.4375 93.964844 43.269531 93.570312 42.929688 93.265625 C 42.589844 92.960938 42.144531 92.808594 41.601562 92.808594 C 41.214844 92.808594 40.804688 92.875 40.375 93.007812 C 39.945312 93.144531 39.488281 93.347656 39 93.621094 L 39 92.375 C 39.496094 92.175781 39.960938 92.023438 40.390625 91.921875 C 40.824219 91.820312 41.21875 91.769531 41.578125 91.769531 C 42.519531 91.769531 43.273438 92.007812 43.835938 92.480469 C 44.394531 92.949219 44.675781 93.582031 44.675781 94.371094 C 44.675781 94.746094 44.605469 95.101562 44.464844 95.4375 C 44.324219 95.769531 44.070312 96.167969 43.699219 96.621094 C 43.597656 96.742188 43.273438 97.082031 42.730469 97.644531 C 42.183594 98.210938 41.414062 98.996094 40.421875 100.011719 Z M 40.421875 100.011719 "/>
<g clip-path="url(#clip7)" clip-rule="nonzero">
<path style="fill:none;stroke-width:0.8;stroke-linecap:square;stroke-linejoin:round;stroke:rgb(69.019608%,69.019608%,69.019608%);stroke-opacity:1;stroke-miterlimit:4;" d="M 43.78125 45.1 L 239.08125 45.1 " transform="matrix(1.25,0,0,1.25,0,0)"/>
</g>
<path style="fill:none;stroke-width:0.8;stroke-linecap:butt;stroke-linejoin:round;stroke:rgb(0%,0%,0%);stroke-opacity:1;stroke-miterlimit:4;" d="M 0 -0.000504 L -3.5 -0.000504 " transform="matrix(1.25,0,0,1.25,54.726562,56.37563)"/>
<path style=" stroke:none;fill-rule:nonzero;fill:rgb(0%,0%,0%);fill-opacity:1;" d="M 30.070312 52.824219 C 29.4375 52.824219 28.960938 53.136719 28.640625 53.761719 C 28.320312 54.386719 28.160156 55.324219 28.160156 56.578125 C 28.160156 57.828125 28.320312 58.761719 28.640625 59.386719 C 28.960938 60.011719 29.4375 60.324219 30.070312 60.324219 C 30.710938 60.324219 31.1875 60.011719 31.507812 59.386719 C 31.828125 58.761719 31.988281 57.828125 31.988281 56.578125 C 31.988281 55.324219 31.828125 54.386719 31.507812 53.761719 C 31.1875 53.136719 30.710938 52.824219 30.070312 52.824219 Z M 30.070312 51.847656 C 31.09375 51.847656 31.875 52.25 32.414062 53.058594 C 32.953125 53.867188 33.21875 55.039062 33.21875 56.578125 C 33.21875 58.113281 32.953125 59.28125 32.414062 60.089844 C 31.875 60.898438 31.09375 61.300781 30.070312 61.300781 C 29.050781 61.300781 28.269531 60.898438 27.730469 60.089844 C 27.191406 59.28125 26.921875 58.113281 26.921875 56.578125 C 26.921875 55.039062 27.191406 53.867188 27.730469 53.058594 C 28.269531 52.25 29.050781 51.847656 30.070312 51.847656 Z M 30.070312 51.847656 "/>
<path style=" stroke:none;fill-rule:nonzero;fill:rgb(0%,0%,0%);fill-opacity:1;" d="M 35.386719 59.574219 L 36.675781 59.574219 L 36.675781 61.125 L 35.386719 61.125 Z M 35.386719 59.574219 "/>
<path style=" stroke:none;fill-rule:nonzero;fill:rgb(0%,0%,0%);fill-opacity:1;" d="M 43.097656 56.210938 C 43.6875 56.335938 44.144531 56.601562 44.476562 57 C 44.808594 57.398438 44.976562 57.890625 44.976562 58.476562 C 44.976562 59.375 44.664062 60.070312 44.046875 60.5625 C 43.429688 61.054688 42.550781 61.300781 41.410156 61.300781 C 41.027344 61.300781 40.636719 61.265625 40.230469 61.1875 C 39.824219 61.113281 39.40625 61 38.976562 60.847656 L 38.976562 59.660156 C 39.316406 59.859375 39.691406 60.007812 40.097656 60.109375 C 40.503906 60.210938 40.929688 60.261719 41.375 60.261719 C 42.148438 60.261719 42.734375 60.109375 43.140625 59.804688 C 43.546875 59.5 43.75 59.058594 43.75 58.476562 C 43.75 57.9375 43.558594 57.519531 43.183594 57.214844 C 42.808594 56.914062 42.285156 56.761719 41.613281 56.761719 L 40.550781 56.761719 L 40.550781 55.746094 L 41.664062 55.746094 C 42.269531 55.746094 42.730469 55.625 43.054688 55.382812 C 43.375 55.140625 43.535156 54.792969 43.535156 54.335938 C 43.535156 53.871094 43.371094 53.511719 43.039062 53.261719 C 42.707031 53.011719 42.230469 52.882812 41.613281 52.882812 C 41.273438 52.882812 40.914062 52.921875 40.527344 52.996094 C 40.140625 53.070312 39.714844 53.183594 39.25 53.335938 L 39.25 52.238281 C 39.71875 52.109375 40.15625 52.011719 40.566406 51.945312 C 40.976562 51.878906 41.359375 51.847656 41.722656 51.847656 C 42.660156 51.847656 43.398438 52.058594 43.945312 52.484375 C 44.488281 52.910156 44.761719 53.484375 44.761719 54.207031 C 44.761719 54.714844 44.617188 55.140625 44.328125 55.488281 C 44.039062 55.835938 43.628906 56.078125 43.097656 56.210938 Z M 43.097656 56.210938 "/>
<g clip-path="url(#clip8)" clip-rule="nonzero">
<path style="fill:none;stroke-width:0.8;stroke-linecap:square;stroke-linejoin:round;stroke:rgb(69.019608%,69.019608%,69.019608%);stroke-opacity:1;stroke-miterlimit:4;" d="M 43.78125 13.1625 L 239.08125 13.1625 " transform="matrix(1.25,0,0,1.25,0,0)"/>
</g>
<path style="fill:none;stroke-width:0.8;stroke-linecap:butt;stroke-linejoin:round;stroke:rgb(0%,0%,0%);stroke-opacity:1;stroke-miterlimit:4;" d="M 0 0.000314 L -3.5 0.000314 " transform="matrix(1.25,0,0,1.25,54.726562,16.452732)"/>
<path style=" stroke:none;fill-rule:nonzero;fill:rgb(0%,0%,0%);fill-opacity:1;" d="M 30.070312 12.902344 C 29.4375 12.902344 28.960938 13.214844 28.640625 13.839844 C 28.320312 14.460938 28.160156 15.402344 28.160156 16.65625 C 28.160156 17.902344 28.320312 18.839844 28.640625 19.464844 C 28.960938 20.089844 29.4375 20.402344 30.070312 20.402344 C 30.710938 20.402344 31.1875 20.089844 31.507812 19.464844 C 31.828125 18.839844 31.988281 17.902344 31.988281 16.65625 C 31.988281 15.402344 31.828125 14.460938 31.507812 13.839844 C 31.1875 13.214844 30.710938 12.902344 30.070312 12.902344 Z M 30.070312 11.925781 C 31.09375 11.925781 31.875 12.328125 32.414062 13.136719 C 32.953125 13.945312 33.21875 15.117188 33.21875 16.65625 C 33.21875 18.1875 32.953125 19.359375 32.414062 20.167969 C 31.875 20.976562 31.09375 21.378906 30.070312 21.378906 C 29.050781 21.378906 28.269531 20.976562 27.730469 20.167969 C 27.191406 19.359375 26.921875 18.1875 26.921875 16.65625 C 26.921875 15.117188 27.191406 13.945312 27.730469 13.136719 C 28.269531 12.328125 29.050781 11.925781 30.070312 11.925781 Z M 30.070312 11.925781 "/>
<path style=" stroke:none;fill-rule:nonzero;fill:rgb(0%,0%,0%);fill-opacity:1;" d="M 35.386719 19.652344 L 36.675781 19.652344 L 36.675781 21.203125 L 35.386719 21.203125 Z M 35.386719 19.652344 "/>
<path style=" stroke:none;fill-rule:nonzero;fill:rgb(0%,0%,0%);fill-opacity:1;" d="M 42.75 13.164062 L 39.636719 18.027344 L 42.75 18.027344 Z M 42.425781 12.089844 L 43.976562 12.089844 L 43.976562 18.027344 L 45.277344 18.027344 L 45.277344 19.054688 L 43.976562 19.054688 L 43.976562 21.203125 L 42.75 21.203125 L 42.75 19.054688 L 38.636719 19.054688 L 38.636719 17.863281 Z M 42.425781 12.089844 "/>
<path style=" stroke:none;fill-rule:nonzero;fill:rgb(0%,0%,0%);fill-opacity:1;" d="M 17.472656 109.003906 L 21.097656 109.003906 L 21.097656 110.132812 L 11.660156 110.132812 L 11.660156 109.003906 L 12.699219 109.003906 C 12.292969 108.765625 11.992188 108.46875 11.792969 108.109375 C 11.597656 107.746094 11.496094 107.316406 11.496094 106.816406 C 11.496094 105.988281 11.828125 105.3125 12.484375 104.792969 C 13.144531 104.273438 14.011719 104.015625 15.085938 104.015625 C 16.160156 104.015625 17.027344 104.273438 17.6875 104.792969 C 18.347656 105.3125 18.675781 105.988281 18.675781 106.816406 C 18.675781 107.316406 18.578125 107.746094 18.378906 108.109375 C 18.179688 108.46875 17.878906 108.765625 17.472656 109.003906 Z M 15.085938 105.179688 C 14.261719 105.179688 13.613281 105.351562 13.140625 105.691406 C 12.671875 106.03125 12.4375 106.496094 12.4375 107.089844 C 12.4375 107.6875 12.671875 108.152344 13.140625 108.492188 C 13.613281 108.832031 14.261719 109.003906 15.085938 109.003906 C 15.910156 109.003906 16.558594 108.832031 17.027344 108.492188 C 17.5 108.152344 17.734375 107.6875 17.734375 107.089844 C 17.734375 106.496094 17.5 106.03125 17.027344 105.691406 C 16.558594 105.351562 15.910156 105.179688 15.085938 105.179688 Z M 15.085938 105.179688 "/>
<path style=" stroke:none;fill-rule:nonzero;fill:rgb(0%,0%,0%);fill-opacity:1;" d="M 16.945312 101.996094 L 16.945312 100.707031 L 18.496094 100.707031 L 18.496094 101.996094 Z M 16.945312 101.996094 "/>
<path style=" stroke:none;fill-rule:nonzero;fill:rgb(0%,0%,0%);fill-opacity:1;" d="M 12.699219 93.683594 L 9 93.683594 L 9 92.558594 L 18.496094 92.558594 L 18.496094 93.683594 L 17.472656 93.683594 C 17.878906 93.917969 18.179688 94.214844 18.378906 94.578125 C 18.578125 94.9375 18.675781 95.367188 18.675781 95.875 C 18.675781 96.699219 18.347656 97.371094 17.6875 97.890625 C 17.027344 98.410156 16.160156 98.667969 15.085938 98.667969 C 14.011719 98.667969 13.144531 98.410156 12.484375 97.890625 C 11.828125 97.371094 11.496094 96.699219 11.496094 95.875 C 11.496094 95.367188 11.597656 94.9375 11.792969 94.578125 C 11.992188 94.214844 12.292969 93.917969 12.699219 93.683594 Z M 15.085938 97.507812 C 15.910156 97.507812 16.558594 97.339844 17.027344 97 C 17.5 96.660156 17.734375 96.191406 17.734375 95.597656 C 17.734375 95.003906 17.5 94.539062 17.027344 94.195312 C 16.558594 93.855469 15.910156 93.683594 15.085938 93.683594 C 14.261719 93.683594 13.613281 93.855469 13.140625 94.195312 C 12.671875 94.539062 12.4375 95.003906 12.4375 95.597656 C 12.4375 96.191406 12.671875 96.660156 13.140625 97 C 13.613281 97.339844 14.261719 97.507812 15.085938 97.507812 Z M 15.085938 97.507812 "/>
<path style=" stroke:none;fill-rule:nonzero;fill:rgb(0%,0%,0%);fill-opacity:1;" d="M 16.945312 90.089844 L 16.945312 88.800781 L 18.496094 88.800781 L 18.496094 90.089844 Z M 16.945312 90.089844 "/>
<path style=" stroke:none;fill-rule:nonzero;fill:rgb(0%,0%,0%);fill-opacity:1;" d="M 9 82.8125 L 9.933594 82.8125 L 9.933594 83.886719 C 9.933594 84.289062 10.015625 84.570312 10.179688 84.726562 C 10.34375 84.882812 10.636719 84.960938 11.058594 84.960938 L 11.660156 84.960938 L 11.660156 83.109375 L 12.535156 83.109375 L 12.535156 84.960938 L 18.496094 84.960938 L 18.496094 86.089844 L 12.535156 86.089844 L 12.535156 87.164062 L 11.660156 87.164062 L 11.660156 86.089844 L 11.183594 86.089844 C 10.425781 86.089844 9.871094 85.914062 9.523438 85.558594 C 9.175781 85.203125 9 84.644531 9 83.875 Z M 9 82.8125 "/>
<path style=" stroke:none;fill-rule:nonzero;fill:rgb(0%,0%,0%);fill-opacity:1;" d="M 16.945312 82.621094 L 16.945312 81.332031 L 18.496094 81.332031 L 18.496094 82.621094 Z M 16.945312 82.621094 "/>
<path style="fill:none;stroke-width:1.5;stroke-linecap:square;stroke-linejoin:round;stroke:rgb(12.156863%,46.666667%,70.588235%);stroke-opacity:1;stroke-miterlimit:4;" d="M 52.659375 139.5 L 56.5125 138.84375 L 60.06875 138.0125 L 63.328125 137.009375 L 66.29375 135.853125 L 68.959375 134.58125 L 71.628125 133.05 L 74 131.44375 L 76.371875 129.584375 L 78.740625 127.446875 L 81.1125 125.009375 L 83.484375 122.25 L 85.85625 119.15 L 88.228125 115.7 L 90.596875 111.8875 L 93.265625 107.165625 L 95.934375 101.990625 L 98.896875 95.734375 L 102.159375 88.3 L 106.0125 78.896875 L 111.346875 65.178125 L 118.459375 46.91875 L 122.015625 38.4375 L 124.684375 32.60625 L 127.05625 27.9125 L 129.13125 24.25625 L 131.20625 21.06875 L 132.984375 18.746875 L 134.7625 16.825 L 136.24375 15.546875 L 137.725 14.571875 L 139.209375 13.90625 L 140.39375 13.603125 L 141.578125 13.5 L 142.765625 13.603125 L 143.95 13.90625 L 145.1375 14.415625 L 146.61875 15.328125 L 148.1 16.546875 L 149.58125 18.059375 L 151.359375 20.253125 L 153.140625 22.83125 L 155.2125 26.290625 L 157.2875 30.196875 L 159.659375 35.13125 L 162.328125 41.1875 L 165.5875 49.134375 L 170.628125 62.0875 L 178.0375 81.115625 L 181.890625 90.38125 L 185.15 97.665625 L 188.115625 103.7625 L 190.78125 108.790625 L 193.45 113.359375 L 196.11875 117.471875 L 198.4875 120.74375 L 200.859375 123.671875 L 203.23125 126.26875 L 205.603125 128.553125 L 207.975 130.546875 L 210.34375 132.278125 L 213.0125 133.934375 L 215.68125 135.31875 L 218.346875 136.4625 L 221.3125 137.496875 L 224.571875 138.3875 L 228.128125 139.121875 L 230.203125 139.45625 " transform="matrix(1.25,0,0,1.25,0,0)"/>
<path style="fill:none;stroke-width:0.8;stroke-linecap:square;stroke-linejoin:miter;stroke:rgb(0%,0%,0%);stroke-opacity:1;stroke-miterlimit:4;" d="M 43.78125 145.8 L 43.78125 7.2 " transform="matrix(1.25,0,0,1.25,0,0)"/>
<path style="fill:none;stroke-width:0.8;stroke-linecap:square;stroke-linejoin:miter;stroke:rgb(0%,0%,0%);stroke-opacity:1;stroke-miterlimit:4;" d="M 239.08125 145.8 L 239.08125 7.2 " transform="matrix(1.25,0,0,1.25,0,0)"/>
<path style="fill:none;stroke-width:0.8;stroke-linecap:square;stroke-linejoin:miter;stroke:rgb(0%,0%,0%);stroke-opacity:1;stroke-miterlimit:4;" d="M 43.78125 145.8 L 239.08125 145.8 " transform="matrix(1.25,0,0,1.25,0,0)"/>
<path style="fill:none;stroke-width:0.8;stroke-linecap:square;stroke-linejoin:miter;stroke:rgb(0%,0%,0%);stroke-opacity:1;stroke-miterlimit:4;" d="M 43.78125 7.2 L 239.08125 7.2 " transform="matrix(1.25,0,0,1.25,0,0)"/>
</g>
</svg>
