<?xml version="1.0" encoding="UTF-8"?>
<svg xmlns="http://www.w3.org/2000/svg" xmlns:xlink="http://www.w3.org/1999/xlink" width="316pt" height="229pt" viewBox="0 0 316 229" version="1.1">
<g id="surface1">
<path style=" stroke:none;fill-rule:nonzero;fill:rgb(100%,100%,100%);fill-opacity:1;" d="M 0 229.195312 L 315.804688 229.195312 L 315.804688 0 L 0 0 Z M 0 229.195312 "/>
<path style=" stroke:none;fill-rule:nonzero;fill:rgb(100%,100%,100%);fill-opacity:1;" d="M 62.679688 182.25 L 306.804688 182.25 L 306.804688 9 L 62.679688 9 Z M 62.679688 182.25 "/>
<path style="fill:none;stroke-width:0.8;stroke-linecap:butt;stroke-linejoin:round;stroke:rgb(0%,0%,0%);stroke-opacity:1;stroke-miterlimit:4;" d="M 0.000852 0 L 0.000852 3.5 " transform="matrix(1.25,0,0,1.25,73.776279,182.25)"/>
<path style=" stroke:none;fill-rule:nonzero;fill:rgb(0%,0%,0%);fill-opacity:1;" d="M 71.351562 199.460938 L 73.363281 199.460938 L 73.363281 192.507812 L 71.171875 192.949219 L 71.171875 191.824219 L 73.351562 191.386719 L 74.585938 191.386719 L 74.585938 199.460938 L 76.597656 199.460938 L 76.597656 200.5 L 71.351562 200.5 Z M 71.351562 199.460938 "/>
<path style="fill:none;stroke-width:0.8;stroke-linecap:butt;stroke-linejoin:round;stroke:rgb(0%,0%,0%);stroke-opacity:1;stroke-miterlimit:4;" d="M -0.001136 0 L -0.001136 3.5 " transform="matrix(1.25,0,0,1.25,129.259232,182.25)"/>
<path style=" stroke:none;fill-rule:nonzero;fill:rgb(0%,0%,0%);fill-opacity:1;" d="M 127.679688 199.460938 L 131.984375 199.460938 L 131.984375 200.5 L 126.199219 200.5 L 126.199219 199.460938 C 126.667969 198.976562 127.304688 198.328125 128.109375 197.511719 C 128.917969 196.695312 129.425781 196.167969 129.632812 195.933594 C 130.027344 195.488281 130.304688 195.113281 130.460938 194.808594 C 130.617188 194.5 130.695312 194.199219 130.695312 193.902344 C 130.695312 193.417969 130.527344 193.023438 130.1875 192.71875 C 129.847656 192.410156 129.40625 192.257812 128.859375 192.257812 C 128.472656 192.257812 128.0625 192.324219 127.632812 192.460938 C 127.207031 192.59375 126.746094 192.796875 126.257812 193.070312 L 126.257812 191.824219 C 126.753906 191.625 127.21875 191.476562 127.648438 191.375 C 128.082031 191.273438 128.476562 191.222656 128.835938 191.222656 C 129.78125 191.222656 130.53125 191.457031 131.09375 191.929688 C 131.65625 192.402344 131.933594 193.03125 131.933594 193.820312 C 131.933594 194.195312 131.863281 194.550781 131.722656 194.886719 C 131.585938 195.222656 131.328125 195.617188 130.957031 196.074219 C 130.855469 196.191406 130.535156 196.53125 129.988281 197.097656 C 129.445312 197.660156 128.675781 198.449219 127.679688 199.460938 Z M 127.679688 199.460938 "/>
<path style="fill:none;stroke-width:0.8;stroke-linecap:butt;stroke-linejoin:round;stroke:rgb(0%,0%,0%);stroke-opacity:1;stroke-miterlimit:4;" d="M 0 0 L 0 3.5 " transform="matrix(1.25,0,0,1.25,184.742188,182.25)"/>
<path style=" stroke:none;fill-rule:nonzero;fill:rgb(0%,0%,0%);fill-opacity:1;" d="M 185.835938 195.585938 C 186.429688 195.710938 186.886719 195.972656 187.21875 196.375 C 187.550781 196.773438 187.71875 197.265625 187.71875 197.851562 C 187.71875 198.75 187.40625 199.445312 186.789062 199.9375 C 186.171875 200.429688 185.292969 200.675781 184.152344 200.675781 C 183.769531 200.675781 183.378906 200.636719 182.972656 200.5625 C 182.566406 200.488281 182.148438 200.375 181.71875 200.222656 L 181.71875 199.035156 C 182.058594 199.234375 182.433594 199.382812 182.839844 199.484375 C 183.246094 199.585938 183.671875 199.636719 184.117188 199.636719 C 184.890625 199.636719 185.476562 199.484375 185.882812 199.179688 C 186.289062 198.875 186.492188 198.433594 186.492188 197.851562 C 186.492188 197.3125 186.300781 196.890625 185.925781 196.589844 C 185.550781 196.285156 185.027344 196.136719 184.355469 196.136719 L 183.292969 196.136719 L 183.292969 195.121094 L 184.40625 195.121094 C 185.007812 195.121094 185.472656 195 185.796875 194.757812 C 186.117188 194.515625 186.277344 194.167969 186.277344 193.710938 C 186.277344 193.242188 186.109375 192.886719 185.78125 192.636719 C 185.449219 192.382812 184.972656 192.257812 184.355469 192.257812 C 184.015625 192.257812 183.65625 192.296875 183.265625 192.371094 C 182.882812 192.441406 182.457031 192.554688 181.992188 192.710938 L 181.992188 191.613281 C 182.460938 191.480469 182.898438 191.382812 183.308594 191.320312 C 183.71875 191.253906 184.101562 191.222656 184.464844 191.222656 C 185.402344 191.222656 186.140625 191.433594 186.6875 191.859375 C 187.230469 192.285156 187.503906 192.859375 187.503906 193.582031 C 187.503906 194.085938 187.359375 194.515625 187.070312 194.863281 C 186.78125 195.210938 186.371094 195.449219 185.835938 195.585938 Z M 185.835938 195.585938 "/>
<path style="fill:none;stroke-width:0.8;stroke-linecap:butt;stroke-linejoin:round;stroke:rgb(0%,0%,0%);stroke-opacity:1;stroke-miterlimit:4;" d="M 0.001136 0 L 0.001136 3.5 " transform="matrix(1.25,0,0,1.25,240.225143,182.25)"/>
<path style=" stroke:none;fill-rule:nonzero;fill:rgb(0%,0%,0%);fill-opacity:1;" d="M 240.972656 192.460938 L 237.859375 197.324219 L 240.972656 197.324219 Z M 240.648438 191.386719 L 242.199219 191.386719 L 242.199219 197.324219 L 243.5 197.324219 L 243.5 198.351562 L 242.199219 198.351562 L 242.199219 200.5 L 240.972656 200.5 L 240.972656 198.351562 L 236.859375 198.351562 L 236.859375 197.160156 Z M 240.648438 191.386719 "/>
<path style="fill:none;stroke-width:0.8;stroke-linecap:butt;stroke-linejoin:round;stroke:rgb(0%,0%,0%);stroke-opacity:1;stroke-miterlimit:4;" d="M -0.000852 0 L -0.000852 3.5 " transform="matrix(1.25,0,0,1.25,295.708096,182.25)"/>
<path style=" stroke:none;fill-rule:nonzero;fill:rgb(0%,0%,0%);fill-opacity:1;" d="M 293.082031 191.386719 L 297.921875 191.386719 L 297.921875 192.425781 L 294.210938 192.425781 L 294.210938 194.65625 C 294.386719 194.59375 294.566406 194.550781 294.746094 194.519531 C 294.925781 194.488281 295.105469 194.476562 295.285156 194.476562 C 296.300781 194.476562 297.105469 194.753906 297.699219 195.3125 C 298.296875 195.867188 298.59375 196.621094 298.59375 197.574219 C 298.59375 198.554688 298.289062 199.316406 297.675781 199.863281 C 297.066406 200.40625 296.207031 200.675781 295.09375 200.675781 C 294.710938 200.675781 294.320312 200.644531 293.925781 200.578125 C 293.527344 200.511719 293.121094 200.414062 292.695312 200.285156 L 292.695312 199.046875 C 293.0625 199.246094 293.441406 199.394531 293.832031 199.492188 C 294.222656 199.589844 294.632812 199.636719 295.070312 199.636719 C 295.773438 199.636719 296.332031 199.453125 296.742188 199.082031 C 297.152344 198.710938 297.359375 198.210938 297.359375 197.574219 C 297.359375 196.941406 297.152344 196.4375 296.742188 196.070312 C 296.332031 195.699219 295.773438 195.511719 295.070312 195.511719 C 294.738281 195.511719 294.410156 195.546875 294.082031 195.621094 C 293.757812 195.695312 293.421875 195.808594 293.082031 195.964844 Z M 293.082031 191.386719 "/>
<path style=" stroke:none;fill-rule:nonzero;fill:rgb(0%,0%,0%);fill-opacity:1;" d="M 187.90625 210.761719 L 185.429688 214.085938 L 188.03125 217.597656 L 186.707031 217.597656 L 184.71875 214.910156 L 182.726562 217.597656 L 181.402344 217.597656 L 184.058594 214.019531 L 181.628906 210.761719 L 182.953125 210.761719 L 184.765625 213.195312 L 186.578125 210.761719 Z M 187.90625 210.761719 "/>
<path style="fill:none;stroke-width:0.8;stroke-linecap:butt;stroke-linejoin:round;stroke:rgb(0%,0%,0%);stroke-opacity:1;stroke-miterlimit:4;" d="M 0 0 L -3.5 0 " transform="matrix(1.25,0,0,1.25,62.679688,174.375)"/>
<path style=" stroke:none;fill-rule:nonzero;fill:rgb(0%,0%,0%);fill-opacity:1;" d="M 30.070312 170.824219 C 29.4375 170.824219 28.960938 171.136719 28.640625 171.761719 C 28.320312 172.382812 28.160156 173.324219 28.160156 174.578125 C 28.160156 175.824219 28.320312 176.761719 28.640625 177.386719 C 28.960938 178.011719 29.4375 178.324219 30.070312 178.324219 C 30.710938 178.324219 31.1875 178.011719 31.507812 177.386719 C 31.828125 176.761719 31.988281 175.824219 31.988281 174.578125 C 31.988281 173.324219 31.828125 172.382812 31.507812 171.761719 C 31.1875 171.136719 30.710938 170.824219 30.070312 170.824219 Z M 30.070312 169.847656 C 31.09375 169.847656 31.875 170.25 32.414062 171.058594 C 32.953125 171.867188 33.21875 173.039062 33.21875 174.578125 C 33.21875 176.109375 32.953125 177.28125 32.414062 178.089844 C 31.875 178.898438 31.09375 179.300781 30.070312 179.300781 C 29.050781 179.300781 28.269531 178.898438 27.730469 178.089844 C 27.191406 177.28125 26.921875 176.109375 26.921875 174.578125 C 26.921875 173.039062 27.191406 171.867188 27.730469 171.058594 C 28.269531 170.25 29.050781 169.847656 30.070312 169.847656 Z M 30.070312 169.847656 "/>
<path style=" stroke:none;fill-rule:nonzero;fill:rgb(0%,0%,0%);fill-opacity:1;" d="M 35.386719 177.574219 L 36.675781 177.574219 L 36.675781 179.125 L 35.386719 179.125 Z M 35.386719 177.574219 "/>
<path style=" stroke:none;fill-rule:nonzero;fill:rgb(0%,0%,0%);fill-opacity:1;" d="M 41.996094 170.824219 C 41.363281 170.824219 40.886719 171.136719 40.566406 171.761719 C 40.246094 172.382812 40.085938 173.324219 40.085938 174.578125 C 40.085938 175.824219 40.246094 176.761719 40.566406 177.386719 C 40.886719 178.011719 41.363281 178.324219 41.996094 178.324219 C 42.636719 178.324219 43.113281 178.011719 43.433594 177.386719 C 43.753906 176.761719 43.914062 175.824219 43.914062 174.578125 C 43.914062 173.324219 43.753906 172.382812 43.433594 171.761719 C 43.113281 171.136719 42.636719 170.824219 41.996094 170.824219 Z M 41.996094 169.847656 C 43.019531 169.847656 43.800781 170.25 44.339844 171.058594 C 44.878906 171.867188 45.148438 173.039062 45.148438 174.578125 C 45.148438 176.109375 44.878906 177.28125 44.339844 178.089844 C 43.800781 178.898438 43.019531 179.300781 41.996094 179.300781 C 40.976562 179.300781 40.195312 178.898438 39.65625 178.089844 C 39.117188 177.28125 38.847656 176.109375 38.847656 174.578125 C 38.847656 173.039062 39.117188 171.867188 39.65625 171.058594 C 40.195312 170.25 40.976562 169.847656 41.996094 169.847656 Z M 41.996094 169.847656 "/>
<path style=" stroke:none;fill-rule:nonzero;fill:rgb(0%,0%,0%);fill-opacity:1;" d="M 49.949219 170.824219 C 49.316406 170.824219 48.839844 171.136719 48.519531 171.761719 C 48.199219 172.382812 48.039062 173.324219 48.039062 174.578125 C 48.039062 175.824219 48.199219 176.761719 48.519531 177.386719 C 48.839844 178.011719 49.316406 178.324219 49.949219 178.324219 C 50.589844 178.324219 51.066406 178.011719 51.386719 177.386719 C 51.707031 176.761719 51.867188 175.824219 51.867188 174.578125 C 51.867188 173.324219 51.707031 172.382812 51.386719 171.761719 C 51.066406 171.136719 50.589844 170.824219 49.949219 170.824219 Z M 49.949219 169.847656 C 50.972656 169.847656 51.753906 170.25 52.292969 171.058594 C 52.832031 171.867188 53.101562 173.039062 53.101562 174.578125 C 53.101562 176.109375 52.832031 177.28125 52.292969 178.089844 C 51.753906 178.898438 50.972656 179.300781 49.949219 179.300781 C 48.929688 179.300781 48.148438 178.898438 47.609375 178.089844 C 47.070312 177.28125 46.800781 176.109375 46.800781 174.578125 C 46.800781 173.039062 47.070312 171.867188 47.609375 171.058594 C 48.148438 170.25 48.929688 169.847656 49.949219 169.847656 Z M 49.949219 169.847656 "/>
<path style="fill:none;stroke-width:0.8;stroke-linecap:butt;stroke-linejoin:round;stroke:rgb(0%,0%,0%);stroke-opacity:1;stroke-miterlimit:4;" d="M 0 0 L -3.5 0 " transform="matrix(1.25,0,0,1.25,62.679688,135)"/>
<path style=" stroke:none;fill-rule:nonzero;fill:rgb(0%,0%,0%);fill-opacity:1;" d="M 30.070312 131.449219 C 29.4375 131.449219 28.960938 131.761719 28.640625 132.386719 C 28.320312 133.007812 28.160156 133.949219 28.160156 135.203125 C 28.160156 136.449219 28.320312 137.386719 28.640625 138.011719 C 28.960938 138.636719 29.4375 138.949219 30.070312 138.949219 C 30.710938 138.949219 31.1875 138.636719 31.507812 138.011719 C 31.828125 137.386719 31.988281 136.449219 31.988281 135.203125 C 31.988281 133.949219 31.828125 133.007812 31.507812 132.386719 C 31.1875 131.761719 30.710938 131.449219 30.070312 131.449219 Z M 30.070312 130.472656 C 31.09375 130.472656 31.875 130.875 32.414062 131.683594 C 32.953125 132.492188 33.21875 133.664062 33.21875 135.203125 C 33.21875 136.734375 32.953125 137.90625 32.414062 138.714844 C 31.875 139.523438 31.09375 139.925781 30.070312 139.925781 C 29.050781 139.925781 28.269531 139.523438 27.730469 138.714844 C 27.191406 137.90625 26.921875 136.734375 26.921875 135.203125 C 26.921875 133.664062 27.191406 132.492188 27.730469 131.683594 C 28.269531 130.875 29.050781 130.472656 30.070312 130.472656 Z M 30.070312 130.472656 "/>
<path style=" stroke:none;fill-rule:nonzero;fill:rgb(0%,0%,0%);fill-opacity:1;" d="M 35.386719 138.199219 L 36.675781 138.199219 L 36.675781 139.75 L 35.386719 139.75 Z M 35.386719 138.199219 "/>
<path style=" stroke:none;fill-rule:nonzero;fill:rgb(0%,0%,0%);fill-opacity:1;" d="M 41.996094 131.449219 C 41.363281 131.449219 40.886719 131.761719 40.566406 132.386719 C 40.246094 133.007812 40.085938 133.949219 40.085938 135.203125 C 40.085938 136.449219 40.246094 137.386719 40.566406 138.011719 C 40.886719 138.636719 41.363281 138.949219 41.996094 138.949219 C 42.636719 138.949219 43.113281 138.636719 43.433594 138.011719 C 43.753906 137.386719 43.914062 136.449219 43.914062 135.203125 C 43.914062 133.949219 43.753906 133.007812 43.433594 132.386719 C 43.113281 131.761719 42.636719 131.449219 41.996094 131.449219 Z M 41.996094 130.472656 C 43.019531 130.472656 43.800781 130.875 44.339844 131.683594 C 44.878906 132.492188 45.148438 133.664062 45.148438 135.203125 C 45.148438 136.734375 44.878906 137.90625 44.339844 138.714844 C 43.800781 139.523438 43.019531 139.925781 41.996094 139.925781 C 40.976562 139.925781 40.195312 139.523438 39.65625 138.714844 C 39.117188 137.90625 38.847656 136.734375 38.847656 135.203125 C 38.847656 133.664062 39.117188 132.492188 39.65625 131.683594 C 40.195312 130.875 40.976562 130.472656 41.996094 130.472656 Z M 41.996094 130.472656 "/>
<path style=" stroke:none;fill-rule:nonzero;fill:rgb(0%,0%,0%);fill-opacity:1;" d="M 47.328125 130.636719 L 52.167969 130.636719 L 52.167969 131.675781 L 48.457031 131.675781 L 48.457031 133.90625 C 48.632812 133.847656 48.8125 133.800781 48.992188 133.769531 C 49.171875 133.742188 49.351562 133.726562 49.53125 133.726562 C 50.546875 133.726562 51.351562 134.003906 51.945312 134.5625 C 52.539062 135.117188 52.839844 135.875 52.839844 136.824219 C 52.839844 137.804688 52.53125 138.566406 51.921875 139.113281 C 51.3125 139.65625 50.449219 139.925781 49.339844 139.925781 C 48.957031 139.925781 48.566406 139.894531 48.171875 139.828125 C 47.773438 139.765625 47.363281 139.667969 46.941406 139.535156 L 46.941406 138.296875 C 47.308594 138.496094 47.6875 138.644531 48.078125 138.742188 C 48.46875 138.839844 48.878906 138.886719 49.316406 138.886719 C 50.019531 138.886719 50.578125 138.703125 50.988281 138.332031 C 51.398438 137.964844 51.605469 137.460938 51.605469 136.824219 C 51.605469 136.191406 51.398438 135.6875 50.988281 135.320312 C 50.578125 134.949219 50.019531 134.761719 49.316406 134.761719 C 48.984375 134.761719 48.65625 134.800781 48.328125 134.871094 C 48 134.945312 47.667969 135.058594 47.328125 135.214844 Z M 47.328125 130.636719 "/>
<path style="fill:none;stroke-width:0.8;stroke-linecap:butt;stroke-linejoin:round;stroke:rgb(0%,0%,0%);stroke-opacity:1;stroke-miterlimit:4;" d="M 0 0 L -3.5 0 " transform="matrix(1.25,0,0,1.25,62.679688,95.625)"/>
<path style=" stroke:none;fill-rule:nonzero;fill:rgb(0%,0%,0%);fill-opacity:1;" d="M 30.070312 92.074219 C 29.4375 92.074219 28.960938 92.386719 28.640625 93.011719 C 28.320312 93.632812 28.160156 94.574219 28.160156 95.828125 C 28.160156 97.074219 28.320312 98.011719 28.640625 98.636719 C 28.960938 99.261719 29.4375 99.574219 30.070312 99.574219 C 30.710938 99.574219 31.1875 99.261719 31.507812 98.636719 C 31.828125 98.011719 31.988281 97.074219 31.988281 95.828125 C 31.988281 94.574219 31.828125 93.632812 31.507812 93.011719 C 31.1875 92.386719 30.710938 92.074219 30.070312 92.074219 Z M 30.070312 91.097656 C 31.09375 91.097656 31.875 91.5 32.414062 92.308594 C 32.953125 93.117188 33.21875 94.289062 33.21875 95.828125 C 33.21875 97.359375 32.953125 98.53125 32.414062 99.339844 C 31.875 100.148438 31.09375 100.550781 30.070312 100.550781 C 29.050781 100.550781 28.269531 100.148438 27.730469 99.339844 C 27.191406 98.53125 26.921875 97.359375 26.921875 95.828125 C 26.921875 94.289062 27.191406 93.117188 27.730469 92.308594 C 28.269531 91.5 29.050781 91.097656 30.070312 91.097656 Z M 30.070312 91.097656 "/>
<path style=" stroke:none;fill-rule:nonzero;fill:rgb(0%,0%,0%);fill-opacity:1;" d="M 35.386719 98.824219 L 36.675781 98.824219 L 36.675781 100.375 L 35.386719 100.375 Z M 35.386719 98.824219 "/>
<path style=" stroke:none;fill-rule:nonzero;fill:rgb(0%,0%,0%);fill-opacity:1;" d="M 39.574219 99.335938 L 41.589844 99.335938 L 41.589844 92.382812 L 39.398438 92.824219 L 39.398438 91.699219 L 41.578125 91.261719 L 42.808594 91.261719 L 42.808594 99.335938 L 44.824219 99.335938 L 44.824219 100.375 L 39.574219 100.375 Z M 39.574219 99.335938 "/>
<path style=" stroke:none;fill-rule:nonzero;fill:rgb(0%,0%,0%);fill-opacity:1;" d="M 49.949219 92.074219 C 49.316406 92.074219 48.839844 92.386719 48.519531 93.011719 C 48.199219 93.632812 48.039062 94.574219 48.039062 95.828125 C 48.039062 97.074219 48.199219 98.011719 48.519531 98.636719 C 48.839844 99.261719 49.316406 99.574219 49.949219 99.574219 C 50.589844 99.574219 51.066406 99.261719 51.386719 98.636719 C 51.707031 98.011719 51.867188 97.074219 51.867188 95.828125 C 51.867188 94.574219 51.707031 93.632812 51.386719 93.011719 C 51.066406 92.386719 50.589844 92.074219 49.949219 92.074219 Z M 49.949219 91.097656 C 50.972656 91.097656 51.753906 91.5 52.292969 92.308594 C 52.832031 93.117188 53.101562 94.289062 53.101562 95.828125 C 53.101562 97.359375 52.832031 98.53125 52.292969 99.339844 C 51.753906 100.148438 50.972656 100.550781 49.949219 100.550781 C 48.929688 100.550781 48.148438 100.148438 47.609375 99.339844 C 47.070312 98.53125 46.800781 97.359375 46.800781 95.828125 C 46.800781 94.289062 47.070312 93.117188 47.609375 92.308594 C 48.148438 91.5 48.929688 91.097656 49.949219 91.097656 Z M 49.949219 91.097656 "/>
<path style="fill:none;stroke-width:0.8;stroke-linecap:butt;stroke-linejoin:round;stroke:rgb(0%,0%,0%);stroke-opacity:1;stroke-miterlimit:4;" d="M 0 0 L -3.5 0 " transform="matrix(1.25,0,0,1.25,62.679688,56.25)"/>
<path style=" stroke:none;fill-rule:nonzero;fill:rgb(0%,0%,0%);fill-opacity:1;" d="M 30.070312 52.699219 C 29.4375 52.699219 28.960938 53.011719 28.640625 53.636719 C 28.320312 54.257812 28.160156 55.199219 28.160156 56.453125 C 28.160156 57.699219 28.320312 58.636719 28.640625 59.261719 C 28.960938 59.886719 29.4375 60.199219 30.070312 60.199219 C 30.710938 60.199219 31.1875 59.886719 31.507812 59.261719 C 31.828125 58.636719 31.988281 57.699219 31.988281 56.453125 C 31.988281 55.199219 31.828125 54.257812 31.507812 53.636719 C 31.1875 53.011719 30.710938 52.699219 30.070312 52.699219 Z M 30.070312 51.722656 C 31.09375 51.722656 31.875 52.125 32.414062 52.933594 C 32.953125 53.742188 33.21875 54.914062 33.21875 56.453125 C 33.21875 57.984375 32.953125 59.15625 32.414062 59.964844 C 31.875 60.773438 31.09375 61.175781 30.070312 61.175781 C 29.050781 61.175781 28.269531 60.773438 27.730469 59.964844 C 27.191406 59.15625 26.921875 57.984375 26.921875 56.453125 C 26.921875 54.914062 27.191406 53.742188 27.730469 52.933594 C 28.269531 52.125 29.050781 51.722656 30.070312 51.722656 Z M 30.070312 51.722656 "/>
<path style=" stroke:none;fill-rule:nonzero;fill:rgb(0%,0%,0%);fill-opacity:1;" d="M 35.386719 59.449219 L 36.675781 59.449219 L 36.675781 61 L 35.386719 61 Z M 35.386719 59.449219 "/>
<path style=" stroke:none;fill-rule:nonzero;fill:rgb(0%,0%,0%);fill-opacity:1;" d="M 39.574219 59.960938 L 41.589844 59.960938 L 41.589844 53.007812 L 39.398438 53.449219 L 39.398438 52.324219 L 41.578125 51.886719 L 42.808594 51.886719 L 42.808594 59.960938 L 44.824219 59.960938 L 44.824219 61 L 39.574219 61 Z M 39.574219 59.960938 "/>
<path style=" stroke:none;fill-rule:nonzero;fill:rgb(0%,0%,0%);fill-opacity:1;" d="M 47.328125 51.886719 L 52.167969 51.886719 L 52.167969 52.925781 L 48.457031 52.925781 L 48.457031 55.15625 C 48.632812 55.097656 48.8125 55.050781 48.992188 55.019531 C 49.171875 54.992188 49.351562 54.976562 49.53125 54.976562 C 50.546875 54.976562 51.351562 55.253906 51.945312 55.8125 C 52.539062 56.367188 52.839844 57.125 52.839844 58.074219 C 52.839844 59.054688 52.53125 59.816406 51.921875 60.363281 C 51.3125 60.90625 50.449219 61.175781 49.339844 61.175781 C 48.957031 61.175781 48.566406 61.144531 48.171875 61.078125 C 47.773438 61.015625 47.363281 60.917969 46.941406 60.785156 L 46.941406 59.546875 C 47.308594 59.746094 47.6875 59.894531 48.078125 59.992188 C 48.46875 60.089844 48.878906 60.136719 49.316406 60.136719 C 50.019531 60.136719 50.578125 59.953125 50.988281 59.582031 C 51.398438 59.214844 51.605469 58.710938 51.605469 58.074219 C 51.605469 57.441406 51.398438 56.9375 50.988281 56.570312 C 50.578125 56.199219 50.019531 56.011719 49.316406 56.011719 C 48.984375 56.011719 48.65625 56.050781 48.328125 56.121094 C 48 56.195312 47.667969 56.308594 47.328125 56.464844 Z M 47.328125 51.886719 "/>
<path style="fill:none;stroke-width:0.8;stroke-linecap:butt;stroke-linejoin:round;stroke:rgb(0%,0%,0%);stroke-opacity:1;stroke-miterlimit:4;" d="M 0 0 L -3.5 0 " transform="matrix(1.25,0,0,1.25,62.679688,16.875)"/>
<path style=" stroke:none;fill-rule:nonzero;fill:rgb(0%,0%,0%);fill-opacity:1;" d="M 30.070312 13.324219 C 29.4375 13.324219 28.960938 13.636719 28.640625 14.261719 C 28.320312 14.882812 28.160156 15.824219 28.160156 17.078125 C 28.160156 18.324219 28.320312 19.261719 28.640625 19.886719 C 28.960938 20.511719 29.4375 20.824219 30.070312 20.824219 C 30.710938 20.824219 31.1875 20.511719 31.507812 19.886719 C 31.828125 19.261719 31.988281 18.324219 31.988281 17.078125 C 31.988281 15.824219 31.828125 14.882812 31.507812 14.261719 C 31.1875 13.636719 30.710938 13.324219 30.070312 13.324219 Z M 30.070312 12.347656 C 31.09375 12.347656 31.875 12.75 32.414062 13.558594 C 32.953125 14.367188 33.21875 15.539062 33.21875 17.078125 C 33.21875 18.609375 32.953125 19.78125 32.414062 20.589844 C 31.875 21.398438 31.09375 21.800781 30.070312 21.800781 C 29.050781 21.800781 28.269531 21.398438 27.730469 20.589844 C 27.191406 19.78125 26.921875 18.609375 26.921875 17.078125 C 26.921875 15.539062 27.191406 14.367188 27.730469 13.558594 C 28.269531 12.75 29.050781 12.347656 30.070312 12.347656 Z M 30.070312 12.347656 "/>
<path style=" stroke:none;fill-rule:nonzero;fill:rgb(0%,0%,0%);fill-opacity:1;" d="M 35.386719 20.074219 L 36.675781 20.074219 L 36.675781 21.625 L 35.386719 21.625 Z M 35.386719 20.074219 "/>
<path style=" stroke:none;fill-rule:nonzero;fill:rgb(0%,0%,0%);fill-opacity:1;" d="M 40.421875 20.585938 L 44.726562 20.585938 L 44.726562 21.625 L 38.941406 21.625 L 38.941406 20.585938 C 39.40625 20.101562 40.042969 19.453125 40.851562 18.636719 C 41.660156 17.820312 42.167969 17.292969 42.375 17.058594 C 42.769531 16.613281 43.046875 16.238281 43.203125 15.933594 C 43.359375 15.625 43.4375 15.324219 43.4375 15.027344 C 43.4375 14.542969 43.269531 14.148438 42.929688 13.84375 C 42.589844 13.535156 42.144531 13.382812 41.601562 13.382812 C 41.214844 13.382812 40.804688 13.449219 40.375 13.585938 C 39.945312 13.71875 39.488281 13.921875 39 14.195312 L 39 12.949219 C 39.496094 12.75 39.960938 12.601562 40.390625 12.5 C 40.824219 12.398438 41.21875 12.347656 41.578125 12.347656 C 42.519531 12.347656 43.273438 12.582031 43.835938 13.054688 C 44.394531 13.527344 44.675781 14.15625 44.675781 14.945312 C 44.675781 15.320312 44.605469 15.675781 44.464844 16.011719 C 44.324219 16.347656 44.070312 16.742188 43.699219 17.199219 C 43.597656 17.316406 43.273438 17.65625 42.730469 18.222656 C 42.183594 18.785156 41.414062 19.574219 40.421875 20.585938 Z M 40.421875 20.585938 "/>
<path style=" stroke:none;fill-rule:nonzero;fill:rgb(0%,0%,0%);fill-opacity:1;" d="M 49.949219 13.324219 C 49.316406 13.324219 48.839844 13.636719 48.519531 14.261719 C 48.199219 14.882812 48.039062 15.824219 48.039062 17.078125 C 48.039062 18.324219 48.199219 19.261719 48.519531 19.886719 C 48.839844 20.511719 49.316406 20.824219 49.949219 20.824219 C 50.589844 20.824219 51.066406 20.511719 51.386719 19.886719 C 51.707031 19.261719 51.867188 18.324219 51.867188 17.078125 C 51.867188 15.824219 51.707031 14.882812 51.386719 14.261719 C 51.066406 13.636719 50.589844 13.324219 49.949219 13.324219 Z M 49.949219 12.347656 C 50.972656 12.347656 51.753906 12.75 52.292969 13.558594 C 52.832031 14.367188 53.101562 15.539062 53.101562 17.078125 C 53.101562 18.609375 52.832031 19.78125 52.292969 20.589844 C 51.753906 21.398438 50.972656 21.800781 49.949219 21.800781 C 48.929688 21.800781 48.148438 21.398438 47.609375 20.589844 C 47.070312 19.78125 46.800781 18.609375 46.800781 17.078125 C 46.800781 15.539062 47.070312 14.367188 47.609375 13.558594 C 48.148438 12.75 48.929688 12.347656 49.949219 12.347656 Z M 49.949219 12.347656 "/>
<path style=" stroke:none;fill-rule:nonzero;fill:rgb(0%,0%,0%);fill-opacity:1;" d="M 17.472656 111.125 L 21.097656 111.125 L 21.097656 112.25 L 11.660156 112.25 L 11.660156 111.125 L 12.699219 111.125 C 12.292969 110.886719 11.992188 110.585938 11.792969 110.226562 C 11.597656 109.867188 11.496094 109.4375 11.496094 108.9375 C 11.496094 108.105469 11.828125 107.433594 12.484375 106.914062 C 13.144531 106.394531 14.011719 106.132812 15.085938 106.132812 C 16.160156 106.132812 17.027344 106.394531 17.6875 106.914062 C 18.347656 107.433594 18.675781 108.105469 18.675781 108.9375 C 18.675781 109.4375 18.578125 109.867188 18.378906 110.226562 C 18.179688 110.585938 17.878906 110.886719 17.472656 111.125 Z M 15.085938 107.300781 C 14.261719 107.300781 13.613281 107.46875 13.140625 107.8125 C 12.671875 108.148438 12.4375 108.617188 12.4375 109.210938 C 12.4375 109.804688 12.671875 110.273438 13.140625 110.613281 C 13.613281 110.953125 14.261719 111.125 15.085938 111.125 C 15.910156 111.125 16.558594 110.953125 17.027344 110.613281 C 17.5 110.273438 17.734375 109.804688 17.734375 109.210938 C 17.734375 108.617188 17.5 108.148438 17.027344 107.8125 C 16.558594 107.46875 15.910156 107.300781 15.085938 107.300781 Z M 15.085938 107.300781 "/>
<path style=" stroke:none;fill-rule:nonzero;fill:rgb(0%,0%,0%);fill-opacity:1;" d="M 16.945312 104.117188 L 16.945312 102.828125 L 18.496094 102.828125 L 18.496094 104.117188 Z M 16.945312 104.117188 "/>
<path style=" stroke:none;fill-rule:nonzero;fill:rgb(0%,0%,0%);fill-opacity:1;" d="M 12.972656 94.980469 C 12.46875 94.699219 12.097656 94.363281 11.855469 93.972656 C 11.617188 93.582031 11.496094 93.121094 11.496094 92.59375 C 11.496094 91.878906 11.746094 91.332031 12.246094 90.945312 C 12.742188 90.558594 13.453125 90.363281 14.371094 90.363281 L 18.496094 90.363281 L 18.496094 91.492188 L 14.40625 91.492188 C 13.753906 91.492188 13.265625 91.609375 12.949219 91.84375 C 12.632812 92.074219 12.472656 92.425781 12.472656 92.902344 C 12.472656 93.484375 12.667969 93.945312 13.054688 94.285156 C 13.441406 94.621094 13.964844 94.789062 14.632812 94.789062 L 18.496094 94.789062 L 18.496094 95.917969 L 14.40625 95.917969 C 13.75 95.917969 13.261719 96.035156 12.945312 96.265625 C 12.632812 96.496094 12.472656 96.855469 12.472656 97.339844 C 12.472656 97.914062 12.667969 98.371094 13.054688 98.710938 C 13.445312 99.046875 13.96875 99.214844 14.632812 99.214844 L 18.496094 99.214844 L 18.496094 100.34375 L 11.660156 100.34375 L 11.660156 99.214844 L 12.722656 99.214844 C 12.304688 98.957031 11.996094 98.652344 11.796875 98.292969 C 11.597656 97.933594 11.496094 97.511719 11.496094 97.019531 C 11.496094 96.519531 11.625 96.097656 11.875 95.75 C 12.128906 95.402344 12.492188 95.144531 12.972656 94.980469 Z M 12.972656 94.980469 "/>
<path style=" stroke:none;fill-rule:nonzero;fill:rgb(0%,0%,0%);fill-opacity:1;" d="M 16.945312 87.964844 L 16.945312 86.675781 L 18.496094 86.675781 L 18.496094 87.964844 Z M 16.945312 87.964844 "/>
<path style=" stroke:none;fill-rule:nonzero;fill:rgb(0%,0%,0%);fill-opacity:1;" d="M 9 80.691406 L 9.933594 80.691406 L 9.933594 81.765625 C 9.933594 82.167969 10.015625 82.445312 10.179688 82.605469 C 10.34375 82.761719 10.636719 82.839844 11.058594 82.839844 L 11.660156 82.839844 L 11.660156 80.988281 L 12.535156 80.988281 L 12.535156 82.839844 L 18.496094 82.839844 L 18.496094 83.96875 L 12.535156 83.96875 L 12.535156 85.042969 L 11.660156 85.042969 L 11.660156 83.96875 L 11.183594 83.96875 C 10.425781 83.96875 9.871094 83.789062 9.523438 83.4375 C 9.175781 83.082031 9 82.519531 9 81.753906 Z M 9 80.691406 "/>
<path style=" stroke:none;fill-rule:nonzero;fill:rgb(0%,0%,0%);fill-opacity:1;" d="M 16.945312 80.5 L 16.945312 79.210938 L 18.496094 79.210938 L 18.496094 80.5 Z M 16.945312 80.5 "/>
<path style="fill:none;stroke-width:1.5;stroke-linecap:butt;stroke-linejoin:round;stroke:rgb(12.156863%,46.666667%,70.588235%);stroke-opacity:1;stroke-miterlimit:4;" d="M 59.021875 139.5 L 59.021875 13.5 " transform="matrix(1.25,0,0,1.25,0,0)"/>
<path style="fill:none;stroke-width:1.5;stroke-linecap:butt;stroke-linejoin:round;stroke:rgb(12.156863%,46.666667%,70.588235%);stroke-opacity:1;stroke-miterlimit:4;" d="M 103.40625 139.5 L 103.40625 13.5 " transform="matrix(1.25,0,0,1.25,0,0)"/>
<path style="fill:none;stroke-width:1.5;stroke-linecap:butt;stroke-linejoin:round;stroke:rgb(12.156863%,46.666667%,70.588235%);stroke-opacity:1;stroke-miterlimit:4;" d="M 147.79375 139.5 L 147.79375 13.5 " transform="matrix(1.25,0,0,1.25,0,0)"/>
<path style="fill:none;stroke-width:1.5;stroke-linecap:butt;stroke-linejoin:round;stroke:rgb(12.156863%,46.666667%,70.588235%);stroke-opacity:1;stroke-miterlimit:4;" d="M 192.18125 139.5 L 192.18125 13.5 " transform="matrix(1.25,0,0,1.25,0,0)"/>
<path style="fill:none;stroke-width:1.5;stroke-linecap:butt;stroke-linejoin:round;stroke:rgb(12.156863%,46.666667%,70.588235%);stroke-opacity:1;stroke-miterlimit:4;" d="M 236.565625 139.5 L 236.565625 13.5 " transform="matrix(1.25,0,0,1.25,0,0)"/>
<path style="fill-rule:nonzero;fill:rgb(12.156863%,46.666667%,70.588235%);fill-opacity:1;stroke-width:1;stroke-linecap:butt;stroke-linejoin:round;stroke:rgb(12.156863%,46.666667%,70.588235%);stroke-opacity:1;stroke-miterlimit:4;" d="M 0.000852 3 C 0.794602 3 1.560227 2.684375 2.122727 2.121875 C 2.685227 1.559375 3.000852 0.796875 3.000852 0 C 3.000852 -0.796875 2.685227 -1.559375 2.122727 -2.121875 C 1.560227 -2.684375 0.794602 -3 0.000852 -3 C -0.796023 -3 -1.558523 -2.684375 -2.121023 -2.121875 C -2.683523 -1.559375 -2.999148 -0.796875 -2.999148 0 C -2.999148 0.796875 -2.683523 1.559375 -2.121023 2.121875 C -1.558523 2.684375 -0.796023 3 0.000852 3 Z M 0.000852 3 " transform="matrix(1.25,0,0,1.25,73.776279,16.875)"/>
<path style="fill-rule:nonzero;fill:rgb(12.156863%,46.666667%,70.588235%);fill-opacity:1;stroke-width:1;stroke-linecap:butt;stroke-linejoin:round;stroke:rgb(12.156863%,46.666667%,70.588235%);stroke-opacity:1;stroke-miterlimit:4;" d="M -0.001136 3 C 0.795739 3 1.558239 2.684375 2.120739 2.121875 C 2.683239 1.559375 2.998864 0.796875 2.998864 0 C 2.998864 -0.796875 2.683239 -1.559375 2.120739 -2.121875 C 1.558239 -2.684375 0.795739 -3 -0.001136 -3 C -0.794886 -3 -1.557386 -2.684375 -2.119886 -2.121875 C -2.682386 -1.559375 -3.001136 -0.796875 -3.001136 0 C -3.001136 0.796875 -2.682386 1.559375 -2.119886 2.121875 C -1.557386 2.684375 -0.794886 3 -0.001136 3 Z M -0.001136 3 " transform="matrix(1.25,0,0,1.25,129.259232,16.875)"/>
<path style="fill-rule:nonzero;fill:rgb(12.156863%,46.666667%,70.588235%);fill-opacity:1;stroke-width:1;stroke-linecap:butt;stroke-linejoin:round;stroke:rgb(12.156863%,46.666667%,70.588235%);stroke-opacity:1;stroke-miterlimit:4;" d="M 0 3 C 0.796875 3 1.559375 2.684375 2.121875 2.121875 C 2.684375 1.559375 3 0.796875 3 0 C 3 -0.796875 2.684375 -1.559375 2.121875 -2.121875 C 1.559375 -2.684375 0.796875 -3 0 -3 C -0.796875 -3 -1.559375 -2.684375 -2.121875 -2.121875 C -2.684375 -1.559375 -3 -0.796875 -3 0 C -3 0.796875 -2.684375 1.559375 -2.121875 2.121875 C -1.559375 2.684375 -0.796875 3 0 3 Z M 0 3 " transform="matrix(1.25,0,0,1.25,184.742188,16.875)"/>
<path style="fill-rule:nonzero;fill:rgb(12.156863%,46.666667%,70.588235%);fill-opacity:1;stroke-width:1;stroke-linecap:butt;stroke-linejoin:round;stroke:rgb(12.156863%,46.666667%,70.588235%);stroke-opacity:1;stroke-miterlimit:4;" d="M 0.001136 3 C 0.794886 3 1.557386 2.684375 2.119886 2.121875 C 2.682386 1.559375 3.001136 0.796875 3.001136 0 C 3.001136 -0.796875 2.682386 -1.559375 2.119886 -2.121875 C 1.557386 -2.684375 0.794886 -3 0.001136 -3 C -0.795739 -3 -1.558239 -2.684375 -2.120739 -2.121875 C -2.683239 -1.559375 -2.998864 -0.796875 -2.998864 0 C -2.998864 0.796875 -2.683239 1.559375 -2.120739 2.121875 C -1.558239 2.684375 -0.795739 3 0.001136 3 Z M 0.001136 3 " transform="matrix(1.25,0,0,1.25,240.225143,16.875)"/>
<path style="fill-rule:nonzero;fill:rgb(12.156863%,46.666667%,70.588235%);fill-opacity:1;stroke-width:1;stroke-linecap:butt;stroke-linejoin:round;stroke:rgb(12.156863%,46.666667%,70.588235%);stroke-opacity:1;stroke-miterlimit:4;" d="M -0.000852 3 C 0.796023 3 1.558523 2.684375 2.121023 2.121875 C 2.683523 1.559375 2.999148 0.796875 2.999148 0 C 2.999148 -0.796875 2.683523 -1.559375 2.121023 -2.121875 C 1.558523 -2.684375 0.796023 -3 -0.000852 -3 C -0.794602 -3 -1.560227 -2.684375 -2.122727 -2.121875 C -2.685227 -1.559375 -3.000852 -0.796875 -3.000852 0 C -3.000852 0.796875 -2.685227 1.559375 -2.122727 2.121875 C -1.560227 2.684375 -0.794602 3 -0.000852 3 Z M -0.000852 3 " transform="matrix(1.25,0,0,1.25,295.708096,16.875)"/>
<path style="fill:none;stroke-width:1.5;stroke-linecap:square;stroke-linejoin:round;stroke:rgb(83.921569%,15.294118%,15.686275%);stroke-opacity:1;stroke-miterlimit:4;" d="M 59.021875 139.5 L 236.565625 139.5 " transform="matrix(1.25,0,0,1.25,0,0)"/>
<path style="fill:none;stroke-width:0.8;stroke-linecap:square;stroke-linejoin:miter;stroke:rgb(0%,0%,0%);stroke-opacity:1;stroke-miterlimit:4;" d="M 50.14375 145.8 L 50.14375 7.2 " transform="matrix(1.25,0,0,1.25,0,0)"/>
<path style="fill:none;stroke-width:0.8;stroke-linecap:square;stroke-linejoin:miter;stroke:rgb(0%,0%,0%);stroke-opacity:1;stroke-miterlimit:4;" d="M 245.44375 145.8 L 245.44375 7.2 " transform="matrix(1.25,0,0,1.25,0,0)"/>
<path style="fill:none;stroke-width:0.8;stroke-linecap:square;stroke-linejoin:miter;stroke:rgb(0%,0%,0%);stroke-opacity:1;stroke-miterlimit:4;" d="M 50.14375 145.8 L 245.44375 145.8 " transform="matrix(1.25,0,0,1.25,0,0)"/>
<path style="fill:none;stroke-width:0.8;stroke-linecap:square;stroke-linejoin:miter;stroke:rgb(0%,0%,0%);stroke-opacity:1;stroke-miterlimit:4;" d="M 50.14375 7.2 L 245.44375 7.2 " transform="matrix(1.25,0,0,1.25,0,0)"/>
</g>
</svg>
