<?xml version="1.0" encoding="UTF-8"?>
<svg xmlns="http://www.w3.org/2000/svg" xmlns:xlink="http://www.w3.org/1999/xlink" width="332pt" height="229pt" viewBox="0 0 332 229" version="1.1">
<defs>
<clipPath id="clip1">
  <path d="M 88 9 L 91 9 L 91 182.25 L 88 182.25 Z M 88 9 "/>
</clipPath>
<clipPath id="clip2">
  <path d="M 133 9 L 135 9 L 135 182.25 L 133 182.25 Z M 133 9 "/>
</clipPath>
<clipPath id="clip3">
  <path d="M 177 9 L 180 9 L 180 182.25 L 177 182.25 Z M 177 9 "/>
</clipPath>
<clipPath id="clip4">
  <path d="M 222 9 L 224 9 L 224 182.25 L 222 182.25 Z M 222 9 "/>
</clipPath>
<clipPath id="clip5">
  <path d="M 266 9 L 269 9 L 269 182.25 L 266 182.25 Z M 266 9 "/>
</clipPath>
<clipPath id="clip6">
  <path d="M 311 9 L 313 9 L 313 182.25 L 311 182.25 Z M 311 9 "/>
</clipPath>
<clipPath id="clip7">
  <path d="M 78.585938 173 L 322.710938 173 L 322.710938 176 L 78.585938 176 Z M 78.585938 173 "/>
</clipPath>
<clipPath id="clip8">
  <path d="M 78.585938 125 L 322.710938 125 L 322.710938 127 L 78.585938 127 Z M 78.585938 125 "/>
</clipPath>
<clipPath id="clip9">
  <path d="M 78.585938 77 L 322.710938 77 L 322.710938 79 L 78.585938 79 Z M 78.585938 77 "/>
</clipPath>
<clipPath id="clip10">
  <path d="M 78.585938 29 L 322.710938 29 L 322.710938 31 L 78.585938 31 Z M 78.585938 29 "/>
</clipPath>
</defs>
<g id="surface1">
<path style=" stroke:none;fill-rule:nonzero;fill:rgb(100%,100%,100%);fill-opacity:1;" d="M 0 229.195312 L 331.710938 229.195312 L 331.710938 0 L 0 0 Z M 0 229.195312 "/>
<path style=" stroke:none;fill-rule:nonzero;fill:rgb(100%,100%,100%);fill-opacity:1;" d="M 78.585938 182.25 L 322.710938 182.25 L 322.710938 9 L 78.585938 9 Z M 78.585938 182.25 "/>
<g clip-path="url(#clip1)" clip-rule="nonzero">
<path style="fill:none;stroke-width:0.8;stroke-linecap:square;stroke-linejoin:round;stroke:rgb(69.019608%,69.019608%,69.019608%);stroke-opacity:1;stroke-miterlimit:4;" d="M 71.746875 145.8 L 71.746875 7.2 " transform="matrix(1.25,0,0,1.25,0.000000000000028422,0)"/>
</g>
<path style="fill:none;stroke-width:0.8;stroke-linecap:butt;stroke-linejoin:round;stroke:rgb(0%,0%,0%);stroke-opacity:1;stroke-miterlimit:4;" d="M 0.000852 0 L 0.000852 3.5 " transform="matrix(1.25,0,0,1.25,89.682529,182.25)"/>
<path style=" stroke:none;fill-rule:nonzero;fill:rgb(0%,0%,0%);fill-opacity:1;" d="M 83.714844 192.199219 C 83.082031 192.199219 82.605469 192.511719 82.285156 193.136719 C 81.964844 193.757812 81.804688 194.699219 81.804688 195.953125 C 81.804688 197.199219 81.964844 198.136719 82.285156 198.761719 C 82.605469 199.386719 83.082031 199.699219 83.714844 199.699219 C 84.355469 199.699219 84.835938 199.386719 85.152344 198.761719 C 85.472656 198.136719 85.632812 197.199219 85.632812 195.953125 C 85.632812 194.699219 85.472656 193.757812 85.152344 193.136719 C 84.835938 192.511719 84.355469 192.199219 83.714844 192.199219 Z M 83.714844 191.222656 C 84.738281 191.222656 85.519531 191.625 86.058594 192.433594 C 86.597656 193.242188 86.867188 194.414062 86.867188 195.953125 C 86.867188 197.484375 86.597656 198.65625 86.058594 199.464844 C 85.519531 200.273438 84.738281 200.675781 83.714844 200.675781 C 82.695312 200.675781 81.914062 200.273438 81.375 199.464844 C 80.835938 198.65625 80.566406 197.484375 80.566406 195.953125 C 80.566406 194.414062 80.835938 193.242188 81.375 192.433594 C 81.914062 191.625 82.695312 191.222656 83.714844 191.222656 Z M 83.714844 191.222656 "/>
<path style=" stroke:none;fill-rule:nonzero;fill:rgb(0%,0%,0%);fill-opacity:1;" d="M 89.03125 198.949219 L 90.320312 198.949219 L 90.320312 200.5 L 89.03125 200.5 Z M 89.03125 198.949219 "/>
<path style=" stroke:none;fill-rule:nonzero;fill:rgb(0%,0%,0%);fill-opacity:1;" d="M 95.640625 192.199219 C 95.007812 192.199219 94.53125 192.511719 94.210938 193.136719 C 93.890625 193.757812 93.730469 194.699219 93.730469 195.953125 C 93.730469 197.199219 93.890625 198.136719 94.210938 198.761719 C 94.53125 199.386719 95.007812 199.699219 95.640625 199.699219 C 96.28125 199.699219 96.761719 199.386719 97.078125 198.761719 C 97.398438 198.136719 97.558594 197.199219 97.558594 195.953125 C 97.558594 194.699219 97.398438 193.757812 97.078125 193.136719 C 96.761719 192.511719 96.28125 192.199219 95.640625 192.199219 Z M 95.640625 191.222656 C 96.664062 191.222656 97.445312 191.625 97.984375 192.433594 C 98.523438 193.242188 98.792969 194.414062 98.792969 195.953125 C 98.792969 197.484375 98.523438 198.65625 97.984375 199.464844 C 97.445312 200.273438 96.664062 200.675781 95.640625 200.675781 C 94.621094 200.675781 93.839844 200.273438 93.300781 199.464844 C 92.761719 198.65625 92.492188 197.484375 92.492188 195.953125 C 92.492188 194.414062 92.761719 193.242188 93.300781 192.433594 C 93.839844 191.625 94.621094 191.222656 95.640625 191.222656 Z M 95.640625 191.222656 "/>
<g clip-path="url(#clip2)" clip-rule="nonzero">
<path style="fill:none;stroke-width:0.8;stroke-linecap:square;stroke-linejoin:round;stroke:rgb(69.019608%,69.019608%,69.019608%);stroke-opacity:1;stroke-miterlimit:4;" d="M 107.290625 145.8 L 107.290625 7.2 " transform="matrix(1.25,0,0,1.25,0.000000000000028422,0)"/>
</g>
<path style="fill:none;stroke-width:0.8;stroke-linecap:butt;stroke-linejoin:round;stroke:rgb(0%,0%,0%);stroke-opacity:1;stroke-miterlimit:4;" d="M -0.000033 0 L -0.000033 3.5 " transform="matrix(1.25,0,0,1.25,134.113323,182.25)"/>
<path style=" stroke:none;fill-rule:nonzero;fill:rgb(0%,0%,0%);fill-opacity:1;" d="M 128.148438 192.199219 C 127.511719 192.199219 127.035156 192.511719 126.714844 193.136719 C 126.394531 193.757812 126.238281 194.699219 126.238281 195.953125 C 126.238281 197.199219 126.394531 198.136719 126.714844 198.761719 C 127.035156 199.386719 127.511719 199.699219 128.148438 199.699219 C 128.785156 199.699219 129.265625 199.386719 129.585938 198.761719 C 129.90625 198.136719 130.066406 197.199219 130.066406 195.953125 C 130.066406 194.699219 129.90625 193.757812 129.585938 193.136719 C 129.265625 192.511719 128.785156 192.199219 128.148438 192.199219 Z M 128.148438 191.222656 C 129.167969 191.222656 129.949219 191.625 130.488281 192.433594 C 131.027344 193.242188 131.296875 194.414062 131.296875 195.953125 C 131.296875 197.484375 131.027344 198.65625 130.488281 199.464844 C 129.949219 200.273438 129.167969 200.675781 128.148438 200.675781 C 127.125 200.675781 126.347656 200.273438 125.808594 199.464844 C 125.269531 198.65625 125 197.484375 125 195.953125 C 125 194.414062 125.269531 193.242188 125.808594 192.433594 C 126.347656 191.625 127.125 191.222656 128.148438 191.222656 Z M 128.148438 191.222656 "/>
<path style=" stroke:none;fill-rule:nonzero;fill:rgb(0%,0%,0%);fill-opacity:1;" d="M 133.460938 198.949219 L 134.75 198.949219 L 134.75 200.5 L 133.460938 200.5 Z M 133.460938 198.949219 "/>
<path style=" stroke:none;fill-rule:nonzero;fill:rgb(0%,0%,0%);fill-opacity:1;" d="M 138.5 199.460938 L 142.800781 199.460938 L 142.800781 200.5 L 137.015625 200.5 L 137.015625 199.460938 C 137.484375 198.976562 138.121094 198.328125 138.929688 197.511719 C 139.738281 196.695312 140.246094 196.167969 140.453125 195.933594 C 140.847656 195.488281 141.121094 195.113281 141.277344 194.808594 C 141.433594 194.5 141.515625 194.199219 141.515625 193.902344 C 141.515625 193.417969 141.34375 193.023438 141.003906 192.71875 C 140.664062 192.410156 140.222656 192.257812 139.675781 192.257812 C 139.289062 192.257812 138.882812 192.324219 138.453125 192.460938 C 138.023438 192.59375 137.566406 192.796875 137.078125 193.070312 L 137.078125 191.824219 C 137.574219 191.625 138.035156 191.476562 138.46875 191.375 C 138.898438 191.273438 139.292969 191.222656 139.652344 191.222656 C 140.597656 191.222656 141.347656 191.457031 141.910156 191.929688 C 142.472656 192.402344 142.753906 193.03125 142.753906 193.820312 C 142.753906 194.195312 142.683594 194.550781 142.542969 194.886719 C 142.402344 195.222656 142.148438 195.617188 141.777344 196.074219 C 141.675781 196.191406 141.351562 196.53125 140.804688 197.097656 C 140.261719 197.660156 139.492188 198.449219 138.5 199.460938 Z M 138.5 199.460938 "/>
<g clip-path="url(#clip3)" clip-rule="nonzero">
<path style="fill:none;stroke-width:0.8;stroke-linecap:square;stroke-linejoin:round;stroke:rgb(69.019608%,69.019608%,69.019608%);stroke-opacity:1;stroke-miterlimit:4;" d="M 142.834375 145.8 L 142.834375 7.2 " transform="matrix(1.25,0,0,1.25,0.000000000000028422,0)"/>
</g>
<path style="fill:none;stroke-width:0.8;stroke-linecap:butt;stroke-linejoin:round;stroke:rgb(0%,0%,0%);stroke-opacity:1;stroke-miterlimit:4;" d="M -0.000918 0 L -0.000918 3.5 " transform="matrix(1.25,0,0,1.25,178.544116,182.25)"/>
<path style=" stroke:none;fill-rule:nonzero;fill:rgb(0%,0%,0%);fill-opacity:1;" d="M 172.578125 192.199219 C 171.941406 192.199219 171.464844 192.511719 171.144531 193.136719 C 170.828125 193.757812 170.667969 194.699219 170.667969 195.953125 C 170.667969 197.199219 170.828125 198.136719 171.144531 198.761719 C 171.464844 199.386719 171.941406 199.699219 172.578125 199.699219 C 173.214844 199.699219 173.695312 199.386719 174.015625 198.761719 C 174.335938 198.136719 174.496094 197.199219 174.496094 195.953125 C 174.496094 194.699219 174.335938 193.757812 174.015625 193.136719 C 173.695312 192.511719 173.214844 192.199219 172.578125 192.199219 Z M 172.578125 191.222656 C 173.597656 191.222656 174.378906 191.625 174.917969 192.433594 C 175.457031 193.242188 175.726562 194.414062 175.726562 195.953125 C 175.726562 197.484375 175.457031 198.65625 174.917969 199.464844 C 174.378906 200.273438 173.597656 200.675781 172.578125 200.675781 C 171.554688 200.675781 170.777344 200.273438 170.238281 199.464844 C 169.699219 198.65625 169.429688 197.484375 169.429688 195.953125 C 169.429688 194.414062 169.699219 193.242188 170.238281 192.433594 C 170.777344 191.625 171.554688 191.222656 172.578125 191.222656 Z M 172.578125 191.222656 "/>
<path style=" stroke:none;fill-rule:nonzero;fill:rgb(0%,0%,0%);fill-opacity:1;" d="M 177.894531 198.949219 L 179.183594 198.949219 L 179.183594 200.5 L 177.894531 200.5 Z M 177.894531 198.949219 "/>
<path style=" stroke:none;fill-rule:nonzero;fill:rgb(0%,0%,0%);fill-opacity:1;" d="M 185.253906 192.460938 L 182.140625 197.324219 L 185.253906 197.324219 Z M 184.929688 191.386719 L 186.480469 191.386719 L 186.480469 197.324219 L 187.78125 197.324219 L 187.78125 198.351562 L 186.480469 198.351562 L 186.480469 200.5 L 185.253906 200.5 L 185.253906 198.351562 L 181.140625 198.351562 L 181.140625 197.160156 Z M 184.929688 191.386719 "/>
<g clip-path="url(#clip4)" clip-rule="nonzero">
<path style="fill:none;stroke-width:0.8;stroke-linecap:square;stroke-linejoin:round;stroke:rgb(69.019608%,69.019608%,69.019608%);stroke-opacity:1;stroke-miterlimit:4;" d="M 178.38125 145.8 L 178.38125 7.2 " transform="matrix(1.25,0,0,1.25,0.000000000000028422,0)"/>
</g>
<path style="fill:none;stroke-width:0.8;stroke-linecap:butt;stroke-linejoin:round;stroke:rgb(0%,0%,0%);stroke-opacity:1;stroke-miterlimit:4;" d="M 0.001322 0 L 0.001322 3.5 " transform="matrix(1.25,0,0,1.25,222.97491,182.25)"/>
<path style=" stroke:none;fill-rule:nonzero;fill:rgb(0%,0%,0%);fill-opacity:1;" d="M 217.007812 192.199219 C 216.375 192.199219 215.898438 192.511719 215.578125 193.136719 C 215.257812 193.757812 215.097656 194.699219 215.097656 195.953125 C 215.097656 197.199219 215.257812 198.136719 215.578125 198.761719 C 215.898438 199.386719 216.375 199.699219 217.007812 199.699219 C 217.648438 199.699219 218.125 199.386719 218.445312 198.761719 C 218.765625 198.136719 218.925781 197.199219 218.925781 195.953125 C 218.925781 194.699219 218.765625 193.757812 218.445312 193.136719 C 218.125 192.511719 217.648438 192.199219 217.007812 192.199219 Z M 217.007812 191.222656 C 218.03125 191.222656 218.8125 191.625 219.351562 192.433594 C 219.890625 193.242188 220.160156 194.414062 220.160156 195.953125 C 220.160156 197.484375 219.890625 198.65625 219.351562 199.464844 C 218.8125 200.273438 218.03125 200.675781 217.007812 200.675781 C 215.988281 200.675781 215.207031 200.273438 214.667969 199.464844 C 214.128906 198.65625 213.859375 197.484375 213.859375 195.953125 C 213.859375 194.414062 214.128906 193.242188 214.667969 192.433594 C 215.207031 191.625 215.988281 191.222656 217.007812 191.222656 Z M 217.007812 191.222656 "/>
<path style=" stroke:none;fill-rule:nonzero;fill:rgb(0%,0%,0%);fill-opacity:1;" d="M 222.324219 198.949219 L 223.613281 198.949219 L 223.613281 200.5 L 222.324219 200.5 Z M 222.324219 198.949219 "/>
<path style=" stroke:none;fill-rule:nonzero;fill:rgb(0%,0%,0%);fill-opacity:1;" d="M 229.089844 195.453125 C 228.535156 195.453125 228.097656 195.640625 227.773438 196.019531 C 227.449219 196.398438 227.289062 196.914062 227.289062 197.574219 C 227.289062 198.230469 227.449219 198.746094 227.773438 199.128906 C 228.097656 199.507812 228.535156 199.699219 229.089844 199.699219 C 229.640625 199.699219 230.082031 199.507812 230.402344 199.128906 C 230.726562 198.746094 230.886719 198.230469 230.886719 197.574219 C 230.886719 196.914062 230.726562 196.398438 230.402344 196.019531 C 230.082031 195.640625 229.640625 195.453125 229.089844 195.453125 Z M 231.535156 191.585938 L 231.535156 192.710938 C 231.226562 192.5625 230.914062 192.453125 230.597656 192.375 C 230.285156 192.296875 229.972656 192.257812 229.660156 192.257812 C 228.847656 192.257812 228.226562 192.53125 227.796875 193.082031 C 227.367188 193.632812 227.121094 194.460938 227.0625 195.574219 C 227.300781 195.21875 227.601562 194.945312 227.964844 194.757812 C 228.328125 194.570312 228.726562 194.476562 229.160156 194.476562 C 230.078125 194.476562 230.800781 194.753906 231.332031 195.308594 C 231.863281 195.863281 232.128906 196.617188 232.128906 197.574219 C 232.128906 198.511719 231.851562 199.261719 231.296875 199.828125 C 230.746094 200.394531 230.007812 200.675781 229.089844 200.675781 C 228.035156 200.675781 227.226562 200.273438 226.671875 199.464844 C 226.113281 198.65625 225.835938 197.484375 225.835938 195.953125 C 225.835938 194.511719 226.175781 193.363281 226.859375 192.507812 C 227.542969 191.648438 228.460938 191.222656 229.613281 191.222656 C 229.921875 191.222656 230.234375 191.25 230.550781 191.3125 C 230.863281 191.375 231.195312 191.464844 231.535156 191.585938 Z M 231.535156 191.585938 "/>
<g clip-path="url(#clip5)" clip-rule="nonzero">
<path style="fill:none;stroke-width:0.8;stroke-linecap:square;stroke-linejoin:round;stroke:rgb(69.019608%,69.019608%,69.019608%);stroke-opacity:1;stroke-miterlimit:4;" d="M 213.925 145.8 L 213.925 7.2 " transform="matrix(1.25,0,0,1.25,0.000000000000028422,0)"/>
</g>
<path style="fill:none;stroke-width:0.8;stroke-linecap:butt;stroke-linejoin:round;stroke:rgb(0%,0%,0%);stroke-opacity:1;stroke-miterlimit:4;" d="M 0.000437 0 L 0.000437 3.5 " transform="matrix(1.25,0,0,1.25,267.405704,182.25)"/>
<path style=" stroke:none;fill-rule:nonzero;fill:rgb(0%,0%,0%);fill-opacity:1;" d="M 261.4375 192.199219 C 260.804688 192.199219 260.328125 192.511719 260.007812 193.136719 C 259.6875 193.757812 259.527344 194.699219 259.527344 195.953125 C 259.527344 197.199219 259.6875 198.136719 260.007812 198.761719 C 260.328125 199.386719 260.804688 199.699219 261.4375 199.699219 C 262.078125 199.699219 262.558594 199.386719 262.875 198.761719 C 263.195312 198.136719 263.355469 197.199219 263.355469 195.953125 C 263.355469 194.699219 263.195312 193.757812 262.875 193.136719 C 262.558594 192.511719 262.078125 192.199219 261.4375 192.199219 Z M 261.4375 191.222656 C 262.460938 191.222656 263.242188 191.625 263.78125 192.433594 C 264.320312 193.242188 264.589844 194.414062 264.589844 195.953125 C 264.589844 197.484375 264.320312 198.65625 263.78125 199.464844 C 263.242188 200.273438 262.460938 200.675781 261.4375 200.675781 C 260.417969 200.675781 259.636719 200.273438 259.097656 199.464844 C 258.558594 198.65625 258.289062 197.484375 258.289062 195.953125 C 258.289062 194.414062 258.558594 193.242188 259.097656 192.433594 C 259.636719 191.625 260.417969 191.222656 261.4375 191.222656 Z M 261.4375 191.222656 "/>
<path style=" stroke:none;fill-rule:nonzero;fill:rgb(0%,0%,0%);fill-opacity:1;" d="M 266.753906 198.949219 L 268.042969 198.949219 L 268.042969 200.5 L 266.753906 200.5 Z M 266.753906 198.949219 "/>
<path style=" stroke:none;fill-rule:nonzero;fill:rgb(0%,0%,0%);fill-opacity:1;" d="M 273.363281 196.171875 C 272.777344 196.171875 272.316406 196.328125 271.980469 196.640625 C 271.648438 196.953125 271.480469 197.386719 271.480469 197.933594 C 271.480469 198.484375 271.648438 198.914062 271.980469 199.230469 C 272.316406 199.542969 272.777344 199.699219 273.363281 199.699219 C 273.949219 199.699219 274.414062 199.542969 274.75 199.226562 C 275.089844 198.910156 275.257812 198.480469 275.257812 197.933594 C 275.257812 197.386719 275.089844 196.953125 274.753906 196.640625 C 274.417969 196.328125 273.957031 196.171875 273.363281 196.171875 Z M 272.132812 195.648438 C 271.605469 195.515625 271.191406 195.269531 270.894531 194.910156 C 270.601562 194.546875 270.453125 194.101562 270.453125 193.582031 C 270.453125 192.855469 270.714844 192.277344 271.230469 191.855469 C 271.75 191.433594 272.460938 191.222656 273.363281 191.222656 C 274.273438 191.222656 274.984375 191.433594 275.5 191.855469 C 276.019531 192.277344 276.277344 192.855469 276.277344 193.582031 C 276.277344 194.101562 276.128906 194.546875 275.832031 194.910156 C 275.539062 195.269531 275.128906 195.515625 274.605469 195.648438 C 275.199219 195.785156 275.660156 196.054688 275.992188 196.460938 C 276.324219 196.863281 276.488281 197.351562 276.488281 197.933594 C 276.488281 198.816406 276.21875 199.496094 275.679688 199.96875 C 275.140625 200.441406 274.371094 200.675781 273.363281 200.675781 C 272.359375 200.675781 271.589844 200.441406 271.046875 199.96875 C 270.507812 199.496094 270.238281 198.816406 270.238281 197.933594 C 270.238281 197.351562 270.40625 196.863281 270.738281 196.460938 C 271.074219 196.054688 271.539062 195.785156 272.132812 195.648438 Z M 271.679688 193.699219 C 271.679688 194.171875 271.828125 194.539062 272.121094 194.804688 C 272.417969 195.066406 272.832031 195.199219 273.363281 195.199219 C 273.894531 195.199219 274.308594 195.066406 274.605469 194.804688 C 274.90625 194.539062 275.054688 194.171875 275.054688 193.699219 C 275.054688 193.226562 274.90625 192.859375 274.605469 192.59375 C 274.308594 192.328125 273.894531 192.199219 273.363281 192.199219 C 272.832031 192.199219 272.417969 192.328125 272.121094 192.59375 C 271.828125 192.859375 271.679688 193.226562 271.679688 193.699219 Z M 271.679688 193.699219 "/>
<g clip-path="url(#clip6)" clip-rule="nonzero">
<path style="fill:none;stroke-width:0.8;stroke-linecap:square;stroke-linejoin:round;stroke:rgb(69.019608%,69.019608%,69.019608%);stroke-opacity:1;stroke-miterlimit:4;" d="M 249.46875 145.8 L 249.46875 7.2 " transform="matrix(1.25,0,0,1.25,0.000000000000028422,0)"/>
</g>
<path style="fill:none;stroke-width:0.8;stroke-linecap:butt;stroke-linejoin:round;stroke:rgb(0%,0%,0%);stroke-opacity:1;stroke-miterlimit:4;" d="M -0.000448 0 L -0.000448 3.5 " transform="matrix(1.25,0,0,1.25,311.836498,182.25)"/>
<path style=" stroke:none;fill-rule:nonzero;fill:rgb(0%,0%,0%);fill-opacity:1;" d="M 303.449219 199.460938 L 305.460938 199.460938 L 305.460938 192.507812 L 303.269531 192.949219 L 303.269531 191.824219 L 305.449219 191.386719 L 306.683594 191.386719 L 306.683594 199.460938 L 308.695312 199.460938 L 308.695312 200.5 L 303.449219 200.5 Z M 303.449219 199.460938 "/>
<path style=" stroke:none;fill-rule:nonzero;fill:rgb(0%,0%,0%);fill-opacity:1;" d="M 311.1875 198.949219 L 312.476562 198.949219 L 312.476562 200.5 L 311.1875 200.5 Z M 311.1875 198.949219 "/>
<path style=" stroke:none;fill-rule:nonzero;fill:rgb(0%,0%,0%);fill-opacity:1;" d="M 317.796875 192.199219 C 317.160156 192.199219 316.683594 192.511719 316.363281 193.136719 C 316.046875 193.757812 315.886719 194.699219 315.886719 195.953125 C 315.886719 197.199219 316.046875 198.136719 316.363281 198.761719 C 316.683594 199.386719 317.160156 199.699219 317.796875 199.699219 C 318.433594 199.699219 318.914062 199.386719 319.234375 198.761719 C 319.554688 198.136719 319.714844 197.199219 319.714844 195.953125 C 319.714844 194.699219 319.554688 193.757812 319.234375 193.136719 C 318.914062 192.511719 318.433594 192.199219 317.796875 192.199219 Z M 317.796875 191.222656 C 318.816406 191.222656 319.597656 191.625 320.136719 192.433594 C 320.675781 193.242188 320.945312 194.414062 320.945312 195.953125 C 320.945312 197.484375 320.675781 198.65625 320.136719 199.464844 C 319.597656 200.273438 318.816406 200.675781 317.796875 200.675781 C 316.773438 200.675781 315.996094 200.273438 315.457031 199.464844 C 314.917969 198.65625 314.648438 197.484375 314.648438 195.953125 C 314.648438 194.414062 314.917969 193.242188 315.457031 192.433594 C 315.996094 191.625 316.773438 191.222656 317.796875 191.222656 Z M 317.796875 191.222656 "/>
<path style=" stroke:none;fill-rule:nonzero;fill:rgb(0%,0%,0%);fill-opacity:1;" d="M 186.398438 208.820312 L 186.398438 210.761719 L 188.710938 210.761719 L 188.710938 211.632812 L 186.398438 211.632812 L 186.398438 215.34375 C 186.398438 215.902344 186.476562 216.257812 186.628906 216.417969 C 186.78125 216.578125 187.089844 216.65625 187.558594 216.65625 L 188.710938 216.65625 L 188.710938 217.597656 L 187.558594 217.597656 C 186.691406 217.597656 186.09375 217.433594 185.765625 217.113281 C 185.4375 216.789062 185.269531 216.199219 185.269531 215.34375 L 185.269531 211.632812 L 184.445312 211.632812 L 184.445312 210.761719 L 185.269531 210.761719 L 185.269531 208.820312 Z M 186.398438 208.820312 "/>
<path style=" stroke:none;fill-rule:nonzero;fill:rgb(0%,0%,0%);fill-opacity:1;" d="M 195.875 213.46875 L 195.875 217.597656 L 194.75 217.597656 L 194.75 213.507812 C 194.75 212.859375 194.625 212.375 194.371094 212.054688 C 194.121094 211.734375 193.742188 211.574219 193.238281 211.574219 C 192.628906 211.574219 192.152344 211.765625 191.800781 212.152344 C 191.453125 212.539062 191.277344 213.066406 191.277344 213.734375 L 191.277344 217.597656 L 190.148438 217.597656 L 190.148438 208.097656 L 191.277344 208.097656 L 191.277344 211.824219 C 191.546875 211.410156 191.863281 211.105469 192.226562 210.902344 C 192.589844 210.699219 193.011719 210.597656 193.488281 210.597656 C 194.273438 210.597656 194.867188 210.839844 195.269531 211.324219 C 195.671875 211.808594 195.875 212.523438 195.875 213.46875 Z M 195.875 213.46875 "/>
<path style=" stroke:none;fill-rule:nonzero;fill:rgb(0%,0%,0%);fill-opacity:1;" d="M 203.960938 213.898438 L 203.960938 214.445312 L 198.796875 214.445312 C 198.84375 215.21875 199.078125 215.808594 199.496094 216.214844 C 199.910156 216.617188 200.492188 216.820312 201.238281 216.820312 C 201.667969 216.820312 202.085938 216.769531 202.492188 216.664062 C 202.894531 216.558594 203.296875 216.398438 203.699219 216.1875 L 203.699219 217.25 C 203.292969 217.417969 202.882812 217.550781 202.457031 217.640625 C 202.035156 217.730469 201.605469 217.773438 201.171875 217.773438 C 200.078125 217.773438 199.214844 217.457031 198.578125 216.824219 C 197.941406 216.1875 197.625 215.328125 197.625 214.246094 C 197.625 213.125 197.925781 212.238281 198.53125 211.582031 C 199.132812 210.925781 199.949219 210.597656 200.976562 210.597656 C 201.894531 210.597656 202.621094 210.890625 203.15625 211.484375 C 203.691406 212.074219 203.960938 212.878906 203.960938 213.898438 Z M 202.835938 213.566406 C 202.828125 212.953125 202.65625 212.464844 202.320312 212.097656 C 201.984375 211.730469 201.539062 211.546875 200.988281 211.546875 C 200.359375 211.546875 199.859375 211.722656 199.484375 212.078125 C 199.105469 212.433594 198.890625 212.929688 198.832031 213.574219 Z M 202.835938 213.566406 "/>
<path style=" stroke:none;fill-rule:nonzero;fill:rgb(0%,0%,0%);fill-opacity:1;" d="M 206.914062 208.820312 L 206.914062 210.761719 L 209.226562 210.761719 L 209.226562 211.632812 L 206.914062 211.632812 L 206.914062 215.34375 C 206.914062 215.902344 206.992188 216.257812 207.144531 216.417969 C 207.296875 216.578125 207.605469 216.65625 208.074219 216.65625 L 209.226562 216.65625 L 209.226562 217.597656 L 208.074219 217.597656 C 207.207031 217.597656 206.609375 217.433594 206.28125 217.113281 C 205.949219 216.789062 205.785156 216.199219 205.785156 215.34375 L 205.785156 211.632812 L 204.960938 211.632812 L 204.960938 210.761719 L 205.785156 210.761719 L 205.785156 208.820312 Z M 206.914062 208.820312 "/>
<path style=" stroke:none;fill-rule:nonzero;fill:rgb(0%,0%,0%);fill-opacity:1;" d="M 213.8125 214.160156 C 212.902344 214.160156 212.273438 214.265625 211.925781 214.472656 C 211.574219 214.679688 211.398438 215.03125 211.398438 215.535156 C 211.398438 215.933594 211.53125 216.25 211.792969 216.484375 C 212.058594 216.714844 212.414062 216.832031 212.863281 216.832031 C 213.488281 216.832031 213.988281 216.613281 214.363281 216.171875 C 214.742188 215.730469 214.929688 215.140625 214.929688 214.410156 L 214.929688 214.160156 Z M 216.050781 213.695312 L 216.050781 217.597656 L 214.929688 217.597656 L 214.929688 216.558594 C 214.671875 216.972656 214.351562 217.277344 213.96875 217.476562 C 213.585938 217.675781 213.117188 217.773438 212.566406 217.773438 C 211.867188 217.773438 211.308594 217.578125 210.894531 217.183594 C 210.484375 216.789062 210.277344 216.265625 210.277344 215.605469 C 210.277344 214.835938 210.535156 214.257812 211.046875 213.867188 C 211.5625 213.476562 212.332031 213.28125 213.351562 213.28125 L 214.929688 213.28125 L 214.929688 213.171875 C 214.929688 212.652344 214.757812 212.253906 214.417969 211.972656 C 214.078125 211.6875 213.601562 211.546875 212.988281 211.546875 C 212.597656 211.546875 212.214844 211.59375 211.84375 211.6875 C 211.476562 211.78125 211.121094 211.921875 210.777344 212.109375 L 210.777344 211.070312 C 211.1875 210.910156 211.585938 210.792969 211.972656 210.714844 C 212.359375 210.636719 212.738281 210.597656 213.101562 210.597656 C 214.09375 210.597656 214.832031 210.851562 215.320312 211.367188 C 215.808594 211.878906 216.050781 212.652344 216.050781 213.695312 Z M 216.050781 213.695312 "/>
<g clip-path="url(#clip7)" clip-rule="nonzero">
<path style="fill:none;stroke-width:0.8;stroke-linecap:square;stroke-linejoin:round;stroke:rgb(69.019608%,69.019608%,69.019608%);stroke-opacity:1;stroke-miterlimit:4;" d="M 62.86875 139.5 L 258.16875 139.5 " transform="matrix(1.25,0,0,1.25,0.000000000000028422,0)"/>
</g>
<path style="fill:none;stroke-width:0.8;stroke-linecap:butt;stroke-linejoin:round;stroke:rgb(0%,0%,0%);stroke-opacity:1;stroke-miterlimit:4;" d="M -0.000000000000021316 0 L -3.5 0 " transform="matrix(1.25,0,0,1.25,78.585938,174.375)"/>
<path style=" stroke:none;fill-rule:nonzero;fill:rgb(0%,0%,0%);fill-opacity:1;" d="M 30.070312 170.824219 C 29.4375 170.824219 28.960938 171.136719 28.640625 171.761719 C 28.320312 172.382812 28.160156 173.324219 28.160156 174.578125 C 28.160156 175.824219 28.320312 176.761719 28.640625 177.386719 C 28.960938 178.011719 29.4375 178.324219 30.070312 178.324219 C 30.710938 178.324219 31.1875 178.011719 31.507812 177.386719 C 31.828125 176.761719 31.988281 175.824219 31.988281 174.578125 C 31.988281 173.324219 31.828125 172.382812 31.507812 171.761719 C 31.1875 171.136719 30.710938 170.824219 30.070312 170.824219 Z M 30.070312 169.847656 C 31.09375 169.847656 31.875 170.25 32.414062 171.058594 C 32.953125 171.867188 33.222656 173.039062 33.222656 174.578125 C 33.222656 176.109375 32.953125 177.28125 32.414062 178.089844 C 31.875 178.898438 31.09375 179.300781 30.070312 179.300781 C 29.050781 179.300781 28.269531 178.898438 27.730469 178.089844 C 27.191406 177.28125 26.921875 176.109375 26.921875 174.578125 C 26.921875 173.039062 27.191406 171.867188 27.730469 171.058594 C 28.269531 170.25 29.050781 169.847656 30.070312 169.847656 Z M 30.070312 169.847656 "/>
<path style=" stroke:none;fill-rule:nonzero;fill:rgb(0%,0%,0%);fill-opacity:1;" d="M 35.386719 177.574219 L 36.675781 177.574219 L 36.675781 179.125 L 35.386719 179.125 Z M 35.386719 177.574219 "/>
<path style=" stroke:none;fill-rule:nonzero;fill:rgb(0%,0%,0%);fill-opacity:1;" d="M 41.996094 170.824219 C 41.363281 170.824219 40.886719 171.136719 40.566406 171.761719 C 40.246094 172.382812 40.085938 173.324219 40.085938 174.578125 C 40.085938 175.824219 40.246094 176.761719 40.566406 177.386719 C 40.886719 178.011719 41.363281 178.324219 41.996094 178.324219 C 42.636719 178.324219 43.113281 178.011719 43.433594 177.386719 C 43.753906 176.761719 43.914062 175.824219 43.914062 174.578125 C 43.914062 173.324219 43.753906 172.382812 43.433594 171.761719 C 43.113281 171.136719 42.636719 170.824219 41.996094 170.824219 Z M 41.996094 169.847656 C 43.019531 169.847656 43.800781 170.25 44.339844 171.058594 C 44.878906 171.867188 45.148438 173.039062 45.148438 174.578125 C 45.148438 176.109375 44.878906 177.28125 44.339844 178.089844 C 43.800781 178.898438 43.019531 179.300781 41.996094 179.300781 C 40.976562 179.300781 40.195312 178.898438 39.65625 178.089844 C 39.117188 177.28125 38.847656 176.109375 38.847656 174.578125 C 38.847656 173.039062 39.117188 171.867188 39.65625 171.058594 C 40.195312 170.25 40.976562 169.847656 41.996094 169.847656 Z M 41.996094 169.847656 "/>
<path style=" stroke:none;fill-rule:nonzero;fill:rgb(0%,0%,0%);fill-opacity:1;" d="M 49.949219 170.824219 C 49.316406 170.824219 48.839844 171.136719 48.519531 171.761719 C 48.199219 172.382812 48.039062 173.324219 48.039062 174.578125 C 48.039062 175.824219 48.199219 176.761719 48.519531 177.386719 C 48.839844 178.011719 49.316406 178.324219 49.949219 178.324219 C 50.589844 178.324219 51.066406 178.011719 51.386719 177.386719 C 51.707031 176.761719 51.867188 175.824219 51.867188 174.578125 C 51.867188 173.324219 51.707031 172.382812 51.386719 171.761719 C 51.066406 171.136719 50.589844 170.824219 49.949219 170.824219 Z M 49.949219 169.847656 C 50.972656 169.847656 51.753906 170.25 52.292969 171.058594 C 52.832031 171.867188 53.101562 173.039062 53.101562 174.578125 C 53.101562 176.109375 52.832031 177.28125 52.292969 178.089844 C 51.753906 178.898438 50.972656 179.300781 49.949219 179.300781 C 48.929688 179.300781 48.148438 178.898438 47.609375 178.089844 C 47.070312 177.28125 46.800781 176.109375 46.800781 174.578125 C 46.800781 173.039062 47.070312 171.867188 47.609375 171.058594 C 48.148438 170.25 48.929688 169.847656 49.949219 169.847656 Z M 49.949219 169.847656 "/>
<path style=" stroke:none;fill-rule:nonzero;fill:rgb(0%,0%,0%);fill-opacity:1;" d="M 57.902344 170.824219 C 57.269531 170.824219 56.792969 171.136719 56.472656 171.761719 C 56.152344 172.382812 55.992188 173.324219 55.992188 174.578125 C 55.992188 175.824219 56.152344 176.761719 56.472656 177.386719 C 56.792969 178.011719 57.269531 178.324219 57.902344 178.324219 C 58.542969 178.324219 59.019531 178.011719 59.339844 177.386719 C 59.660156 176.761719 59.820312 175.824219 59.820312 174.578125 C 59.820312 173.324219 59.660156 172.382812 59.339844 171.761719 C 59.019531 171.136719 58.542969 170.824219 57.902344 170.824219 Z M 57.902344 169.847656 C 58.925781 169.847656 59.707031 170.25 60.246094 171.058594 C 60.785156 171.867188 61.054688 173.039062 61.054688 174.578125 C 61.054688 176.109375 60.785156 177.28125 60.246094 178.089844 C 59.707031 178.898438 58.925781 179.300781 57.902344 179.300781 C 56.882812 179.300781 56.101562 178.898438 55.5625 178.089844 C 55.023438 177.28125 54.753906 176.109375 54.753906 174.578125 C 54.753906 173.039062 55.023438 171.867188 55.5625 171.058594 C 56.101562 170.25 56.882812 169.847656 57.902344 169.847656 Z M 57.902344 169.847656 "/>
<path style=" stroke:none;fill-rule:nonzero;fill:rgb(0%,0%,0%);fill-opacity:1;" d="M 65.855469 170.824219 C 65.222656 170.824219 64.742188 171.136719 64.421875 171.761719 C 64.105469 172.382812 63.945312 173.324219 63.945312 174.578125 C 63.945312 175.824219 64.105469 176.761719 64.421875 177.386719 C 64.742188 178.011719 65.222656 178.324219 65.855469 178.324219 C 66.496094 178.324219 66.972656 178.011719 67.292969 177.386719 C 67.613281 176.761719 67.773438 175.824219 67.773438 174.578125 C 67.773438 173.324219 67.613281 172.382812 67.292969 171.761719 C 66.972656 171.136719 66.496094 170.824219 65.855469 170.824219 Z M 65.855469 169.847656 C 66.878906 169.847656 67.65625 170.25 68.195312 171.058594 C 68.734375 171.867188 69.003906 173.039062 69.003906 174.578125 C 69.003906 176.109375 68.734375 177.28125 68.195312 178.089844 C 67.65625 178.898438 66.878906 179.300781 65.855469 179.300781 C 64.835938 179.300781 64.054688 178.898438 63.515625 178.089844 C 62.976562 177.28125 62.707031 176.109375 62.707031 174.578125 C 62.707031 173.039062 62.976562 171.867188 63.515625 171.058594 C 64.054688 170.25 64.835938 169.847656 65.855469 169.847656 Z M 65.855469 169.847656 "/>
<g clip-path="url(#clip8)" clip-rule="nonzero">
<path style="fill:none;stroke-width:0.8;stroke-linecap:square;stroke-linejoin:round;stroke:rgb(69.019608%,69.019608%,69.019608%);stroke-opacity:1;stroke-miterlimit:4;" d="M 62.86875 101.021875 L 258.16875 101.021875 " transform="matrix(1.25,0,0,1.25,0.000000000000028422,0)"/>
</g>
<path style="fill:none;stroke-width:0.8;stroke-linecap:butt;stroke-linejoin:round;stroke:rgb(0%,0%,0%);stroke-opacity:1;stroke-miterlimit:4;" d="M -0.000000000000021316 -0.000092 L -3.5 -0.000092 " transform="matrix(1.25,0,0,1.25,78.585938,126.277459)"/>
<path style=" stroke:none;fill-rule:nonzero;fill:rgb(0%,0%,0%);fill-opacity:1;" d="M 30.070312 122.726562 C 29.4375 122.726562 28.960938 123.039062 28.640625 123.664062 C 28.320312 124.285156 28.160156 125.226562 28.160156 126.480469 C 28.160156 127.726562 28.320312 128.664062 28.640625 129.289062 C 28.960938 129.914062 29.4375 130.226562 30.070312 130.226562 C 30.710938 130.226562 31.1875 129.914062 31.507812 129.289062 C 31.828125 128.664062 31.988281 127.726562 31.988281 126.480469 C 31.988281 125.226562 31.828125 124.285156 31.507812 123.664062 C 31.1875 123.039062 30.710938 122.726562 30.070312 122.726562 Z M 30.070312 121.75 C 31.09375 121.75 31.875 122.152344 32.414062 122.960938 C 32.953125 123.769531 33.222656 124.941406 33.222656 126.480469 C 33.222656 128.011719 32.953125 129.183594 32.414062 129.992188 C 31.875 130.800781 31.09375 131.203125 30.070312 131.203125 C 29.050781 131.203125 28.269531 130.800781 27.730469 129.992188 C 27.191406 129.183594 26.921875 128.011719 26.921875 126.480469 C 26.921875 124.941406 27.191406 123.769531 27.730469 122.960938 C 28.269531 122.152344 29.050781 121.75 30.070312 121.75 Z M 30.070312 121.75 "/>
<path style=" stroke:none;fill-rule:nonzero;fill:rgb(0%,0%,0%);fill-opacity:1;" d="M 35.386719 129.476562 L 36.675781 129.476562 L 36.675781 131.027344 L 35.386719 131.027344 Z M 35.386719 129.476562 "/>
<path style=" stroke:none;fill-rule:nonzero;fill:rgb(0%,0%,0%);fill-opacity:1;" d="M 41.996094 122.726562 C 41.363281 122.726562 40.886719 123.039062 40.566406 123.664062 C 40.246094 124.285156 40.085938 125.226562 40.085938 126.480469 C 40.085938 127.726562 40.246094 128.664062 40.566406 129.289062 C 40.886719 129.914062 41.363281 130.226562 41.996094 130.226562 C 42.636719 130.226562 43.113281 129.914062 43.433594 129.289062 C 43.753906 128.664062 43.914062 127.726562 43.914062 126.480469 C 43.914062 125.226562 43.753906 124.285156 43.433594 123.664062 C 43.113281 123.039062 42.636719 122.726562 41.996094 122.726562 Z M 41.996094 121.75 C 43.019531 121.75 43.800781 122.152344 44.339844 122.960938 C 44.878906 123.769531 45.148438 124.941406 45.148438 126.480469 C 45.148438 128.011719 44.878906 129.183594 44.339844 129.992188 C 43.800781 130.800781 43.019531 131.203125 41.996094 131.203125 C 40.976562 131.203125 40.195312 130.800781 39.65625 129.992188 C 39.117188 129.183594 38.847656 128.011719 38.847656 126.480469 C 38.847656 124.941406 39.117188 123.769531 39.65625 122.960938 C 40.195312 122.152344 40.976562 121.75 41.996094 121.75 Z M 41.996094 121.75 "/>
<path style=" stroke:none;fill-rule:nonzero;fill:rgb(0%,0%,0%);fill-opacity:1;" d="M 49.949219 122.726562 C 49.316406 122.726562 48.839844 123.039062 48.519531 123.664062 C 48.199219 124.285156 48.039062 125.226562 48.039062 126.480469 C 48.039062 127.726562 48.199219 128.664062 48.519531 129.289062 C 48.839844 129.914062 49.316406 130.226562 49.949219 130.226562 C 50.589844 130.226562 51.066406 129.914062 51.386719 129.289062 C 51.707031 128.664062 51.867188 127.726562 51.867188 126.480469 C 51.867188 125.226562 51.707031 124.285156 51.386719 123.664062 C 51.066406 123.039062 50.589844 122.726562 49.949219 122.726562 Z M 49.949219 121.75 C 50.972656 121.75 51.753906 122.152344 52.292969 122.960938 C 52.832031 123.769531 53.101562 124.941406 53.101562 126.480469 C 53.101562 128.011719 52.832031 129.183594 52.292969 129.992188 C 51.753906 130.800781 50.972656 131.203125 49.949219 131.203125 C 48.929688 131.203125 48.148438 130.800781 47.609375 129.992188 C 47.070312 129.183594 46.800781 128.011719 46.800781 126.480469 C 46.800781 124.941406 47.070312 123.769531 47.609375 122.960938 C 48.148438 122.152344 48.929688 121.75 49.949219 121.75 Z M 49.949219 121.75 "/>
<path style=" stroke:none;fill-rule:nonzero;fill:rgb(0%,0%,0%);fill-opacity:1;" d="M 57.902344 122.726562 C 57.269531 122.726562 56.792969 123.039062 56.472656 123.664062 C 56.152344 124.285156 55.992188 125.226562 55.992188 126.480469 C 55.992188 127.726562 56.152344 128.664062 56.472656 129.289062 C 56.792969 129.914062 57.269531 130.226562 57.902344 130.226562 C 58.542969 130.226562 59.019531 129.914062 59.339844 129.289062 C 59.660156 128.664062 59.820312 127.726562 59.820312 126.480469 C 59.820312 125.226562 59.660156 124.285156 59.339844 123.664062 C 59.019531 123.039062 58.542969 122.726562 57.902344 122.726562 Z M 57.902344 121.75 C 58.925781 121.75 59.707031 122.152344 60.246094 122.960938 C 60.785156 123.769531 61.054688 124.941406 61.054688 126.480469 C 61.054688 128.011719 60.785156 129.183594 60.246094 129.992188 C 59.707031 130.800781 58.925781 131.203125 57.902344 131.203125 C 56.882812 131.203125 56.101562 130.800781 55.5625 129.992188 C 55.023438 129.183594 54.753906 128.011719 54.753906 126.480469 C 54.753906 124.941406 55.023438 123.769531 55.5625 122.960938 C 56.101562 122.152344 56.882812 121.75 57.902344 121.75 Z M 57.902344 121.75 "/>
<path style=" stroke:none;fill-rule:nonzero;fill:rgb(0%,0%,0%);fill-opacity:1;" d="M 63.433594 129.988281 L 65.445312 129.988281 L 65.445312 123.035156 L 63.253906 123.476562 L 63.253906 122.351562 L 65.433594 121.914062 L 66.667969 121.914062 L 66.667969 129.988281 L 68.679688 129.988281 L 68.679688 131.027344 L 63.433594 131.027344 Z M 63.433594 129.988281 "/>
<g clip-path="url(#clip9)" clip-rule="nonzero">
<path style="fill:none;stroke-width:0.8;stroke-linecap:square;stroke-linejoin:round;stroke:rgb(69.019608%,69.019608%,69.019608%);stroke-opacity:1;stroke-miterlimit:4;" d="M 62.86875 62.54375 L 258.16875 62.54375 " transform="matrix(1.25,0,0,1.25,0.000000000000028422,0)"/>
</g>
<path style="fill:none;stroke-width:0.8;stroke-linecap:butt;stroke-linejoin:round;stroke:rgb(0%,0%,0%);stroke-opacity:1;stroke-miterlimit:4;" d="M -0.000000000000021316 -0.000184 L -3.5 -0.000184 " transform="matrix(1.25,0,0,1.25,78.585938,78.179918)"/>
<path style=" stroke:none;fill-rule:nonzero;fill:rgb(0%,0%,0%);fill-opacity:1;" d="M 30.070312 74.628906 C 29.4375 74.628906 28.960938 74.941406 28.640625 75.566406 C 28.320312 76.1875 28.160156 77.128906 28.160156 78.382812 C 28.160156 79.628906 28.320312 80.566406 28.640625 81.191406 C 28.960938 81.816406 29.4375 82.128906 30.070312 82.128906 C 30.710938 82.128906 31.1875 81.816406 31.507812 81.191406 C 31.828125 80.566406 31.988281 79.628906 31.988281 78.382812 C 31.988281 77.128906 31.828125 76.1875 31.507812 75.566406 C 31.1875 74.941406 30.710938 74.628906 30.070312 74.628906 Z M 30.070312 73.652344 C 31.09375 73.652344 31.875 74.054688 32.414062 74.863281 C 32.953125 75.671875 33.222656 76.84375 33.222656 78.382812 C 33.222656 79.914062 32.953125 81.085938 32.414062 81.894531 C 31.875 82.703125 31.09375 83.105469 30.070312 83.105469 C 29.050781 83.105469 28.269531 82.703125 27.730469 81.894531 C 27.191406 81.085938 26.921875 79.914062 26.921875 78.382812 C 26.921875 76.84375 27.191406 75.671875 27.730469 74.863281 C 28.269531 74.054688 29.050781 73.652344 30.070312 73.652344 Z M 30.070312 73.652344 "/>
<path style=" stroke:none;fill-rule:nonzero;fill:rgb(0%,0%,0%);fill-opacity:1;" d="M 35.386719 81.378906 L 36.675781 81.378906 L 36.675781 82.929688 L 35.386719 82.929688 Z M 35.386719 81.378906 "/>
<path style=" stroke:none;fill-rule:nonzero;fill:rgb(0%,0%,0%);fill-opacity:1;" d="M 41.996094 74.628906 C 41.363281 74.628906 40.886719 74.941406 40.566406 75.566406 C 40.246094 76.1875 40.085938 77.128906 40.085938 78.382812 C 40.085938 79.628906 40.246094 80.566406 40.566406 81.191406 C 40.886719 81.816406 41.363281 82.128906 41.996094 82.128906 C 42.636719 82.128906 43.113281 81.816406 43.433594 81.191406 C 43.753906 80.566406 43.914062 79.628906 43.914062 78.382812 C 43.914062 77.128906 43.753906 76.1875 43.433594 75.566406 C 43.113281 74.941406 42.636719 74.628906 41.996094 74.628906 Z M 41.996094 73.652344 C 43.019531 73.652344 43.800781 74.054688 44.339844 74.863281 C 44.878906 75.671875 45.148438 76.84375 45.148438 78.382812 C 45.148438 79.914062 44.878906 81.085938 44.339844 81.894531 C 43.800781 82.703125 43.019531 83.105469 41.996094 83.105469 C 40.976562 83.105469 40.195312 82.703125 39.65625 81.894531 C 39.117188 81.085938 38.847656 79.914062 38.847656 78.382812 C 38.847656 76.84375 39.117188 75.671875 39.65625 74.863281 C 40.195312 74.054688 40.976562 73.652344 41.996094 73.652344 Z M 41.996094 73.652344 "/>
<path style=" stroke:none;fill-rule:nonzero;fill:rgb(0%,0%,0%);fill-opacity:1;" d="M 49.949219 74.628906 C 49.316406 74.628906 48.839844 74.941406 48.519531 75.566406 C 48.199219 76.1875 48.039062 77.128906 48.039062 78.382812 C 48.039062 79.628906 48.199219 80.566406 48.519531 81.191406 C 48.839844 81.816406 49.316406 82.128906 49.949219 82.128906 C 50.589844 82.128906 51.066406 81.816406 51.386719 81.191406 C 51.707031 80.566406 51.867188 79.628906 51.867188 78.382812 C 51.867188 77.128906 51.707031 76.1875 51.386719 75.566406 C 51.066406 74.941406 50.589844 74.628906 49.949219 74.628906 Z M 49.949219 73.652344 C 50.972656 73.652344 51.753906 74.054688 52.292969 74.863281 C 52.832031 75.671875 53.101562 76.84375 53.101562 78.382812 C 53.101562 79.914062 52.832031 81.085938 52.292969 81.894531 C 51.753906 82.703125 50.972656 83.105469 49.949219 83.105469 C 48.929688 83.105469 48.148438 82.703125 47.609375 81.894531 C 47.070312 81.085938 46.800781 79.914062 46.800781 78.382812 C 46.800781 76.84375 47.070312 75.671875 47.609375 74.863281 C 48.148438 74.054688 48.929688 73.652344 49.949219 73.652344 Z M 49.949219 73.652344 "/>
<path style=" stroke:none;fill-rule:nonzero;fill:rgb(0%,0%,0%);fill-opacity:1;" d="M 57.902344 74.628906 C 57.269531 74.628906 56.792969 74.941406 56.472656 75.566406 C 56.152344 76.1875 55.992188 77.128906 55.992188 78.382812 C 55.992188 79.628906 56.152344 80.566406 56.472656 81.191406 C 56.792969 81.816406 57.269531 82.128906 57.902344 82.128906 C 58.542969 82.128906 59.019531 81.816406 59.339844 81.191406 C 59.660156 80.566406 59.820312 79.628906 59.820312 78.382812 C 59.820312 77.128906 59.660156 76.1875 59.339844 75.566406 C 59.019531 74.941406 58.542969 74.628906 57.902344 74.628906 Z M 57.902344 73.652344 C 58.925781 73.652344 59.707031 74.054688 60.246094 74.863281 C 60.785156 75.671875 61.054688 76.84375 61.054688 78.382812 C 61.054688 79.914062 60.785156 81.085938 60.246094 81.894531 C 59.707031 82.703125 58.925781 83.105469 57.902344 83.105469 C 56.882812 83.105469 56.101562 82.703125 55.5625 81.894531 C 55.023438 81.085938 54.753906 79.914062 54.753906 78.382812 C 54.753906 76.84375 55.023438 75.671875 55.5625 74.863281 C 56.101562 74.054688 56.882812 73.652344 57.902344 73.652344 Z M 57.902344 73.652344 "/>
<path style=" stroke:none;fill-rule:nonzero;fill:rgb(0%,0%,0%);fill-opacity:1;" d="M 64.28125 81.890625 L 68.582031 81.890625 L 68.582031 82.929688 L 62.796875 82.929688 L 62.796875 81.890625 C 63.265625 81.40625 63.902344 80.757812 64.710938 79.941406 C 65.519531 79.125 66.027344 78.597656 66.234375 78.363281 C 66.628906 77.917969 66.902344 77.542969 67.058594 77.238281 C 67.21875 76.929688 67.296875 76.628906 67.296875 76.332031 C 67.296875 75.847656 67.125 75.453125 66.785156 75.148438 C 66.445312 74.839844 66.003906 74.6875 65.457031 74.6875 C 65.070312 74.6875 64.664062 74.753906 64.234375 74.890625 C 63.804688 75.023438 63.347656 75.226562 62.859375 75.5 L 62.859375 74.253906 C 63.355469 74.054688 63.820312 73.90625 64.25 73.804688 C 64.683594 73.703125 65.078125 73.652344 65.433594 73.652344 C 66.378906 73.652344 67.132812 73.886719 67.691406 74.359375 C 68.253906 74.832031 68.535156 75.460938 68.535156 76.25 C 68.535156 76.625 68.464844 76.980469 68.324219 77.316406 C 68.183594 77.652344 67.929688 78.046875 67.558594 78.503906 C 67.457031 78.621094 67.132812 78.960938 66.585938 79.527344 C 66.042969 80.089844 65.273438 80.878906 64.28125 81.890625 Z M 64.28125 81.890625 "/>
<g clip-path="url(#clip10)" clip-rule="nonzero">
<path style="fill:none;stroke-width:0.8;stroke-linecap:square;stroke-linejoin:round;stroke:rgb(69.019608%,69.019608%,69.019608%);stroke-opacity:1;stroke-miterlimit:4;" d="M 62.86875 24.065625 L 258.16875 24.065625 " transform="matrix(1.25,0,0,1.25,0.000000000000028422,0)"/>
</g>
<path style="fill:none;stroke-width:0.8;stroke-linecap:butt;stroke-linejoin:round;stroke:rgb(0%,0%,0%);stroke-opacity:1;stroke-miterlimit:4;" d="M -0.000000000000021316 -0.000276 L -3.5 -0.000276 " transform="matrix(1.25,0,0,1.25,78.585938,30.082376)"/>
<path style=" stroke:none;fill-rule:nonzero;fill:rgb(0%,0%,0%);fill-opacity:1;" d="M 30.070312 26.53125 C 29.4375 26.53125 28.960938 26.84375 28.640625 27.46875 C 28.320312 28.09375 28.160156 29.03125 28.160156 30.285156 C 28.160156 31.535156 28.320312 32.46875 28.640625 33.09375 C 28.960938 33.71875 29.4375 34.03125 30.070312 34.03125 C 30.710938 34.03125 31.1875 33.71875 31.507812 33.09375 C 31.828125 32.46875 31.988281 31.535156 31.988281 30.285156 C 31.988281 29.03125 31.828125 28.09375 31.507812 27.46875 C 31.1875 26.84375 30.710938 26.53125 30.070312 26.53125 Z M 30.070312 25.554688 C 31.09375 25.554688 31.875 25.957031 32.414062 26.765625 C 32.953125 27.574219 33.222656 28.746094 33.222656 30.285156 C 33.222656 31.820312 32.953125 32.988281 32.414062 33.796875 C 31.875 34.605469 31.09375 35.007812 30.070312 35.007812 C 29.050781 35.007812 28.269531 34.605469 27.730469 33.796875 C 27.191406 32.988281 26.921875 31.820312 26.921875 30.285156 C 26.921875 28.746094 27.191406 27.574219 27.730469 26.765625 C 28.269531 25.957031 29.050781 25.554688 30.070312 25.554688 Z M 30.070312 25.554688 "/>
<path style=" stroke:none;fill-rule:nonzero;fill:rgb(0%,0%,0%);fill-opacity:1;" d="M 35.386719 33.28125 L 36.675781 33.28125 L 36.675781 34.832031 L 35.386719 34.832031 Z M 35.386719 33.28125 "/>
<path style=" stroke:none;fill-rule:nonzero;fill:rgb(0%,0%,0%);fill-opacity:1;" d="M 41.996094 26.53125 C 41.363281 26.53125 40.886719 26.84375 40.566406 27.46875 C 40.246094 28.09375 40.085938 29.03125 40.085938 30.285156 C 40.085938 31.535156 40.246094 32.46875 40.566406 33.09375 C 40.886719 33.71875 41.363281 34.03125 41.996094 34.03125 C 42.636719 34.03125 43.113281 33.71875 43.433594 33.09375 C 43.753906 32.46875 43.914062 31.535156 43.914062 30.285156 C 43.914062 29.03125 43.753906 28.09375 43.433594 27.46875 C 43.113281 26.84375 42.636719 26.53125 41.996094 26.53125 Z M 41.996094 25.554688 C 43.019531 25.554688 43.800781 25.957031 44.339844 26.765625 C 44.878906 27.574219 45.148438 28.746094 45.148438 30.285156 C 45.148438 31.820312 44.878906 32.988281 44.339844 33.796875 C 43.800781 34.605469 43.019531 35.007812 41.996094 35.007812 C 40.976562 35.007812 40.195312 34.605469 39.65625 33.796875 C 39.117188 32.988281 38.847656 31.820312 38.847656 30.285156 C 38.847656 28.746094 39.117188 27.574219 39.65625 26.765625 C 40.195312 25.957031 40.976562 25.554688 41.996094 25.554688 Z M 41.996094 25.554688 "/>
<path style=" stroke:none;fill-rule:nonzero;fill:rgb(0%,0%,0%);fill-opacity:1;" d="M 49.949219 26.53125 C 49.316406 26.53125 48.839844 26.84375 48.519531 27.46875 C 48.199219 28.09375 48.039062 29.03125 48.039062 30.285156 C 48.039062 31.535156 48.199219 32.46875 48.519531 33.09375 C 48.839844 33.71875 49.316406 34.03125 49.949219 34.03125 C 50.589844 34.03125 51.066406 33.71875 51.386719 33.09375 C 51.707031 32.46875 51.867188 31.535156 51.867188 30.285156 C 51.867188 29.03125 51.707031 28.09375 51.386719 27.46875 C 51.066406 26.84375 50.589844 26.53125 49.949219 26.53125 Z M 49.949219 25.554688 C 50.972656 25.554688 51.753906 25.957031 52.292969 26.765625 C 52.832031 27.574219 53.101562 28.746094 53.101562 30.285156 C 53.101562 31.820312 52.832031 32.988281 52.292969 33.796875 C 51.753906 34.605469 50.972656 35.007812 49.949219 35.007812 C 48.929688 35.007812 48.148438 34.605469 47.609375 33.796875 C 47.070312 32.988281 46.800781 31.820312 46.800781 30.285156 C 46.800781 28.746094 47.070312 27.574219 47.609375 26.765625 C 48.148438 25.957031 48.929688 25.554688 49.949219 25.554688 Z M 49.949219 25.554688 "/>
<path style=" stroke:none;fill-rule:nonzero;fill:rgb(0%,0%,0%);fill-opacity:1;" d="M 57.902344 26.53125 C 57.269531 26.53125 56.792969 26.84375 56.472656 27.46875 C 56.152344 28.09375 55.992188 29.03125 55.992188 30.285156 C 55.992188 31.535156 56.152344 32.46875 56.472656 33.09375 C 56.792969 33.71875 57.269531 34.03125 57.902344 34.03125 C 58.542969 34.03125 59.019531 33.71875 59.339844 33.09375 C 59.660156 32.46875 59.820312 31.535156 59.820312 30.285156 C 59.820312 29.03125 59.660156 28.09375 59.339844 27.46875 C 59.019531 26.84375 58.542969 26.53125 57.902344 26.53125 Z M 57.902344 25.554688 C 58.925781 25.554688 59.707031 25.957031 60.246094 26.765625 C 60.785156 27.574219 61.054688 28.746094 61.054688 30.285156 C 61.054688 31.820312 60.785156 32.988281 60.246094 33.796875 C 59.707031 34.605469 58.925781 35.007812 57.902344 35.007812 C 56.882812 35.007812 56.101562 34.605469 55.5625 33.796875 C 55.023438 32.988281 54.753906 31.820312 54.753906 30.285156 C 54.753906 28.746094 55.023438 27.574219 55.5625 26.765625 C 56.101562 25.957031 56.882812 25.554688 57.902344 25.554688 Z M 57.902344 25.554688 "/>
<path style=" stroke:none;fill-rule:nonzero;fill:rgb(0%,0%,0%);fill-opacity:1;" d="M 66.953125 29.917969 C 67.542969 30.042969 68.003906 30.308594 68.335938 30.707031 C 68.667969 31.105469 68.832031 31.597656 68.832031 32.183594 C 68.832031 33.082031 68.523438 33.777344 67.90625 34.269531 C 67.289062 34.761719 66.410156 35.007812 65.269531 35.007812 C 64.886719 35.007812 64.496094 34.972656 64.089844 34.894531 C 63.683594 34.820312 63.265625 34.707031 62.835938 34.554688 L 62.835938 33.367188 C 63.175781 33.566406 63.550781 33.714844 63.957031 33.816406 C 64.363281 33.917969 64.789062 33.96875 65.234375 33.96875 C 66.007812 33.96875 66.59375 33.816406 67 33.511719 C 67.40625 33.207031 67.605469 32.765625 67.605469 32.183594 C 67.605469 31.644531 67.417969 31.226562 67.042969 30.921875 C 66.667969 30.621094 66.144531 30.46875 65.472656 30.46875 L 64.410156 30.46875 L 64.410156 29.453125 L 65.519531 29.453125 C 66.125 29.453125 66.589844 29.332031 66.910156 29.089844 C 67.234375 28.847656 67.394531 28.5 67.394531 28.042969 C 67.394531 27.578125 67.226562 27.21875 66.894531 26.96875 C 66.566406 26.71875 66.089844 26.589844 65.472656 26.589844 C 65.132812 26.589844 64.769531 26.628906 64.382812 26.703125 C 63.996094 26.777344 63.574219 26.890625 63.109375 27.042969 L 63.109375 25.945312 C 63.578125 25.816406 64.015625 25.71875 64.425781 25.652344 C 64.835938 25.585938 65.21875 25.554688 65.582031 25.554688 C 66.519531 25.554688 67.257812 25.765625 67.800781 26.191406 C 68.347656 26.617188 68.621094 27.191406 68.621094 27.914062 C 68.621094 28.421875 68.476562 28.847656 68.1875 29.195312 C 67.898438 29.542969 67.488281 29.785156 66.953125 29.917969 Z M 66.953125 29.917969 "/>
<path style=" stroke:none;fill-rule:nonzero;fill:rgb(0%,0%,0%);fill-opacity:1;" d="M 9 124.207031 L 9 123.085938 L 18.496094 123.085938 L 18.496094 124.207031 Z M 9 124.207031 "/>
<path style=" stroke:none;fill-rule:nonzero;fill:rgb(0%,0%,0%);fill-opacity:1;" d="M 11.660156 120.734375 L 11.660156 119.613281 L 18.496094 119.613281 L 18.496094 120.734375 Z M 9 120.734375 L 9 119.613281 L 10.421875 119.613281 L 10.421875 120.734375 Z M 9 120.734375 "/>
<path style=" stroke:none;fill-rule:nonzero;fill:rgb(0%,0%,0%);fill-opacity:1;" d="M 9 117.304688 L 9 116.175781 L 14.609375 116.175781 L 11.660156 112.824219 L 11.660156 111.390625 L 14.859375 115.015625 L 18.496094 111.238281 L 18.496094 112.703125 L 15.160156 116.175781 L 18.496094 116.175781 L 18.496094 117.304688 Z M 9 117.304688 "/>
<path style=" stroke:none;fill-rule:nonzero;fill:rgb(0%,0%,0%);fill-opacity:1;" d="M 14.796875 104.628906 L 15.347656 104.628906 L 15.347656 109.792969 C 16.121094 109.742188 16.710938 109.511719 17.113281 109.09375 C 17.519531 108.675781 17.722656 108.097656 17.722656 107.351562 C 17.722656 106.921875 17.667969 106.503906 17.5625 106.097656 C 17.457031 105.691406 17.300781 105.289062 17.085938 104.890625 L 18.148438 104.890625 C 18.320312 105.292969 18.449219 105.707031 18.539062 106.132812 C 18.628906 106.554688 18.675781 106.984375 18.675781 107.417969 C 18.675781 108.507812 18.359375 109.375 17.722656 110.011719 C 17.089844 110.648438 16.230469 110.964844 15.144531 110.964844 C 14.027344 110.964844 13.140625 110.664062 12.484375 110.058594 C 11.828125 109.453125 11.496094 108.640625 11.496094 107.613281 C 11.496094 106.695312 11.792969 105.96875 12.386719 105.433594 C 12.976562 104.898438 13.78125 104.628906 14.796875 104.628906 Z M 14.46875 105.753906 C 13.855469 105.761719 13.367188 105.933594 13 106.269531 C 12.632812 106.605469 12.449219 107.046875 12.449219 107.601562 C 12.449219 108.226562 12.625 108.730469 12.980469 109.105469 C 13.335938 109.480469 13.832031 109.699219 14.476562 109.757812 Z M 14.46875 105.753906 "/>
<path style=" stroke:none;fill-rule:nonzero;fill:rgb(0%,0%,0%);fill-opacity:1;" d="M 9 102.785156 L 9 101.664062 L 18.496094 101.664062 L 18.496094 102.785156 Z M 9 102.785156 "/>
<path style=" stroke:none;fill-rule:nonzero;fill:rgb(0%,0%,0%);fill-opacity:1;" d="M 11.660156 99.3125 L 11.660156 98.191406 L 18.496094 98.191406 L 18.496094 99.3125 Z M 9 99.3125 L 9 98.191406 L 10.421875 98.191406 L 10.421875 99.3125 Z M 9 99.3125 "/>
<path style=" stroke:none;fill-rule:nonzero;fill:rgb(0%,0%,0%);fill-opacity:1;" d="M 14.371094 90.15625 L 18.496094 90.15625 L 18.496094 91.28125 L 14.40625 91.28125 C 13.761719 91.28125 13.277344 91.40625 12.957031 91.660156 C 12.636719 91.910156 12.472656 92.289062 12.472656 92.792969 C 12.472656 93.398438 12.667969 93.878906 13.054688 94.230469 C 13.441406 94.578125 13.964844 94.753906 14.632812 94.753906 L 18.496094 94.753906 L 18.496094 95.882812 L 9 95.882812 L 9 94.753906 L 12.722656 94.753906 C 12.3125 94.484375 12.003906 94.167969 11.800781 93.804688 C 11.597656 93.441406 11.496094 93.019531 11.496094 92.542969 C 11.496094 91.757812 11.742188 91.164062 12.226562 90.761719 C 12.710938 90.359375 13.425781 90.15625 14.371094 90.15625 Z M 14.371094 90.15625 "/>
<path style=" stroke:none;fill-rule:nonzero;fill:rgb(0%,0%,0%);fill-opacity:1;" d="M 12.449219 85.269531 C 12.449219 85.871094 12.683594 86.347656 13.152344 86.699219 C 13.625 87.046875 14.269531 87.222656 15.085938 87.222656 C 15.902344 87.222656 16.546875 87.050781 17.015625 86.703125 C 17.488281 86.351562 17.722656 85.875 17.722656 85.269531 C 17.722656 84.671875 17.488281 84.195312 17.015625 83.847656 C 16.542969 83.496094 15.898438 83.324219 15.085938 83.324219 C 14.277344 83.324219 13.632812 83.496094 13.160156 83.847656 C 12.6875 84.195312 12.449219 84.671875 12.449219 85.269531 Z M 11.496094 85.269531 C 11.496094 84.292969 11.816406 83.527344 12.449219 82.96875 C 13.085938 82.410156 13.964844 82.132812 15.085938 82.132812 C 16.203125 82.132812 17.082031 82.410156 17.71875 82.96875 C 18.355469 83.527344 18.675781 84.292969 18.675781 85.269531 C 18.675781 86.25 18.355469 87.019531 17.71875 87.574219 C 17.082031 88.128906 16.203125 88.40625 15.085938 88.40625 C 13.964844 88.40625 13.085938 88.128906 12.449219 87.574219 C 11.816406 87.019531 11.496094 86.25 11.496094 85.269531 Z M 11.496094 85.269531 "/>
<path style=" stroke:none;fill-rule:nonzero;fill:rgb(0%,0%,0%);fill-opacity:1;" d="M 12.449219 77.621094 C 12.449219 78.222656 12.683594 78.699219 13.152344 79.050781 C 13.625 79.398438 14.269531 79.574219 15.085938 79.574219 C 15.902344 79.574219 16.546875 79.402344 17.015625 79.054688 C 17.488281 78.703125 17.722656 78.226562 17.722656 77.621094 C 17.722656 77.023438 17.488281 76.550781 17.015625 76.199219 C 16.542969 75.851562 15.898438 75.675781 15.085938 75.675781 C 14.277344 75.675781 13.632812 75.851562 13.160156 76.199219 C 12.6875 76.550781 12.449219 77.023438 12.449219 77.621094 Z M 11.496094 77.621094 C 11.496094 76.644531 11.816406 75.878906 12.449219 75.320312 C 13.085938 74.761719 13.964844 74.484375 15.085938 74.484375 C 16.203125 74.484375 17.082031 74.761719 17.71875 75.320312 C 18.355469 75.878906 18.675781 76.644531 18.675781 77.621094 C 18.675781 78.601562 18.355469 79.371094 17.71875 79.925781 C 17.082031 80.480469 16.203125 80.757812 15.085938 80.757812 C 13.964844 80.757812 13.085938 80.480469 12.449219 79.925781 C 11.816406 79.371094 11.496094 78.601562 11.496094 77.621094 Z M 11.496094 77.621094 "/>
<path style=" stroke:none;fill-rule:nonzero;fill:rgb(0%,0%,0%);fill-opacity:1;" d="M 12.699219 68.125 L 9 68.125 L 9 67 L 18.496094 67 L 18.496094 68.125 L 17.472656 68.125 C 17.878906 68.359375 18.179688 68.660156 18.378906 69.019531 C 18.578125 69.378906 18.675781 69.8125 18.675781 70.316406 C 18.675781 71.140625 18.347656 71.8125 17.6875 72.332031 C 17.027344 72.851562 16.160156 73.109375 15.085938 73.109375 C 14.011719 73.109375 13.144531 72.851562 12.484375 72.332031 C 11.828125 71.8125 11.496094 71.140625 11.496094 70.316406 C 11.496094 69.8125 11.597656 69.378906 11.792969 69.019531 C 11.992188 68.660156 12.292969 68.359375 12.699219 68.125 Z M 15.085938 71.949219 C 15.910156 71.949219 16.558594 71.78125 17.027344 71.441406 C 17.5 71.101562 17.734375 70.632812 17.734375 70.039062 C 17.734375 69.445312 17.5 68.980469 17.027344 68.636719 C 16.558594 68.296875 15.910156 68.125 15.085938 68.125 C 14.261719 68.125 13.613281 68.296875 13.140625 68.636719 C 12.671875 68.980469 12.4375 69.445312 12.4375 70.039062 C 12.4375 70.632812 12.671875 71.101562 13.140625 71.441406 C 13.613281 71.78125 14.261719 71.949219 15.085938 71.949219 Z M 15.085938 71.949219 "/>
<path style="fill:none;stroke-width:1.5;stroke-linecap:square;stroke-linejoin:round;stroke:rgb(12.156863%,46.666667%,70.588235%);stroke-opacity:1;stroke-miterlimit:4;" d="M 71.746875 139.5 L 108.7125 139.390625 L 114.75625 139.1375 L 119.021875 138.75625 L 122.575 138.21875 L 125.596875 137.54375 L 128.2625 136.73125 L 130.75 135.746875 L 133.059375 134.596875 L 135.371875 133.1875 L 137.503125 131.621875 L 139.6375 129.778125 L 141.76875 127.628125 L 143.903125 125.140625 L 146.034375 122.3 L 148.165625 119.0875 L 150.3 115.48125 L 152.609375 111.128125 L 154.921875 106.30625 L 157.409375 100.6 L 160.075 93.928125 L 163.096875 85.74375 L 166.65 75.434375 L 172.3375 58.11875 L 177.3125 43.25 L 180.15625 35.403125 L 182.46875 29.60625 L 184.6 24.85625 L 186.378125 21.425 L 187.978125 18.796875 L 189.4 16.86875 L 190.64375 15.51875 L 191.8875 14.5 L 192.953125 13.903125 L 194.01875 13.571875 L 194.909375 13.5 L 195.796875 13.625 L 196.684375 13.94375 L 197.753125 14.5875 L 198.81875 15.521875 L 199.884375 16.74375 L 201.128125 18.53125 L 202.371875 20.709375 L 203.79375 23.6625 L 205.39375 27.5625 L 207.171875 32.565625 L 209.125 38.821875 L 211.259375 46.434375 L 213.746875 56.146875 L 217.3 71.034375 L 223.7 97.96875 L 226.365625 108.11875 L 228.496875 115.403125 L 230.453125 121.284375 L 232.23125 125.903125 L 233.828125 129.428125 L 235.25 132.059375 L 236.671875 134.221875 L 237.91875 135.75 L 239.1625 136.95625 L 240.40625 137.875 L 241.65 138.5375 L 243.071875 139.034375 L 244.671875 139.340625 L 246.803125 139.484375 L 249.290625 139.5 " transform="matrix(1.25,0,0,1.25,0.000000000000028422,0)"/>
<path style="fill:none;stroke-width:0.8;stroke-linecap:square;stroke-linejoin:miter;stroke:rgb(0%,0%,0%);stroke-opacity:1;stroke-miterlimit:4;" d="M 62.86875 145.8 L 62.86875 7.2 " transform="matrix(1.25,0,0,1.25,0.000000000000028422,0)"/>
<path style="fill:none;stroke-width:0.8;stroke-linecap:square;stroke-linejoin:miter;stroke:rgb(0%,0%,0%);stroke-opacity:1;stroke-miterlimit:4;" d="M 258.16875 145.8 L 258.16875 7.2 " transform="matrix(1.25,0,0,1.25,0.000000000000028422,0)"/>
<path style="fill:none;stroke-width:0.8;stroke-linecap:square;stroke-linejoin:miter;stroke:rgb(0%,0%,0%);stroke-opacity:1;stroke-miterlimit:4;" d="M 62.86875 145.8 L 258.16875 145.8 " transform="matrix(1.25,0,0,1.25,0.000000000000028422,0)"/>
<path style="fill:none;stroke-width:0.8;stroke-linecap:square;stroke-linejoin:miter;stroke:rgb(0%,0%,0%);stroke-opacity:1;stroke-miterlimit:4;" d="M 62.86875 7.2 L 258.16875 7.2 " transform="matrix(1.25,0,0,1.25,0.000000000000028422,0)"/>
</g>
</svg>
