<?xml version="1.0" encoding="UTF-8"?>
<svg xmlns="http://www.w3.org/2000/svg" xmlns:xlink="http://www.w3.org/1999/xlink" width="308pt" height="229pt" viewBox="0 0 308 229" version="1.1">
<g id="surface1">
<path style=" stroke:none;fill-rule:nonzero;fill:rgb(100%,100%,100%);fill-opacity:1;" d="M 0 229.195312 L 307.851562 229.195312 L 307.851562 0 L 0 0 Z M 0 229.195312 "/>
<path style=" stroke:none;fill-rule:nonzero;fill:rgb(100%,100%,100%);fill-opacity:1;" d="M 54.726562 182.25 L 298.851562 182.25 L 298.851562 9 L 54.726562 9 Z M 54.726562 182.25 "/>
<path style="fill:none;stroke-width:0.8;stroke-linecap:butt;stroke-linejoin:round;stroke:rgb(0%,0%,0%);stroke-opacity:1;stroke-miterlimit:4;" d="M 0.000852 0 L 0.000852 3.5 " transform="matrix(1.25,0,0,1.25,65.823154,182.25)"/>
<path style=" stroke:none;fill-rule:nonzero;fill:rgb(0%,0%,0%);fill-opacity:1;" d="M 65.820312 192.199219 C 65.183594 192.199219 64.707031 192.511719 64.386719 193.136719 C 64.070312 193.757812 63.910156 194.699219 63.910156 195.953125 C 63.910156 197.199219 64.070312 198.136719 64.386719 198.761719 C 64.707031 199.386719 65.183594 199.699219 65.820312 199.699219 C 66.457031 199.699219 66.9375 199.386719 67.257812 198.761719 C 67.578125 198.136719 67.738281 197.199219 67.738281 195.953125 C 67.738281 194.699219 67.578125 193.757812 67.257812 193.136719 C 66.9375 192.511719 66.457031 192.199219 65.820312 192.199219 Z M 65.820312 191.222656 C 66.839844 191.222656 67.621094 191.625 68.160156 192.433594 C 68.699219 193.242188 68.96875 194.414062 68.96875 195.953125 C 68.96875 197.484375 68.699219 198.65625 68.160156 199.464844 C 67.621094 200.273438 66.839844 200.675781 65.820312 200.675781 C 64.796875 200.675781 64.019531 200.273438 63.480469 199.464844 C 62.941406 198.65625 62.671875 197.484375 62.671875 195.953125 C 62.671875 194.414062 62.941406 193.242188 63.480469 192.433594 C 64.019531 191.625 64.796875 191.222656 65.820312 191.222656 Z M 65.820312 191.222656 "/>
<path style="fill:none;stroke-width:0.8;stroke-linecap:butt;stroke-linejoin:round;stroke:rgb(0%,0%,0%);stroke-opacity:1;stroke-miterlimit:4;" d="M 0.001136 0 L 0.001136 3.5 " transform="matrix(1.25,0,0,1.25,110.209518,182.25)"/>
<path style=" stroke:none;fill-rule:nonzero;fill:rgb(0%,0%,0%);fill-opacity:1;" d="M 108.632812 199.460938 L 112.933594 199.460938 L 112.933594 200.5 L 107.148438 200.5 L 107.148438 199.460938 C 107.617188 198.976562 108.253906 198.328125 109.0625 197.511719 C 109.871094 196.695312 110.378906 196.167969 110.585938 195.933594 C 110.980469 195.488281 111.253906 195.113281 111.410156 194.808594 C 111.566406 194.5 111.648438 194.199219 111.648438 193.902344 C 111.648438 193.417969 111.476562 193.023438 111.136719 192.71875 C 110.796875 192.410156 110.355469 192.257812 109.808594 192.257812 C 109.421875 192.257812 109.015625 192.324219 108.585938 192.460938 C 108.15625 192.59375 107.699219 192.796875 107.210938 193.070312 L 107.210938 191.824219 C 107.707031 191.625 108.167969 191.476562 108.601562 191.375 C 109.03125 191.273438 109.425781 191.222656 109.785156 191.222656 C 110.730469 191.222656 111.480469 191.457031 112.042969 191.929688 C 112.605469 192.402344 112.886719 193.03125 112.886719 193.820312 C 112.886719 194.195312 112.816406 194.550781 112.675781 194.886719 C 112.535156 195.222656 112.28125 195.617188 111.910156 196.074219 C 111.808594 196.191406 111.484375 196.53125 110.9375 197.097656 C 110.394531 197.660156 109.625 198.449219 108.632812 199.460938 Z M 108.632812 199.460938 "/>
<path style="fill:none;stroke-width:0.8;stroke-linecap:butt;stroke-linejoin:round;stroke:rgb(0%,0%,0%);stroke-opacity:1;stroke-miterlimit:4;" d="M 0.00142 0 L 0.00142 3.5 " transform="matrix(1.25,0,0,1.25,154.595881,182.25)"/>
<path style=" stroke:none;fill-rule:nonzero;fill:rgb(0%,0%,0%);fill-opacity:1;" d="M 155.34375 192.460938 L 152.230469 197.324219 L 155.34375 197.324219 Z M 155.019531 191.386719 L 156.570312 191.386719 L 156.570312 197.324219 L 157.871094 197.324219 L 157.871094 198.351562 L 156.570312 198.351562 L 156.570312 200.5 L 155.34375 200.5 L 155.34375 198.351562 L 151.230469 198.351562 L 151.230469 197.160156 Z M 155.019531 191.386719 "/>
<path style="fill:none;stroke-width:0.8;stroke-linecap:butt;stroke-linejoin:round;stroke:rgb(0%,0%,0%);stroke-opacity:1;stroke-miterlimit:4;" d="M -0.00142 0 L -0.00142 3.5 " transform="matrix(1.25,0,0,1.25,198.982244,182.25)"/>
<path style=" stroke:none;fill-rule:nonzero;fill:rgb(0%,0%,0%);fill-opacity:1;" d="M 199.132812 195.453125 C 198.578125 195.453125 198.140625 195.640625 197.816406 196.019531 C 197.492188 196.398438 197.332031 196.914062 197.332031 197.574219 C 197.332031 198.230469 197.492188 198.746094 197.816406 199.128906 C 198.140625 199.507812 198.578125 199.699219 199.132812 199.699219 C 199.6875 199.699219 200.125 199.507812 200.445312 199.128906 C 200.769531 198.746094 200.929688 198.230469 200.929688 197.574219 C 200.929688 196.914062 200.769531 196.398438 200.445312 196.019531 C 200.125 195.640625 199.6875 195.453125 199.132812 195.453125 Z M 201.578125 191.585938 L 201.578125 192.710938 C 201.269531 192.5625 200.957031 192.453125 200.640625 192.375 C 200.328125 192.296875 200.015625 192.257812 199.703125 192.257812 C 198.890625 192.257812 198.269531 192.53125 197.839844 193.082031 C 197.410156 193.632812 197.167969 194.460938 197.105469 195.574219 C 197.34375 195.21875 197.644531 194.945312 198.007812 194.757812 C 198.371094 194.570312 198.769531 194.476562 199.203125 194.476562 C 200.121094 194.476562 200.84375 194.753906 201.375 195.308594 C 201.90625 195.863281 202.171875 196.617188 202.171875 197.574219 C 202.171875 198.511719 201.894531 199.261719 201.339844 199.828125 C 200.789062 200.394531 200.050781 200.675781 199.132812 200.675781 C 198.078125 200.675781 197.273438 200.273438 196.714844 199.464844 C 196.15625 198.65625 195.878906 197.484375 195.878906 195.953125 C 195.878906 194.511719 196.21875 193.363281 196.902344 192.507812 C 197.585938 191.648438 198.503906 191.222656 199.65625 191.222656 C 199.964844 191.222656 200.277344 191.25 200.59375 191.3125 C 200.910156 191.375 201.238281 191.464844 201.578125 191.585938 Z M 201.578125 191.585938 "/>
<path style="fill:none;stroke-width:0.8;stroke-linecap:butt;stroke-linejoin:round;stroke:rgb(0%,0%,0%);stroke-opacity:1;stroke-miterlimit:4;" d="M -0.001136 0 L -0.001136 3.5 " transform="matrix(1.25,0,0,1.25,243.368607,182.25)"/>
<path style=" stroke:none;fill-rule:nonzero;fill:rgb(0%,0%,0%);fill-opacity:1;" d="M 243.363281 196.171875 C 242.777344 196.171875 242.316406 196.328125 241.980469 196.640625 C 241.648438 196.953125 241.480469 197.386719 241.480469 197.933594 C 241.480469 198.484375 241.648438 198.914062 241.980469 199.230469 C 242.316406 199.542969 242.777344 199.699219 243.363281 199.699219 C 243.949219 199.699219 244.414062 199.542969 244.75 199.226562 C 245.089844 198.910156 245.257812 198.480469 245.257812 197.933594 C 245.257812 197.386719 245.089844 196.953125 244.753906 196.640625 C 244.417969 196.328125 243.957031 196.171875 243.363281 196.171875 Z M 242.132812 195.648438 C 241.605469 195.515625 241.191406 195.269531 240.894531 194.910156 C 240.601562 194.546875 240.453125 194.101562 240.453125 193.582031 C 240.453125 192.855469 240.714844 192.277344 241.230469 191.855469 C 241.75 191.433594 242.460938 191.222656 243.363281 191.222656 C 244.273438 191.222656 244.984375 191.433594 245.5 191.855469 C 246.019531 192.277344 246.277344 192.855469 246.277344 193.582031 C 246.277344 194.101562 246.128906 194.546875 245.832031 194.910156 C 245.539062 195.269531 245.128906 195.515625 244.605469 195.648438 C 245.199219 195.785156 245.660156 196.054688 245.992188 196.460938 C 246.324219 196.863281 246.488281 197.351562 246.488281 197.933594 C 246.488281 198.816406 246.21875 199.496094 245.679688 199.96875 C 245.140625 200.441406 244.371094 200.675781 243.363281 200.675781 C 242.359375 200.675781 241.589844 200.441406 241.046875 199.96875 C 240.507812 199.496094 240.238281 198.816406 240.238281 197.933594 C 240.238281 197.351562 240.40625 196.863281 240.738281 196.460938 C 241.074219 196.054688 241.539062 195.785156 242.132812 195.648438 Z M 241.679688 193.699219 C 241.679688 194.171875 241.828125 194.539062 242.121094 194.804688 C 242.417969 195.066406 242.832031 195.199219 243.363281 195.199219 C 243.894531 195.199219 244.308594 195.066406 244.605469 194.804688 C 244.90625 194.539062 245.054688 194.171875 245.054688 193.699219 C 245.054688 193.226562 244.90625 192.859375 244.605469 192.59375 C 244.308594 192.328125 243.894531 192.199219 243.363281 192.199219 C 242.832031 192.199219 242.417969 192.328125 242.121094 192.59375 C 241.828125 192.859375 241.679688 193.226562 241.679688 193.699219 Z M 241.679688 193.699219 "/>
<path style="fill:none;stroke-width:0.8;stroke-linecap:butt;stroke-linejoin:round;stroke:rgb(0%,0%,0%);stroke-opacity:1;stroke-miterlimit:4;" d="M -0.000852 0 L -0.000852 3.5 " transform="matrix(1.25,0,0,1.25,287.754971,182.25)"/>
<path style=" stroke:none;fill-rule:nonzero;fill:rgb(0%,0%,0%);fill-opacity:1;" d="M 281.351562 199.460938 L 283.367188 199.460938 L 283.367188 192.507812 L 281.175781 192.949219 L 281.175781 191.824219 L 283.355469 191.386719 L 284.585938 191.386719 L 284.585938 199.460938 L 286.601562 199.460938 L 286.601562 200.5 L 281.351562 200.5 Z M 281.351562 199.460938 "/>
<path style=" stroke:none;fill-rule:nonzero;fill:rgb(0%,0%,0%);fill-opacity:1;" d="M 291.726562 192.199219 C 291.09375 192.199219 290.617188 192.511719 290.296875 193.136719 C 289.976562 193.757812 289.816406 194.699219 289.816406 195.953125 C 289.816406 197.199219 289.976562 198.136719 290.296875 198.761719 C 290.617188 199.386719 291.09375 199.699219 291.726562 199.699219 C 292.367188 199.699219 292.847656 199.386719 293.164062 198.761719 C 293.484375 198.136719 293.644531 197.199219 293.644531 195.953125 C 293.644531 194.699219 293.484375 193.757812 293.164062 193.136719 C 292.847656 192.511719 292.367188 192.199219 291.726562 192.199219 Z M 291.726562 191.222656 C 292.75 191.222656 293.53125 191.625 294.070312 192.433594 C 294.609375 193.242188 294.878906 194.414062 294.878906 195.953125 C 294.878906 197.484375 294.609375 198.65625 294.070312 199.464844 C 293.53125 200.273438 292.75 200.675781 291.726562 200.675781 C 290.707031 200.675781 289.925781 200.273438 289.386719 199.464844 C 288.847656 198.65625 288.578125 197.484375 288.578125 195.953125 C 288.578125 194.414062 288.847656 193.242188 289.386719 192.433594 C 289.925781 191.625 290.707031 191.222656 291.726562 191.222656 Z M 291.726562 191.222656 "/>
<path style=" stroke:none;fill-rule:nonzero;fill:rgb(0%,0%,0%);fill-opacity:1;" d="M 179.953125 210.761719 L 177.476562 214.085938 L 180.078125 217.597656 L 178.753906 217.597656 L 176.765625 214.910156 L 174.773438 217.597656 L 173.449219 217.597656 L 176.105469 214.019531 L 173.675781 210.761719 L 175 210.761719 L 176.8125 213.195312 L 178.625 210.761719 Z M 179.953125 210.761719 "/>
<path style="fill:none;stroke-width:0.8;stroke-linecap:butt;stroke-linejoin:round;stroke:rgb(0%,0%,0%);stroke-opacity:1;stroke-miterlimit:4;" d="M 0 0 L -3.5 0 " transform="matrix(1.25,0,0,1.25,54.726562,174.375)"/>
<path style=" stroke:none;fill-rule:nonzero;fill:rgb(0%,0%,0%);fill-opacity:1;" d="M 30.070312 170.824219 C 29.4375 170.824219 28.960938 171.136719 28.640625 171.761719 C 28.320312 172.382812 28.160156 173.324219 28.160156 174.578125 C 28.160156 175.824219 28.320312 176.761719 28.640625 177.386719 C 28.960938 178.011719 29.4375 178.324219 30.070312 178.324219 C 30.710938 178.324219 31.1875 178.011719 31.507812 177.386719 C 31.828125 176.761719 31.988281 175.824219 31.988281 174.578125 C 31.988281 173.324219 31.828125 172.382812 31.507812 171.761719 C 31.1875 171.136719 30.710938 170.824219 30.070312 170.824219 Z M 30.070312 169.847656 C 31.09375 169.847656 31.875 170.25 32.414062 171.058594 C 32.953125 171.867188 33.21875 173.039062 33.21875 174.578125 C 33.21875 176.109375 32.953125 177.28125 32.414062 178.089844 C 31.875 178.898438 31.09375 179.300781 30.070312 179.300781 C 29.050781 179.300781 28.269531 178.898438 27.730469 178.089844 C 27.191406 177.28125 26.921875 176.109375 26.921875 174.578125 C 26.921875 173.039062 27.191406 171.867188 27.730469 171.058594 C 28.269531 170.25 29.050781 169.847656 30.070312 169.847656 Z M 30.070312 169.847656 "/>
<path style=" stroke:none;fill-rule:nonzero;fill:rgb(0%,0%,0%);fill-opacity:1;" d="M 35.386719 177.574219 L 36.675781 177.574219 L 36.675781 179.125 L 35.386719 179.125 Z M 35.386719 177.574219 "/>
<path style=" stroke:none;fill-rule:nonzero;fill:rgb(0%,0%,0%);fill-opacity:1;" d="M 41.996094 170.824219 C 41.363281 170.824219 40.886719 171.136719 40.566406 171.761719 C 40.246094 172.382812 40.085938 173.324219 40.085938 174.578125 C 40.085938 175.824219 40.246094 176.761719 40.566406 177.386719 C 40.886719 178.011719 41.363281 178.324219 41.996094 178.324219 C 42.636719 178.324219 43.113281 178.011719 43.433594 177.386719 C 43.753906 176.761719 43.914062 175.824219 43.914062 174.578125 C 43.914062 173.324219 43.753906 172.382812 43.433594 171.761719 C 43.113281 171.136719 42.636719 170.824219 41.996094 170.824219 Z M 41.996094 169.847656 C 43.019531 169.847656 43.800781 170.25 44.339844 171.058594 C 44.878906 171.867188 45.148438 173.039062 45.148438 174.578125 C 45.148438 176.109375 44.878906 177.28125 44.339844 178.089844 C 43.800781 178.898438 43.019531 179.300781 41.996094 179.300781 C 40.976562 179.300781 40.195312 178.898438 39.65625 178.089844 C 39.117188 177.28125 38.847656 176.109375 38.847656 174.578125 C 38.847656 173.039062 39.117188 171.867188 39.65625 171.058594 C 40.195312 170.25 40.976562 169.847656 41.996094 169.847656 Z M 41.996094 169.847656 "/>
<path style="fill:none;stroke-width:0.8;stroke-linecap:butt;stroke-linejoin:round;stroke:rgb(0%,0%,0%);stroke-opacity:1;stroke-miterlimit:4;" d="M 0 0.001377 L -3.5 0.001377 " transform="matrix(1.25,0,0,1.25,54.726562,122.220935)"/>
<path style=" stroke:none;fill-rule:nonzero;fill:rgb(0%,0%,0%);fill-opacity:1;" d="M 30.070312 118.667969 C 29.4375 118.667969 28.960938 118.980469 28.640625 119.605469 C 28.320312 120.230469 28.160156 121.167969 28.160156 122.421875 C 28.160156 123.671875 28.320312 124.609375 28.640625 125.234375 C 28.960938 125.859375 29.4375 126.171875 30.070312 126.171875 C 30.710938 126.171875 31.1875 125.859375 31.507812 125.234375 C 31.828125 124.609375 31.988281 123.671875 31.988281 122.421875 C 31.988281 121.167969 31.828125 120.230469 31.507812 119.605469 C 31.1875 118.980469 30.710938 118.667969 30.070312 118.667969 Z M 30.070312 117.691406 C 31.09375 117.691406 31.875 118.097656 32.414062 118.90625 C 32.953125 119.710938 33.21875 120.886719 33.21875 122.421875 C 33.21875 123.957031 32.953125 125.128906 32.414062 125.9375 C 31.875 126.742188 31.09375 127.148438 30.070312 127.148438 C 29.050781 127.148438 28.269531 126.742188 27.730469 125.9375 C 27.191406 125.128906 26.921875 123.957031 26.921875 122.421875 C 26.921875 120.886719 27.191406 119.710938 27.730469 118.90625 C 28.269531 118.097656 29.050781 117.691406 30.070312 117.691406 Z M 30.070312 117.691406 "/>
<path style=" stroke:none;fill-rule:nonzero;fill:rgb(0%,0%,0%);fill-opacity:1;" d="M 35.386719 125.417969 L 36.675781 125.417969 L 36.675781 126.96875 L 35.386719 126.96875 Z M 35.386719 125.417969 "/>
<path style=" stroke:none;fill-rule:nonzero;fill:rgb(0%,0%,0%);fill-opacity:1;" d="M 39.574219 125.933594 L 41.589844 125.933594 L 41.589844 118.980469 L 39.398438 119.417969 L 39.398438 118.296875 L 41.578125 117.855469 L 42.808594 117.855469 L 42.808594 125.933594 L 44.824219 125.933594 L 44.824219 126.96875 L 39.574219 126.96875 Z M 39.574219 125.933594 "/>
<path style="fill:none;stroke-width:0.8;stroke-linecap:butt;stroke-linejoin:round;stroke:rgb(0%,0%,0%);stroke-opacity:1;stroke-miterlimit:4;" d="M 0 -0.000371 L -3.5 -0.000371 " transform="matrix(1.25,0,0,1.25,54.726562,70.06687)"/>
<path style=" stroke:none;fill-rule:nonzero;fill:rgb(0%,0%,0%);fill-opacity:1;" d="M 30.070312 66.515625 C 29.4375 66.515625 28.960938 66.828125 28.640625 67.453125 C 28.320312 68.078125 28.160156 69.015625 28.160156 70.269531 C 28.160156 71.519531 28.320312 72.453125 28.640625 73.078125 C 28.960938 73.703125 29.4375 74.015625 30.070312 74.015625 C 30.710938 74.015625 31.1875 73.703125 31.507812 73.078125 C 31.828125 72.453125 31.988281 71.519531 31.988281 70.269531 C 31.988281 69.015625 31.828125 68.078125 31.507812 67.453125 C 31.1875 66.828125 30.710938 66.515625 30.070312 66.515625 Z M 30.070312 65.539062 C 31.09375 65.539062 31.875 65.941406 32.414062 66.75 C 32.953125 67.558594 33.21875 68.730469 33.21875 70.269531 C 33.21875 71.804688 32.953125 72.972656 32.414062 73.78125 C 31.875 74.589844 31.09375 74.992188 30.070312 74.992188 C 29.050781 74.992188 28.269531 74.589844 27.730469 73.78125 C 27.191406 72.972656 26.921875 71.804688 26.921875 70.269531 C 26.921875 68.730469 27.191406 67.558594 27.730469 66.75 C 28.269531 65.941406 29.050781 65.539062 30.070312 65.539062 Z M 30.070312 65.539062 "/>
<path style=" stroke:none;fill-rule:nonzero;fill:rgb(0%,0%,0%);fill-opacity:1;" d="M 35.386719 73.265625 L 36.675781 73.265625 L 36.675781 74.816406 L 35.386719 74.816406 Z M 35.386719 73.265625 "/>
<path style=" stroke:none;fill-rule:nonzero;fill:rgb(0%,0%,0%);fill-opacity:1;" d="M 40.421875 73.777344 L 44.726562 73.777344 L 44.726562 74.816406 L 38.941406 74.816406 L 38.941406 73.777344 C 39.40625 73.292969 40.042969 72.644531 40.851562 71.828125 C 41.660156 71.011719 42.167969 70.488281 42.375 70.25 C 42.769531 69.808594 43.046875 69.433594 43.203125 69.125 C 43.359375 68.816406 43.4375 68.515625 43.4375 68.21875 C 43.4375 67.734375 43.269531 67.339844 42.929688 67.035156 C 42.589844 66.730469 42.144531 66.574219 41.601562 66.574219 C 41.214844 66.574219 40.804688 66.644531 40.375 66.777344 C 39.945312 66.910156 39.488281 67.113281 39 67.386719 L 39 66.140625 C 39.496094 65.941406 39.960938 65.792969 40.390625 65.691406 C 40.824219 65.589844 41.21875 65.539062 41.578125 65.539062 C 42.519531 65.539062 43.273438 65.773438 43.835938 66.246094 C 44.394531 66.71875 44.675781 67.347656 44.675781 68.136719 C 44.675781 68.511719 44.605469 68.867188 44.464844 69.203125 C 44.324219 69.539062 44.070312 69.933594 43.699219 70.390625 C 43.597656 70.507812 43.273438 70.851562 42.730469 71.414062 C 42.183594 71.976562 41.414062 72.765625 40.421875 73.777344 Z M 40.421875 73.777344 "/>
<path style="fill:none;stroke-width:0.8;stroke-linecap:butt;stroke-linejoin:round;stroke:rgb(0%,0%,0%);stroke-opacity:1;stroke-miterlimit:4;" d="M 0 0.001006 L -3.5 0.001006 " transform="matrix(1.25,0,0,1.25,54.726562,17.912805)"/>
<path style=" stroke:none;fill-rule:nonzero;fill:rgb(0%,0%,0%);fill-opacity:1;" d="M 30.070312 14.359375 C 29.4375 14.359375 28.960938 14.671875 28.640625 15.296875 C 28.320312 15.921875 28.160156 16.859375 28.160156 18.113281 C 28.160156 19.363281 28.320312 20.300781 28.640625 20.925781 C 28.960938 21.550781 29.4375 21.863281 30.070312 21.863281 C 30.710938 21.863281 31.1875 21.550781 31.507812 20.925781 C 31.828125 20.300781 31.988281 19.363281 31.988281 18.113281 C 31.988281 16.859375 31.828125 15.921875 31.507812 15.296875 C 31.1875 14.671875 30.710938 14.359375 30.070312 14.359375 Z M 30.070312 13.382812 C 31.09375 13.382812 31.875 13.789062 32.414062 14.597656 C 32.953125 15.40625 33.21875 16.578125 33.21875 18.113281 C 33.21875 19.648438 32.953125 20.820312 32.414062 21.628906 C 31.875 22.4375 31.09375 22.839844 30.070312 22.839844 C 29.050781 22.839844 28.269531 22.4375 27.730469 21.628906 C 27.191406 20.820312 26.921875 19.648438 26.921875 18.113281 C 26.921875 16.578125 27.191406 15.40625 27.730469 14.597656 C 28.269531 13.789062 29.050781 13.382812 30.070312 13.382812 Z M 30.070312 13.382812 "/>
<path style=" stroke:none;fill-rule:nonzero;fill:rgb(0%,0%,0%);fill-opacity:1;" d="M 35.386719 21.109375 L 36.675781 21.109375 L 36.675781 22.660156 L 35.386719 22.660156 Z M 35.386719 21.109375 "/>
<path style=" stroke:none;fill-rule:nonzero;fill:rgb(0%,0%,0%);fill-opacity:1;" d="M 43.097656 17.746094 C 43.6875 17.875 44.144531 18.136719 44.476562 18.535156 C 44.808594 18.933594 44.976562 19.425781 44.976562 20.011719 C 44.976562 20.910156 44.664062 21.609375 44.046875 22.101562 C 43.429688 22.59375 42.550781 22.839844 41.410156 22.839844 C 41.027344 22.839844 40.636719 22.800781 40.230469 22.726562 C 39.824219 22.652344 39.40625 22.539062 38.976562 22.386719 L 38.976562 21.195312 C 39.316406 21.394531 39.691406 21.546875 40.097656 21.648438 C 40.503906 21.75 40.929688 21.800781 41.375 21.800781 C 42.148438 21.800781 42.734375 21.648438 43.140625 21.34375 C 43.546875 21.039062 43.75 20.59375 43.75 20.011719 C 43.75 19.476562 43.558594 19.054688 43.183594 18.753906 C 42.808594 18.449219 42.285156 18.296875 41.613281 18.296875 L 40.550781 18.296875 L 40.550781 17.285156 L 41.664062 17.285156 C 42.269531 17.285156 42.730469 17.164062 43.054688 16.921875 C 43.375 16.679688 43.535156 16.332031 43.535156 15.875 C 43.535156 15.40625 43.371094 15.046875 43.039062 14.796875 C 42.707031 14.546875 42.230469 14.421875 41.613281 14.421875 C 41.273438 14.421875 40.914062 14.457031 40.527344 14.53125 C 40.140625 14.605469 39.714844 14.71875 39.25 14.871094 L 39.25 13.773438 C 39.71875 13.644531 40.15625 13.546875 40.566406 13.480469 C 40.976562 13.417969 41.359375 13.382812 41.722656 13.382812 C 42.660156 13.382812 43.398438 13.597656 43.945312 14.023438 C 44.488281 14.449219 44.761719 15.023438 44.761719 15.746094 C 44.761719 16.25 44.617188 16.675781 44.328125 17.023438 C 44.039062 17.371094 43.628906 17.613281 43.097656 17.746094 Z M 43.097656 17.746094 "/>
<path style=" stroke:none;fill-rule:nonzero;fill:rgb(0%,0%,0%);fill-opacity:1;" d="M 17.472656 111.125 L 21.097656 111.125 L 21.097656 112.25 L 11.660156 112.25 L 11.660156 111.125 L 12.699219 111.125 C 12.292969 110.886719 11.992188 110.585938 11.792969 110.226562 C 11.597656 109.867188 11.496094 109.4375 11.496094 108.9375 C 11.496094 108.105469 11.828125 107.433594 12.484375 106.914062 C 13.144531 106.394531 14.011719 106.132812 15.085938 106.132812 C 16.160156 106.132812 17.027344 106.394531 17.6875 106.914062 C 18.347656 107.433594 18.675781 108.105469 18.675781 108.9375 C 18.675781 109.4375 18.578125 109.867188 18.378906 110.226562 C 18.179688 110.585938 17.878906 110.886719 17.472656 111.125 Z M 15.085938 107.300781 C 14.261719 107.300781 13.613281 107.46875 13.140625 107.8125 C 12.671875 108.148438 12.4375 108.617188 12.4375 109.210938 C 12.4375 109.804688 12.671875 110.273438 13.140625 110.613281 C 13.613281 110.953125 14.261719 111.125 15.085938 111.125 C 15.910156 111.125 16.558594 110.953125 17.027344 110.613281 C 17.5 110.273438 17.734375 109.804688 17.734375 109.210938 C 17.734375 108.617188 17.5 108.148438 17.027344 107.8125 C 16.558594 107.46875 15.910156 107.300781 15.085938 107.300781 Z M 15.085938 107.300781 "/>
<path style=" stroke:none;fill-rule:nonzero;fill:rgb(0%,0%,0%);fill-opacity:1;" d="M 16.945312 104.117188 L 16.945312 102.828125 L 18.496094 102.828125 L 18.496094 104.117188 Z M 16.945312 104.117188 "/>
<path style=" stroke:none;fill-rule:nonzero;fill:rgb(0%,0%,0%);fill-opacity:1;" d="M 12.972656 94.980469 C 12.46875 94.699219 12.097656 94.363281 11.855469 93.972656 C 11.617188 93.582031 11.496094 93.121094 11.496094 92.59375 C 11.496094 91.878906 11.746094 91.332031 12.246094 90.945312 C 12.742188 90.558594 13.453125 90.363281 14.371094 90.363281 L 18.496094 90.363281 L 18.496094 91.492188 L 14.40625 91.492188 C 13.753906 91.492188 13.265625 91.609375 12.949219 91.84375 C 12.632812 92.074219 12.472656 92.425781 12.472656 92.902344 C 12.472656 93.484375 12.667969 93.945312 13.054688 94.285156 C 13.441406 94.621094 13.964844 94.789062 14.632812 94.789062 L 18.496094 94.789062 L 18.496094 95.917969 L 14.40625 95.917969 C 13.75 95.917969 13.261719 96.035156 12.945312 96.265625 C 12.632812 96.496094 12.472656 96.855469 12.472656 97.339844 C 12.472656 97.914062 12.667969 98.371094 13.054688 98.710938 C 13.445312 99.046875 13.96875 99.214844 14.632812 99.214844 L 18.496094 99.214844 L 18.496094 100.34375 L 11.660156 100.34375 L 11.660156 99.214844 L 12.722656 99.214844 C 12.304688 98.957031 11.996094 98.652344 11.796875 98.292969 C 11.597656 97.933594 11.496094 97.511719 11.496094 97.019531 C 11.496094 96.519531 11.625 96.097656 11.875 95.75 C 12.128906 95.402344 12.492188 95.144531 12.972656 94.980469 Z M 12.972656 94.980469 "/>
<path style=" stroke:none;fill-rule:nonzero;fill:rgb(0%,0%,0%);fill-opacity:1;" d="M 16.945312 87.964844 L 16.945312 86.675781 L 18.496094 86.675781 L 18.496094 87.964844 Z M 16.945312 87.964844 "/>
<path style=" stroke:none;fill-rule:nonzero;fill:rgb(0%,0%,0%);fill-opacity:1;" d="M 9 80.691406 L 9.933594 80.691406 L 9.933594 81.765625 C 9.933594 82.167969 10.015625 82.445312 10.179688 82.605469 C 10.34375 82.761719 10.636719 82.839844 11.058594 82.839844 L 11.660156 82.839844 L 11.660156 80.988281 L 12.535156 80.988281 L 12.535156 82.839844 L 18.496094 82.839844 L 18.496094 83.96875 L 12.535156 83.96875 L 12.535156 85.042969 L 11.660156 85.042969 L 11.660156 83.96875 L 11.183594 83.96875 C 10.425781 83.96875 9.871094 83.789062 9.523438 83.4375 C 9.175781 83.082031 9 82.519531 9 81.753906 Z M 9 80.691406 "/>
<path style=" stroke:none;fill-rule:nonzero;fill:rgb(0%,0%,0%);fill-opacity:1;" d="M 16.945312 80.5 L 16.945312 79.210938 L 18.496094 79.210938 L 18.496094 80.5 Z M 16.945312 80.5 "/>
<path style="fill:none;stroke-width:1.5;stroke-linecap:butt;stroke-linejoin:round;stroke:rgb(12.156863%,46.666667%,70.588235%);stroke-opacity:1;stroke-miterlimit:4;" d="M 52.659375 139.5 L 52.659375 94.7 " transform="matrix(1.25,0,0,1.25,0,0)"/>
<path style="fill:none;stroke-width:1.5;stroke-linecap:butt;stroke-linejoin:round;stroke:rgb(12.156863%,46.666667%,70.588235%);stroke-opacity:1;stroke-miterlimit:4;" d="M 70.4125 139.5 L 70.4125 27.5 " transform="matrix(1.25,0,0,1.25,0,0)"/>
<path style="fill:none;stroke-width:1.5;stroke-linecap:butt;stroke-linejoin:round;stroke:rgb(12.156863%,46.666667%,70.588235%);stroke-opacity:1;stroke-miterlimit:4;" d="M 88.16875 139.5 L 88.16875 13.5 " transform="matrix(1.25,0,0,1.25,0,0)"/>
<path style="fill:none;stroke-width:1.5;stroke-linecap:butt;stroke-linejoin:round;stroke:rgb(12.156863%,46.666667%,70.588235%);stroke-opacity:1;stroke-miterlimit:4;" d="M 105.921875 139.5 L 105.921875 55.5 " transform="matrix(1.25,0,0,1.25,0,0)"/>
<path style="fill:none;stroke-width:1.5;stroke-linecap:butt;stroke-linejoin:round;stroke:rgb(12.156863%,46.666667%,70.588235%);stroke-opacity:1;stroke-miterlimit:4;" d="M 123.678125 139.5 L 123.678125 102.75 " transform="matrix(1.25,0,0,1.25,0,0)"/>
<path style="fill:none;stroke-width:1.5;stroke-linecap:butt;stroke-linejoin:round;stroke:rgb(12.156863%,46.666667%,70.588235%);stroke-opacity:1;stroke-miterlimit:4;" d="M 141.43125 139.5 L 141.43125 128.475 " transform="matrix(1.25,0,0,1.25,0,0)"/>
<path style="fill:none;stroke-width:1.5;stroke-linecap:butt;stroke-linejoin:round;stroke:rgb(12.156863%,46.666667%,70.588235%);stroke-opacity:1;stroke-miterlimit:4;" d="M 159.184375 139.5 L 159.184375 137.203125 " transform="matrix(1.25,0,0,1.25,0,0)"/>
<path style="fill:none;stroke-width:1.5;stroke-linecap:butt;stroke-linejoin:round;stroke:rgb(12.156863%,46.666667%,70.588235%);stroke-opacity:1;stroke-miterlimit:4;" d="M 176.940625 139.5 L 176.940625 139.171875 " transform="matrix(1.25,0,0,1.25,0,0)"/>
<path style="fill:none;stroke-width:1.5;stroke-linecap:butt;stroke-linejoin:round;stroke:rgb(12.156863%,46.666667%,70.588235%);stroke-opacity:1;stroke-miterlimit:4;" d="M 194.69375 139.5 L 194.69375 139.46875 " transform="matrix(1.25,0,0,1.25,0,0)"/>
<path style="fill:none;stroke-width:1.5;stroke-linecap:butt;stroke-linejoin:round;stroke:rgb(12.156863%,46.666667%,70.588235%);stroke-opacity:1;stroke-miterlimit:4;" d="M 212.45 139.5 L 212.45 139.496875 " transform="matrix(1.25,0,0,1.25,0,0)"/>
<path style="fill:none;stroke-width:1.5;stroke-linecap:butt;stroke-linejoin:round;stroke:rgb(12.156863%,46.666667%,70.588235%);stroke-opacity:1;stroke-miterlimit:4;" d="M 230.203125 139.5 L 230.203125 139.5 " transform="matrix(1.25,0,0,1.25,0,0)"/>
<path style="fill-rule:nonzero;fill:rgb(12.156863%,46.666667%,70.588235%);fill-opacity:1;stroke-width:1;stroke-linecap:butt;stroke-linejoin:round;stroke:rgb(12.156863%,46.666667%,70.588235%);stroke-opacity:1;stroke-miterlimit:4;" d="M 0.000852 3.000001 C 0.794602 3.000001 1.560227 2.684376 2.122727 2.121876 C 2.685227 1.559376 3.000852 0.796876 3.000852 0.000001 C 3.000852 -0.796874 2.685227 -1.559374 2.122727 -2.121874 C 1.560227 -2.684374 0.794602 -2.999999 0.000852 -2.999999 C -0.796023 -2.999999 -1.558523 -2.684374 -2.121023 -2.121874 C -2.683523 -1.559374 -2.999148 -0.796874 -2.999148 0.000001 C -2.999148 0.796876 -2.683523 1.559376 -2.121023 2.121876 C -1.558523 2.684376 -0.796023 3.000001 0.000852 3.000001 Z M 0.000852 3.000001 " transform="matrix(1.25,0,0,1.25,65.823154,118.374999)"/>
<path style="fill-rule:nonzero;fill:rgb(12.156863%,46.666667%,70.588235%);fill-opacity:1;stroke-width:1;stroke-linecap:butt;stroke-linejoin:round;stroke:rgb(12.156863%,46.666667%,70.588235%);stroke-opacity:1;stroke-miterlimit:4;" d="M -0.000568 2.999999 C 0.796307 2.999999 1.558807 2.684374 2.121307 2.121874 C 2.683807 1.559374 2.999432 0.796874 2.999432 -0.000001 C 2.999432 -0.796876 2.683807 -1.559376 2.121307 -2.121876 C 1.558807 -2.684376 0.796307 -3.000001 -0.000568 -3.000001 C -0.794318 -3.000001 -1.559943 -2.684376 -2.122443 -2.121876 C -2.684943 -1.559376 -3.000568 -0.796876 -3.000568 -0.000001 C -3.000568 0.796874 -2.684943 1.559374 -2.122443 2.121874 C -1.559943 2.684374 -0.794318 2.999999 -0.000568 2.999999 Z M -0.000568 2.999999 " transform="matrix(1.25,0,0,1.25,88.016335,34.375001)"/>
<path style="fill-rule:nonzero;fill:rgb(12.156863%,46.666667%,70.588235%);fill-opacity:1;stroke-width:1;stroke-linecap:butt;stroke-linejoin:round;stroke:rgb(12.156863%,46.666667%,70.588235%);stroke-opacity:1;stroke-miterlimit:4;" d="M 0.001136 3 C 0.794886 3 1.557386 2.684375 2.119886 2.121875 C 2.682386 1.559375 3.001136 0.796875 3.001136 0 C 3.001136 -0.796875 2.682386 -1.559375 2.119886 -2.121875 C 1.557386 -2.684375 0.794886 -3 0.001136 -3 C -0.795739 -3 -1.558239 -2.684375 -2.120739 -2.121875 C -2.683239 -1.559375 -2.998864 -0.796875 -2.998864 0 C -2.998864 0.796875 -2.683239 1.559375 -2.120739 2.121875 C -1.558239 2.684375 -0.795739 3 0.001136 3 Z M 0.001136 3 " transform="matrix(1.25,0,0,1.25,110.209518,16.875)"/>
<path style="fill-rule:nonzero;fill:rgb(12.156863%,46.666667%,70.588235%);fill-opacity:1;stroke-width:1;stroke-linecap:butt;stroke-linejoin:round;stroke:rgb(12.156863%,46.666667%,70.588235%);stroke-opacity:1;stroke-miterlimit:4;" d="M -0.000284 3.000002 C 0.796591 3.000002 1.559091 2.684377 2.121591 2.121877 C 2.684091 1.559377 2.999716 0.796877 2.999716 0.000002 C 2.999716 -0.796873 2.684091 -1.559373 2.121591 -2.121873 C 1.559091 -2.684373 0.796591 -2.999998 -0.000284 -2.999998 C -0.797159 -2.999998 -1.559659 -2.684373 -2.122159 -2.121873 C -2.684659 -1.559373 -3.000284 -0.796873 -3.000284 0.000002 C -3.000284 0.796877 -2.684659 1.559377 -2.122159 2.121877 C -1.559659 2.684377 -0.797159 3.000002 -0.000284 3.000002 Z M -0.000284 3.000002 " transform="matrix(1.25,0,0,1.25,132.402699,69.374997)"/>
<path style="fill-rule:nonzero;fill:rgb(12.156863%,46.666667%,70.588235%);fill-opacity:1;stroke-width:1;stroke-linecap:butt;stroke-linejoin:round;stroke:rgb(12.156863%,46.666667%,70.588235%);stroke-opacity:1;stroke-miterlimit:4;" d="M 0.00142 3.000001 C 0.79517 3.000001 1.55767 2.684376 2.12017 2.121876 C 2.68267 1.559376 3.00142 0.796876 3.00142 0.000001 C 3.00142 -0.796874 2.68267 -1.559374 2.12017 -2.121874 C 1.55767 -2.684374 0.79517 -2.999999 0.00142 -2.999999 C -0.795455 -2.999999 -1.557955 -2.684374 -2.120455 -2.121874 C -2.682955 -1.559374 -2.99858 -0.796874 -2.99858 0.000001 C -2.99858 0.796876 -2.682955 1.559376 -2.120455 2.121876 C -1.557955 2.684376 -0.795455 3.000001 0.00142 3.000001 Z M 0.00142 3.000001 " transform="matrix(1.25,0,0,1.25,154.595881,128.437499)"/>
<path style="fill-rule:nonzero;fill:rgb(12.156863%,46.666667%,70.588235%);fill-opacity:1;stroke-width:1;stroke-linecap:butt;stroke-linejoin:round;stroke:rgb(12.156863%,46.666667%,70.588235%);stroke-opacity:1;stroke-miterlimit:4;" d="M 0 3 C 0.796875 3 1.559375 2.684375 2.121875 2.121875 C 2.684375 1.559375 3 0.796875 3 0 C 3 -0.796875 2.684375 -1.559375 2.121875 -2.121875 C 1.559375 -2.684375 0.796875 -3 0 -3 C -0.796875 -3 -1.559375 -2.684375 -2.121875 -2.121875 C -2.684375 -1.559375 -3 -0.796875 -3 0 C -3 0.796875 -2.684375 1.559375 -2.121875 2.121875 C -1.559375 2.684375 -0.796875 3 0 3 Z M 0 3 " transform="matrix(1.25,0,0,1.25,176.789062,160.59375)"/>
<path style="fill-rule:nonzero;fill:rgb(12.156863%,46.666667%,70.588235%);fill-opacity:1;stroke-width:1;stroke-linecap:butt;stroke-linejoin:round;stroke:rgb(12.156863%,46.666667%,70.588235%);stroke-opacity:1;stroke-miterlimit:4;" d="M -0.00142 3 C 0.795455 3 1.557955 2.684375 2.120455 2.121875 C 2.682955 1.559375 2.99858 0.796875 2.99858 0 C 2.99858 -0.796875 2.682955 -1.559375 2.120455 -2.121875 C 1.557955 -2.684375 0.795455 -3 -0.00142 -3 C -0.79517 -3 -1.55767 -2.684375 -2.12017 -2.121875 C -2.68267 -1.559375 -3.00142 -0.796875 -3.00142 0 C -3.00142 0.796875 -2.68267 1.559375 -2.12017 2.121875 C -1.55767 2.684375 -0.79517 3 -0.00142 3 Z M -0.00142 3 " transform="matrix(1.25,0,0,1.25,198.982244,171.503906)"/>
<path style="fill-rule:nonzero;fill:rgb(12.156863%,46.666667%,70.588235%);fill-opacity:1;stroke-width:1;stroke-linecap:butt;stroke-linejoin:round;stroke:rgb(12.156863%,46.666667%,70.588235%);stroke-opacity:1;stroke-miterlimit:4;" d="M 0.000284 3 C 0.797159 3 1.559659 2.684375 2.122159 2.121875 C 2.684659 1.559375 3.000284 0.796875 3.000284 0 C 3.000284 -0.796875 2.684659 -1.559375 2.122159 -2.121875 C 1.559659 -2.684375 0.797159 -3 0.000284 -3 C -0.796591 -3 -1.559091 -2.684375 -2.121591 -2.121875 C -2.684091 -1.559375 -2.999716 -0.796875 -2.999716 0 C -2.999716 0.796875 -2.684091 1.559375 -2.121591 2.121875 C -1.559091 2.684375 -0.796591 3 0.000284 3 Z M 0.000284 3 " transform="matrix(1.25,0,0,1.25,221.175426,173.964844)"/>
<path style="fill-rule:nonzero;fill:rgb(12.156863%,46.666667%,70.588235%);fill-opacity:1;stroke-width:1;stroke-linecap:butt;stroke-linejoin:round;stroke:rgb(12.156863%,46.666667%,70.588235%);stroke-opacity:1;stroke-miterlimit:4;" d="M -0.001136 2.999512 C 0.795739 2.999512 1.558239 2.683887 2.120739 2.121387 C 2.683239 1.558887 2.998864 0.796387 2.998864 -0.000488 C 2.998864 -0.794238 2.683239 -1.559863 2.120739 -2.122363 C 1.558239 -2.684863 0.795739 -3.000488 -0.001136 -3.000488 C -0.794886 -3.000488 -1.557386 -2.684863 -2.119886 -2.122363 C -2.682386 -1.559863 -3.001136 -0.794238 -3.001136 -0.000488 C -3.001136 0.796387 -2.682386 1.558887 -2.119886 2.121387 C -1.557386 2.683887 -0.794886 2.999512 -0.001136 2.999512 Z M -0.001136 2.999512 " transform="matrix(1.25,0,0,1.25,243.368607,174.336547)"/>
<path style="fill-rule:nonzero;fill:rgb(12.156863%,46.666667%,70.588235%);fill-opacity:1;stroke-width:1;stroke-linecap:butt;stroke-linejoin:round;stroke:rgb(12.156863%,46.666667%,70.588235%);stroke-opacity:1;stroke-miterlimit:4;" d="M 0.000568 2.998584 C 0.794318 2.998584 1.559943 2.682959 2.122443 2.120459 C 2.684943 1.557959 3.000568 0.795459 3.000568 -0.001416 C 3.000568 -0.795166 2.684943 -1.557666 2.122443 -2.120166 C 1.559943 -2.682666 0.794318 -3.001416 0.000568 -3.001416 C -0.796307 -3.001416 -1.558807 -2.682666 -2.121307 -2.120166 C -2.683807 -1.557666 -2.999432 -0.795166 -2.999432 -0.001416 C -2.999432 0.795459 -2.683807 1.557959 -2.121307 2.120459 C -1.558807 2.682959 -0.796307 2.998584 0.000568 2.998584 Z M 0.000568 2.998584 " transform="matrix(1.25,0,0,1.25,265.56179,174.372864)"/>
<path style="fill-rule:nonzero;fill:rgb(12.156863%,46.666667%,70.588235%);fill-opacity:1;stroke-width:1;stroke-linecap:butt;stroke-linejoin:round;stroke:rgb(12.156863%,46.666667%,70.588235%);stroke-opacity:1;stroke-miterlimit:4;" d="M -0.000852 3.000043 C 0.796023 3.000043 1.558523 2.684418 2.121023 2.121918 C 2.683523 1.559418 2.999148 0.796918 2.999148 0.000043 C 2.999148 -0.796832 2.683523 -1.559332 2.121023 -2.121832 C 1.558523 -2.684332 0.796023 -2.999957 -0.000852 -2.999957 C -0.794602 -2.999957 -1.560227 -2.684332 -2.122727 -2.121832 C -2.685227 -1.559332 -3.000852 -0.796832 -3.000852 0.000043 C -3.000852 0.796918 -2.685227 1.559418 -2.122727 2.121918 C -1.560227 2.684418 -0.794602 3.000043 -0.000852 3.000043 Z M -0.000852 3.000043 " transform="matrix(1.25,0,0,1.25,287.754971,174.374946)"/>
<path style="fill:none;stroke-width:1.5;stroke-linecap:square;stroke-linejoin:round;stroke:rgb(83.921569%,15.294118%,15.686275%);stroke-opacity:1;stroke-miterlimit:4;" d="M 52.659375 139.5 L 230.203125 139.5 " transform="matrix(1.25,0,0,1.25,0,0)"/>
<path style="fill:none;stroke-width:0.8;stroke-linecap:square;stroke-linejoin:miter;stroke:rgb(0%,0%,0%);stroke-opacity:1;stroke-miterlimit:4;" d="M 43.78125 145.8 L 43.78125 7.2 " transform="matrix(1.25,0,0,1.25,0,0)"/>
<path style="fill:none;stroke-width:0.8;stroke-linecap:square;stroke-linejoin:miter;stroke:rgb(0%,0%,0%);stroke-opacity:1;stroke-miterlimit:4;" d="M 239.08125 145.8 L 239.08125 7.2 " transform="matrix(1.25,0,0,1.25,0,0)"/>
<path style="fill:none;stroke-width:0.8;stroke-linecap:square;stroke-linejoin:miter;stroke:rgb(0%,0%,0%);stroke-opacity:1;stroke-miterlimit:4;" d="M 43.78125 145.8 L 239.08125 145.8 " transform="matrix(1.25,0,0,1.25,0,0)"/>
<path style="fill:none;stroke-width:0.8;stroke-linecap:square;stroke-linejoin:miter;stroke:rgb(0%,0%,0%);stroke-opacity:1;stroke-miterlimit:4;" d="M 43.78125 7.2 L 239.08125 7.2 " transform="matrix(1.25,0,0,1.25,0,0)"/>
</g>
</svg>
