<?xml version="1.0" encoding="UTF-8"?>
<svg xmlns="http://www.w3.org/2000/svg" xmlns:xlink="http://www.w3.org/1999/xlink" width="308pt" height="229pt" viewBox="0 0 308 229" version="1.1">
<defs>
<clipPath id="clip1">
  <path d="M 65 9 L 67 9 L 67 182.25 L 65 182.25 Z M 65 9 "/>
</clipPath>
<clipPath id="clip2">
  <path d="M 120 9 L 123 9 L 123 182.25 L 120 182.25 Z M 120 9 "/>
</clipPath>
<clipPath id="clip3">
  <path d="M 176 9 L 178 9 L 178 182.25 L 176 182.25 Z M 176 9 "/>
</clipPath>
<clipPath id="clip4">
  <path d="M 231 9 L 234 9 L 234 182.25 L 231 182.25 Z M 231 9 "/>
</clipPath>
<clipPath id="clip5">
  <path d="M 287 9 L 290 9 L 290 182.25 L 287 182.25 Z M 287 9 "/>
</clipPath>
<clipPath id="clip6">
  <path d="M 54.726562 173 L 298.851562 173 L 298.851562 176 L 54.726562 176 Z M 54.726562 173 "/>
</clipPath>
<clipPath id="clip7">
  <path d="M 54.726562 142 L 298.851562 142 L 298.851562 144 L 54.726562 144 Z M 54.726562 142 "/>
</clipPath>
<clipPath id="clip8">
  <path d="M 54.726562 110 L 298.851562 110 L 298.851562 113 L 54.726562 113 Z M 54.726562 110 "/>
</clipPath>
<clipPath id="clip9">
  <path d="M 54.726562 79 L 298.851562 79 L 298.851562 81 L 54.726562 81 Z M 54.726562 79 "/>
</clipPath>
<clipPath id="clip10">
  <path d="M 54.726562 47 L 298.851562 47 L 298.851562 50 L 54.726562 50 Z M 54.726562 47 "/>
</clipPath>
<clipPath id="clip11">
  <path d="M 54.726562 16 L 298.851562 16 L 298.851562 18 L 54.726562 18 Z M 54.726562 16 "/>
</clipPath>
</defs>
<g id="surface1">
<path style=" stroke:none;fill-rule:nonzero;fill:rgb(100%,100%,100%);fill-opacity:1;" d="M 0 229.195312 L 307.851562 229.195312 L 307.851562 0 L 0 0 Z M 0 229.195312 "/>
<path style=" stroke:none;fill-rule:nonzero;fill:rgb(100%,100%,100%);fill-opacity:1;" d="M 54.726562 182.25 L 298.851562 182.25 L 298.851562 9 L 54.726562 9 Z M 54.726562 182.25 "/>
<g clip-path="url(#clip1)" clip-rule="nonzero">
<path style="fill:none;stroke-width:0.8;stroke-linecap:square;stroke-linejoin:round;stroke:rgb(69.019608%,69.019608%,69.019608%);stroke-opacity:1;stroke-miterlimit:4;" d="M 52.659375 145.8 L 52.659375 7.2 " transform="matrix(1.25,0,0,1.25,0,0)"/>
</g>
<path style="fill:none;stroke-width:0.8;stroke-linecap:butt;stroke-linejoin:round;stroke:rgb(0%,0%,0%);stroke-opacity:1;stroke-miterlimit:4;" d="M 0.000852 0 L 0.000852 3.5 " transform="matrix(1.25,0,0,1.25,65.823154,182.25)"/>
<path style=" stroke:none;fill-rule:nonzero;fill:rgb(0%,0%,0%);fill-opacity:1;" d="M 65.820312 192.199219 C 65.183594 192.199219 64.707031 192.511719 64.386719 193.136719 C 64.070312 193.757812 63.910156 194.699219 63.910156 195.953125 C 63.910156 197.199219 64.070312 198.136719 64.386719 198.761719 C 64.707031 199.386719 65.183594 199.699219 65.820312 199.699219 C 66.457031 199.699219 66.9375 199.386719 67.257812 198.761719 C 67.578125 198.136719 67.738281 197.199219 67.738281 195.953125 C 67.738281 194.699219 67.578125 193.757812 67.257812 193.136719 C 66.9375 192.511719 66.457031 192.199219 65.820312 192.199219 Z M 65.820312 191.222656 C 66.839844 191.222656 67.621094 191.625 68.160156 192.433594 C 68.699219 193.242188 68.96875 194.414062 68.96875 195.953125 C 68.96875 197.484375 68.699219 198.65625 68.160156 199.464844 C 67.621094 200.273438 66.839844 200.675781 65.820312 200.675781 C 64.796875 200.675781 64.019531 200.273438 63.480469 199.464844 C 62.941406 198.65625 62.671875 197.484375 62.671875 195.953125 C 62.671875 194.414062 62.941406 193.242188 63.480469 192.433594 C 64.019531 191.625 64.796875 191.222656 65.820312 191.222656 Z M 65.820312 191.222656 "/>
<g clip-path="url(#clip2)" clip-rule="nonzero">
<path style="fill:none;stroke-width:0.8;stroke-linecap:square;stroke-linejoin:round;stroke:rgb(69.019608%,69.019608%,69.019608%);stroke-opacity:1;stroke-miterlimit:4;" d="M 97.15625 145.8 L 97.15625 7.2 " transform="matrix(1.25,0,0,1.25,0,0)"/>
</g>
<path style="fill:none;stroke-width:0.8;stroke-linecap:butt;stroke-linejoin:round;stroke:rgb(0%,0%,0%);stroke-opacity:1;stroke-miterlimit:4;" d="M 0.00012 0 L 0.00012 3.5 " transform="matrix(1.25,0,0,1.25,121.445163,182.25)"/>
<path style=" stroke:none;fill-rule:nonzero;fill:rgb(0%,0%,0%);fill-opacity:1;" d="M 119.019531 199.460938 L 121.03125 199.460938 L 121.03125 192.507812 L 118.839844 192.949219 L 118.839844 191.824219 L 121.019531 191.386719 L 122.253906 191.386719 L 122.253906 199.460938 L 124.265625 199.460938 L 124.265625 200.5 L 119.019531 200.5 Z M 119.019531 199.460938 "/>
<g clip-path="url(#clip3)" clip-rule="nonzero">
<path style="fill:none;stroke-width:0.8;stroke-linecap:square;stroke-linejoin:round;stroke:rgb(69.019608%,69.019608%,69.019608%);stroke-opacity:1;stroke-miterlimit:4;" d="M 141.653125 145.8 L 141.653125 7.2 " transform="matrix(1.25,0,0,1.25,0,0)"/>
</g>
<path style="fill:none;stroke-width:0.8;stroke-linecap:butt;stroke-linejoin:round;stroke:rgb(0%,0%,0%);stroke-opacity:1;stroke-miterlimit:4;" d="M -0.000613 0 L -0.000613 3.5 " transform="matrix(1.25,0,0,1.25,177.067172,182.25)"/>
<path style=" stroke:none;fill-rule:nonzero;fill:rgb(0%,0%,0%);fill-opacity:1;" d="M 175.488281 199.460938 L 179.792969 199.460938 L 179.792969 200.5 L 174.007812 200.5 L 174.007812 199.460938 C 174.472656 198.976562 175.113281 198.328125 175.917969 197.511719 C 176.726562 196.695312 177.234375 196.167969 177.441406 195.933594 C 177.835938 195.488281 178.113281 195.113281 178.269531 194.808594 C 178.425781 194.5 178.503906 194.199219 178.503906 193.902344 C 178.503906 193.417969 178.335938 193.023438 177.996094 192.71875 C 177.65625 192.410156 177.210938 192.257812 176.667969 192.257812 C 176.28125 192.257812 175.871094 192.324219 175.441406 192.460938 C 175.015625 192.59375 174.554688 192.796875 174.066406 193.070312 L 174.066406 191.824219 C 174.5625 191.625 175.027344 191.476562 175.457031 191.375 C 175.890625 191.273438 176.285156 191.222656 176.644531 191.222656 C 177.585938 191.222656 178.339844 191.457031 178.902344 191.929688 C 179.460938 192.402344 179.742188 193.03125 179.742188 193.820312 C 179.742188 194.195312 179.671875 194.550781 179.53125 194.886719 C 179.394531 195.222656 179.136719 195.617188 178.765625 196.074219 C 178.664062 196.191406 178.339844 196.53125 177.796875 197.097656 C 177.25 197.660156 176.484375 198.449219 175.488281 199.460938 Z M 175.488281 199.460938 "/>
<g clip-path="url(#clip4)" clip-rule="nonzero">
<path style="fill:none;stroke-width:0.8;stroke-linecap:square;stroke-linejoin:round;stroke:rgb(69.019608%,69.019608%,69.019608%);stroke-opacity:1;stroke-miterlimit:4;" d="M 186.15 145.8 L 186.15 7.2 " transform="matrix(1.25,0,0,1.25,0,0)"/>
</g>
<path style="fill:none;stroke-width:0.8;stroke-linecap:butt;stroke-linejoin:round;stroke:rgb(0%,0%,0%);stroke-opacity:1;stroke-miterlimit:4;" d="M -0.001345 0 L -0.001345 3.5 " transform="matrix(1.25,0,0,1.25,232.689181,182.25)"/>
<path style=" stroke:none;fill-rule:nonzero;fill:rgb(0%,0%,0%);fill-opacity:1;" d="M 233.785156 195.585938 C 234.375 195.710938 234.835938 195.972656 235.164062 196.375 C 235.496094 196.773438 235.664062 197.265625 235.664062 197.851562 C 235.664062 198.75 235.355469 199.445312 234.734375 199.9375 C 234.117188 200.429688 233.238281 200.675781 232.097656 200.675781 C 231.71875 200.675781 231.324219 200.636719 230.917969 200.5625 C 230.515625 200.488281 230.097656 200.375 229.664062 200.222656 L 229.664062 199.035156 C 230.007812 199.234375 230.378906 199.382812 230.785156 199.484375 C 231.195312 199.585938 231.621094 199.636719 232.0625 199.636719 C 232.835938 199.636719 233.425781 199.484375 233.828125 199.179688 C 234.234375 198.875 234.4375 198.433594 234.4375 197.851562 C 234.4375 197.3125 234.25 196.890625 233.871094 196.589844 C 233.496094 196.285156 232.972656 196.136719 232.300781 196.136719 L 231.238281 196.136719 L 231.238281 195.121094 L 232.351562 195.121094 C 232.957031 195.121094 233.421875 195 233.742188 194.757812 C 234.0625 194.515625 234.222656 194.167969 234.222656 193.710938 C 234.222656 193.242188 234.058594 192.886719 233.726562 192.636719 C 233.394531 192.382812 232.921875 192.257812 232.300781 192.257812 C 231.964844 192.257812 231.601562 192.296875 231.214844 192.371094 C 230.828125 192.441406 230.402344 192.554688 229.9375 192.710938 L 229.9375 191.613281 C 230.40625 191.480469 230.847656 191.382812 231.253906 191.320312 C 231.664062 191.253906 232.050781 191.222656 232.410156 191.222656 C 233.347656 191.222656 234.089844 191.433594 234.632812 191.859375 C 235.179688 192.285156 235.449219 192.859375 235.449219 193.582031 C 235.449219 194.085938 235.304688 194.515625 235.015625 194.863281 C 234.726562 195.210938 234.316406 195.449219 233.785156 195.585938 Z M 233.785156 195.585938 "/>
<g clip-path="url(#clip5)" clip-rule="nonzero">
<path style="fill:none;stroke-width:0.8;stroke-linecap:square;stroke-linejoin:round;stroke:rgb(69.019608%,69.019608%,69.019608%);stroke-opacity:1;stroke-miterlimit:4;" d="M 230.65 145.8 L 230.65 7.2 " transform="matrix(1.25,0,0,1.25,0,0)"/>
</g>
<path style="fill:none;stroke-width:0.8;stroke-linecap:butt;stroke-linejoin:round;stroke:rgb(0%,0%,0%);stroke-opacity:1;stroke-miterlimit:4;" d="M 0.001047 0 L 0.001047 3.5 " transform="matrix(1.25,0,0,1.25,288.311191,182.25)"/>
<path style=" stroke:none;fill-rule:nonzero;fill:rgb(0%,0%,0%);fill-opacity:1;" d="M 289.058594 192.460938 L 285.945312 197.324219 L 289.058594 197.324219 Z M 288.734375 191.386719 L 290.285156 191.386719 L 290.285156 197.324219 L 291.585938 197.324219 L 291.585938 198.351562 L 290.285156 198.351562 L 290.285156 200.5 L 289.058594 200.5 L 289.058594 198.351562 L 284.945312 198.351562 L 284.945312 197.160156 Z M 288.734375 191.386719 "/>
<path style=" stroke:none;fill-rule:nonzero;fill:rgb(0%,0%,0%);fill-opacity:1;" d="M 179.953125 210.761719 L 177.476562 214.085938 L 180.078125 217.597656 L 178.753906 217.597656 L 176.765625 214.910156 L 174.773438 217.597656 L 173.449219 217.597656 L 176.105469 214.019531 L 173.675781 210.761719 L 175 210.761719 L 176.8125 213.195312 L 178.625 210.761719 Z M 179.953125 210.761719 "/>
<g clip-path="url(#clip6)" clip-rule="nonzero">
<path style="fill:none;stroke-width:0.8;stroke-linecap:square;stroke-linejoin:round;stroke:rgb(69.019608%,69.019608%,69.019608%);stroke-opacity:1;stroke-miterlimit:4;" d="M 43.78125 139.5 L 239.08125 139.5 " transform="matrix(1.25,0,0,1.25,0,0)"/>
</g>
<path style="fill:none;stroke-width:0.8;stroke-linecap:butt;stroke-linejoin:round;stroke:rgb(0%,0%,0%);stroke-opacity:1;stroke-miterlimit:4;" d="M 0 0 L -3.5 0 " transform="matrix(1.25,0,0,1.25,54.726562,174.375)"/>
<path style=" stroke:none;fill-rule:nonzero;fill:rgb(0%,0%,0%);fill-opacity:1;" d="M 30.070312 170.824219 C 29.4375 170.824219 28.960938 171.136719 28.640625 171.761719 C 28.320312 172.382812 28.160156 173.324219 28.160156 174.578125 C 28.160156 175.824219 28.320312 176.761719 28.640625 177.386719 C 28.960938 178.011719 29.4375 178.324219 30.070312 178.324219 C 30.710938 178.324219 31.1875 178.011719 31.507812 177.386719 C 31.828125 176.761719 31.988281 175.824219 31.988281 174.578125 C 31.988281 173.324219 31.828125 172.382812 31.507812 171.761719 C 31.1875 171.136719 30.710938 170.824219 30.070312 170.824219 Z M 30.070312 169.847656 C 31.09375 169.847656 31.875 170.25 32.414062 171.058594 C 32.953125 171.867188 33.21875 173.039062 33.21875 174.578125 C 33.21875 176.109375 32.953125 177.28125 32.414062 178.089844 C 31.875 178.898438 31.09375 179.300781 30.070312 179.300781 C 29.050781 179.300781 28.269531 178.898438 27.730469 178.089844 C 27.191406 177.28125 26.921875 176.109375 26.921875 174.578125 C 26.921875 173.039062 27.191406 171.867188 27.730469 171.058594 C 28.269531 170.25 29.050781 169.847656 30.070312 169.847656 Z M 30.070312 169.847656 "/>
<path style=" stroke:none;fill-rule:nonzero;fill:rgb(0%,0%,0%);fill-opacity:1;" d="M 35.386719 177.574219 L 36.675781 177.574219 L 36.675781 179.125 L 35.386719 179.125 Z M 35.386719 177.574219 "/>
<path style=" stroke:none;fill-rule:nonzero;fill:rgb(0%,0%,0%);fill-opacity:1;" d="M 41.996094 170.824219 C 41.363281 170.824219 40.886719 171.136719 40.566406 171.761719 C 40.246094 172.382812 40.085938 173.324219 40.085938 174.578125 C 40.085938 175.824219 40.246094 176.761719 40.566406 177.386719 C 40.886719 178.011719 41.363281 178.324219 41.996094 178.324219 C 42.636719 178.324219 43.113281 178.011719 43.433594 177.386719 C 43.753906 176.761719 43.914062 175.824219 43.914062 174.578125 C 43.914062 173.324219 43.753906 172.382812 43.433594 171.761719 C 43.113281 171.136719 42.636719 170.824219 41.996094 170.824219 Z M 41.996094 169.847656 C 43.019531 169.847656 43.800781 170.25 44.339844 171.058594 C 44.878906 171.867188 45.148438 173.039062 45.148438 174.578125 C 45.148438 176.109375 44.878906 177.28125 44.339844 178.089844 C 43.800781 178.898438 43.019531 179.300781 41.996094 179.300781 C 40.976562 179.300781 40.195312 178.898438 39.65625 178.089844 C 39.117188 177.28125 38.847656 176.109375 38.847656 174.578125 C 38.847656 173.039062 39.117188 171.867188 39.65625 171.058594 C 40.195312 170.25 40.976562 169.847656 41.996094 169.847656 Z M 41.996094 169.847656 "/>
<g clip-path="url(#clip7)" clip-rule="nonzero">
<path style="fill:none;stroke-width:0.8;stroke-linecap:square;stroke-linejoin:round;stroke:rgb(69.019608%,69.019608%,69.019608%);stroke-opacity:1;stroke-miterlimit:4;" d="M 43.78125 114.3 L 239.08125 114.3 " transform="matrix(1.25,0,0,1.25,0,0)"/>
</g>
<path style="fill:none;stroke-width:0.8;stroke-linecap:butt;stroke-linejoin:round;stroke:rgb(0%,0%,0%);stroke-opacity:1;stroke-miterlimit:4;" d="M 0 0 L -3.5 0 " transform="matrix(1.25,0,0,1.25,54.726562,142.875)"/>
<path style=" stroke:none;fill-rule:nonzero;fill:rgb(0%,0%,0%);fill-opacity:1;" d="M 30.070312 139.324219 C 29.4375 139.324219 28.960938 139.636719 28.640625 140.261719 C 28.320312 140.882812 28.160156 141.824219 28.160156 143.078125 C 28.160156 144.324219 28.320312 145.261719 28.640625 145.886719 C 28.960938 146.511719 29.4375 146.824219 30.070312 146.824219 C 30.710938 146.824219 31.1875 146.511719 31.507812 145.886719 C 31.828125 145.261719 31.988281 144.324219 31.988281 143.078125 C 31.988281 141.824219 31.828125 140.882812 31.507812 140.261719 C 31.1875 139.636719 30.710938 139.324219 30.070312 139.324219 Z M 30.070312 138.347656 C 31.09375 138.347656 31.875 138.75 32.414062 139.558594 C 32.953125 140.367188 33.21875 141.539062 33.21875 143.078125 C 33.21875 144.609375 32.953125 145.78125 32.414062 146.589844 C 31.875 147.398438 31.09375 147.800781 30.070312 147.800781 C 29.050781 147.800781 28.269531 147.398438 27.730469 146.589844 C 27.191406 145.78125 26.921875 144.609375 26.921875 143.078125 C 26.921875 141.539062 27.191406 140.367188 27.730469 139.558594 C 28.269531 138.75 29.050781 138.347656 30.070312 138.347656 Z M 30.070312 138.347656 "/>
<path style=" stroke:none;fill-rule:nonzero;fill:rgb(0%,0%,0%);fill-opacity:1;" d="M 35.386719 146.074219 L 36.675781 146.074219 L 36.675781 147.625 L 35.386719 147.625 Z M 35.386719 146.074219 "/>
<path style=" stroke:none;fill-rule:nonzero;fill:rgb(0%,0%,0%);fill-opacity:1;" d="M 39.574219 146.585938 L 41.589844 146.585938 L 41.589844 139.632812 L 39.398438 140.074219 L 39.398438 138.949219 L 41.578125 138.511719 L 42.808594 138.511719 L 42.808594 146.585938 L 44.824219 146.585938 L 44.824219 147.625 L 39.574219 147.625 Z M 39.574219 146.585938 "/>
<g clip-path="url(#clip8)" clip-rule="nonzero">
<path style="fill:none;stroke-width:0.8;stroke-linecap:square;stroke-linejoin:round;stroke:rgb(69.019608%,69.019608%,69.019608%);stroke-opacity:1;stroke-miterlimit:4;" d="M 43.78125 89.1 L 239.08125 89.1 " transform="matrix(1.25,0,0,1.25,0,0)"/>
</g>
<path style="fill:none;stroke-width:0.8;stroke-linecap:butt;stroke-linejoin:round;stroke:rgb(0%,0%,0%);stroke-opacity:1;stroke-miterlimit:4;" d="M 0 0 L -3.5 0 " transform="matrix(1.25,0,0,1.25,54.726562,111.375)"/>
<path style=" stroke:none;fill-rule:nonzero;fill:rgb(0%,0%,0%);fill-opacity:1;" d="M 30.070312 107.824219 C 29.4375 107.824219 28.960938 108.136719 28.640625 108.761719 C 28.320312 109.382812 28.160156 110.324219 28.160156 111.578125 C 28.160156 112.824219 28.320312 113.761719 28.640625 114.386719 C 28.960938 115.011719 29.4375 115.324219 30.070312 115.324219 C 30.710938 115.324219 31.1875 115.011719 31.507812 114.386719 C 31.828125 113.761719 31.988281 112.824219 31.988281 111.578125 C 31.988281 110.324219 31.828125 109.382812 31.507812 108.761719 C 31.1875 108.136719 30.710938 107.824219 30.070312 107.824219 Z M 30.070312 106.847656 C 31.09375 106.847656 31.875 107.25 32.414062 108.058594 C 32.953125 108.867188 33.21875 110.039062 33.21875 111.578125 C 33.21875 113.109375 32.953125 114.28125 32.414062 115.089844 C 31.875 115.898438 31.09375 116.300781 30.070312 116.300781 C 29.050781 116.300781 28.269531 115.898438 27.730469 115.089844 C 27.191406 114.28125 26.921875 113.109375 26.921875 111.578125 C 26.921875 110.039062 27.191406 108.867188 27.730469 108.058594 C 28.269531 107.25 29.050781 106.847656 30.070312 106.847656 Z M 30.070312 106.847656 "/>
<path style=" stroke:none;fill-rule:nonzero;fill:rgb(0%,0%,0%);fill-opacity:1;" d="M 35.386719 114.574219 L 36.675781 114.574219 L 36.675781 116.125 L 35.386719 116.125 Z M 35.386719 114.574219 "/>
<path style=" stroke:none;fill-rule:nonzero;fill:rgb(0%,0%,0%);fill-opacity:1;" d="M 40.421875 115.085938 L 44.726562 115.085938 L 44.726562 116.125 L 38.941406 116.125 L 38.941406 115.085938 C 39.40625 114.601562 40.042969 113.953125 40.851562 113.136719 C 41.660156 112.320312 42.167969 111.792969 42.375 111.558594 C 42.769531 111.113281 43.046875 110.738281 43.203125 110.433594 C 43.359375 110.125 43.4375 109.824219 43.4375 109.527344 C 43.4375 109.042969 43.269531 108.648438 42.929688 108.34375 C 42.589844 108.035156 42.144531 107.882812 41.601562 107.882812 C 41.214844 107.882812 40.804688 107.949219 40.375 108.085938 C 39.945312 108.21875 39.488281 108.421875 39 108.695312 L 39 107.449219 C 39.496094 107.25 39.960938 107.101562 40.390625 107 C 40.824219 106.898438 41.21875 106.847656 41.578125 106.847656 C 42.519531 106.847656 43.273438 107.082031 43.835938 107.554688 C 44.394531 108.027344 44.675781 108.65625 44.675781 109.445312 C 44.675781 109.820312 44.605469 110.175781 44.464844 110.511719 C 44.324219 110.847656 44.070312 111.242188 43.699219 111.699219 C 43.597656 111.816406 43.273438 112.15625 42.730469 112.722656 C 42.183594 113.285156 41.414062 114.074219 40.421875 115.085938 Z M 40.421875 115.085938 "/>
<g clip-path="url(#clip9)" clip-rule="nonzero">
<path style="fill:none;stroke-width:0.8;stroke-linecap:square;stroke-linejoin:round;stroke:rgb(69.019608%,69.019608%,69.019608%);stroke-opacity:1;stroke-miterlimit:4;" d="M 43.78125 63.9 L 239.08125 63.9 " transform="matrix(1.25,0,0,1.25,0,0)"/>
</g>
<path style="fill:none;stroke-width:0.8;stroke-linecap:butt;stroke-linejoin:round;stroke:rgb(0%,0%,0%);stroke-opacity:1;stroke-miterlimit:4;" d="M 0 0 L -3.5 0 " transform="matrix(1.25,0,0,1.25,54.726562,79.875)"/>
<path style=" stroke:none;fill-rule:nonzero;fill:rgb(0%,0%,0%);fill-opacity:1;" d="M 30.070312 76.324219 C 29.4375 76.324219 28.960938 76.636719 28.640625 77.261719 C 28.320312 77.882812 28.160156 78.824219 28.160156 80.078125 C 28.160156 81.324219 28.320312 82.261719 28.640625 82.886719 C 28.960938 83.511719 29.4375 83.824219 30.070312 83.824219 C 30.710938 83.824219 31.1875 83.511719 31.507812 82.886719 C 31.828125 82.261719 31.988281 81.324219 31.988281 80.078125 C 31.988281 78.824219 31.828125 77.882812 31.507812 77.261719 C 31.1875 76.636719 30.710938 76.324219 30.070312 76.324219 Z M 30.070312 75.347656 C 31.09375 75.347656 31.875 75.75 32.414062 76.558594 C 32.953125 77.367188 33.21875 78.539062 33.21875 80.078125 C 33.21875 81.609375 32.953125 82.78125 32.414062 83.589844 C 31.875 84.398438 31.09375 84.800781 30.070312 84.800781 C 29.050781 84.800781 28.269531 84.398438 27.730469 83.589844 C 27.191406 82.78125 26.921875 81.609375 26.921875 80.078125 C 26.921875 78.539062 27.191406 77.367188 27.730469 76.558594 C 28.269531 75.75 29.050781 75.347656 30.070312 75.347656 Z M 30.070312 75.347656 "/>
<path style=" stroke:none;fill-rule:nonzero;fill:rgb(0%,0%,0%);fill-opacity:1;" d="M 35.386719 83.074219 L 36.675781 83.074219 L 36.675781 84.625 L 35.386719 84.625 Z M 35.386719 83.074219 "/>
<path style=" stroke:none;fill-rule:nonzero;fill:rgb(0%,0%,0%);fill-opacity:1;" d="M 43.097656 79.710938 C 43.6875 79.835938 44.144531 80.097656 44.476562 80.5 C 44.808594 80.898438 44.976562 81.390625 44.976562 81.976562 C 44.976562 82.875 44.664062 83.570312 44.046875 84.0625 C 43.429688 84.554688 42.550781 84.800781 41.410156 84.800781 C 41.027344 84.800781 40.636719 84.765625 40.230469 84.6875 C 39.824219 84.613281 39.40625 84.5 38.976562 84.347656 L 38.976562 83.160156 C 39.316406 83.359375 39.691406 83.507812 40.097656 83.609375 C 40.503906 83.710938 40.929688 83.761719 41.375 83.761719 C 42.148438 83.761719 42.734375 83.609375 43.140625 83.304688 C 43.546875 83 43.75 82.558594 43.75 81.976562 C 43.75 81.4375 43.558594 81.019531 43.183594 80.714844 C 42.808594 80.414062 42.285156 80.261719 41.613281 80.261719 L 40.550781 80.261719 L 40.550781 79.246094 L 41.664062 79.246094 C 42.269531 79.246094 42.730469 79.125 43.054688 78.882812 C 43.375 78.640625 43.535156 78.292969 43.535156 77.835938 C 43.535156 77.371094 43.371094 77.011719 43.039062 76.761719 C 42.707031 76.507812 42.230469 76.382812 41.613281 76.382812 C 41.273438 76.382812 40.914062 76.421875 40.527344 76.496094 C 40.140625 76.566406 39.714844 76.679688 39.25 76.835938 L 39.25 75.738281 C 39.71875 75.605469 40.15625 75.507812 40.566406 75.445312 C 40.976562 75.378906 41.359375 75.347656 41.722656 75.347656 C 42.660156 75.347656 43.398438 75.558594 43.945312 75.984375 C 44.488281 76.410156 44.761719 76.984375 44.761719 77.707031 C 44.761719 78.214844 44.617188 78.640625 44.328125 78.988281 C 44.039062 79.335938 43.628906 79.574219 43.097656 79.710938 Z M 43.097656 79.710938 "/>
<g clip-path="url(#clip10)" clip-rule="nonzero">
<path style="fill:none;stroke-width:0.8;stroke-linecap:square;stroke-linejoin:round;stroke:rgb(69.019608%,69.019608%,69.019608%);stroke-opacity:1;stroke-miterlimit:4;" d="M 43.78125 38.7 L 239.08125 38.7 " transform="matrix(1.25,0,0,1.25,0,0)"/>
</g>
<path style="fill:none;stroke-width:0.8;stroke-linecap:butt;stroke-linejoin:round;stroke:rgb(0%,0%,0%);stroke-opacity:1;stroke-miterlimit:4;" d="M 0 0 L -3.5 0 " transform="matrix(1.25,0,0,1.25,54.726562,48.375)"/>
<path style=" stroke:none;fill-rule:nonzero;fill:rgb(0%,0%,0%);fill-opacity:1;" d="M 30.070312 44.824219 C 29.4375 44.824219 28.960938 45.136719 28.640625 45.761719 C 28.320312 46.382812 28.160156 47.324219 28.160156 48.578125 C 28.160156 49.824219 28.320312 50.761719 28.640625 51.386719 C 28.960938 52.011719 29.4375 52.324219 30.070312 52.324219 C 30.710938 52.324219 31.1875 52.011719 31.507812 51.386719 C 31.828125 50.761719 31.988281 49.824219 31.988281 48.578125 C 31.988281 47.324219 31.828125 46.382812 31.507812 45.761719 C 31.1875 45.136719 30.710938 44.824219 30.070312 44.824219 Z M 30.070312 43.847656 C 31.09375 43.847656 31.875 44.25 32.414062 45.058594 C 32.953125 45.867188 33.21875 47.039062 33.21875 48.578125 C 33.21875 50.109375 32.953125 51.28125 32.414062 52.089844 C 31.875 52.898438 31.09375 53.300781 30.070312 53.300781 C 29.050781 53.300781 28.269531 52.898438 27.730469 52.089844 C 27.191406 51.28125 26.921875 50.109375 26.921875 48.578125 C 26.921875 47.039062 27.191406 45.867188 27.730469 45.058594 C 28.269531 44.25 29.050781 43.847656 30.070312 43.847656 Z M 30.070312 43.847656 "/>
<path style=" stroke:none;fill-rule:nonzero;fill:rgb(0%,0%,0%);fill-opacity:1;" d="M 35.386719 51.574219 L 36.675781 51.574219 L 36.675781 53.125 L 35.386719 53.125 Z M 35.386719 51.574219 "/>
<path style=" stroke:none;fill-rule:nonzero;fill:rgb(0%,0%,0%);fill-opacity:1;" d="M 42.75 45.085938 L 39.636719 49.949219 L 42.75 49.949219 Z M 42.425781 44.011719 L 43.976562 44.011719 L 43.976562 49.949219 L 45.277344 49.949219 L 45.277344 50.976562 L 43.976562 50.976562 L 43.976562 53.125 L 42.75 53.125 L 42.75 50.976562 L 38.636719 50.976562 L 38.636719 49.785156 Z M 42.425781 44.011719 "/>
<g clip-path="url(#clip11)" clip-rule="nonzero">
<path style="fill:none;stroke-width:0.8;stroke-linecap:square;stroke-linejoin:round;stroke:rgb(69.019608%,69.019608%,69.019608%);stroke-opacity:1;stroke-miterlimit:4;" d="M 43.78125 13.5 L 239.08125 13.5 " transform="matrix(1.25,0,0,1.25,0,0)"/>
</g>
<path style="fill:none;stroke-width:0.8;stroke-linecap:butt;stroke-linejoin:round;stroke:rgb(0%,0%,0%);stroke-opacity:1;stroke-miterlimit:4;" d="M 0 0 L -3.5 0 " transform="matrix(1.25,0,0,1.25,54.726562,16.875)"/>
<path style=" stroke:none;fill-rule:nonzero;fill:rgb(0%,0%,0%);fill-opacity:1;" d="M 30.070312 13.324219 C 29.4375 13.324219 28.960938 13.636719 28.640625 14.261719 C 28.320312 14.882812 28.160156 15.824219 28.160156 17.078125 C 28.160156 18.324219 28.320312 19.261719 28.640625 19.886719 C 28.960938 20.511719 29.4375 20.824219 30.070312 20.824219 C 30.710938 20.824219 31.1875 20.511719 31.507812 19.886719 C 31.828125 19.261719 31.988281 18.324219 31.988281 17.078125 C 31.988281 15.824219 31.828125 14.882812 31.507812 14.261719 C 31.1875 13.636719 30.710938 13.324219 30.070312 13.324219 Z M 30.070312 12.347656 C 31.09375 12.347656 31.875 12.75 32.414062 13.558594 C 32.953125 14.367188 33.21875 15.539062 33.21875 17.078125 C 33.21875 18.609375 32.953125 19.78125 32.414062 20.589844 C 31.875 21.398438 31.09375 21.800781 30.070312 21.800781 C 29.050781 21.800781 28.269531 21.398438 27.730469 20.589844 C 27.191406 19.78125 26.921875 18.609375 26.921875 17.078125 C 26.921875 15.539062 27.191406 14.367188 27.730469 13.558594 C 28.269531 12.75 29.050781 12.347656 30.070312 12.347656 Z M 30.070312 12.347656 "/>
<path style=" stroke:none;fill-rule:nonzero;fill:rgb(0%,0%,0%);fill-opacity:1;" d="M 35.386719 20.074219 L 36.675781 20.074219 L 36.675781 21.625 L 35.386719 21.625 Z M 35.386719 20.074219 "/>
<path style=" stroke:none;fill-rule:nonzero;fill:rgb(0%,0%,0%);fill-opacity:1;" d="M 39.375 12.511719 L 44.214844 12.511719 L 44.214844 13.550781 L 40.503906 13.550781 L 40.503906 15.78125 C 40.679688 15.722656 40.859375 15.675781 41.039062 15.644531 C 41.21875 15.617188 41.398438 15.601562 41.578125 15.601562 C 42.59375 15.601562 43.398438 15.878906 43.992188 16.4375 C 44.585938 16.992188 44.886719 17.75 44.886719 18.699219 C 44.886719 19.679688 44.578125 20.441406 43.96875 20.988281 C 43.359375 21.53125 42.496094 21.800781 41.386719 21.800781 C 41.003906 21.800781 40.613281 21.769531 40.21875 21.703125 C 39.820312 21.640625 39.410156 21.542969 38.988281 21.410156 L 38.988281 20.171875 C 39.355469 20.371094 39.734375 20.519531 40.125 20.617188 C 40.515625 20.714844 40.925781 20.761719 41.363281 20.761719 C 42.066406 20.761719 42.625 20.578125 43.035156 20.207031 C 43.445312 19.839844 43.652344 19.335938 43.652344 18.699219 C 43.652344 18.066406 43.445312 17.5625 43.035156 17.195312 C 42.625 16.824219 42.066406 16.636719 41.363281 16.636719 C 41.03125 16.636719 40.703125 16.675781 40.375 16.746094 C 40.046875 16.820312 39.714844 16.933594 39.375 17.089844 Z M 39.375 12.511719 "/>
<path style=" stroke:none;fill-rule:nonzero;fill:rgb(0%,0%,0%);fill-opacity:1;" d="M 17.472656 109.003906 L 21.097656 109.003906 L 21.097656 110.132812 L 11.660156 110.132812 L 11.660156 109.003906 L 12.699219 109.003906 C 12.292969 108.765625 11.992188 108.46875 11.792969 108.109375 C 11.597656 107.746094 11.496094 107.316406 11.496094 106.816406 C 11.496094 105.988281 11.828125 105.3125 12.484375 104.792969 C 13.144531 104.273438 14.011719 104.015625 15.085938 104.015625 C 16.160156 104.015625 17.027344 104.273438 17.6875 104.792969 C 18.347656 105.3125 18.675781 105.988281 18.675781 106.816406 C 18.675781 107.316406 18.578125 107.746094 18.378906 108.109375 C 18.179688 108.46875 17.878906 108.765625 17.472656 109.003906 Z M 15.085938 105.179688 C 14.261719 105.179688 13.613281 105.351562 13.140625 105.691406 C 12.671875 106.03125 12.4375 106.496094 12.4375 107.089844 C 12.4375 107.6875 12.671875 108.152344 13.140625 108.492188 C 13.613281 108.832031 14.261719 109.003906 15.085938 109.003906 C 15.910156 109.003906 16.558594 108.832031 17.027344 108.492188 C 17.5 108.152344 17.734375 107.6875 17.734375 107.089844 C 17.734375 106.496094 17.5 106.03125 17.027344 105.691406 C 16.558594 105.351562 15.910156 105.179688 15.085938 105.179688 Z M 15.085938 105.179688 "/>
<path style=" stroke:none;fill-rule:nonzero;fill:rgb(0%,0%,0%);fill-opacity:1;" d="M 16.945312 101.996094 L 16.945312 100.707031 L 18.496094 100.707031 L 18.496094 101.996094 Z M 16.945312 101.996094 "/>
<path style=" stroke:none;fill-rule:nonzero;fill:rgb(0%,0%,0%);fill-opacity:1;" d="M 12.699219 93.683594 L 9 93.683594 L 9 92.558594 L 18.496094 92.558594 L 18.496094 93.683594 L 17.472656 93.683594 C 17.878906 93.917969 18.179688 94.214844 18.378906 94.578125 C 18.578125 94.9375 18.675781 95.367188 18.675781 95.875 C 18.675781 96.699219 18.347656 97.371094 17.6875 97.890625 C 17.027344 98.410156 16.160156 98.667969 15.085938 98.667969 C 14.011719 98.667969 13.144531 98.410156 12.484375 97.890625 C 11.828125 97.371094 11.496094 96.699219 11.496094 95.875 C 11.496094 95.367188 11.597656 94.9375 11.792969 94.578125 C 11.992188 94.214844 12.292969 93.917969 12.699219 93.683594 Z M 15.085938 97.507812 C 15.910156 97.507812 16.558594 97.339844 17.027344 97 C 17.5 96.660156 17.734375 96.191406 17.734375 95.597656 C 17.734375 95.003906 17.5 94.539062 17.027344 94.195312 C 16.558594 93.855469 15.910156 93.683594 15.085938 93.683594 C 14.261719 93.683594 13.613281 93.855469 13.140625 94.195312 C 12.671875 94.539062 12.4375 95.003906 12.4375 95.597656 C 12.4375 96.191406 12.671875 96.660156 13.140625 97 C 13.613281 97.339844 14.261719 97.507812 15.085938 97.507812 Z M 15.085938 97.507812 "/>
<path style=" stroke:none;fill-rule:nonzero;fill:rgb(0%,0%,0%);fill-opacity:1;" d="M 16.945312 90.089844 L 16.945312 88.800781 L 18.496094 88.800781 L 18.496094 90.089844 Z M 16.945312 90.089844 "/>
<path style=" stroke:none;fill-rule:nonzero;fill:rgb(0%,0%,0%);fill-opacity:1;" d="M 9 82.8125 L 9.933594 82.8125 L 9.933594 83.886719 C 9.933594 84.289062 10.015625 84.570312 10.179688 84.726562 C 10.34375 84.882812 10.636719 84.960938 11.058594 84.960938 L 11.660156 84.960938 L 11.660156 83.109375 L 12.535156 83.109375 L 12.535156 84.960938 L 18.496094 84.960938 L 18.496094 86.089844 L 12.535156 86.089844 L 12.535156 87.164062 L 11.660156 87.164062 L 11.660156 86.089844 L 11.183594 86.089844 C 10.425781 86.089844 9.871094 85.914062 9.523438 85.558594 C 9.175781 85.203125 9 84.644531 9 83.875 Z M 9 82.8125 "/>
<path style=" stroke:none;fill-rule:nonzero;fill:rgb(0%,0%,0%);fill-opacity:1;" d="M 16.945312 82.621094 L 16.945312 81.332031 L 18.496094 81.332031 L 18.496094 82.621094 Z M 16.945312 82.621094 "/>
<path style="fill:none;stroke-width:1.5;stroke-linecap:square;stroke-linejoin:round;stroke:rgb(12.156863%,46.666667%,70.588235%);stroke-opacity:1;stroke-miterlimit:4;" d="M 52.659375 139.5 L 97.15625 139.5 L 97.6 13.5 L 185.70625 13.5 L 186.15 139.5 L 230.203125 139.5 " transform="matrix(1.25,0,0,1.25,0,0)"/>
<path style="fill:none;stroke-width:0.8;stroke-linecap:square;stroke-linejoin:miter;stroke:rgb(0%,0%,0%);stroke-opacity:1;stroke-miterlimit:4;" d="M 43.78125 145.8 L 43.78125 7.2 " transform="matrix(1.25,0,0,1.25,0,0)"/>
<path style="fill:none;stroke-width:0.8;stroke-linecap:square;stroke-linejoin:miter;stroke:rgb(0%,0%,0%);stroke-opacity:1;stroke-miterlimit:4;" d="M 239.08125 145.8 L 239.08125 7.2 " transform="matrix(1.25,0,0,1.25,0,0)"/>
<path style="fill:none;stroke-width:0.8;stroke-linecap:square;stroke-linejoin:miter;stroke:rgb(0%,0%,0%);stroke-opacity:1;stroke-miterlimit:4;" d="M 43.78125 145.8 L 239.08125 145.8 " transform="matrix(1.25,0,0,1.25,0,0)"/>
<path style="fill:none;stroke-width:0.8;stroke-linecap:square;stroke-linejoin:miter;stroke:rgb(0%,0%,0%);stroke-opacity:1;stroke-miterlimit:4;" d="M 43.78125 7.2 L 239.08125 7.2 " transform="matrix(1.25,0,0,1.25,0,0)"/>
</g>
</svg>
