<?xml version="1.0" encoding="UTF-8"?>
<svg xmlns="http://www.w3.org/2000/svg" xmlns:xlink="http://www.w3.org/1999/xlink" width="308pt" height="229pt" viewBox="0 0 308 229" version="1.1">
<g id="surface1">
<path style=" stroke:none;fill-rule:nonzero;fill:rgb(100%,100%,100%);fill-opacity:1;" d="M 0 229.195312 L 307.851562 229.195312 L 307.851562 0 L 0 0 Z M 0 229.195312 "/>
<path style=" stroke:none;fill-rule:nonzero;fill:rgb(100%,100%,100%);fill-opacity:1;" d="M 54.726562 182.25 L 298.851562 182.25 L 298.851562 9 L 54.726562 9 Z M 54.726562 182.25 "/>
<path style="fill:none;stroke-width:0.8;stroke-linecap:butt;stroke-linejoin:round;stroke:rgb(0%,0%,0%);stroke-opacity:1;stroke-miterlimit:4;" d="M 0.000852 0 L 0.000852 3.5 " transform="matrix(1.25,0,0,1.25,65.823154,182.25)"/>
<path style=" stroke:none;fill-rule:nonzero;fill:rgb(0%,0%,0%);fill-opacity:1;" d="M 59.855469 192.199219 C 59.222656 192.199219 58.746094 192.511719 58.425781 193.136719 C 58.105469 193.757812 57.945312 194.699219 57.945312 195.953125 C 57.945312 197.199219 58.105469 198.136719 58.425781 198.761719 C 58.746094 199.386719 59.222656 199.699219 59.855469 199.699219 C 60.496094 199.699219 60.976562 199.386719 61.292969 198.761719 C 61.613281 198.136719 61.773438 197.199219 61.773438 195.953125 C 61.773438 194.699219 61.613281 193.757812 61.292969 193.136719 C 60.976562 192.511719 60.496094 192.199219 59.855469 192.199219 Z M 59.855469 191.222656 C 60.878906 191.222656 61.660156 191.625 62.199219 192.433594 C 62.738281 193.242188 63.007812 194.414062 63.007812 195.953125 C 63.007812 197.484375 62.738281 198.65625 62.199219 199.464844 C 61.660156 200.273438 60.878906 200.675781 59.855469 200.675781 C 58.835938 200.675781 58.054688 200.273438 57.515625 199.464844 C 56.976562 198.65625 56.707031 197.484375 56.707031 195.953125 C 56.707031 194.414062 56.976562 193.242188 57.515625 192.433594 C 58.054688 191.625 58.835938 191.222656 59.855469 191.222656 Z M 59.855469 191.222656 "/>
<path style=" stroke:none;fill-rule:nonzero;fill:rgb(0%,0%,0%);fill-opacity:1;" d="M 65.171875 198.949219 L 66.460938 198.949219 L 66.460938 200.5 L 65.171875 200.5 Z M 65.171875 198.949219 "/>
<path style=" stroke:none;fill-rule:nonzero;fill:rgb(0%,0%,0%);fill-opacity:1;" d="M 71.78125 192.199219 C 71.148438 192.199219 70.671875 192.511719 70.351562 193.136719 C 70.03125 193.757812 69.871094 194.699219 69.871094 195.953125 C 69.871094 197.199219 70.03125 198.136719 70.351562 198.761719 C 70.671875 199.386719 71.148438 199.699219 71.78125 199.699219 C 72.421875 199.699219 72.902344 199.386719 73.21875 198.761719 C 73.539062 198.136719 73.699219 197.199219 73.699219 195.953125 C 73.699219 194.699219 73.539062 193.757812 73.21875 193.136719 C 72.902344 192.511719 72.421875 192.199219 71.78125 192.199219 Z M 71.78125 191.222656 C 72.804688 191.222656 73.585938 191.625 74.125 192.433594 C 74.664062 193.242188 74.933594 194.414062 74.933594 195.953125 C 74.933594 197.484375 74.664062 198.65625 74.125 199.464844 C 73.585938 200.273438 72.804688 200.675781 71.78125 200.675781 C 70.761719 200.675781 69.980469 200.273438 69.441406 199.464844 C 68.902344 198.65625 68.632812 197.484375 68.632812 195.953125 C 68.632812 194.414062 68.902344 193.242188 69.441406 192.433594 C 69.980469 191.625 70.761719 191.222656 71.78125 191.222656 Z M 71.78125 191.222656 "/>
<path style="fill:none;stroke-width:0.8;stroke-linecap:butt;stroke-linejoin:round;stroke:rgb(0%,0%,0%);stroke-opacity:1;stroke-miterlimit:4;" d="M 0.001136 0 L 0.001136 3.5 " transform="matrix(1.25,0,0,1.25,110.209518,182.25)"/>
<path style=" stroke:none;fill-rule:nonzero;fill:rgb(0%,0%,0%);fill-opacity:1;" d="M 104.242188 192.199219 C 103.609375 192.199219 103.132812 192.511719 102.8125 193.136719 C 102.492188 193.757812 102.332031 194.699219 102.332031 195.953125 C 102.332031 197.199219 102.492188 198.136719 102.8125 198.761719 C 103.132812 199.386719 103.609375 199.699219 104.242188 199.699219 C 104.882812 199.699219 105.359375 199.386719 105.679688 198.761719 C 106 198.136719 106.160156 197.199219 106.160156 195.953125 C 106.160156 194.699219 106 193.757812 105.679688 193.136719 C 105.359375 192.511719 104.882812 192.199219 104.242188 192.199219 Z M 104.242188 191.222656 C 105.265625 191.222656 106.046875 191.625 106.585938 192.433594 C 107.125 193.242188 107.394531 194.414062 107.394531 195.953125 C 107.394531 197.484375 107.125 198.65625 106.585938 199.464844 C 106.046875 200.273438 105.265625 200.675781 104.242188 200.675781 C 103.222656 200.675781 102.441406 200.273438 101.902344 199.464844 C 101.363281 198.65625 101.09375 197.484375 101.09375 195.953125 C 101.09375 194.414062 101.363281 193.242188 101.902344 192.433594 C 102.441406 191.625 103.222656 191.222656 104.242188 191.222656 Z M 104.242188 191.222656 "/>
<path style=" stroke:none;fill-rule:nonzero;fill:rgb(0%,0%,0%);fill-opacity:1;" d="M 109.558594 198.949219 L 110.847656 198.949219 L 110.847656 200.5 L 109.558594 200.5 Z M 109.558594 198.949219 "/>
<path style=" stroke:none;fill-rule:nonzero;fill:rgb(0%,0%,0%);fill-opacity:1;" d="M 114.59375 199.460938 L 118.898438 199.460938 L 118.898438 200.5 L 113.113281 200.5 L 113.113281 199.460938 C 113.578125 198.976562 114.21875 198.328125 115.023438 197.511719 C 115.832031 196.695312 116.339844 196.167969 116.546875 195.933594 C 116.941406 195.488281 117.21875 195.113281 117.375 194.808594 C 117.53125 194.5 117.609375 194.199219 117.609375 193.902344 C 117.609375 193.417969 117.441406 193.023438 117.101562 192.71875 C 116.761719 192.410156 116.316406 192.257812 115.773438 192.257812 C 115.386719 192.257812 114.976562 192.324219 114.546875 192.460938 C 114.121094 192.59375 113.660156 192.796875 113.171875 193.070312 L 113.171875 191.824219 C 113.667969 191.625 114.132812 191.476562 114.5625 191.375 C 114.996094 191.273438 115.390625 191.222656 115.75 191.222656 C 116.691406 191.222656 117.445312 191.457031 118.007812 191.929688 C 118.566406 192.402344 118.847656 193.03125 118.847656 193.820312 C 118.847656 194.195312 118.777344 194.550781 118.636719 194.886719 C 118.5 195.222656 118.242188 195.617188 117.871094 196.074219 C 117.769531 196.191406 117.445312 196.53125 116.902344 197.097656 C 116.355469 197.660156 115.589844 198.449219 114.59375 199.460938 Z M 114.59375 199.460938 "/>
<path style="fill:none;stroke-width:0.8;stroke-linecap:butt;stroke-linejoin:round;stroke:rgb(0%,0%,0%);stroke-opacity:1;stroke-miterlimit:4;" d="M 0.00142 0 L 0.00142 3.5 " transform="matrix(1.25,0,0,1.25,154.595881,182.25)"/>
<path style=" stroke:none;fill-rule:nonzero;fill:rgb(0%,0%,0%);fill-opacity:1;" d="M 148.628906 192.199219 C 147.996094 192.199219 147.519531 192.511719 147.199219 193.136719 C 146.878906 193.757812 146.71875 194.699219 146.71875 195.953125 C 146.71875 197.199219 146.878906 198.136719 147.199219 198.761719 C 147.519531 199.386719 147.996094 199.699219 148.628906 199.699219 C 149.269531 199.699219 149.746094 199.386719 150.066406 198.761719 C 150.386719 198.136719 150.546875 197.199219 150.546875 195.953125 C 150.546875 194.699219 150.386719 193.757812 150.066406 193.136719 C 149.746094 192.511719 149.269531 192.199219 148.628906 192.199219 Z M 148.628906 191.222656 C 149.652344 191.222656 150.433594 191.625 150.972656 192.433594 C 151.511719 193.242188 151.78125 194.414062 151.78125 195.953125 C 151.78125 197.484375 151.511719 198.65625 150.972656 199.464844 C 150.433594 200.273438 149.652344 200.675781 148.628906 200.675781 C 147.609375 200.675781 146.828125 200.273438 146.289062 199.464844 C 145.75 198.65625 145.480469 197.484375 145.480469 195.953125 C 145.480469 194.414062 145.75 193.242188 146.289062 192.433594 C 146.828125 191.625 147.609375 191.222656 148.628906 191.222656 Z M 148.628906 191.222656 "/>
<path style=" stroke:none;fill-rule:nonzero;fill:rgb(0%,0%,0%);fill-opacity:1;" d="M 153.945312 198.949219 L 155.234375 198.949219 L 155.234375 200.5 L 153.945312 200.5 Z M 153.945312 198.949219 "/>
<path style=" stroke:none;fill-rule:nonzero;fill:rgb(0%,0%,0%);fill-opacity:1;" d="M 161.308594 192.460938 L 158.195312 197.324219 L 161.308594 197.324219 Z M 160.984375 191.386719 L 162.535156 191.386719 L 162.535156 197.324219 L 163.835938 197.324219 L 163.835938 198.351562 L 162.535156 198.351562 L 162.535156 200.5 L 161.308594 200.5 L 161.308594 198.351562 L 157.195312 198.351562 L 157.195312 197.160156 Z M 160.984375 191.386719 "/>
<path style="fill:none;stroke-width:0.8;stroke-linecap:butt;stroke-linejoin:round;stroke:rgb(0%,0%,0%);stroke-opacity:1;stroke-miterlimit:4;" d="M -0.00142 0 L -0.00142 3.5 " transform="matrix(1.25,0,0,1.25,198.982244,182.25)"/>
<path style=" stroke:none;fill-rule:nonzero;fill:rgb(0%,0%,0%);fill-opacity:1;" d="M 193.015625 192.199219 C 192.382812 192.199219 191.902344 192.511719 191.582031 193.136719 C 191.265625 193.757812 191.105469 194.699219 191.105469 195.953125 C 191.105469 197.199219 191.265625 198.136719 191.582031 198.761719 C 191.902344 199.386719 192.382812 199.699219 193.015625 199.699219 C 193.65625 199.699219 194.132812 199.386719 194.453125 198.761719 C 194.773438 198.136719 194.933594 197.199219 194.933594 195.953125 C 194.933594 194.699219 194.773438 193.757812 194.453125 193.136719 C 194.132812 192.511719 193.65625 192.199219 193.015625 192.199219 Z M 193.015625 191.222656 C 194.039062 191.222656 194.816406 191.625 195.355469 192.433594 C 195.894531 193.242188 196.164062 194.414062 196.164062 195.953125 C 196.164062 197.484375 195.894531 198.65625 195.355469 199.464844 C 194.816406 200.273438 194.039062 200.675781 193.015625 200.675781 C 191.996094 200.675781 191.214844 200.273438 190.675781 199.464844 C 190.136719 198.65625 189.867188 197.484375 189.867188 195.953125 C 189.867188 194.414062 190.136719 193.242188 190.675781 192.433594 C 191.214844 191.625 191.996094 191.222656 193.015625 191.222656 Z M 193.015625 191.222656 "/>
<path style=" stroke:none;fill-rule:nonzero;fill:rgb(0%,0%,0%);fill-opacity:1;" d="M 198.332031 198.949219 L 199.621094 198.949219 L 199.621094 200.5 L 198.332031 200.5 Z M 198.332031 198.949219 "/>
<path style=" stroke:none;fill-rule:nonzero;fill:rgb(0%,0%,0%);fill-opacity:1;" d="M 205.097656 195.453125 C 204.542969 195.453125 204.105469 195.640625 203.78125 196.019531 C 203.457031 196.398438 203.296875 196.914062 203.296875 197.574219 C 203.296875 198.230469 203.457031 198.746094 203.78125 199.128906 C 204.105469 199.507812 204.542969 199.699219 205.097656 199.699219 C 205.648438 199.699219 206.085938 199.507812 206.410156 199.128906 C 206.734375 198.746094 206.894531 198.230469 206.894531 197.574219 C 206.894531 196.914062 206.734375 196.398438 206.410156 196.019531 C 206.085938 195.640625 205.648438 195.453125 205.097656 195.453125 Z M 207.542969 191.585938 L 207.542969 192.710938 C 207.234375 192.5625 206.921875 192.453125 206.605469 192.375 C 206.289062 192.296875 205.976562 192.257812 205.667969 192.257812 C 204.855469 192.257812 204.234375 192.53125 203.804688 193.082031 C 203.375 193.632812 203.128906 194.460938 203.070312 195.574219 C 203.308594 195.21875 203.609375 194.945312 203.972656 194.757812 C 204.335938 194.570312 204.734375 194.476562 205.167969 194.476562 C 206.082031 194.476562 206.808594 194.753906 207.339844 195.308594 C 207.871094 195.863281 208.136719 196.617188 208.136719 197.574219 C 208.136719 198.511719 207.859375 199.261719 207.304688 199.828125 C 206.75 200.394531 206.015625 200.675781 205.097656 200.675781 C 204.042969 200.675781 203.234375 200.273438 202.679688 199.464844 C 202.121094 198.65625 201.84375 197.484375 201.84375 195.953125 C 201.84375 194.511719 202.183594 193.363281 202.867188 192.507812 C 203.550781 191.648438 204.46875 191.222656 205.621094 191.222656 C 205.929688 191.222656 206.242188 191.25 206.558594 191.3125 C 206.871094 191.375 207.199219 191.464844 207.542969 191.585938 Z M 207.542969 191.585938 "/>
<path style="fill:none;stroke-width:0.8;stroke-linecap:butt;stroke-linejoin:round;stroke:rgb(0%,0%,0%);stroke-opacity:1;stroke-miterlimit:4;" d="M -0.001136 0 L -0.001136 3.5 " transform="matrix(1.25,0,0,1.25,243.368607,182.25)"/>
<path style=" stroke:none;fill-rule:nonzero;fill:rgb(0%,0%,0%);fill-opacity:1;" d="M 237.402344 192.199219 C 236.769531 192.199219 236.289062 192.511719 235.96875 193.136719 C 235.652344 193.757812 235.492188 194.699219 235.492188 195.953125 C 235.492188 197.199219 235.652344 198.136719 235.96875 198.761719 C 236.289062 199.386719 236.769531 199.699219 237.402344 199.699219 C 238.042969 199.699219 238.519531 199.386719 238.839844 198.761719 C 239.160156 198.136719 239.320312 197.199219 239.320312 195.953125 C 239.320312 194.699219 239.160156 193.757812 238.839844 193.136719 C 238.519531 192.511719 238.042969 192.199219 237.402344 192.199219 Z M 237.402344 191.222656 C 238.425781 191.222656 239.203125 191.625 239.742188 192.433594 C 240.28125 193.242188 240.550781 194.414062 240.550781 195.953125 C 240.550781 197.484375 240.28125 198.65625 239.742188 199.464844 C 239.203125 200.273438 238.425781 200.675781 237.402344 200.675781 C 236.382812 200.675781 235.601562 200.273438 235.0625 199.464844 C 234.523438 198.65625 234.253906 197.484375 234.253906 195.953125 C 234.253906 194.414062 234.523438 193.242188 235.0625 192.433594 C 235.601562 191.625 236.382812 191.222656 237.402344 191.222656 Z M 237.402344 191.222656 "/>
<path style=" stroke:none;fill-rule:nonzero;fill:rgb(0%,0%,0%);fill-opacity:1;" d="M 242.71875 198.949219 L 244.007812 198.949219 L 244.007812 200.5 L 242.71875 200.5 Z M 242.71875 198.949219 "/>
<path style=" stroke:none;fill-rule:nonzero;fill:rgb(0%,0%,0%);fill-opacity:1;" d="M 249.328125 196.171875 C 248.742188 196.171875 248.28125 196.328125 247.945312 196.640625 C 247.609375 196.953125 247.441406 197.386719 247.441406 197.933594 C 247.441406 198.484375 247.609375 198.914062 247.945312 199.230469 C 248.28125 199.542969 248.742188 199.699219 249.328125 199.699219 C 249.914062 199.699219 250.375 199.542969 250.710938 199.226562 C 251.050781 198.910156 251.21875 198.480469 251.21875 197.933594 C 251.21875 197.386719 251.050781 196.953125 250.714844 196.640625 C 250.382812 196.328125 249.917969 196.171875 249.328125 196.171875 Z M 248.09375 195.648438 C 247.566406 195.515625 247.15625 195.269531 246.859375 194.910156 C 246.566406 194.546875 246.417969 194.101562 246.417969 193.582031 C 246.417969 192.855469 246.675781 192.277344 247.195312 191.855469 C 247.714844 191.433594 248.425781 191.222656 249.328125 191.222656 C 250.234375 191.222656 250.949219 191.433594 251.464844 191.855469 C 251.980469 192.277344 252.238281 192.855469 252.238281 193.582031 C 252.238281 194.101562 252.09375 194.546875 251.796875 194.910156 C 251.503906 195.269531 251.09375 195.515625 250.566406 195.648438 C 251.160156 195.785156 251.625 196.054688 251.953125 196.460938 C 252.285156 196.863281 252.453125 197.351562 252.453125 197.933594 C 252.453125 198.816406 252.183594 199.496094 251.644531 199.96875 C 251.105469 200.441406 250.332031 200.675781 249.328125 200.675781 C 248.324219 200.675781 247.550781 200.441406 247.011719 199.96875 C 246.472656 199.496094 246.203125 198.816406 246.203125 197.933594 C 246.203125 197.351562 246.371094 196.863281 246.703125 196.460938 C 247.039062 196.054688 247.5 195.785156 248.09375 195.648438 Z M 247.644531 193.699219 C 247.644531 194.171875 247.792969 194.539062 248.085938 194.804688 C 248.382812 195.066406 248.796875 195.199219 249.328125 195.199219 C 249.859375 195.199219 250.273438 195.066406 250.570312 194.804688 C 250.871094 194.539062 251.019531 194.171875 251.019531 193.699219 C 251.019531 193.226562 250.871094 192.859375 250.570312 192.59375 C 250.273438 192.328125 249.859375 192.199219 249.328125 192.199219 C 248.796875 192.199219 248.382812 192.328125 248.085938 192.59375 C 247.792969 192.859375 247.644531 193.226562 247.644531 193.699219 Z M 247.644531 193.699219 "/>
<path style="fill:none;stroke-width:0.8;stroke-linecap:butt;stroke-linejoin:round;stroke:rgb(0%,0%,0%);stroke-opacity:1;stroke-miterlimit:4;" d="M -0.000852 0 L -0.000852 3.5 " transform="matrix(1.25,0,0,1.25,287.754971,182.25)"/>
<path style=" stroke:none;fill-rule:nonzero;fill:rgb(0%,0%,0%);fill-opacity:1;" d="M 279.367188 199.460938 L 281.378906 199.460938 L 281.378906 192.507812 L 279.1875 192.949219 L 279.1875 191.824219 L 281.367188 191.386719 L 282.601562 191.386719 L 282.601562 199.460938 L 284.613281 199.460938 L 284.613281 200.5 L 279.367188 200.5 Z M 279.367188 199.460938 "/>
<path style=" stroke:none;fill-rule:nonzero;fill:rgb(0%,0%,0%);fill-opacity:1;" d="M 287.105469 198.949219 L 288.394531 198.949219 L 288.394531 200.5 L 287.105469 200.5 Z M 287.105469 198.949219 "/>
<path style=" stroke:none;fill-rule:nonzero;fill:rgb(0%,0%,0%);fill-opacity:1;" d="M 293.714844 192.199219 C 293.082031 192.199219 292.601562 192.511719 292.28125 193.136719 C 291.964844 193.757812 291.804688 194.699219 291.804688 195.953125 C 291.804688 197.199219 291.964844 198.136719 292.28125 198.761719 C 292.601562 199.386719 293.082031 199.699219 293.714844 199.699219 C 294.355469 199.699219 294.832031 199.386719 295.152344 198.761719 C 295.472656 198.136719 295.632812 197.199219 295.632812 195.953125 C 295.632812 194.699219 295.472656 193.757812 295.152344 193.136719 C 294.832031 192.511719 294.355469 192.199219 293.714844 192.199219 Z M 293.714844 191.222656 C 294.738281 191.222656 295.515625 191.625 296.054688 192.433594 C 296.59375 193.242188 296.863281 194.414062 296.863281 195.953125 C 296.863281 197.484375 296.59375 198.65625 296.054688 199.464844 C 295.515625 200.273438 294.738281 200.675781 293.714844 200.675781 C 292.695312 200.675781 291.914062 200.273438 291.375 199.464844 C 290.835938 198.65625 290.566406 197.484375 290.566406 195.953125 C 290.566406 194.414062 290.835938 193.242188 291.375 192.433594 C 291.914062 191.625 292.695312 191.222656 293.714844 191.222656 Z M 293.714844 191.222656 "/>
<path style=" stroke:none;fill-rule:nonzero;fill:rgb(0%,0%,0%);fill-opacity:1;" d="M 179.953125 210.761719 L 177.476562 214.085938 L 180.078125 217.597656 L 178.753906 217.597656 L 176.765625 214.910156 L 174.773438 217.597656 L 173.449219 217.597656 L 176.105469 214.019531 L 173.675781 210.761719 L 175 210.761719 L 176.8125 213.195312 L 178.625 210.761719 Z M 179.953125 210.761719 "/>
<path style="fill:none;stroke-width:0.8;stroke-linecap:butt;stroke-linejoin:round;stroke:rgb(0%,0%,0%);stroke-opacity:1;stroke-miterlimit:4;" d="M 0 0 L -3.5 0 " transform="matrix(1.25,0,0,1.25,54.726562,174.375)"/>
<path style=" stroke:none;fill-rule:nonzero;fill:rgb(0%,0%,0%);fill-opacity:1;" d="M 30.070312 170.824219 C 29.4375 170.824219 28.960938 171.136719 28.640625 171.761719 C 28.320312 172.382812 28.160156 173.324219 28.160156 174.578125 C 28.160156 175.824219 28.320312 176.761719 28.640625 177.386719 C 28.960938 178.011719 29.4375 178.324219 30.070312 178.324219 C 30.710938 178.324219 31.1875 178.011719 31.507812 177.386719 C 31.828125 176.761719 31.988281 175.824219 31.988281 174.578125 C 31.988281 173.324219 31.828125 172.382812 31.507812 171.761719 C 31.1875 171.136719 30.710938 170.824219 30.070312 170.824219 Z M 30.070312 169.847656 C 31.09375 169.847656 31.875 170.25 32.414062 171.058594 C 32.953125 171.867188 33.21875 173.039062 33.21875 174.578125 C 33.21875 176.109375 32.953125 177.28125 32.414062 178.089844 C 31.875 178.898438 31.09375 179.300781 30.070312 179.300781 C 29.050781 179.300781 28.269531 178.898438 27.730469 178.089844 C 27.191406 177.28125 26.921875 176.109375 26.921875 174.578125 C 26.921875 173.039062 27.191406 171.867188 27.730469 171.058594 C 28.269531 170.25 29.050781 169.847656 30.070312 169.847656 Z M 30.070312 169.847656 "/>
<path style=" stroke:none;fill-rule:nonzero;fill:rgb(0%,0%,0%);fill-opacity:1;" d="M 35.386719 177.574219 L 36.675781 177.574219 L 36.675781 179.125 L 35.386719 179.125 Z M 35.386719 177.574219 "/>
<path style=" stroke:none;fill-rule:nonzero;fill:rgb(0%,0%,0%);fill-opacity:1;" d="M 41.996094 170.824219 C 41.363281 170.824219 40.886719 171.136719 40.566406 171.761719 C 40.246094 172.382812 40.085938 173.324219 40.085938 174.578125 C 40.085938 175.824219 40.246094 176.761719 40.566406 177.386719 C 40.886719 178.011719 41.363281 178.324219 41.996094 178.324219 C 42.636719 178.324219 43.113281 178.011719 43.433594 177.386719 C 43.753906 176.761719 43.914062 175.824219 43.914062 174.578125 C 43.914062 173.324219 43.753906 172.382812 43.433594 171.761719 C 43.113281 171.136719 42.636719 170.824219 41.996094 170.824219 Z M 41.996094 169.847656 C 43.019531 169.847656 43.800781 170.25 44.339844 171.058594 C 44.878906 171.867188 45.148438 173.039062 45.148438 174.578125 C 45.148438 176.109375 44.878906 177.28125 44.339844 178.089844 C 43.800781 178.898438 43.019531 179.300781 41.996094 179.300781 C 40.976562 179.300781 40.195312 178.898438 39.65625 178.089844 C 39.117188 177.28125 38.847656 176.109375 38.847656 174.578125 C 38.847656 173.039062 39.117188 171.867188 39.65625 171.058594 C 40.195312 170.25 40.976562 169.847656 41.996094 169.847656 Z M 41.996094 169.847656 "/>
<path style="fill:none;stroke-width:0.8;stroke-linecap:butt;stroke-linejoin:round;stroke:rgb(0%,0%,0%);stroke-opacity:1;stroke-miterlimit:4;" d="M 0 0 L -3.5 0 " transform="matrix(1.25,0,0,1.25,54.726562,129.375)"/>
<path style=" stroke:none;fill-rule:nonzero;fill:rgb(0%,0%,0%);fill-opacity:1;" d="M 30.070312 125.824219 C 29.4375 125.824219 28.960938 126.136719 28.640625 126.761719 C 28.320312 127.382812 28.160156 128.324219 28.160156 129.578125 C 28.160156 130.824219 28.320312 131.761719 28.640625 132.386719 C 28.960938 133.011719 29.4375 133.324219 30.070312 133.324219 C 30.710938 133.324219 31.1875 133.011719 31.507812 132.386719 C 31.828125 131.761719 31.988281 130.824219 31.988281 129.578125 C 31.988281 128.324219 31.828125 127.382812 31.507812 126.761719 C 31.1875 126.136719 30.710938 125.824219 30.070312 125.824219 Z M 30.070312 124.847656 C 31.09375 124.847656 31.875 125.25 32.414062 126.058594 C 32.953125 126.867188 33.21875 128.039062 33.21875 129.578125 C 33.21875 131.109375 32.953125 132.28125 32.414062 133.089844 C 31.875 133.898438 31.09375 134.300781 30.070312 134.300781 C 29.050781 134.300781 28.269531 133.898438 27.730469 133.089844 C 27.191406 132.28125 26.921875 131.109375 26.921875 129.578125 C 26.921875 128.039062 27.191406 126.867188 27.730469 126.058594 C 28.269531 125.25 29.050781 124.847656 30.070312 124.847656 Z M 30.070312 124.847656 "/>
<path style=" stroke:none;fill-rule:nonzero;fill:rgb(0%,0%,0%);fill-opacity:1;" d="M 35.386719 132.574219 L 36.675781 132.574219 L 36.675781 134.125 L 35.386719 134.125 Z M 35.386719 132.574219 "/>
<path style=" stroke:none;fill-rule:nonzero;fill:rgb(0%,0%,0%);fill-opacity:1;" d="M 40.421875 133.085938 L 44.726562 133.085938 L 44.726562 134.125 L 38.941406 134.125 L 38.941406 133.085938 C 39.40625 132.601562 40.042969 131.953125 40.851562 131.136719 C 41.660156 130.320312 42.167969 129.792969 42.375 129.558594 C 42.769531 129.113281 43.046875 128.738281 43.203125 128.433594 C 43.359375 128.125 43.4375 127.824219 43.4375 127.527344 C 43.4375 127.042969 43.269531 126.648438 42.929688 126.34375 C 42.589844 126.035156 42.144531 125.882812 41.601562 125.882812 C 41.214844 125.882812 40.804688 125.949219 40.375 126.085938 C 39.945312 126.21875 39.488281 126.421875 39 126.695312 L 39 125.449219 C 39.496094 125.25 39.960938 125.101562 40.390625 125 C 40.824219 124.898438 41.21875 124.847656 41.578125 124.847656 C 42.519531 124.847656 43.273438 125.082031 43.835938 125.554688 C 44.394531 126.027344 44.675781 126.65625 44.675781 127.445312 C 44.675781 127.820312 44.605469 128.175781 44.464844 128.511719 C 44.324219 128.847656 44.070312 129.242188 43.699219 129.699219 C 43.597656 129.816406 43.273438 130.15625 42.730469 130.722656 C 42.183594 131.285156 41.414062 132.074219 40.421875 133.085938 Z M 40.421875 133.085938 "/>
<path style="fill:none;stroke-width:0.8;stroke-linecap:butt;stroke-linejoin:round;stroke:rgb(0%,0%,0%);stroke-opacity:1;stroke-miterlimit:4;" d="M 0 0 L -3.5 0 " transform="matrix(1.25,0,0,1.25,54.726562,84.375)"/>
<path style=" stroke:none;fill-rule:nonzero;fill:rgb(0%,0%,0%);fill-opacity:1;" d="M 30.070312 80.824219 C 29.4375 80.824219 28.960938 81.136719 28.640625 81.761719 C 28.320312 82.382812 28.160156 83.324219 28.160156 84.578125 C 28.160156 85.824219 28.320312 86.761719 28.640625 87.386719 C 28.960938 88.011719 29.4375 88.324219 30.070312 88.324219 C 30.710938 88.324219 31.1875 88.011719 31.507812 87.386719 C 31.828125 86.761719 31.988281 85.824219 31.988281 84.578125 C 31.988281 83.324219 31.828125 82.382812 31.507812 81.761719 C 31.1875 81.136719 30.710938 80.824219 30.070312 80.824219 Z M 30.070312 79.847656 C 31.09375 79.847656 31.875 80.25 32.414062 81.058594 C 32.953125 81.867188 33.21875 83.039062 33.21875 84.578125 C 33.21875 86.109375 32.953125 87.28125 32.414062 88.089844 C 31.875 88.898438 31.09375 89.300781 30.070312 89.300781 C 29.050781 89.300781 28.269531 88.898438 27.730469 88.089844 C 27.191406 87.28125 26.921875 86.109375 26.921875 84.578125 C 26.921875 83.039062 27.191406 81.867188 27.730469 81.058594 C 28.269531 80.25 29.050781 79.847656 30.070312 79.847656 Z M 30.070312 79.847656 "/>
<path style=" stroke:none;fill-rule:nonzero;fill:rgb(0%,0%,0%);fill-opacity:1;" d="M 35.386719 87.574219 L 36.675781 87.574219 L 36.675781 89.125 L 35.386719 89.125 Z M 35.386719 87.574219 "/>
<path style=" stroke:none;fill-rule:nonzero;fill:rgb(0%,0%,0%);fill-opacity:1;" d="M 42.75 81.085938 L 39.636719 85.949219 L 42.75 85.949219 Z M 42.425781 80.011719 L 43.976562 80.011719 L 43.976562 85.949219 L 45.277344 85.949219 L 45.277344 86.976562 L 43.976562 86.976562 L 43.976562 89.125 L 42.75 89.125 L 42.75 86.976562 L 38.636719 86.976562 L 38.636719 85.785156 Z M 42.425781 80.011719 "/>
<path style="fill:none;stroke-width:0.8;stroke-linecap:butt;stroke-linejoin:round;stroke:rgb(0%,0%,0%);stroke-opacity:1;stroke-miterlimit:4;" d="M 0 0 L -3.5 0 " transform="matrix(1.25,0,0,1.25,54.726562,39.375)"/>
<path style=" stroke:none;fill-rule:nonzero;fill:rgb(0%,0%,0%);fill-opacity:1;" d="M 30.070312 35.824219 C 29.4375 35.824219 28.960938 36.136719 28.640625 36.761719 C 28.320312 37.382812 28.160156 38.324219 28.160156 39.578125 C 28.160156 40.824219 28.320312 41.761719 28.640625 42.386719 C 28.960938 43.011719 29.4375 43.324219 30.070312 43.324219 C 30.710938 43.324219 31.1875 43.011719 31.507812 42.386719 C 31.828125 41.761719 31.988281 40.824219 31.988281 39.578125 C 31.988281 38.324219 31.828125 37.382812 31.507812 36.761719 C 31.1875 36.136719 30.710938 35.824219 30.070312 35.824219 Z M 30.070312 34.847656 C 31.09375 34.847656 31.875 35.25 32.414062 36.058594 C 32.953125 36.867188 33.21875 38.039062 33.21875 39.578125 C 33.21875 41.109375 32.953125 42.28125 32.414062 43.089844 C 31.875 43.898438 31.09375 44.300781 30.070312 44.300781 C 29.050781 44.300781 28.269531 43.898438 27.730469 43.089844 C 27.191406 42.28125 26.921875 41.109375 26.921875 39.578125 C 26.921875 38.039062 27.191406 36.867188 27.730469 36.058594 C 28.269531 35.25 29.050781 34.847656 30.070312 34.847656 Z M 30.070312 34.847656 "/>
<path style=" stroke:none;fill-rule:nonzero;fill:rgb(0%,0%,0%);fill-opacity:1;" d="M 35.386719 42.574219 L 36.675781 42.574219 L 36.675781 44.125 L 35.386719 44.125 Z M 35.386719 42.574219 "/>
<path style=" stroke:none;fill-rule:nonzero;fill:rgb(0%,0%,0%);fill-opacity:1;" d="M 42.152344 39.078125 C 41.597656 39.078125 41.160156 39.265625 40.835938 39.644531 C 40.511719 40.023438 40.351562 40.542969 40.351562 41.199219 C 40.351562 41.855469 40.511719 42.375 40.835938 42.753906 C 41.160156 43.136719 41.597656 43.324219 42.152344 43.324219 C 42.703125 43.324219 43.140625 43.136719 43.464844 42.753906 C 43.789062 42.375 43.949219 41.855469 43.949219 41.199219 C 43.949219 40.542969 43.789062 40.023438 43.464844 39.644531 C 43.140625 39.265625 42.703125 39.078125 42.152344 39.078125 Z M 44.597656 35.210938 L 44.597656 36.335938 C 44.289062 36.1875 43.976562 36.078125 43.660156 36 C 43.34375 35.921875 43.03125 35.882812 42.722656 35.882812 C 41.910156 35.882812 41.289062 36.160156 40.859375 36.707031 C 40.429688 37.257812 40.183594 38.085938 40.125 39.199219 C 40.363281 38.84375 40.664062 38.574219 41.027344 38.382812 C 41.390625 38.195312 41.789062 38.101562 42.222656 38.101562 C 43.136719 38.101562 43.863281 38.378906 44.394531 38.933594 C 44.925781 39.488281 45.191406 40.246094 45.191406 41.199219 C 45.191406 42.136719 44.914062 42.886719 44.359375 43.453125 C 43.804688 44.019531 43.070312 44.300781 42.152344 44.300781 C 41.097656 44.300781 40.289062 43.898438 39.734375 43.089844 C 39.175781 42.28125 38.898438 41.109375 38.898438 39.578125 C 38.898438 38.136719 39.238281 36.988281 39.921875 36.132812 C 40.605469 35.273438 41.523438 34.847656 42.675781 34.847656 C 42.984375 34.847656 43.296875 34.878906 43.613281 34.9375 C 43.925781 35 44.253906 35.089844 44.597656 35.210938 Z M 44.597656 35.210938 "/>
<path style=" stroke:none;fill-rule:nonzero;fill:rgb(0%,0%,0%);fill-opacity:1;" d="M 17.472656 111.125 L 21.097656 111.125 L 21.097656 112.25 L 11.660156 112.25 L 11.660156 111.125 L 12.699219 111.125 C 12.292969 110.886719 11.992188 110.585938 11.792969 110.226562 C 11.597656 109.867188 11.496094 109.4375 11.496094 108.9375 C 11.496094 108.105469 11.828125 107.433594 12.484375 106.914062 C 13.144531 106.394531 14.011719 106.132812 15.085938 106.132812 C 16.160156 106.132812 17.027344 106.394531 17.6875 106.914062 C 18.347656 107.433594 18.675781 108.105469 18.675781 108.9375 C 18.675781 109.4375 18.578125 109.867188 18.378906 110.226562 C 18.179688 110.585938 17.878906 110.886719 17.472656 111.125 Z M 15.085938 107.300781 C 14.261719 107.300781 13.613281 107.46875 13.140625 107.8125 C 12.671875 108.148438 12.4375 108.617188 12.4375 109.210938 C 12.4375 109.804688 12.671875 110.273438 13.140625 110.613281 C 13.613281 110.953125 14.261719 111.125 15.085938 111.125 C 15.910156 111.125 16.558594 110.953125 17.027344 110.613281 C 17.5 110.273438 17.734375 109.804688 17.734375 109.210938 C 17.734375 108.617188 17.5 108.148438 17.027344 107.8125 C 16.558594 107.46875 15.910156 107.300781 15.085938 107.300781 Z M 15.085938 107.300781 "/>
<path style=" stroke:none;fill-rule:nonzero;fill:rgb(0%,0%,0%);fill-opacity:1;" d="M 16.945312 104.117188 L 16.945312 102.828125 L 18.496094 102.828125 L 18.496094 104.117188 Z M 16.945312 104.117188 "/>
<path style=" stroke:none;fill-rule:nonzero;fill:rgb(0%,0%,0%);fill-opacity:1;" d="M 12.972656 94.980469 C 12.46875 94.699219 12.097656 94.363281 11.855469 93.972656 C 11.617188 93.582031 11.496094 93.121094 11.496094 92.59375 C 11.496094 91.878906 11.746094 91.332031 12.246094 90.945312 C 12.742188 90.558594 13.453125 90.363281 14.371094 90.363281 L 18.496094 90.363281 L 18.496094 91.492188 L 14.40625 91.492188 C 13.753906 91.492188 13.265625 91.609375 12.949219 91.84375 C 12.632812 92.074219 12.472656 92.425781 12.472656 92.902344 C 12.472656 93.484375 12.667969 93.945312 13.054688 94.285156 C 13.441406 94.621094 13.964844 94.789062 14.632812 94.789062 L 18.496094 94.789062 L 18.496094 95.917969 L 14.40625 95.917969 C 13.75 95.917969 13.261719 96.035156 12.945312 96.265625 C 12.632812 96.496094 12.472656 96.855469 12.472656 97.339844 C 12.472656 97.914062 12.667969 98.371094 13.054688 98.710938 C 13.445312 99.046875 13.96875 99.214844 14.632812 99.214844 L 18.496094 99.214844 L 18.496094 100.34375 L 11.660156 100.34375 L 11.660156 99.214844 L 12.722656 99.214844 C 12.304688 98.957031 11.996094 98.652344 11.796875 98.292969 C 11.597656 97.933594 11.496094 97.511719 11.496094 97.019531 C 11.496094 96.519531 11.625 96.097656 11.875 95.75 C 12.128906 95.402344 12.492188 95.144531 12.972656 94.980469 Z M 12.972656 94.980469 "/>
<path style=" stroke:none;fill-rule:nonzero;fill:rgb(0%,0%,0%);fill-opacity:1;" d="M 16.945312 87.964844 L 16.945312 86.675781 L 18.496094 86.675781 L 18.496094 87.964844 Z M 16.945312 87.964844 "/>
<path style=" stroke:none;fill-rule:nonzero;fill:rgb(0%,0%,0%);fill-opacity:1;" d="M 9 80.691406 L 9.933594 80.691406 L 9.933594 81.765625 C 9.933594 82.167969 10.015625 82.445312 10.179688 82.605469 C 10.34375 82.761719 10.636719 82.839844 11.058594 82.839844 L 11.660156 82.839844 L 11.660156 80.988281 L 12.535156 80.988281 L 12.535156 82.839844 L 18.496094 82.839844 L 18.496094 83.96875 L 12.535156 83.96875 L 12.535156 85.042969 L 11.660156 85.042969 L 11.660156 83.96875 L 11.183594 83.96875 C 10.425781 83.96875 9.871094 83.789062 9.523438 83.4375 C 9.175781 83.082031 9 82.519531 9 81.753906 Z M 9 80.691406 "/>
<path style=" stroke:none;fill-rule:nonzero;fill:rgb(0%,0%,0%);fill-opacity:1;" d="M 16.945312 80.5 L 16.945312 79.210938 L 18.496094 79.210938 L 18.496094 80.5 Z M 16.945312 80.5 "/>
<path style="fill:none;stroke-width:1.5;stroke-linecap:butt;stroke-linejoin:round;stroke:rgb(12.156863%,46.666667%,70.588235%);stroke-opacity:1;stroke-miterlimit:4;" d="M 52.659375 139.5 L 52.659375 13.5 " transform="matrix(1.25,0,0,1.25,0,0)"/>
<path style="fill:none;stroke-width:1.5;stroke-linecap:butt;stroke-linejoin:round;stroke:rgb(12.156863%,46.666667%,70.588235%);stroke-opacity:1;stroke-miterlimit:4;" d="M 230.203125 139.5 L 230.203125 85.5 " transform="matrix(1.25,0,0,1.25,0,0)"/>
<path style="fill-rule:nonzero;fill:rgb(12.156863%,46.666667%,70.588235%);fill-opacity:1;stroke-width:1;stroke-linecap:butt;stroke-linejoin:round;stroke:rgb(12.156863%,46.666667%,70.588235%);stroke-opacity:1;stroke-miterlimit:4;" d="M 0.000852 3 C 0.794602 3 1.560227 2.684375 2.122727 2.121875 C 2.685227 1.559375 3.000852 0.796875 3.000852 0 C 3.000852 -0.796875 2.685227 -1.559375 2.122727 -2.121875 C 1.560227 -2.684375 0.794602 -3 0.000852 -3 C -0.796023 -3 -1.558523 -2.684375 -2.121023 -2.121875 C -2.683523 -1.559375 -2.999148 -0.796875 -2.999148 0 C -2.999148 0.796875 -2.683523 1.559375 -2.121023 2.121875 C -1.558523 2.684375 -0.796023 3 0.000852 3 Z M 0.000852 3 " transform="matrix(1.25,0,0,1.25,65.823154,16.875)"/>
<path style="fill-rule:nonzero;fill:rgb(12.156863%,46.666667%,70.588235%);fill-opacity:1;stroke-width:1;stroke-linecap:butt;stroke-linejoin:round;stroke:rgb(12.156863%,46.666667%,70.588235%);stroke-opacity:1;stroke-miterlimit:4;" d="M -0.000852 3 C 0.796023 3 1.558523 2.684375 2.121023 2.121875 C 2.683523 1.559375 2.999148 0.796875 2.999148 0 C 2.999148 -0.796875 2.683523 -1.559375 2.121023 -2.121875 C 1.558523 -2.684375 0.796023 -3 -0.000852 -3 C -0.794602 -3 -1.560227 -2.684375 -2.122727 -2.121875 C -2.685227 -1.559375 -3.000852 -0.796875 -3.000852 0 C -3.000852 0.796875 -2.685227 1.559375 -2.122727 2.121875 C -1.560227 2.684375 -0.794602 3 -0.000852 3 Z M -0.000852 3 " transform="matrix(1.25,0,0,1.25,287.754971,106.875)"/>
<path style="fill:none;stroke-width:1.5;stroke-linecap:square;stroke-linejoin:round;stroke:rgb(83.921569%,15.294118%,15.686275%);stroke-opacity:1;stroke-miterlimit:4;" d="M 52.659375 139.5 L 230.203125 139.5 " transform="matrix(1.25,0,0,1.25,0,0)"/>
<path style="fill:none;stroke-width:0.8;stroke-linecap:square;stroke-linejoin:miter;stroke:rgb(0%,0%,0%);stroke-opacity:1;stroke-miterlimit:4;" d="M 43.78125 145.8 L 43.78125 7.2 " transform="matrix(1.25,0,0,1.25,0,0)"/>
<path style="fill:none;stroke-width:0.8;stroke-linecap:square;stroke-linejoin:miter;stroke:rgb(0%,0%,0%);stroke-opacity:1;stroke-miterlimit:4;" d="M 239.08125 145.8 L 239.08125 7.2 " transform="matrix(1.25,0,0,1.25,0,0)"/>
<path style="fill:none;stroke-width:0.8;stroke-linecap:square;stroke-linejoin:miter;stroke:rgb(0%,0%,0%);stroke-opacity:1;stroke-miterlimit:4;" d="M 43.78125 145.8 L 239.08125 145.8 " transform="matrix(1.25,0,0,1.25,0,0)"/>
<path style="fill:none;stroke-width:0.8;stroke-linecap:square;stroke-linejoin:miter;stroke:rgb(0%,0%,0%);stroke-opacity:1;stroke-miterlimit:4;" d="M 43.78125 7.2 L 239.08125 7.2 " transform="matrix(1.25,0,0,1.25,0,0)"/>
</g>
</svg>
