<?xml version="1.0" encoding="UTF-8"?>
<svg xmlns="http://www.w3.org/2000/svg" xmlns:xlink="http://www.w3.org/1999/xlink" width="316pt" height="229pt" viewBox="0 0 316 229" version="1.1">
<g id="surface1">
<path style=" stroke:none;fill-rule:nonzero;fill:rgb(100%,100%,100%);fill-opacity:1;" d="M 0 229.195312 L 315.804688 229.195312 L 315.804688 0 L 0 0 Z M 0 229.195312 "/>
<path style=" stroke:none;fill-rule:nonzero;fill:rgb(100%,100%,100%);fill-opacity:1;" d="M 62.679688 182.25 L 306.804688 182.25 L 306.804688 9 L 62.679688 9 Z M 62.679688 182.25 "/>
<path style="fill:none;stroke-width:0.8;stroke-linecap:butt;stroke-linejoin:round;stroke:rgb(0%,0%,0%);stroke-opacity:1;stroke-miterlimit:4;" d="M 0.000852 0 L 0.000852 3.5 " transform="matrix(1.25,0,0,1.25,73.776279,182.25)"/>
<path style=" stroke:none;fill-rule:nonzero;fill:rgb(0%,0%,0%);fill-opacity:1;" d="M 73.773438 192.199219 C 73.136719 192.199219 72.660156 192.511719 72.339844 193.136719 C 72.023438 193.757812 71.863281 194.699219 71.863281 195.953125 C 71.863281 197.199219 72.023438 198.136719 72.339844 198.761719 C 72.660156 199.386719 73.136719 199.699219 73.773438 199.699219 C 74.410156 199.699219 74.890625 199.386719 75.210938 198.761719 C 75.53125 198.136719 75.691406 197.199219 75.691406 195.953125 C 75.691406 194.699219 75.53125 193.757812 75.210938 193.136719 C 74.890625 192.511719 74.410156 192.199219 73.773438 192.199219 Z M 73.773438 191.222656 C 74.792969 191.222656 75.574219 191.625 76.113281 192.433594 C 76.652344 193.242188 76.921875 194.414062 76.921875 195.953125 C 76.921875 197.484375 76.652344 198.65625 76.113281 199.464844 C 75.574219 200.273438 74.792969 200.675781 73.773438 200.675781 C 72.75 200.675781 71.972656 200.273438 71.433594 199.464844 C 70.894531 198.65625 70.625 197.484375 70.625 195.953125 C 70.625 194.414062 70.894531 193.242188 71.433594 192.433594 C 71.972656 191.625 72.75 191.222656 73.773438 191.222656 Z M 73.773438 191.222656 "/>
<path style="fill:none;stroke-width:0.8;stroke-linecap:butt;stroke-linejoin:round;stroke:rgb(0%,0%,0%);stroke-opacity:1;stroke-miterlimit:4;" d="M 0.000239 0 L 0.000239 3.5 " transform="matrix(1.25,0,0,1.25,132.179389,182.25)"/>
<path style=" stroke:none;fill-rule:nonzero;fill:rgb(0%,0%,0%);fill-opacity:1;" d="M 129.550781 191.386719 L 134.390625 191.386719 L 134.390625 192.425781 L 130.679688 192.425781 L 130.679688 194.65625 C 130.859375 194.59375 131.039062 194.550781 131.214844 194.519531 C 131.394531 194.488281 131.574219 194.476562 131.753906 194.476562 C 132.773438 194.476562 133.578125 194.753906 134.171875 195.3125 C 134.765625 195.867188 135.0625 196.621094 135.0625 197.574219 C 135.0625 198.554688 134.757812 199.316406 134.148438 199.863281 C 133.539062 200.40625 132.675781 200.675781 131.566406 200.675781 C 131.183594 200.675781 130.792969 200.644531 130.394531 200.578125 C 130 200.511719 129.589844 200.414062 129.167969 200.285156 L 129.167969 199.046875 C 129.535156 199.246094 129.910156 199.394531 130.300781 199.492188 C 130.691406 199.589844 131.105469 199.636719 131.539062 199.636719 C 132.246094 199.636719 132.800781 199.453125 133.210938 199.082031 C 133.625 198.710938 133.828125 198.210938 133.828125 197.574219 C 133.828125 196.941406 133.625 196.4375 133.210938 196.070312 C 132.800781 195.699219 132.246094 195.511719 131.539062 195.511719 C 131.210938 195.511719 130.882812 195.546875 130.554688 195.621094 C 130.226562 195.695312 129.894531 195.808594 129.550781 195.964844 Z M 129.550781 191.386719 "/>
<path style="fill:none;stroke-width:0.8;stroke-linecap:butt;stroke-linejoin:round;stroke:rgb(0%,0%,0%);stroke-opacity:1;stroke-miterlimit:4;" d="M -0.000374 0 L -0.000374 3.5 " transform="matrix(1.25,0,0,1.25,190.582499,182.25)"/>
<path style=" stroke:none;fill-rule:nonzero;fill:rgb(0%,0%,0%);fill-opacity:1;" d="M 184.179688 199.460938 L 186.195312 199.460938 L 186.195312 192.507812 L 184.003906 192.949219 L 184.003906 191.824219 L 186.183594 191.386719 L 187.414062 191.386719 L 187.414062 199.460938 L 189.429688 199.460938 L 189.429688 200.5 L 184.179688 200.5 Z M 184.179688 199.460938 "/>
<path style=" stroke:none;fill-rule:nonzero;fill:rgb(0%,0%,0%);fill-opacity:1;" d="M 194.554688 192.199219 C 193.921875 192.199219 193.445312 192.511719 193.125 193.136719 C 192.804688 193.757812 192.644531 194.699219 192.644531 195.953125 C 192.644531 197.199219 192.804688 198.136719 193.125 198.761719 C 193.445312 199.386719 193.921875 199.699219 194.554688 199.699219 C 195.195312 199.699219 195.671875 199.386719 195.992188 198.761719 C 196.3125 198.136719 196.472656 197.199219 196.472656 195.953125 C 196.472656 194.699219 196.3125 193.757812 195.992188 193.136719 C 195.671875 192.511719 195.195312 192.199219 194.554688 192.199219 Z M 194.554688 191.222656 C 195.578125 191.222656 196.359375 191.625 196.898438 192.433594 C 197.4375 193.242188 197.707031 194.414062 197.707031 195.953125 C 197.707031 197.484375 197.4375 198.65625 196.898438 199.464844 C 196.359375 200.273438 195.578125 200.675781 194.554688 200.675781 C 193.535156 200.675781 192.753906 200.273438 192.214844 199.464844 C 191.675781 198.65625 191.40625 197.484375 191.40625 195.953125 C 191.40625 194.414062 191.675781 193.242188 192.214844 192.433594 C 192.753906 191.625 193.535156 191.222656 194.554688 191.222656 Z M 194.554688 191.222656 "/>
<path style="fill:none;stroke-width:0.8;stroke-linecap:butt;stroke-linejoin:round;stroke:rgb(0%,0%,0%);stroke-opacity:1;stroke-miterlimit:4;" d="M -0.000987 0 L -0.000987 3.5 " transform="matrix(1.25,0,0,1.25,248.985609,182.25)"/>
<path style=" stroke:none;fill-rule:nonzero;fill:rgb(0%,0%,0%);fill-opacity:1;" d="M 242.582031 199.460938 L 244.597656 199.460938 L 244.597656 192.507812 L 242.40625 192.949219 L 242.40625 191.824219 L 244.585938 191.386719 L 245.816406 191.386719 L 245.816406 199.460938 L 247.832031 199.460938 L 247.832031 200.5 L 242.582031 200.5 Z M 242.582031 199.460938 "/>
<path style=" stroke:none;fill-rule:nonzero;fill:rgb(0%,0%,0%);fill-opacity:1;" d="M 250.335938 191.386719 L 255.175781 191.386719 L 255.175781 192.425781 L 251.464844 192.425781 L 251.464844 194.65625 C 251.640625 194.59375 251.820312 194.550781 252 194.519531 C 252.179688 194.488281 252.359375 194.476562 252.539062 194.476562 C 253.554688 194.476562 254.359375 194.753906 254.953125 195.3125 C 255.550781 195.867188 255.847656 196.621094 255.847656 197.574219 C 255.847656 198.554688 255.542969 199.316406 254.929688 199.863281 C 254.320312 200.40625 253.460938 200.675781 252.347656 200.675781 C 251.964844 200.675781 251.574219 200.644531 251.179688 200.578125 C 250.78125 200.511719 250.375 200.414062 249.949219 200.285156 L 249.949219 199.046875 C 250.316406 199.246094 250.695312 199.394531 251.085938 199.492188 C 251.476562 199.589844 251.886719 199.636719 252.324219 199.636719 C 253.027344 199.636719 253.585938 199.453125 253.996094 199.082031 C 254.40625 198.710938 254.613281 198.210938 254.613281 197.574219 C 254.613281 196.941406 254.40625 196.4375 253.996094 196.070312 C 253.585938 195.699219 253.027344 195.511719 252.324219 195.511719 C 251.992188 195.511719 251.664062 195.546875 251.335938 195.621094 C 251.011719 195.695312 250.675781 195.808594 250.335938 195.964844 Z M 250.335938 191.386719 "/>
<path style=" stroke:none;fill-rule:nonzero;fill:rgb(0%,0%,0%);fill-opacity:1;" d="M 187.90625 210.761719 L 185.429688 214.085938 L 188.03125 217.597656 L 186.707031 217.597656 L 184.71875 214.910156 L 182.726562 217.597656 L 181.402344 217.597656 L 184.058594 214.019531 L 181.628906 210.761719 L 182.953125 210.761719 L 184.765625 213.195312 L 186.578125 210.761719 Z M 187.90625 210.761719 "/>
<path style="fill:none;stroke-width:0.8;stroke-linecap:butt;stroke-linejoin:round;stroke:rgb(0%,0%,0%);stroke-opacity:1;stroke-miterlimit:4;" d="M 0 0 L -3.5 0 " transform="matrix(1.25,0,0,1.25,62.679688,174.375)"/>
<path style=" stroke:none;fill-rule:nonzero;fill:rgb(0%,0%,0%);fill-opacity:1;" d="M 30.070312 170.824219 C 29.4375 170.824219 28.960938 171.136719 28.640625 171.761719 C 28.320312 172.382812 28.160156 173.324219 28.160156 174.578125 C 28.160156 175.824219 28.320312 176.761719 28.640625 177.386719 C 28.960938 178.011719 29.4375 178.324219 30.070312 178.324219 C 30.710938 178.324219 31.1875 178.011719 31.507812 177.386719 C 31.828125 176.761719 31.988281 175.824219 31.988281 174.578125 C 31.988281 173.324219 31.828125 172.382812 31.507812 171.761719 C 31.1875 171.136719 30.710938 170.824219 30.070312 170.824219 Z M 30.070312 169.847656 C 31.09375 169.847656 31.875 170.25 32.414062 171.058594 C 32.953125 171.867188 33.21875 173.039062 33.21875 174.578125 C 33.21875 176.109375 32.953125 177.28125 32.414062 178.089844 C 31.875 178.898438 31.09375 179.300781 30.070312 179.300781 C 29.050781 179.300781 28.269531 178.898438 27.730469 178.089844 C 27.191406 177.28125 26.921875 176.109375 26.921875 174.578125 C 26.921875 173.039062 27.191406 171.867188 27.730469 171.058594 C 28.269531 170.25 29.050781 169.847656 30.070312 169.847656 Z M 30.070312 169.847656 "/>
<path style=" stroke:none;fill-rule:nonzero;fill:rgb(0%,0%,0%);fill-opacity:1;" d="M 35.386719 177.574219 L 36.675781 177.574219 L 36.675781 179.125 L 35.386719 179.125 Z M 35.386719 177.574219 "/>
<path style=" stroke:none;fill-rule:nonzero;fill:rgb(0%,0%,0%);fill-opacity:1;" d="M 41.996094 170.824219 C 41.363281 170.824219 40.886719 171.136719 40.566406 171.761719 C 40.246094 172.382812 40.085938 173.324219 40.085938 174.578125 C 40.085938 175.824219 40.246094 176.761719 40.566406 177.386719 C 40.886719 178.011719 41.363281 178.324219 41.996094 178.324219 C 42.636719 178.324219 43.113281 178.011719 43.433594 177.386719 C 43.753906 176.761719 43.914062 175.824219 43.914062 174.578125 C 43.914062 173.324219 43.753906 172.382812 43.433594 171.761719 C 43.113281 171.136719 42.636719 170.824219 41.996094 170.824219 Z M 41.996094 169.847656 C 43.019531 169.847656 43.800781 170.25 44.339844 171.058594 C 44.878906 171.867188 45.148438 173.039062 45.148438 174.578125 C 45.148438 176.109375 44.878906 177.28125 44.339844 178.089844 C 43.800781 178.898438 43.019531 179.300781 41.996094 179.300781 C 40.976562 179.300781 40.195312 178.898438 39.65625 178.089844 C 39.117188 177.28125 38.847656 176.109375 38.847656 174.578125 C 38.847656 173.039062 39.117188 171.867188 39.65625 171.058594 C 40.195312 170.25 40.976562 169.847656 41.996094 169.847656 Z M 41.996094 169.847656 "/>
<path style=" stroke:none;fill-rule:nonzero;fill:rgb(0%,0%,0%);fill-opacity:1;" d="M 49.949219 170.824219 C 49.316406 170.824219 48.839844 171.136719 48.519531 171.761719 C 48.199219 172.382812 48.039062 173.324219 48.039062 174.578125 C 48.039062 175.824219 48.199219 176.761719 48.519531 177.386719 C 48.839844 178.011719 49.316406 178.324219 49.949219 178.324219 C 50.589844 178.324219 51.066406 178.011719 51.386719 177.386719 C 51.707031 176.761719 51.867188 175.824219 51.867188 174.578125 C 51.867188 173.324219 51.707031 172.382812 51.386719 171.761719 C 51.066406 171.136719 50.589844 170.824219 49.949219 170.824219 Z M 49.949219 169.847656 C 50.972656 169.847656 51.753906 170.25 52.292969 171.058594 C 52.832031 171.867188 53.101562 173.039062 53.101562 174.578125 C 53.101562 176.109375 52.832031 177.28125 52.292969 178.089844 C 51.753906 178.898438 50.972656 179.300781 49.949219 179.300781 C 48.929688 179.300781 48.148438 178.898438 47.609375 178.089844 C 47.070312 177.28125 46.800781 176.109375 46.800781 174.578125 C 46.800781 173.039062 47.070312 171.867188 47.609375 171.058594 C 48.148438 170.25 48.929688 169.847656 49.949219 169.847656 Z M 49.949219 169.847656 "/>
<path style="fill:none;stroke-width:0.8;stroke-linecap:butt;stroke-linejoin:round;stroke:rgb(0%,0%,0%);stroke-opacity:1;stroke-miterlimit:4;" d="M 0 0.000986 L -3.5 0.000986 " transform="matrix(1.25,0,0,1.25,62.679688,129.494861)"/>
<path style=" stroke:none;fill-rule:nonzero;fill:rgb(0%,0%,0%);fill-opacity:1;" d="M 30.070312 125.941406 C 29.4375 125.941406 28.960938 126.253906 28.640625 126.878906 C 28.320312 127.503906 28.160156 128.441406 28.160156 129.695312 C 28.160156 130.945312 28.320312 131.882812 28.640625 132.507812 C 28.960938 133.132812 29.4375 133.445312 30.070312 133.445312 C 30.710938 133.445312 31.1875 133.132812 31.507812 132.507812 C 31.828125 131.882812 31.988281 130.945312 31.988281 129.695312 C 31.988281 128.441406 31.828125 127.503906 31.507812 126.878906 C 31.1875 126.253906 30.710938 125.941406 30.070312 125.941406 Z M 30.070312 124.964844 C 31.09375 124.964844 31.875 125.371094 32.414062 126.179688 C 32.953125 126.988281 33.21875 128.160156 33.21875 129.695312 C 33.21875 131.230469 32.953125 132.402344 32.414062 133.210938 C 31.875 134.019531 31.09375 134.421875 30.070312 134.421875 C 29.050781 134.421875 28.269531 134.019531 27.730469 133.210938 C 27.191406 132.402344 26.921875 131.230469 26.921875 129.695312 C 26.921875 128.160156 27.191406 126.988281 27.730469 126.179688 C 28.269531 125.371094 29.050781 124.964844 30.070312 124.964844 Z M 30.070312 124.964844 "/>
<path style=" stroke:none;fill-rule:nonzero;fill:rgb(0%,0%,0%);fill-opacity:1;" d="M 35.386719 132.691406 L 36.675781 132.691406 L 36.675781 134.242188 L 35.386719 134.242188 Z M 35.386719 132.691406 "/>
<path style=" stroke:none;fill-rule:nonzero;fill:rgb(0%,0%,0%);fill-opacity:1;" d="M 41.996094 125.941406 C 41.363281 125.941406 40.886719 126.253906 40.566406 126.878906 C 40.246094 127.503906 40.085938 128.441406 40.085938 129.695312 C 40.085938 130.945312 40.246094 131.882812 40.566406 132.507812 C 40.886719 133.132812 41.363281 133.445312 41.996094 133.445312 C 42.636719 133.445312 43.113281 133.132812 43.433594 132.507812 C 43.753906 131.882812 43.914062 130.945312 43.914062 129.695312 C 43.914062 128.441406 43.753906 127.503906 43.433594 126.878906 C 43.113281 126.253906 42.636719 125.941406 41.996094 125.941406 Z M 41.996094 124.964844 C 43.019531 124.964844 43.800781 125.371094 44.339844 126.179688 C 44.878906 126.988281 45.148438 128.160156 45.148438 129.695312 C 45.148438 131.230469 44.878906 132.402344 44.339844 133.210938 C 43.800781 134.019531 43.019531 134.421875 41.996094 134.421875 C 40.976562 134.421875 40.195312 134.019531 39.65625 133.210938 C 39.117188 132.402344 38.847656 131.230469 38.847656 129.695312 C 38.847656 128.160156 39.117188 126.988281 39.65625 126.179688 C 40.195312 125.371094 40.976562 124.964844 41.996094 124.964844 Z M 41.996094 124.964844 "/>
<path style=" stroke:none;fill-rule:nonzero;fill:rgb(0%,0%,0%);fill-opacity:1;" d="M 47.328125 125.128906 L 52.167969 125.128906 L 52.167969 126.167969 L 48.457031 126.167969 L 48.457031 128.402344 C 48.632812 128.339844 48.8125 128.296875 48.992188 128.265625 C 49.171875 128.234375 49.351562 128.21875 49.53125 128.21875 C 50.546875 128.21875 51.351562 128.5 51.945312 129.054688 C 52.539062 129.613281 52.839844 130.367188 52.839844 131.320312 C 52.839844 132.300781 52.53125 133.0625 51.921875 133.605469 C 51.3125 134.148438 50.449219 134.421875 49.339844 134.421875 C 48.957031 134.421875 48.566406 134.390625 48.171875 134.324219 C 47.773438 134.257812 47.363281 134.160156 46.941406 134.03125 L 46.941406 132.789062 C 47.308594 132.988281 47.6875 133.136719 48.078125 133.234375 C 48.46875 133.332031 48.878906 133.382812 49.316406 133.382812 C 50.019531 133.382812 50.578125 133.199219 50.988281 132.828125 C 51.398438 132.457031 51.605469 131.957031 51.605469 131.320312 C 51.605469 130.6875 51.398438 130.183594 50.988281 129.8125 C 50.578125 129.441406 50.019531 129.257812 49.316406 129.257812 C 48.984375 129.257812 48.65625 129.292969 48.328125 129.367188 C 48 129.441406 47.667969 129.554688 47.328125 129.707031 Z M 47.328125 125.128906 "/>
<path style="fill:none;stroke-width:0.8;stroke-linecap:butt;stroke-linejoin:round;stroke:rgb(0%,0%,0%);stroke-opacity:1;stroke-miterlimit:4;" d="M 0 -0.001153 L -3.5 -0.001153 " transform="matrix(1.25,0,0,1.25,62.679688,84.614722)"/>
<path style=" stroke:none;fill-rule:nonzero;fill:rgb(0%,0%,0%);fill-opacity:1;" d="M 30.070312 81.0625 C 29.4375 81.0625 28.960938 81.375 28.640625 82 C 28.320312 82.625 28.160156 83.5625 28.160156 84.816406 C 28.160156 86.066406 28.320312 87.003906 28.640625 87.628906 C 28.960938 88.253906 29.4375 88.566406 30.070312 88.566406 C 30.710938 88.566406 31.1875 88.253906 31.507812 87.628906 C 31.828125 87.003906 31.988281 86.066406 31.988281 84.816406 C 31.988281 83.5625 31.828125 82.625 31.507812 82 C 31.1875 81.375 30.710938 81.0625 30.070312 81.0625 Z M 30.070312 80.085938 C 31.09375 80.085938 31.875 80.492188 32.414062 81.300781 C 32.953125 82.105469 33.21875 83.277344 33.21875 84.816406 C 33.21875 86.351562 32.953125 87.523438 32.414062 88.332031 C 31.875 89.136719 31.09375 89.542969 30.070312 89.542969 C 29.050781 89.542969 28.269531 89.136719 27.730469 88.332031 C 27.191406 87.523438 26.921875 86.351562 26.921875 84.816406 C 26.921875 83.277344 27.191406 82.105469 27.730469 81.300781 C 28.269531 80.492188 29.050781 80.085938 30.070312 80.085938 Z M 30.070312 80.085938 "/>
<path style=" stroke:none;fill-rule:nonzero;fill:rgb(0%,0%,0%);fill-opacity:1;" d="M 35.386719 87.8125 L 36.675781 87.8125 L 36.675781 89.363281 L 35.386719 89.363281 Z M 35.386719 87.8125 "/>
<path style=" stroke:none;fill-rule:nonzero;fill:rgb(0%,0%,0%);fill-opacity:1;" d="M 39.574219 88.328125 L 41.589844 88.328125 L 41.589844 81.375 L 39.398438 81.8125 L 39.398438 80.691406 L 41.578125 80.25 L 42.808594 80.25 L 42.808594 88.328125 L 44.824219 88.328125 L 44.824219 89.363281 L 39.574219 89.363281 Z M 39.574219 88.328125 "/>
<path style=" stroke:none;fill-rule:nonzero;fill:rgb(0%,0%,0%);fill-opacity:1;" d="M 49.949219 81.0625 C 49.316406 81.0625 48.839844 81.375 48.519531 82 C 48.199219 82.625 48.039062 83.5625 48.039062 84.816406 C 48.039062 86.066406 48.199219 87.003906 48.519531 87.628906 C 48.839844 88.253906 49.316406 88.566406 49.949219 88.566406 C 50.589844 88.566406 51.066406 88.253906 51.386719 87.628906 C 51.707031 87.003906 51.867188 86.066406 51.867188 84.816406 C 51.867188 83.5625 51.707031 82.625 51.386719 82 C 51.066406 81.375 50.589844 81.0625 49.949219 81.0625 Z M 49.949219 80.085938 C 50.972656 80.085938 51.753906 80.492188 52.292969 81.300781 C 52.832031 82.105469 53.101562 83.277344 53.101562 84.816406 C 53.101562 86.351562 52.832031 87.523438 52.292969 88.332031 C 51.753906 89.136719 50.972656 89.542969 49.949219 89.542969 C 48.929688 89.542969 48.148438 89.136719 47.609375 88.332031 C 47.070312 87.523438 46.800781 86.351562 46.800781 84.816406 C 46.800781 83.277344 47.070312 82.105469 47.609375 81.300781 C 48.148438 80.492188 48.929688 80.085938 49.949219 80.085938 Z M 49.949219 80.085938 "/>
<path style="fill:none;stroke-width:0.8;stroke-linecap:butt;stroke-linejoin:round;stroke:rgb(0%,0%,0%);stroke-opacity:1;stroke-miterlimit:4;" d="M 0 -0.000167 L -3.5 -0.000167 " transform="matrix(1.25,0,0,1.25,62.679688,39.734584)"/>
<path style=" stroke:none;fill-rule:nonzero;fill:rgb(0%,0%,0%);fill-opacity:1;" d="M 30.070312 36.183594 C 29.4375 36.183594 28.960938 36.496094 28.640625 37.121094 C 28.320312 37.742188 28.160156 38.683594 28.160156 39.9375 C 28.160156 41.183594 28.320312 42.121094 28.640625 42.746094 C 28.960938 43.371094 29.4375 43.683594 30.070312 43.683594 C 30.710938 43.683594 31.1875 43.371094 31.507812 42.746094 C 31.828125 42.121094 31.988281 41.183594 31.988281 39.9375 C 31.988281 38.683594 31.828125 37.742188 31.507812 37.121094 C 31.1875 36.496094 30.710938 36.183594 30.070312 36.183594 Z M 30.070312 35.207031 C 31.09375 35.207031 31.875 35.609375 32.414062 36.417969 C 32.953125 37.226562 33.21875 38.398438 33.21875 39.9375 C 33.21875 41.46875 32.953125 42.640625 32.414062 43.449219 C 31.875 44.257812 31.09375 44.660156 30.070312 44.660156 C 29.050781 44.660156 28.269531 44.257812 27.730469 43.449219 C 27.191406 42.640625 26.921875 41.46875 26.921875 39.9375 C 26.921875 38.398438 27.191406 37.226562 27.730469 36.417969 C 28.269531 35.609375 29.050781 35.207031 30.070312 35.207031 Z M 30.070312 35.207031 "/>
<path style=" stroke:none;fill-rule:nonzero;fill:rgb(0%,0%,0%);fill-opacity:1;" d="M 35.386719 42.933594 L 36.675781 42.933594 L 36.675781 44.484375 L 35.386719 44.484375 Z M 35.386719 42.933594 "/>
<path style=" stroke:none;fill-rule:nonzero;fill:rgb(0%,0%,0%);fill-opacity:1;" d="M 39.574219 43.445312 L 41.589844 43.445312 L 41.589844 36.492188 L 39.398438 36.933594 L 39.398438 35.808594 L 41.578125 35.371094 L 42.808594 35.371094 L 42.808594 43.445312 L 44.824219 43.445312 L 44.824219 44.484375 L 39.574219 44.484375 Z M 39.574219 43.445312 "/>
<path style=" stroke:none;fill-rule:nonzero;fill:rgb(0%,0%,0%);fill-opacity:1;" d="M 47.328125 35.371094 L 52.167969 35.371094 L 52.167969 36.410156 L 48.457031 36.410156 L 48.457031 38.640625 C 48.632812 38.582031 48.8125 38.535156 48.992188 38.503906 C 49.171875 38.476562 49.351562 38.460938 49.53125 38.460938 C 50.546875 38.460938 51.351562 38.738281 51.945312 39.296875 C 52.539062 39.851562 52.839844 40.609375 52.839844 41.558594 C 52.839844 42.539062 52.53125 43.300781 51.921875 43.847656 C 51.3125 44.390625 50.449219 44.660156 49.339844 44.660156 C 48.957031 44.660156 48.566406 44.628906 48.171875 44.5625 C 47.773438 44.5 47.363281 44.402344 46.941406 44.269531 L 46.941406 43.03125 C 47.308594 43.230469 47.6875 43.378906 48.078125 43.476562 C 48.46875 43.574219 48.878906 43.621094 49.316406 43.621094 C 50.019531 43.621094 50.578125 43.4375 50.988281 43.066406 C 51.398438 42.699219 51.605469 42.195312 51.605469 41.558594 C 51.605469 40.925781 51.398438 40.421875 50.988281 40.054688 C 50.578125 39.683594 50.019531 39.496094 49.316406 39.496094 C 48.984375 39.496094 48.65625 39.535156 48.328125 39.605469 C 48 39.679688 47.667969 39.792969 47.328125 39.949219 Z M 47.328125 35.371094 "/>
<path style=" stroke:none;fill-rule:nonzero;fill:rgb(0%,0%,0%);fill-opacity:1;" d="M 17.472656 111.125 L 21.097656 111.125 L 21.097656 112.25 L 11.660156 112.25 L 11.660156 111.125 L 12.699219 111.125 C 12.292969 110.886719 11.992188 110.585938 11.792969 110.226562 C 11.597656 109.867188 11.496094 109.4375 11.496094 108.9375 C 11.496094 108.105469 11.828125 107.433594 12.484375 106.914062 C 13.144531 106.394531 14.011719 106.132812 15.085938 106.132812 C 16.160156 106.132812 17.027344 106.394531 17.6875 106.914062 C 18.347656 107.433594 18.675781 108.105469 18.675781 108.9375 C 18.675781 109.4375 18.578125 109.867188 18.378906 110.226562 C 18.179688 110.585938 17.878906 110.886719 17.472656 111.125 Z M 15.085938 107.300781 C 14.261719 107.300781 13.613281 107.46875 13.140625 107.8125 C 12.671875 108.148438 12.4375 108.617188 12.4375 109.210938 C 12.4375 109.804688 12.671875 110.273438 13.140625 110.613281 C 13.613281 110.953125 14.261719 111.125 15.085938 111.125 C 15.910156 111.125 16.558594 110.953125 17.027344 110.613281 C 17.5 110.273438 17.734375 109.804688 17.734375 109.210938 C 17.734375 108.617188 17.5 108.148438 17.027344 107.8125 C 16.558594 107.46875 15.910156 107.300781 15.085938 107.300781 Z M 15.085938 107.300781 "/>
<path style=" stroke:none;fill-rule:nonzero;fill:rgb(0%,0%,0%);fill-opacity:1;" d="M 16.945312 104.117188 L 16.945312 102.828125 L 18.496094 102.828125 L 18.496094 104.117188 Z M 16.945312 104.117188 "/>
<path style=" stroke:none;fill-rule:nonzero;fill:rgb(0%,0%,0%);fill-opacity:1;" d="M 12.972656 94.980469 C 12.46875 94.699219 12.097656 94.363281 11.855469 93.972656 C 11.617188 93.582031 11.496094 93.121094 11.496094 92.59375 C 11.496094 91.878906 11.746094 91.332031 12.246094 90.945312 C 12.742188 90.558594 13.453125 90.363281 14.371094 90.363281 L 18.496094 90.363281 L 18.496094 91.492188 L 14.40625 91.492188 C 13.753906 91.492188 13.265625 91.609375 12.949219 91.84375 C 12.632812 92.074219 12.472656 92.425781 12.472656 92.902344 C 12.472656 93.484375 12.667969 93.945312 13.054688 94.285156 C 13.441406 94.621094 13.964844 94.789062 14.632812 94.789062 L 18.496094 94.789062 L 18.496094 95.917969 L 14.40625 95.917969 C 13.75 95.917969 13.261719 96.035156 12.945312 96.265625 C 12.632812 96.496094 12.472656 96.855469 12.472656 97.339844 C 12.472656 97.914062 12.667969 98.371094 13.054688 98.710938 C 13.445312 99.046875 13.96875 99.214844 14.632812 99.214844 L 18.496094 99.214844 L 18.496094 100.34375 L 11.660156 100.34375 L 11.660156 99.214844 L 12.722656 99.214844 C 12.304688 98.957031 11.996094 98.652344 11.796875 98.292969 C 11.597656 97.933594 11.496094 97.511719 11.496094 97.019531 C 11.496094 96.519531 11.625 96.097656 11.875 95.75 C 12.128906 95.402344 12.492188 95.144531 12.972656 94.980469 Z M 12.972656 94.980469 "/>
<path style=" stroke:none;fill-rule:nonzero;fill:rgb(0%,0%,0%);fill-opacity:1;" d="M 16.945312 87.964844 L 16.945312 86.675781 L 18.496094 86.675781 L 18.496094 87.964844 Z M 16.945312 87.964844 "/>
<path style=" stroke:none;fill-rule:nonzero;fill:rgb(0%,0%,0%);fill-opacity:1;" d="M 9 80.691406 L 9.933594 80.691406 L 9.933594 81.765625 C 9.933594 82.167969 10.015625 82.445312 10.179688 82.605469 C 10.34375 82.761719 10.636719 82.839844 11.058594 82.839844 L 11.660156 82.839844 L 11.660156 80.988281 L 12.535156 80.988281 L 12.535156 82.839844 L 18.496094 82.839844 L 18.496094 83.96875 L 12.535156 83.96875 L 12.535156 85.042969 L 11.660156 85.042969 L 11.660156 83.96875 L 11.183594 83.96875 C 10.425781 83.96875 9.871094 83.789062 9.523438 83.4375 C 9.175781 83.082031 9 82.519531 9 81.753906 Z M 9 80.691406 "/>
<path style=" stroke:none;fill-rule:nonzero;fill:rgb(0%,0%,0%);fill-opacity:1;" d="M 16.945312 80.5 L 16.945312 79.210938 L 18.496094 79.210938 L 18.496094 80.5 Z M 16.945312 80.5 "/>
<path style="fill:none;stroke-width:1.5;stroke-linecap:butt;stroke-linejoin:round;stroke:rgb(12.156863%,46.666667%,70.588235%);stroke-opacity:1;stroke-miterlimit:4;" d="M 59.021875 139.5 L 59.021875 134.6625 " transform="matrix(1.25,0,0,1.25,0,0)"/>
<path style="fill:none;stroke-width:1.5;stroke-linecap:butt;stroke-linejoin:round;stroke:rgb(12.156863%,46.666667%,70.588235%);stroke-opacity:1;stroke-miterlimit:4;" d="M 68.365625 139.5 L 68.365625 115.309375 " transform="matrix(1.25,0,0,1.25,0,0)"/>
<path style="fill:none;stroke-width:1.5;stroke-linecap:butt;stroke-linejoin:round;stroke:rgb(12.156863%,46.666667%,70.588235%);stroke-opacity:1;stroke-miterlimit:4;" d="M 77.709375 139.5 L 77.709375 79.01875 " transform="matrix(1.25,0,0,1.25,0,0)"/>
<path style="fill:none;stroke-width:1.5;stroke-linecap:butt;stroke-linejoin:round;stroke:rgb(12.156863%,46.666667%,70.588235%);stroke-opacity:1;stroke-miterlimit:4;" d="M 87.053125 139.5 L 87.053125 38.7 " transform="matrix(1.25,0,0,1.25,0,0)"/>
<path style="fill:none;stroke-width:1.5;stroke-linecap:butt;stroke-linejoin:round;stroke:rgb(12.156863%,46.666667%,70.588235%);stroke-opacity:1;stroke-miterlimit:4;" d="M 96.4 139.5 L 96.4 13.5 " transform="matrix(1.25,0,0,1.25,0,0)"/>
<path style="fill:none;stroke-width:1.5;stroke-linecap:butt;stroke-linejoin:round;stroke:rgb(12.156863%,46.666667%,70.588235%);stroke-opacity:1;stroke-miterlimit:4;" d="M 105.74375 139.5 L 105.74375 13.5 " transform="matrix(1.25,0,0,1.25,0,0)"/>
<path style="fill:none;stroke-width:1.5;stroke-linecap:butt;stroke-linejoin:round;stroke:rgb(12.156863%,46.666667%,70.588235%);stroke-opacity:1;stroke-miterlimit:4;" d="M 115.0875 139.5 L 115.0875 34.5 " transform="matrix(1.25,0,0,1.25,0,0)"/>
<path style="fill:none;stroke-width:1.5;stroke-linecap:butt;stroke-linejoin:round;stroke:rgb(12.156863%,46.666667%,70.588235%);stroke-opacity:1;stroke-miterlimit:4;" d="M 124.43125 139.5 L 124.43125 64.5 " transform="matrix(1.25,0,0,1.25,0,0)"/>
<path style="fill:none;stroke-width:1.5;stroke-linecap:butt;stroke-linejoin:round;stroke:rgb(12.156863%,46.666667%,70.588235%);stroke-opacity:1;stroke-miterlimit:4;" d="M 133.778125 139.5 L 133.778125 92.625 " transform="matrix(1.25,0,0,1.25,0,0)"/>
<path style="fill:none;stroke-width:1.5;stroke-linecap:butt;stroke-linejoin:round;stroke:rgb(12.156863%,46.666667%,70.588235%);stroke-opacity:1;stroke-miterlimit:4;" d="M 143.121875 139.5 L 143.121875 113.459375 " transform="matrix(1.25,0,0,1.25,0,0)"/>
<path style="fill:none;stroke-width:1.5;stroke-linecap:butt;stroke-linejoin:round;stroke:rgb(12.156863%,46.666667%,70.588235%);stroke-opacity:1;stroke-miterlimit:4;" d="M 152.465625 139.5 L 152.465625 126.478125 " transform="matrix(1.25,0,0,1.25,0,0)"/>
<path style="fill:none;stroke-width:1.5;stroke-linecap:butt;stroke-linejoin:round;stroke:rgb(12.156863%,46.666667%,70.588235%);stroke-opacity:1;stroke-miterlimit:4;" d="M 161.809375 139.5 L 161.809375 133.58125 " transform="matrix(1.25,0,0,1.25,0,0)"/>
<path style="fill:none;stroke-width:1.5;stroke-linecap:butt;stroke-linejoin:round;stroke:rgb(12.156863%,46.666667%,70.588235%);stroke-opacity:1;stroke-miterlimit:4;" d="M 171.15625 139.5 L 171.15625 137.034375 " transform="matrix(1.25,0,0,1.25,0,0)"/>
<path style="fill:none;stroke-width:1.5;stroke-linecap:butt;stroke-linejoin:round;stroke:rgb(12.156863%,46.666667%,70.588235%);stroke-opacity:1;stroke-miterlimit:4;" d="M 180.5 139.5 L 180.5 138.55 " transform="matrix(1.25,0,0,1.25,0,0)"/>
<path style="fill:none;stroke-width:1.5;stroke-linecap:butt;stroke-linejoin:round;stroke:rgb(12.156863%,46.666667%,70.588235%);stroke-opacity:1;stroke-miterlimit:4;" d="M 189.84375 139.5 L 189.84375 139.1625 " transform="matrix(1.25,0,0,1.25,0,0)"/>
<path style="fill:none;stroke-width:1.5;stroke-linecap:butt;stroke-linejoin:round;stroke:rgb(12.156863%,46.666667%,70.588235%);stroke-opacity:1;stroke-miterlimit:4;" d="M 199.1875 139.5 L 199.1875 139.3875 " transform="matrix(1.25,0,0,1.25,0,0)"/>
<path style="fill:none;stroke-width:1.5;stroke-linecap:butt;stroke-linejoin:round;stroke:rgb(12.156863%,46.666667%,70.588235%);stroke-opacity:1;stroke-miterlimit:4;" d="M 208.534375 139.5 L 208.534375 139.465625 " transform="matrix(1.25,0,0,1.25,0,0)"/>
<path style="fill:none;stroke-width:1.5;stroke-linecap:butt;stroke-linejoin:round;stroke:rgb(12.156863%,46.666667%,70.588235%);stroke-opacity:1;stroke-miterlimit:4;" d="M 217.878125 139.5 L 217.878125 139.490625 " transform="matrix(1.25,0,0,1.25,0,0)"/>
<path style="fill:none;stroke-width:1.5;stroke-linecap:butt;stroke-linejoin:round;stroke:rgb(12.156863%,46.666667%,70.588235%);stroke-opacity:1;stroke-miterlimit:4;" d="M 227.221875 139.5 L 227.221875 139.496875 " transform="matrix(1.25,0,0,1.25,0,0)"/>
<path style="fill:none;stroke-width:1.5;stroke-linecap:butt;stroke-linejoin:round;stroke:rgb(12.156863%,46.666667%,70.588235%);stroke-opacity:1;stroke-miterlimit:4;" d="M 236.565625 139.5 L 236.565625 139.5 " transform="matrix(1.25,0,0,1.25,0,0)"/>
<path style="fill-rule:nonzero;fill:rgb(12.156863%,46.666667%,70.588235%);fill-opacity:1;stroke-width:1;stroke-linecap:butt;stroke-linejoin:round;stroke:rgb(12.156863%,46.666667%,70.588235%);stroke-opacity:1;stroke-miterlimit:4;" d="M 0.000852 3.0009 C 0.794602 3.0009 1.560227 2.685275 2.122727 2.122775 C 2.685227 1.560275 3.000852 0.79465 3.000852 0.0009 C 3.000852 -0.795975 2.685227 -1.558475 2.122727 -2.120975 C 1.560227 -2.683475 0.794602 -2.9991 0.000852 -2.9991 C -0.796023 -2.9991 -1.558523 -2.683475 -2.121023 -2.120975 C -2.683523 -1.558475 -2.999148 -0.795975 -2.999148 0.0009 C -2.999148 0.79465 -2.683523 1.560275 -2.121023 2.122775 C -1.558523 2.685275 -0.796023 3.0009 0.000852 3.0009 Z M 0.000852 3.0009 " transform="matrix(1.25,0,0,1.25,73.776279,168.327)"/>
<path style="fill-rule:nonzero;fill:rgb(12.156863%,46.666667%,70.588235%);fill-opacity:1;stroke-width:1;stroke-linecap:butt;stroke-linejoin:round;stroke:rgb(12.156863%,46.666667%,70.588235%);stroke-opacity:1;stroke-miterlimit:4;" d="M 0.000105 3.001374 C 0.79698 3.001374 1.55948 2.682624 2.12198 2.120124 C 2.68448 1.557624 3.000105 0.795124 3.000105 0.001374 C 3.000105 -0.795501 2.68448 -1.558001 2.12198 -2.120501 C 1.55948 -2.683001 0.79698 -2.998626 0.000105 -2.998626 C -0.79677 -2.998626 -1.55927 -2.683001 -2.12177 -2.120501 C -2.68427 -1.558001 -2.999895 -0.795501 -2.999895 0.001374 C -2.999895 0.795124 -2.68427 1.557624 -2.12177 2.120124 C -1.55927 2.682624 -0.79677 3.001374 0.000105 3.001374 Z M 0.000105 3.001374 " transform="matrix(1.25,0,0,1.25,85.4569,144.135001)"/>
<path style="fill-rule:nonzero;fill:rgb(12.156863%,46.666667%,70.588235%);fill-opacity:1;stroke-width:1;stroke-linecap:butt;stroke-linejoin:round;stroke:rgb(12.156863%,46.666667%,70.588235%);stroke-opacity:1;stroke-miterlimit:4;" d="M -0.000643 2.998748 C 0.796232 2.998748 1.558732 2.683123 2.121232 2.120623 C 2.683732 1.558123 2.999357 0.795623 2.999357 -0.001252 C 2.999357 -0.795002 2.683732 -1.557502 2.121232 -2.120002 C 1.558732 -2.682502 0.796232 -3.001252 -0.000643 -3.001252 C -0.794393 -3.001252 -1.560018 -2.682502 -2.122518 -2.120002 C -2.685018 -1.557502 -3.000643 -0.795002 -3.000643 -0.001252 C -3.000643 0.795623 -2.685018 1.558123 -2.122518 2.120623 C -1.560018 2.683123 -0.794393 2.998748 -0.000643 2.998748 Z M -0.000643 2.998748 " transform="matrix(1.25,0,0,1.25,97.137523,98.775002)"/>
<path style="fill-rule:nonzero;fill:rgb(12.156863%,46.666667%,70.588235%);fill-opacity:1;stroke-width:1;stroke-linecap:butt;stroke-linejoin:round;stroke:rgb(12.156863%,46.666667%,70.588235%);stroke-opacity:1;stroke-miterlimit:4;" d="M -0.001391 3.000002 C 0.795484 3.000002 1.557984 2.684377 2.120484 2.121877 C 2.682984 1.559377 2.998609 0.796877 2.998609 0.000002 C 2.998609 -0.796873 2.682984 -1.559373 2.120484 -2.121873 C 1.557984 -2.684373 0.795484 -2.999998 -0.001391 -2.999998 C -0.795141 -2.999998 -1.557641 -2.684373 -2.120141 -2.121873 C -2.682641 -1.559373 -3.001391 -0.796873 -3.001391 0.000002 C -3.001391 0.796877 -2.682641 1.559377 -2.120141 2.121877 C -1.557641 2.684377 -0.795141 3.000002 -0.001391 3.000002 Z M -0.001391 3.000002 " transform="matrix(1.25,0,0,1.25,108.818145,48.374997)"/>
<path style="fill-rule:nonzero;fill:rgb(12.156863%,46.666667%,70.588235%);fill-opacity:1;stroke-width:1;stroke-linecap:butt;stroke-linejoin:round;stroke:rgb(12.156863%,46.666667%,70.588235%);stroke-opacity:1;stroke-miterlimit:4;" d="M 0.000987 3 C 0.794737 3 1.557237 2.684375 2.122862 2.121875 C 2.685362 1.559375 3.000987 0.796875 3.000987 0 C 3.000987 -0.796875 2.685362 -1.559375 2.122862 -2.121875 C 1.557237 -2.684375 0.794737 -3 0.000987 -3 C -0.795888 -3 -1.558388 -2.684375 -2.120888 -2.121875 C -2.683388 -1.559375 -2.999013 -0.796875 -2.999013 0 C -2.999013 0.796875 -2.683388 1.559375 -2.120888 2.121875 C -1.558388 2.684375 -0.795888 3 0.000987 3 Z M 0.000987 3 " transform="matrix(1.25,0,0,1.25,120.498766,16.875)"/>
<path style="fill-rule:nonzero;fill:rgb(12.156863%,46.666667%,70.588235%);fill-opacity:1;stroke-width:1;stroke-linecap:butt;stroke-linejoin:round;stroke:rgb(12.156863%,46.666667%,70.588235%);stroke-opacity:1;stroke-miterlimit:4;" d="M 0.000239 2.999989 C 0.797114 2.999989 1.559614 2.684364 2.122114 2.121864 C 2.684614 1.559364 3.000239 0.796864 3.000239 -0.000011 C 3.000239 -0.796886 2.684614 -1.559386 2.122114 -2.121886 C 1.559614 -2.684386 0.797114 -3.000011 0.000239 -3.000011 C -0.796636 -3.000011 -1.559136 -2.684386 -2.121636 -2.121886 C -2.684136 -1.559386 -2.999761 -0.796886 -2.999761 -0.000011 C -2.999761 0.796864 -2.684136 1.559364 -2.121636 2.121864 C -1.559136 2.684364 -0.796636 2.999989 0.000239 2.999989 Z M 0.000239 2.999989 " transform="matrix(1.25,0,0,1.25,132.179389,16.875014)"/>
<path style="fill-rule:nonzero;fill:rgb(12.156863%,46.666667%,70.588235%);fill-opacity:1;stroke-width:1;stroke-linecap:butt;stroke-linejoin:round;stroke:rgb(12.156863%,46.666667%,70.588235%);stroke-opacity:1;stroke-miterlimit:4;" d="M -0.000508 2.999993 C 0.796367 2.999993 1.558867 2.684368 2.121367 2.121868 C 2.683867 1.559368 2.999492 0.796868 2.999492 -0.000007 C 2.999492 -0.796882 2.683867 -1.559382 2.121367 -2.121882 C 1.558867 -2.684382 0.796367 -3.000007 -0.000508 -3.000007 C -0.794258 -3.000007 -1.559883 -2.684382 -2.122383 -2.121882 C -2.684883 -1.559382 -3.000508 -0.796882 -3.000508 -0.000007 C -3.000508 0.796868 -2.684883 1.559368 -2.122383 2.121868 C -1.559883 2.684368 -0.794258 2.999993 -0.000508 2.999993 Z M -0.000508 2.999993 " transform="matrix(1.25,0,0,1.25,143.86001,43.125009)"/>
<path style="fill-rule:nonzero;fill:rgb(12.156863%,46.666667%,70.588235%);fill-opacity:1;stroke-width:1;stroke-linecap:butt;stroke-linejoin:round;stroke:rgb(12.156863%,46.666667%,70.588235%);stroke-opacity:1;stroke-miterlimit:4;" d="M -0.001256 2.999998 C 0.795619 2.999998 1.558119 2.684373 2.120619 2.121873 C 2.683119 1.559373 2.998744 0.796873 2.998744 -0.000002 C 2.998744 -0.796877 2.683119 -1.559377 2.120619 -2.121877 C 1.558119 -2.684377 0.795619 -3.000002 -0.001256 -3.000002 C -0.795006 -3.000002 -1.557506 -2.684377 -2.120006 -2.121877 C -2.682506 -1.559377 -3.001256 -0.796877 -3.001256 -0.000002 C -3.001256 0.796873 -2.682506 1.559373 -2.120006 2.121873 C -1.557506 2.684373 -0.795006 2.999998 -0.001256 2.999998 Z M -0.001256 2.999998 " transform="matrix(1.25,0,0,1.25,155.540633,80.625002)"/>
<path style="fill-rule:nonzero;fill:rgb(12.156863%,46.666667%,70.588235%);fill-opacity:1;stroke-width:1;stroke-linecap:butt;stroke-linejoin:round;stroke:rgb(12.156863%,46.666667%,70.588235%);stroke-opacity:1;stroke-miterlimit:4;" d="M 0.001121 2.999999 C 0.794871 2.999999 1.557371 2.684374 2.119871 2.121874 C 2.682371 1.559374 3.001121 0.796874 3.001121 -0.000001 C 3.001121 -0.796876 2.682371 -1.559376 2.119871 -2.121876 C 1.557371 -2.684376 0.794871 -3.000001 0.001121 -3.000001 C -0.795754 -3.000001 -1.558254 -2.684376 -2.120754 -2.121876 C -2.683254 -1.559376 -2.998879 -0.796876 -2.998879 -0.000001 C -2.998879 0.796874 -2.683254 1.559374 -2.120754 2.121874 C -1.558254 2.684374 -0.795754 2.999999 0.001121 2.999999 Z M 0.001121 2.999999 " transform="matrix(1.25,0,0,1.25,167.221255,115.781251)"/>
<path style="fill-rule:nonzero;fill:rgb(12.156863%,46.666667%,70.588235%);fill-opacity:1;stroke-width:1;stroke-linecap:butt;stroke-linejoin:round;stroke:rgb(12.156863%,46.666667%,70.588235%);stroke-opacity:1;stroke-miterlimit:4;" d="M 0.000374 3.001042 C 0.794124 3.001042 1.559749 2.685417 2.122249 2.119792 C 2.684749 1.557292 3.000374 0.794792 3.000374 0.001042 C 3.000374 -0.795833 2.684749 -1.558333 2.122249 -2.120833 C 1.559749 -2.683333 0.794124 -2.998958 0.000374 -2.998958 C -0.796501 -2.998958 -1.559001 -2.683333 -2.121501 -2.120833 C -2.684001 -1.558333 -2.999626 -0.795833 -2.999626 0.001042 C -2.999626 0.794792 -2.684001 1.557292 -2.121501 2.119792 C -1.559001 2.685417 -0.796501 3.001042 0.000374 3.001042 Z M 0.000374 3.001042 " transform="matrix(1.25,0,0,1.25,178.901876,141.822916)"/>
<path style="fill-rule:nonzero;fill:rgb(12.156863%,46.666667%,70.588235%);fill-opacity:1;stroke-width:1;stroke-linecap:butt;stroke-linejoin:round;stroke:rgb(12.156863%,46.666667%,70.588235%);stroke-opacity:1;stroke-miterlimit:4;" d="M -0.000374 2.998958 C 0.796501 2.998958 1.559001 2.683333 2.121501 2.120833 C 2.684001 1.558333 2.999626 0.795833 2.999626 -0.001042 C 2.999626 -0.794792 2.684001 -1.557292 2.121501 -2.119792 C 1.559001 -2.685417 0.796501 -3.001042 -0.000374 -3.001042 C -0.794124 -3.001042 -1.559749 -2.685417 -2.122249 -2.119792 C -2.684749 -1.557292 -3.000374 -0.794792 -3.000374 -0.001042 C -3.000374 0.795833 -2.684749 1.558333 -2.122249 2.120833 C -1.559749 2.683333 -0.794124 2.998958 -0.000374 2.998958 Z M -0.000374 2.998958 " transform="matrix(1.25,0,0,1.25,190.582499,158.098959)"/>
<path style="fill-rule:nonzero;fill:rgb(12.156863%,46.666667%,70.588235%);fill-opacity:1;stroke-width:1;stroke-linecap:butt;stroke-linejoin:round;stroke:rgb(12.156863%,46.666667%,70.588235%);stroke-opacity:1;stroke-miterlimit:4;" d="M -0.001121 2.999811 C 0.795754 2.999811 1.558254 2.684186 2.120754 2.121686 C 2.683254 1.559186 2.998879 0.796686 2.998879 -0.000189 C 2.998879 -0.797064 2.683254 -1.559564 2.120754 -2.122064 C 1.558254 -2.684564 0.795754 -3.000189 -0.001121 -3.000189 C -0.794871 -3.000189 -1.557371 -2.684564 -2.119871 -2.122064 C -2.682371 -1.559564 -3.001121 -0.797064 -3.001121 -0.000189 C -3.001121 0.796686 -2.682371 1.559186 -2.119871 2.121686 C -1.557371 2.684186 -0.794871 2.999811 -0.001121 2.999811 Z M -0.001121 2.999811 " transform="matrix(1.25,0,0,1.25,202.26312,166.976799)"/>
<path style="fill-rule:nonzero;fill:rgb(12.156863%,46.666667%,70.588235%);fill-opacity:1;stroke-width:1;stroke-linecap:butt;stroke-linejoin:round;stroke:rgb(12.156863%,46.666667%,70.588235%);stroke-opacity:1;stroke-miterlimit:4;" d="M 0.001256 3.000442 C 0.795006 3.000442 1.557506 2.684817 2.120006 2.122317 C 2.682506 1.559817 3.001256 0.794192 3.001256 0.000442 C 3.001256 -0.796433 2.682506 -1.558933 2.120006 -2.121433 C 1.557506 -2.683933 0.795006 -2.999558 0.001256 -2.999558 C -0.795619 -2.999558 -1.558119 -2.683933 -2.120619 -2.121433 C -2.683119 -1.558933 -2.998744 -0.796433 -2.998744 0.000442 C -2.998744 0.794192 -2.683119 1.559817 -2.120619 2.122317 C -1.558119 2.684817 -0.795619 3.000442 0.001256 3.000442 Z M 0.001256 3.000442 " transform="matrix(1.25,0,0,1.25,213.943742,171.292416)"/>
<path style="fill-rule:nonzero;fill:rgb(12.156863%,46.666667%,70.588235%);fill-opacity:1;stroke-width:1;stroke-linecap:butt;stroke-linejoin:round;stroke:rgb(12.156863%,46.666667%,70.588235%);stroke-opacity:1;stroke-miterlimit:4;" d="M 0.000508 2.998487 C 0.794258 2.998487 1.559883 2.682862 2.122383 2.120362 C 2.684883 1.557862 3.000508 0.795362 3.000508 -0.001513 C 3.000508 -0.795263 2.684883 -1.557763 2.122383 -2.120263 C 1.559883 -2.682763 0.794258 -3.001513 0.000508 -3.001513 C -0.796367 -3.001513 -1.558867 -2.682763 -2.121367 -2.120263 C -2.683867 -1.557763 -2.999492 -0.795263 -2.999492 -0.001513 C -2.999492 0.795362 -2.683867 1.557862 -2.121367 2.120362 C -1.558867 2.682862 -0.796367 2.998487 0.000508 2.998487 Z M 0.000508 2.998487 " transform="matrix(1.25,0,0,1.25,225.624365,173.189391)"/>
<path style="fill-rule:nonzero;fill:rgb(12.156863%,46.666667%,70.588235%);fill-opacity:1;stroke-width:1;stroke-linecap:butt;stroke-linejoin:round;stroke:rgb(12.156863%,46.666667%,70.588235%);stroke-opacity:1;stroke-miterlimit:4;" d="M -0.000239 3.001245 C 0.796636 3.001245 1.559136 2.682495 2.121636 2.119995 C 2.684136 1.557495 2.999761 0.794995 2.999761 0.001245 C 2.999761 -0.79563 2.684136 -1.55813 2.121636 -2.12063 C 1.559136 -2.68313 0.796636 -2.998755 -0.000239 -2.998755 C -0.797114 -2.998755 -1.559614 -2.68313 -2.122114 -2.12063 C -2.684614 -1.55813 -3.000239 -0.79563 -3.000239 0.001245 C -3.000239 0.794995 -2.684614 1.557495 -2.122114 2.119995 C -1.559614 2.682495 -0.797114 3.001245 -0.000239 3.001245 Z M -0.000239 3.001245 " transform="matrix(1.25,0,0,1.25,237.304986,173.951569)"/>
<path style="fill-rule:nonzero;fill:rgb(12.156863%,46.666667%,70.588235%);fill-opacity:1;stroke-width:1;stroke-linecap:butt;stroke-linejoin:round;stroke:rgb(12.156863%,46.666667%,70.588235%);stroke-opacity:1;stroke-miterlimit:4;" d="M -0.000987 3.000415 C 0.795888 3.000415 1.558388 2.68479 2.120888 2.12229 C 2.683388 1.55979 2.999013 0.794165 2.999013 0.000415 C 2.999013 -0.79646 2.683388 -1.55896 2.120888 -2.12146 C 1.558388 -2.68396 0.795888 -2.999585 -0.000987 -2.999585 C -0.794737 -2.999585 -1.557237 -2.68396 -2.122862 -2.12146 C -2.685362 -1.55896 -3.000987 -0.79646 -3.000987 0.000415 C -3.000987 0.794165 -2.685362 1.55979 -2.122862 2.12229 C -1.557237 2.68479 -0.794737 3.000415 -0.000987 3.000415 Z M -0.000987 3.000415 " transform="matrix(1.25,0,0,1.25,248.985609,174.233856)"/>
<path style="fill-rule:nonzero;fill:rgb(12.156863%,46.666667%,70.588235%);fill-opacity:1;stroke-width:1;stroke-linecap:butt;stroke-linejoin:round;stroke:rgb(12.156863%,46.666667%,70.588235%);stroke-opacity:1;stroke-miterlimit:4;" d="M 0.001391 3.000911 C 0.795141 3.000911 1.557641 2.685286 2.120141 2.122786 C 2.682641 1.560286 3.001391 0.794661 3.001391 0.000911 C 3.001391 -0.795964 2.682641 -1.558464 2.120141 -2.120964 C 1.557641 -2.683464 0.795141 -2.999089 0.001391 -2.999089 C -0.795484 -2.999089 -1.557984 -2.683464 -2.120484 -2.120964 C -2.682984 -1.558464 -2.998609 -0.795964 -2.998609 0.000911 C -2.998609 0.794661 -2.682984 1.560286 -2.120484 2.122786 C -1.557984 2.685286 -0.795484 3.000911 0.001391 3.000911 Z M 0.001391 3.000911 " transform="matrix(1.25,0,0,1.25,260.66623,174.330892)"/>
<path style="fill-rule:nonzero;fill:rgb(12.156863%,46.666667%,70.588235%);fill-opacity:1;stroke-width:1;stroke-linecap:butt;stroke-linejoin:round;stroke:rgb(12.156863%,46.666667%,70.588235%);stroke-opacity:1;stroke-miterlimit:4;" d="M 0.000643 3.001003 C 0.794393 3.001003 1.560018 2.685378 2.122518 2.122878 C 2.685018 1.557253 3.000643 0.794753 3.000643 0.001003 C 3.000643 -0.795872 2.685018 -1.558372 2.122518 -2.120872 C 1.560018 -2.683372 0.794393 -2.998997 0.000643 -2.998997 C -0.796232 -2.998997 -1.558732 -2.683372 -2.121232 -2.120872 C -2.683732 -1.558372 -2.999357 -0.795872 -2.999357 0.001003 C -2.999357 0.794753 -2.683732 1.557253 -2.121232 2.122878 C -1.558732 2.685378 -0.796232 3.001003 0.000643 3.001003 Z M 0.000643 3.001003 " transform="matrix(1.25,0,0,1.25,272.346852,174.362028)"/>
<path style="fill-rule:nonzero;fill:rgb(12.156863%,46.666667%,70.588235%);fill-opacity:1;stroke-width:1;stroke-linecap:butt;stroke-linejoin:round;stroke:rgb(12.156863%,46.666667%,70.588235%);stroke-opacity:1;stroke-miterlimit:4;" d="M -0.000105 2.999758 C 0.79677 2.999758 1.55927 2.684133 2.12177 2.121633 C 2.68427 1.559133 2.999895 0.796633 2.999895 -0.000242 C 2.999895 -0.797117 2.68427 -1.559617 2.12177 -2.122117 C 1.55927 -2.684617 0.79677 -3.000242 -0.000105 -3.000242 C -0.79698 -3.000242 -1.55948 -2.684617 -2.12198 -2.122117 C -2.68448 -1.559617 -3.000105 -0.797117 -3.000105 -0.000242 C -3.000105 0.796633 -2.68448 1.559133 -2.12198 2.121633 C -1.55948 2.684133 -0.79698 2.999758 -0.000105 2.999758 Z M -0.000105 2.999758 " transform="matrix(1.25,0,0,1.25,284.027475,174.371396)"/>
<path style="fill-rule:nonzero;fill:rgb(12.156863%,46.666667%,70.588235%);fill-opacity:1;stroke-width:1;stroke-linecap:butt;stroke-linejoin:round;stroke:rgb(12.156863%,46.666667%,70.588235%);stroke-opacity:1;stroke-miterlimit:4;" d="M -0.000852 3.000759 C 0.796023 3.000759 1.558523 2.685134 2.121023 2.122634 C 2.683523 1.560134 2.999148 0.794509 2.999148 0.000759 C 2.999148 -0.796116 2.683523 -1.558616 2.121023 -2.121116 C 1.558523 -2.683616 0.796023 -2.999241 -0.000852 -2.999241 C -0.794602 -2.999241 -1.560227 -2.683616 -2.122727 -2.121116 C -2.685227 -1.558616 -3.000852 -0.796116 -3.000852 0.000759 C -3.000852 0.794509 -2.685227 1.560134 -2.122727 2.122634 C -1.560227 2.685134 -0.794602 3.000759 -0.000852 3.000759 Z M -0.000852 3.000759 " transform="matrix(1.25,0,0,1.25,295.708096,174.374051)"/>
<path style="fill:none;stroke-width:1.5;stroke-linecap:square;stroke-linejoin:round;stroke:rgb(83.921569%,15.294118%,15.686275%);stroke-opacity:1;stroke-miterlimit:4;" d="M 59.021875 139.5 L 236.565625 139.5 " transform="matrix(1.25,0,0,1.25,0,0)"/>
<path style="fill:none;stroke-width:0.8;stroke-linecap:square;stroke-linejoin:miter;stroke:rgb(0%,0%,0%);stroke-opacity:1;stroke-miterlimit:4;" d="M 50.14375 145.8 L 50.14375 7.2 " transform="matrix(1.25,0,0,1.25,0,0)"/>
<path style="fill:none;stroke-width:0.8;stroke-linecap:square;stroke-linejoin:miter;stroke:rgb(0%,0%,0%);stroke-opacity:1;stroke-miterlimit:4;" d="M 245.44375 145.8 L 245.44375 7.2 " transform="matrix(1.25,0,0,1.25,0,0)"/>
<path style="fill:none;stroke-width:0.8;stroke-linecap:square;stroke-linejoin:miter;stroke:rgb(0%,0%,0%);stroke-opacity:1;stroke-miterlimit:4;" d="M 50.14375 145.8 L 245.44375 145.8 " transform="matrix(1.25,0,0,1.25,0,0)"/>
<path style="fill:none;stroke-width:0.8;stroke-linecap:square;stroke-linejoin:miter;stroke:rgb(0%,0%,0%);stroke-opacity:1;stroke-miterlimit:4;" d="M 50.14375 7.2 L 245.44375 7.2 " transform="matrix(1.25,0,0,1.25,0,0)"/>
</g>
</svg>
