<?xml version="1.0" encoding="UTF-8"?>
<svg xmlns="http://www.w3.org/2000/svg" xmlns:xlink="http://www.w3.org/1999/xlink" width="308pt" height="229pt" viewBox="0 0 308 229" version="1.1">
<defs>
<clipPath id="clip1">
  <path d="M 87 9 L 89 9 L 89 182.25 L 87 182.25 Z M 87 9 "/>
</clipPath>
<clipPath id="clip2">
  <path d="M 131 9 L 134 9 L 134 182.25 L 131 182.25 Z M 131 9 "/>
</clipPath>
<clipPath id="clip3">
  <path d="M 176 9 L 178 9 L 178 182.25 L 176 182.25 Z M 176 9 "/>
</clipPath>
<clipPath id="clip4">
  <path d="M 220 9 L 223 9 L 223 182.25 L 220 182.25 Z M 220 9 "/>
</clipPath>
<clipPath id="clip5">
  <path d="M 265 9 L 267 9 L 267 182.25 L 265 182.25 Z M 265 9 "/>
</clipPath>
<clipPath id="clip6">
  <path d="M 54.726562 173 L 298.851562 173 L 298.851562 176 L 54.726562 176 Z M 54.726562 173 "/>
</clipPath>
<clipPath id="clip7">
  <path d="M 54.726562 124 L 298.851562 124 L 298.851562 126 L 54.726562 126 Z M 54.726562 124 "/>
</clipPath>
<clipPath id="clip8">
  <path d="M 54.726562 74 L 298.851562 74 L 298.851562 77 L 54.726562 77 Z M 54.726562 74 "/>
</clipPath>
<clipPath id="clip9">
  <path d="M 54.726562 25 L 298.851562 25 L 298.851562 28 L 54.726562 28 Z M 54.726562 25 "/>
</clipPath>
</defs>
<g id="surface1">
<path style=" stroke:none;fill-rule:nonzero;fill:rgb(100%,100%,100%);fill-opacity:1;" d="M 0 229.195312 L 307.851562 229.195312 L 307.851562 0 L 0 0 Z M 0 229.195312 "/>
<path style=" stroke:none;fill-rule:nonzero;fill:rgb(100%,100%,100%);fill-opacity:1;" d="M 54.726562 182.25 L 298.851562 182.25 L 298.851562 9 L 54.726562 9 Z M 54.726562 182.25 "/>
<g clip-path="url(#clip1)" clip-rule="nonzero">
<path style="fill:none;stroke-width:0.8;stroke-linecap:square;stroke-linejoin:round;stroke:rgb(69.019608%,69.019608%,69.019608%);stroke-opacity:1;stroke-miterlimit:4;" d="M 70.43125 145.8 L 70.43125 7.2 " transform="matrix(1.25,0,0,1.25,0,0)"/>
</g>
<path style="fill:none;stroke-width:0.8;stroke-linecap:butt;stroke-linejoin:round;stroke:rgb(0%,0%,0%);stroke-opacity:1;stroke-miterlimit:4;" d="M 0.000409 0 L 0.000409 3.5 " transform="matrix(1.25,0,0,1.25,88.038551,182.25)"/>
<path style=" stroke:none;fill-rule:nonzero;fill:rgb(0%,0%,0%);fill-opacity:1;" d="M 80.148438 196.0625 L 87.972656 196.0625 L 87.972656 197.097656 L 80.148438 197.097656 Z M 80.148438 196.0625 "/>
<path style=" stroke:none;fill-rule:nonzero;fill:rgb(0%,0%,0%);fill-opacity:1;" d="M 94.023438 192.460938 L 90.910156 197.324219 L 94.023438 197.324219 Z M 93.699219 191.386719 L 95.25 191.386719 L 95.25 197.324219 L 96.550781 197.324219 L 96.550781 198.351562 L 95.25 198.351562 L 95.25 200.5 L 94.023438 200.5 L 94.023438 198.351562 L 89.910156 198.351562 L 89.910156 197.160156 Z M 93.699219 191.386719 "/>
<g clip-path="url(#clip2)" clip-rule="nonzero">
<path style="fill:none;stroke-width:0.8;stroke-linecap:square;stroke-linejoin:round;stroke:rgb(69.019608%,69.019608%,69.019608%);stroke-opacity:1;stroke-miterlimit:4;" d="M 105.975 145.8 L 105.975 7.2 " transform="matrix(1.25,0,0,1.25,0,0)"/>
</g>
<path style="fill:none;stroke-width:0.8;stroke-linecap:butt;stroke-linejoin:round;stroke:rgb(0%,0%,0%);stroke-opacity:1;stroke-miterlimit:4;" d="M -0.000477 0 L -0.000477 3.5 " transform="matrix(1.25,0,0,1.25,132.469346,182.25)"/>
<path style=" stroke:none;fill-rule:nonzero;fill:rgb(0%,0%,0%);fill-opacity:1;" d="M 124.578125 196.0625 L 132.402344 196.0625 L 132.402344 197.097656 L 124.578125 197.097656 Z M 124.578125 196.0625 "/>
<path style=" stroke:none;fill-rule:nonzero;fill:rgb(0%,0%,0%);fill-opacity:1;" d="M 136.128906 199.460938 L 140.429688 199.460938 L 140.429688 200.5 L 134.644531 200.5 L 134.644531 199.460938 C 135.113281 198.976562 135.75 198.328125 136.558594 197.511719 C 137.367188 196.695312 137.875 196.167969 138.082031 195.933594 C 138.476562 195.488281 138.75 195.113281 138.90625 194.808594 C 139.0625 194.5 139.144531 194.199219 139.144531 193.902344 C 139.144531 193.417969 138.972656 193.023438 138.632812 192.71875 C 138.292969 192.410156 137.851562 192.257812 137.304688 192.257812 C 136.917969 192.257812 136.511719 192.324219 136.082031 192.460938 C 135.652344 192.59375 135.195312 192.796875 134.707031 193.070312 L 134.707031 191.824219 C 135.203125 191.625 135.664062 191.476562 136.097656 191.375 C 136.527344 191.273438 136.921875 191.222656 137.28125 191.222656 C 138.226562 191.222656 138.976562 191.457031 139.539062 191.929688 C 140.101562 192.402344 140.382812 193.03125 140.382812 193.820312 C 140.382812 194.195312 140.3125 194.550781 140.171875 194.886719 C 140.03125 195.222656 139.777344 195.617188 139.40625 196.074219 C 139.304688 196.191406 138.980469 196.53125 138.433594 197.097656 C 137.890625 197.660156 137.121094 198.449219 136.128906 199.460938 Z M 136.128906 199.460938 "/>
<g clip-path="url(#clip3)" clip-rule="nonzero">
<path style="fill:none;stroke-width:0.8;stroke-linecap:square;stroke-linejoin:round;stroke:rgb(69.019608%,69.019608%,69.019608%);stroke-opacity:1;stroke-miterlimit:4;" d="M 141.51875 145.8 L 141.51875 7.2 " transform="matrix(1.25,0,0,1.25,0,0)"/>
</g>
<path style="fill:none;stroke-width:0.8;stroke-linecap:butt;stroke-linejoin:round;stroke:rgb(0%,0%,0%);stroke-opacity:1;stroke-miterlimit:4;" d="M -0.001364 0 L -0.001364 3.5 " transform="matrix(1.25,0,0,1.25,176.900143,182.25)"/>
<path style=" stroke:none;fill-rule:nonzero;fill:rgb(0%,0%,0%);fill-opacity:1;" d="M 176.894531 192.199219 C 176.261719 192.199219 175.785156 192.511719 175.464844 193.136719 C 175.144531 193.757812 174.984375 194.699219 174.984375 195.953125 C 174.984375 197.199219 175.144531 198.136719 175.464844 198.761719 C 175.785156 199.386719 176.261719 199.699219 176.894531 199.699219 C 177.535156 199.699219 178.015625 199.386719 178.332031 198.761719 C 178.652344 198.136719 178.8125 197.199219 178.8125 195.953125 C 178.8125 194.699219 178.652344 193.757812 178.332031 193.136719 C 178.015625 192.511719 177.535156 192.199219 176.894531 192.199219 Z M 176.894531 191.222656 C 177.917969 191.222656 178.699219 191.625 179.238281 192.433594 C 179.777344 193.242188 180.046875 194.414062 180.046875 195.953125 C 180.046875 197.484375 179.777344 198.65625 179.238281 199.464844 C 178.699219 200.273438 177.917969 200.675781 176.894531 200.675781 C 175.875 200.675781 175.09375 200.273438 174.554688 199.464844 C 174.015625 198.65625 173.746094 197.484375 173.746094 195.953125 C 173.746094 194.414062 174.015625 193.242188 174.554688 192.433594 C 175.09375 191.625 175.875 191.222656 176.894531 191.222656 Z M 176.894531 191.222656 "/>
<g clip-path="url(#clip4)" clip-rule="nonzero">
<path style="fill:none;stroke-width:0.8;stroke-linecap:square;stroke-linejoin:round;stroke:rgb(69.019608%,69.019608%,69.019608%);stroke-opacity:1;stroke-miterlimit:4;" d="M 177.065625 145.8 L 177.065625 7.2 " transform="matrix(1.25,0,0,1.25,0,0)"/>
</g>
<path style="fill:none;stroke-width:0.8;stroke-linecap:butt;stroke-linejoin:round;stroke:rgb(0%,0%,0%);stroke-opacity:1;stroke-miterlimit:4;" d="M 0.000875 0 L 0.000875 3.5 " transform="matrix(1.25,0,0,1.25,221.330938,182.25)"/>
<path style=" stroke:none;fill-rule:nonzero;fill:rgb(0%,0%,0%);fill-opacity:1;" d="M 219.753906 199.460938 L 224.054688 199.460938 L 224.054688 200.5 L 218.269531 200.5 L 218.269531 199.460938 C 218.738281 198.976562 219.375 198.328125 220.183594 197.511719 C 220.992188 196.695312 221.5 196.167969 221.707031 195.933594 C 222.101562 195.488281 222.375 195.113281 222.53125 194.808594 C 222.691406 194.5 222.769531 194.199219 222.769531 193.902344 C 222.769531 193.417969 222.597656 193.023438 222.257812 192.71875 C 221.917969 192.410156 221.476562 192.257812 220.929688 192.257812 C 220.542969 192.257812 220.136719 192.324219 219.707031 192.460938 C 219.277344 192.59375 218.820312 192.796875 218.332031 193.070312 L 218.332031 191.824219 C 218.828125 191.625 219.289062 191.476562 219.722656 191.375 C 220.152344 191.273438 220.550781 191.222656 220.90625 191.222656 C 221.851562 191.222656 222.605469 191.457031 223.164062 191.929688 C 223.726562 192.402344 224.007812 193.03125 224.007812 193.820312 C 224.007812 194.195312 223.9375 194.550781 223.796875 194.886719 C 223.65625 195.222656 223.402344 195.617188 223.03125 196.074219 C 222.929688 196.191406 222.605469 196.53125 222.058594 197.097656 C 221.515625 197.660156 220.746094 198.449219 219.753906 199.460938 Z M 219.753906 199.460938 "/>
<g clip-path="url(#clip5)" clip-rule="nonzero">
<path style="fill:none;stroke-width:0.8;stroke-linecap:square;stroke-linejoin:round;stroke:rgb(69.019608%,69.019608%,69.019608%);stroke-opacity:1;stroke-miterlimit:4;" d="M 212.609375 145.8 L 212.609375 7.2 " transform="matrix(1.25,0,0,1.25,0,0)"/>
</g>
<path style="fill:none;stroke-width:0.8;stroke-linecap:butt;stroke-linejoin:round;stroke:rgb(0%,0%,0%);stroke-opacity:1;stroke-miterlimit:4;" d="M -0.000011 0 L -0.000011 3.5 " transform="matrix(1.25,0,0,1.25,265.761732,182.25)"/>
<path style=" stroke:none;fill-rule:nonzero;fill:rgb(0%,0%,0%);fill-opacity:1;" d="M 266.511719 192.460938 L 263.398438 197.324219 L 266.511719 197.324219 Z M 266.1875 191.386719 L 267.738281 191.386719 L 267.738281 197.324219 L 269.039062 197.324219 L 269.039062 198.351562 L 267.738281 198.351562 L 267.738281 200.5 L 266.511719 200.5 L 266.511719 198.351562 L 262.398438 198.351562 L 262.398438 197.160156 Z M 266.1875 191.386719 "/>
<path style=" stroke:none;fill-rule:nonzero;fill:rgb(0%,0%,0%);fill-opacity:1;" d="M 179.953125 210.761719 L 177.476562 214.085938 L 180.078125 217.597656 L 178.753906 217.597656 L 176.765625 214.910156 L 174.773438 217.597656 L 173.449219 217.597656 L 176.105469 214.019531 L 173.675781 210.761719 L 175 210.761719 L 176.8125 213.195312 L 178.625 210.761719 Z M 179.953125 210.761719 "/>
<g clip-path="url(#clip6)" clip-rule="nonzero">
<path style="fill:none;stroke-width:0.8;stroke-linecap:square;stroke-linejoin:round;stroke:rgb(69.019608%,69.019608%,69.019608%);stroke-opacity:1;stroke-miterlimit:4;" d="M 43.78125 139.54375 L 239.08125 139.54375 " transform="matrix(1.25,0,0,1.25,0,0)"/>
</g>
<path style="fill:none;stroke-width:0.8;stroke-linecap:butt;stroke-linejoin:round;stroke:rgb(0%,0%,0%);stroke-opacity:1;stroke-miterlimit:4;" d="M 0 0.001471 L -3.5 0.001471 " transform="matrix(1.25,0,0,1.25,54.726562,174.427849)"/>
<path style=" stroke:none;fill-rule:nonzero;fill:rgb(0%,0%,0%);fill-opacity:1;" d="M 30.070312 170.875 C 29.4375 170.875 28.960938 171.1875 28.640625 171.8125 C 28.320312 172.4375 28.160156 173.375 28.160156 174.628906 C 28.160156 175.878906 28.320312 176.816406 28.640625 177.441406 C 28.960938 178.066406 29.4375 178.378906 30.070312 178.378906 C 30.710938 178.378906 31.1875 178.066406 31.507812 177.441406 C 31.828125 176.816406 31.988281 175.878906 31.988281 174.628906 C 31.988281 173.375 31.828125 172.4375 31.507812 171.8125 C 31.1875 171.1875 30.710938 170.875 30.070312 170.875 Z M 30.070312 169.898438 C 31.09375 169.898438 31.875 170.304688 32.414062 171.113281 C 32.953125 171.917969 33.21875 173.09375 33.21875 174.628906 C 33.21875 176.164062 32.953125 177.335938 32.414062 178.144531 C 31.875 178.949219 31.09375 179.355469 30.070312 179.355469 C 29.050781 179.355469 28.269531 178.949219 27.730469 178.144531 C 27.191406 177.335938 26.921875 176.164062 26.921875 174.628906 C 26.921875 173.09375 27.191406 171.917969 27.730469 171.113281 C 28.269531 170.304688 29.050781 169.898438 30.070312 169.898438 Z M 30.070312 169.898438 "/>
<path style=" stroke:none;fill-rule:nonzero;fill:rgb(0%,0%,0%);fill-opacity:1;" d="M 35.386719 177.625 L 36.675781 177.625 L 36.675781 179.175781 L 35.386719 179.175781 Z M 35.386719 177.625 "/>
<path style=" stroke:none;fill-rule:nonzero;fill:rgb(0%,0%,0%);fill-opacity:1;" d="M 41.996094 170.875 C 41.363281 170.875 40.886719 171.1875 40.566406 171.8125 C 40.246094 172.4375 40.085938 173.375 40.085938 174.628906 C 40.085938 175.878906 40.246094 176.816406 40.566406 177.441406 C 40.886719 178.066406 41.363281 178.378906 41.996094 178.378906 C 42.636719 178.378906 43.113281 178.066406 43.433594 177.441406 C 43.753906 176.816406 43.914062 175.878906 43.914062 174.628906 C 43.914062 173.375 43.753906 172.4375 43.433594 171.8125 C 43.113281 171.1875 42.636719 170.875 41.996094 170.875 Z M 41.996094 169.898438 C 43.019531 169.898438 43.800781 170.304688 44.339844 171.113281 C 44.878906 171.917969 45.148438 173.09375 45.148438 174.628906 C 45.148438 176.164062 44.878906 177.335938 44.339844 178.144531 C 43.800781 178.949219 43.019531 179.355469 41.996094 179.355469 C 40.976562 179.355469 40.195312 178.949219 39.65625 178.144531 C 39.117188 177.335938 38.847656 176.164062 38.847656 174.628906 C 38.847656 173.09375 39.117188 171.917969 39.65625 171.113281 C 40.195312 170.304688 40.976562 169.898438 41.996094 169.898438 Z M 41.996094 169.898438 "/>
<g clip-path="url(#clip7)" clip-rule="nonzero">
<path style="fill:none;stroke-width:0.8;stroke-linecap:square;stroke-linejoin:round;stroke:rgb(69.019608%,69.019608%,69.019608%);stroke-opacity:1;stroke-miterlimit:4;" d="M 43.78125 100.053125 L 239.08125 100.053125 " transform="matrix(1.25,0,0,1.25,0,0)"/>
</g>
<path style="fill:none;stroke-width:0.8;stroke-linecap:butt;stroke-linejoin:round;stroke:rgb(0%,0%,0%);stroke-opacity:1;stroke-miterlimit:4;" d="M 0 0.000178 L -3.5 0.000178 " transform="matrix(1.25,0,0,1.25,54.726562,125.066184)"/>
<path style=" stroke:none;fill-rule:nonzero;fill:rgb(0%,0%,0%);fill-opacity:1;" d="M 30.070312 121.515625 C 29.4375 121.515625 28.960938 121.828125 28.640625 122.453125 C 28.320312 123.074219 28.160156 124.015625 28.160156 125.269531 C 28.160156 126.515625 28.320312 127.453125 28.640625 128.078125 C 28.960938 128.703125 29.4375 129.015625 30.070312 129.015625 C 30.710938 129.015625 31.1875 128.703125 31.507812 128.078125 C 31.828125 127.453125 31.988281 126.515625 31.988281 125.269531 C 31.988281 124.015625 31.828125 123.074219 31.507812 122.453125 C 31.1875 121.828125 30.710938 121.515625 30.070312 121.515625 Z M 30.070312 120.539062 C 31.09375 120.539062 31.875 120.941406 32.414062 121.75 C 32.953125 122.558594 33.21875 123.730469 33.21875 125.269531 C 33.21875 126.800781 32.953125 127.972656 32.414062 128.78125 C 31.875 129.589844 31.09375 129.992188 30.070312 129.992188 C 29.050781 129.992188 28.269531 129.589844 27.730469 128.78125 C 27.191406 127.972656 26.921875 126.800781 26.921875 125.269531 C 26.921875 123.730469 27.191406 122.558594 27.730469 121.75 C 28.269531 120.941406 29.050781 120.539062 30.070312 120.539062 Z M 30.070312 120.539062 "/>
<path style=" stroke:none;fill-rule:nonzero;fill:rgb(0%,0%,0%);fill-opacity:1;" d="M 35.386719 128.265625 L 36.675781 128.265625 L 36.675781 129.816406 L 35.386719 129.816406 Z M 35.386719 128.265625 "/>
<path style=" stroke:none;fill-rule:nonzero;fill:rgb(0%,0%,0%);fill-opacity:1;" d="M 39.574219 128.777344 L 41.589844 128.777344 L 41.589844 121.824219 L 39.398438 122.265625 L 39.398438 121.140625 L 41.578125 120.703125 L 42.808594 120.703125 L 42.808594 128.777344 L 44.824219 128.777344 L 44.824219 129.816406 L 39.574219 129.816406 Z M 39.574219 128.777344 "/>
<g clip-path="url(#clip8)" clip-rule="nonzero">
<path style="fill:none;stroke-width:0.8;stroke-linecap:square;stroke-linejoin:round;stroke:rgb(69.019608%,69.019608%,69.019608%);stroke-opacity:1;stroke-miterlimit:4;" d="M 43.78125 60.5625 L 239.08125 60.5625 " transform="matrix(1.25,0,0,1.25,0,0)"/>
</g>
<path style="fill:none;stroke-width:0.8;stroke-linecap:butt;stroke-linejoin:round;stroke:rgb(0%,0%,0%);stroke-opacity:1;stroke-miterlimit:4;" d="M 0 -0.001114 L -3.5 -0.001114 " transform="matrix(1.25,0,0,1.25,54.726562,75.704518)"/>
<path style=" stroke:none;fill-rule:nonzero;fill:rgb(0%,0%,0%);fill-opacity:1;" d="M 30.070312 72.152344 C 29.4375 72.152344 28.960938 72.464844 28.640625 73.089844 C 28.320312 73.714844 28.160156 74.652344 28.160156 75.90625 C 28.160156 77.15625 28.320312 78.09375 28.640625 78.71875 C 28.960938 79.34375 29.4375 79.65625 30.070312 79.65625 C 30.710938 79.65625 31.1875 79.34375 31.507812 78.71875 C 31.828125 78.09375 31.988281 77.15625 31.988281 75.90625 C 31.988281 74.652344 31.828125 73.714844 31.507812 73.089844 C 31.1875 72.464844 30.710938 72.152344 30.070312 72.152344 Z M 30.070312 71.175781 C 31.09375 71.175781 31.875 71.582031 32.414062 72.390625 C 32.953125 73.195312 33.21875 74.367188 33.21875 75.90625 C 33.21875 77.441406 32.953125 78.613281 32.414062 79.421875 C 31.875 80.226562 31.09375 80.632812 30.070312 80.632812 C 29.050781 80.632812 28.269531 80.226562 27.730469 79.421875 C 27.191406 78.613281 26.921875 77.441406 26.921875 75.90625 C 26.921875 74.367188 27.191406 73.195312 27.730469 72.390625 C 28.269531 71.582031 29.050781 71.175781 30.070312 71.175781 Z M 30.070312 71.175781 "/>
<path style=" stroke:none;fill-rule:nonzero;fill:rgb(0%,0%,0%);fill-opacity:1;" d="M 35.386719 78.902344 L 36.675781 78.902344 L 36.675781 80.453125 L 35.386719 80.453125 Z M 35.386719 78.902344 "/>
<path style=" stroke:none;fill-rule:nonzero;fill:rgb(0%,0%,0%);fill-opacity:1;" d="M 40.421875 79.417969 L 44.726562 79.417969 L 44.726562 80.453125 L 38.941406 80.453125 L 38.941406 79.417969 C 39.40625 78.933594 40.042969 78.28125 40.851562 77.46875 C 41.660156 76.652344 42.167969 76.125 42.375 75.886719 C 42.769531 75.445312 43.046875 75.070312 43.203125 74.761719 C 43.359375 74.453125 43.4375 74.152344 43.4375 73.855469 C 43.4375 73.371094 43.269531 72.976562 42.929688 72.671875 C 42.589844 72.367188 42.144531 72.214844 41.601562 72.214844 C 41.214844 72.214844 40.804688 72.28125 40.375 72.414062 C 39.945312 72.546875 39.488281 72.753906 39 73.027344 L 39 71.78125 C 39.496094 71.582031 39.960938 71.429688 40.390625 71.328125 C 40.824219 71.226562 41.21875 71.175781 41.578125 71.175781 C 42.519531 71.175781 43.273438 71.414062 43.835938 71.886719 C 44.394531 72.355469 44.675781 72.988281 44.675781 73.777344 C 44.675781 74.152344 44.605469 74.507812 44.464844 74.84375 C 44.324219 75.175781 44.070312 75.570312 43.699219 76.027344 C 43.597656 76.144531 43.273438 76.488281 42.730469 77.050781 C 42.183594 77.613281 41.414062 78.402344 40.421875 79.417969 Z M 40.421875 79.417969 "/>
<g clip-path="url(#clip9)" clip-rule="nonzero">
<path style="fill:none;stroke-width:0.8;stroke-linecap:square;stroke-linejoin:round;stroke:rgb(69.019608%,69.019608%,69.019608%);stroke-opacity:1;stroke-miterlimit:4;" d="M 43.78125 21.075 L 239.08125 21.075 " transform="matrix(1.25,0,0,1.25,0,0)"/>
</g>
<path style="fill:none;stroke-width:0.8;stroke-linecap:butt;stroke-linejoin:round;stroke:rgb(0%,0%,0%);stroke-opacity:1;stroke-miterlimit:4;" d="M 0 0.000718 L -3.5 0.000718 " transform="matrix(1.25,0,0,1.25,54.726562,26.342852)"/>
<path style=" stroke:none;fill-rule:nonzero;fill:rgb(0%,0%,0%);fill-opacity:1;" d="M 30.070312 22.792969 C 29.4375 22.792969 28.960938 23.105469 28.640625 23.730469 C 28.320312 24.351562 28.160156 25.292969 28.160156 26.546875 C 28.160156 27.792969 28.320312 28.730469 28.640625 29.355469 C 28.960938 29.980469 29.4375 30.292969 30.070312 30.292969 C 30.710938 30.292969 31.1875 29.980469 31.507812 29.355469 C 31.828125 28.730469 31.988281 27.792969 31.988281 26.546875 C 31.988281 25.292969 31.828125 24.351562 31.507812 23.730469 C 31.1875 23.105469 30.710938 22.792969 30.070312 22.792969 Z M 30.070312 21.816406 C 31.09375 21.816406 31.875 22.21875 32.414062 23.027344 C 32.953125 23.835938 33.21875 25.007812 33.21875 26.546875 C 33.21875 28.078125 32.953125 29.25 32.414062 30.058594 C 31.875 30.867188 31.09375 31.269531 30.070312 31.269531 C 29.050781 31.269531 28.269531 30.867188 27.730469 30.058594 C 27.191406 29.25 26.921875 28.078125 26.921875 26.546875 C 26.921875 25.007812 27.191406 23.835938 27.730469 23.027344 C 28.269531 22.21875 29.050781 21.816406 30.070312 21.816406 Z M 30.070312 21.816406 "/>
<path style=" stroke:none;fill-rule:nonzero;fill:rgb(0%,0%,0%);fill-opacity:1;" d="M 35.386719 29.542969 L 36.675781 29.542969 L 36.675781 31.09375 L 35.386719 31.09375 Z M 35.386719 29.542969 "/>
<path style=" stroke:none;fill-rule:nonzero;fill:rgb(0%,0%,0%);fill-opacity:1;" d="M 43.097656 26.179688 C 43.6875 26.304688 44.144531 26.566406 44.476562 26.96875 C 44.808594 27.367188 44.976562 27.859375 44.976562 28.445312 C 44.976562 29.34375 44.664062 30.039062 44.046875 30.53125 C 43.429688 31.023438 42.550781 31.269531 41.410156 31.269531 C 41.027344 31.269531 40.636719 31.230469 40.230469 31.15625 C 39.824219 31.082031 39.40625 30.96875 38.976562 30.816406 L 38.976562 29.628906 C 39.316406 29.828125 39.691406 29.976562 40.097656 30.078125 C 40.503906 30.179688 40.929688 30.230469 41.375 30.230469 C 42.148438 30.230469 42.734375 30.078125 43.140625 29.773438 C 43.546875 29.46875 43.75 29.027344 43.75 28.445312 C 43.75 27.90625 43.558594 27.484375 43.183594 27.183594 C 42.808594 26.878906 42.285156 26.730469 41.613281 26.730469 L 40.550781 26.730469 L 40.550781 25.714844 L 41.664062 25.714844 C 42.269531 25.714844 42.730469 25.59375 43.054688 25.351562 C 43.375 25.109375 43.535156 24.761719 43.535156 24.304688 C 43.535156 23.835938 43.371094 23.480469 43.039062 23.230469 C 42.707031 22.976562 42.230469 22.851562 41.613281 22.851562 C 41.273438 22.851562 40.914062 22.890625 40.527344 22.964844 C 40.140625 23.035156 39.714844 23.148438 39.25 23.304688 L 39.25 22.207031 C 39.71875 22.074219 40.15625 21.976562 40.566406 21.914062 C 40.976562 21.847656 41.359375 21.816406 41.722656 21.816406 C 42.660156 21.816406 43.398438 22.027344 43.945312 22.453125 C 44.488281 22.878906 44.761719 23.453125 44.761719 24.175781 C 44.761719 24.679688 44.617188 25.109375 44.328125 25.457031 C 44.039062 25.804688 43.628906 26.042969 43.097656 26.179688 Z M 43.097656 26.179688 "/>
<path style=" stroke:none;fill-rule:nonzero;fill:rgb(0%,0%,0%);fill-opacity:1;" d="M 10.398438 116.925781 L 17.484375 116.925781 L 17.484375 115.4375 C 17.484375 114.179688 17.199219 113.257812 16.632812 112.675781 C 16.0625 112.089844 15.160156 111.800781 13.933594 111.800781 C 12.710938 111.800781 11.816406 112.089844 11.25 112.675781 C 10.683594 113.257812 10.398438 114.179688 10.398438 115.4375 Z M 9.386719 118.160156 L 9.386719 115.625 C 9.386719 113.859375 9.753906 112.566406 10.488281 111.738281 C 11.222656 110.914062 12.371094 110.5 13.933594 110.5 C 15.503906 110.5 16.65625 110.914062 17.394531 111.746094 C 18.128906 112.574219 18.5 113.867188 18.5 115.625 L 18.5 118.160156 Z M 9.386719 118.160156 "/>
<path style=" stroke:none;fill-rule:nonzero;fill:rgb(0%,0%,0%);fill-opacity:1;" d="M 14.800781 102.734375 L 15.347656 102.734375 L 15.347656 107.898438 C 16.121094 107.851562 16.710938 107.617188 17.117188 107.199219 C 17.519531 106.785156 17.722656 106.203125 17.722656 105.457031 C 17.722656 105.027344 17.671875 104.609375 17.566406 104.203125 C 17.460938 103.800781 17.300781 103.398438 17.089844 102.996094 L 18.152344 102.996094 C 18.320312 103.402344 18.453125 103.8125 18.542969 104.238281 C 18.632812 104.660156 18.675781 105.089844 18.675781 105.523438 C 18.675781 106.617188 18.359375 107.480469 17.726562 108.117188 C 17.089844 108.753906 16.230469 109.070312 15.148438 109.070312 C 14.027344 109.070312 13.140625 108.769531 12.484375 108.164062 C 11.828125 107.5625 11.5 106.746094 11.5 105.71875 C 11.5 104.800781 11.792969 104.074219 12.386719 103.539062 C 12.976562 103.003906 13.78125 102.734375 14.800781 102.734375 Z M 14.46875 103.859375 C 13.855469 103.867188 13.367188 104.039062 13 104.375 C 12.632812 104.710938 12.449219 105.15625 12.449219 105.707031 C 12.449219 106.335938 12.625 106.835938 12.980469 107.210938 C 13.335938 107.589844 13.832031 107.804688 14.476562 107.863281 Z M 14.46875 103.859375 "/>
<path style=" stroke:none;fill-rule:nonzero;fill:rgb(0%,0%,0%);fill-opacity:1;" d="M 14.371094 95.207031 L 18.5 95.207031 L 18.5 96.332031 L 14.410156 96.332031 C 13.761719 96.332031 13.277344 96.457031 12.957031 96.710938 C 12.636719 96.964844 12.476562 97.339844 12.476562 97.84375 C 12.476562 98.453125 12.667969 98.929688 13.054688 99.28125 C 13.441406 99.632812 13.96875 99.804688 14.636719 99.804688 L 18.5 99.804688 L 18.5 100.933594 L 11.664062 100.933594 L 11.664062 99.804688 L 12.726562 99.804688 C 12.3125 99.535156 12.007812 99.21875 11.804688 98.855469 C 11.601562 98.492188 11.5 98.070312 11.5 97.59375 C 11.5 96.808594 11.742188 96.214844 12.226562 95.8125 C 12.710938 95.410156 13.425781 95.207031 14.371094 95.207031 Z M 14.371094 95.207031 "/>
<path style=" stroke:none;fill-rule:nonzero;fill:rgb(0%,0%,0%);fill-opacity:1;" d="M 11.863281 88.613281 L 12.925781 88.613281 C 12.761719 88.929688 12.640625 89.257812 12.5625 89.601562 C 12.480469 89.941406 12.4375 90.296875 12.4375 90.664062 C 12.4375 91.21875 12.523438 91.636719 12.695312 91.917969 C 12.863281 92.195312 13.121094 92.335938 13.464844 92.335938 C 13.722656 92.335938 13.929688 92.234375 14.078125 92.035156 C 14.226562 91.835938 14.367188 91.4375 14.5 90.832031 L 14.585938 90.449219 C 14.757812 89.652344 14.996094 89.085938 15.308594 88.75 C 15.621094 88.414062 16.054688 88.246094 16.613281 88.246094 C 17.246094 88.246094 17.75 88.496094 18.121094 89 C 18.492188 89.5 18.675781 90.191406 18.675781 91.070312 C 18.675781 91.4375 18.640625 91.820312 18.570312 92.214844 C 18.496094 92.613281 18.390625 93.03125 18.25 93.46875 L 17.089844 93.46875 C 17.304688 93.054688 17.464844 92.644531 17.574219 92.242188 C 17.679688 91.839844 17.734375 91.441406 17.734375 91.046875 C 17.734375 90.515625 17.644531 90.109375 17.464844 89.828125 C 17.28125 89.542969 17.027344 89.398438 16.699219 89.398438 C 16.394531 89.398438 16.160156 89.503906 15.996094 89.707031 C 15.832031 89.914062 15.675781 90.363281 15.527344 91.058594 L 15.433594 91.449219 C 15.289062 92.144531 15.0625 92.648438 14.761719 92.957031 C 14.457031 93.265625 14.039062 93.421875 13.511719 93.421875 C 12.867188 93.421875 12.371094 93.191406 12.023438 92.738281 C 11.671875 92.28125 11.5 91.632812 11.5 90.796875 C 11.5 90.382812 11.527344 89.992188 11.589844 89.625 C 11.648438 89.257812 11.742188 88.921875 11.863281 88.613281 Z M 11.863281 88.613281 "/>
<path style=" stroke:none;fill-rule:nonzero;fill:rgb(0%,0%,0%);fill-opacity:1;" d="M 11.664062 86.457031 L 11.664062 85.335938 L 18.5 85.335938 L 18.5 86.457031 Z M 9 86.457031 L 9 85.335938 L 10.425781 85.335938 L 10.425781 86.457031 Z M 9 86.457031 "/>
<path style=" stroke:none;fill-rule:nonzero;fill:rgb(0%,0%,0%);fill-opacity:1;" d="M 9.722656 81.875 L 11.664062 81.875 L 11.664062 79.5625 L 12.535156 79.5625 L 12.535156 81.875 L 16.246094 81.875 C 16.804688 81.875 17.160156 81.796875 17.320312 81.644531 C 17.480469 81.492188 17.558594 81.183594 17.558594 80.714844 L 17.558594 79.5625 L 18.5 79.5625 L 18.5 80.714844 C 18.5 81.582031 18.335938 82.179688 18.015625 82.507812 C 17.691406 82.835938 17.101562 83.003906 16.246094 83.003906 L 12.535156 83.003906 L 12.535156 83.828125 L 11.664062 83.828125 L 11.664062 83.003906 L 9.722656 83.003906 Z M 9.722656 81.875 "/>
<path style=" stroke:none;fill-rule:nonzero;fill:rgb(0%,0%,0%);fill-opacity:1;" d="M 19.132812 75.238281 C 19.945312 75.554688 20.476562 75.867188 20.726562 76.167969 C 20.972656 76.46875 21.097656 76.871094 21.097656 77.375 L 21.097656 78.273438 L 20.160156 78.273438 L 20.160156 77.613281 C 20.160156 77.304688 20.085938 77.066406 19.9375 76.894531 C 19.792969 76.722656 19.445312 76.53125 18.902344 76.324219 L 18.390625 76.125 L 11.664062 78.886719 L 11.664062 77.699219 L 17.007812 75.5625 L 11.664062 73.425781 L 11.664062 72.234375 Z M 19.132812 75.238281 "/>
<path style="fill:none;stroke-width:1.5;stroke-linecap:square;stroke-linejoin:round;stroke:rgb(12.156863%,46.666667%,70.588235%);stroke-opacity:1;stroke-miterlimit:4;" d="M 52.659375 139.5 L 60.478125 139.31875 L 65.1 138.996875 L 68.475 138.540625 L 71.140625 137.965625 L 73.453125 137.24375 L 75.584375 136.3375 L 77.540625 135.25 L 79.315625 134.00625 L 81.09375 132.46875 L 82.69375 130.796875 L 84.29375 128.81875 L 85.89375 126.5 L 87.49375 123.809375 L 89.26875 120.346875 L 91.046875 116.353125 L 92.825 111.80625 L 94.778125 106.159375 L 96.9125 99.2375 L 99.221875 90.90625 L 101.8875 80.390625 L 105.61875 64.628125 L 110.596875 43.696875 L 112.90625 34.90625 L 114.8625 28.31875 L 116.4625 23.66875 L 117.884375 20.1875 L 119.128125 17.696875 L 120.19375 16 L 121.259375 14.734375 L 122.146875 14.0125 L 123.0375 13.603125 L 123.746875 13.5 L 124.459375 13.6 L 125.16875 13.9 L 126.059375 14.553125 L 126.946875 15.515625 L 128.0125 17.0625 L 129.078125 19.021875 L 130.325 21.80625 L 131.746875 25.5875 L 133.34375 30.53125 L 135.3 37.396875 L 137.609375 46.390625 L 141.34375 61.996875 L 145.9625 81.121875 L 148.628125 91.16875 L 150.7625 98.3875 L 152.715625 104.259375 L 154.49375 108.925 L 156.09375 112.559375 L 157.69375 115.65625 L 159.115625 117.9625 L 160.5375 119.85625 L 161.959375 121.35625 L 163.203125 122.35625 L 164.446875 123.084375 L 165.690625 123.55 L 166.934375 123.775 L 168.178125 123.775 L 169.421875 123.571875 L 170.84375 123.1125 L 172.44375 122.34375 L 174.221875 121.23125 L 176.353125 119.61875 L 179.375 117.021875 L 184.70625 112.40625 L 187.01875 110.71875 L 188.971875 109.553125 L 190.75 108.753125 L 192.35 108.26875 L 193.95 108.021875 L 195.546875 108.025 L 197.146875 108.275 L 198.746875 108.771875 L 200.346875 109.5 L 202.125 110.565625 L 204.078125 112.015625 L 206.390625 114.03125 L 209.23125 116.84375 L 214.740625 122.715625 L 218.653125 126.703125 L 221.671875 129.465625 L 224.340625 131.596875 L 226.828125 133.30625 L 229.315625 134.74375 L 230.203125 135.19375 " transform="matrix(1.25,0,0,1.25,0,0)"/>
<path style="fill:none;stroke-width:0.8;stroke-linecap:square;stroke-linejoin:miter;stroke:rgb(0%,0%,0%);stroke-opacity:1;stroke-miterlimit:4;" d="M 43.78125 145.8 L 43.78125 7.2 " transform="matrix(1.25,0,0,1.25,0,0)"/>
<path style="fill:none;stroke-width:0.8;stroke-linecap:square;stroke-linejoin:miter;stroke:rgb(0%,0%,0%);stroke-opacity:1;stroke-miterlimit:4;" d="M 239.08125 145.8 L 239.08125 7.2 " transform="matrix(1.25,0,0,1.25,0,0)"/>
<path style="fill:none;stroke-width:0.8;stroke-linecap:square;stroke-linejoin:miter;stroke:rgb(0%,0%,0%);stroke-opacity:1;stroke-miterlimit:4;" d="M 43.78125 145.8 L 239.08125 145.8 " transform="matrix(1.25,0,0,1.25,0,0)"/>
<path style="fill:none;stroke-width:0.8;stroke-linecap:square;stroke-linejoin:miter;stroke:rgb(0%,0%,0%);stroke-opacity:1;stroke-miterlimit:4;" d="M 43.78125 7.2 L 239.08125 7.2 " transform="matrix(1.25,0,0,1.25,0,0)"/>
</g>
</svg>
