<?xml version="1.0" encoding="UTF-8"?>
<svg xmlns="http://www.w3.org/2000/svg" xmlns:xlink="http://www.w3.org/1999/xlink" width="308pt" height="229pt" viewBox="0 0 308 229" version="1.1">
<defs>
<clipPath id="clip1">
  <path d="M 75 9 L 77 9 L 77 182.25 L 75 182.25 Z M 75 9 "/>
</clipPath>
<clipPath id="clip2">
  <path d="M 125 9 L 128 9 L 128 182.25 L 125 182.25 Z M 125 9 "/>
</clipPath>
<clipPath id="clip3">
  <path d="M 176 9 L 178 9 L 178 182.25 L 176 182.25 Z M 176 9 "/>
</clipPath>
<clipPath id="clip4">
  <path d="M 226 9 L 229 9 L 229 182.25 L 226 182.25 Z M 226 9 "/>
</clipPath>
<clipPath id="clip5">
  <path d="M 277 9 L 279 9 L 279 182.25 L 277 182.25 Z M 277 9 "/>
</clipPath>
<clipPath id="clip6">
  <path d="M 54.726562 173 L 298.851562 173 L 298.851562 176 L 54.726562 176 Z M 54.726562 173 "/>
</clipPath>
<clipPath id="clip7">
  <path d="M 54.726562 142 L 298.851562 142 L 298.851562 144 L 54.726562 144 Z M 54.726562 142 "/>
</clipPath>
<clipPath id="clip8">
  <path d="M 54.726562 110 L 298.851562 110 L 298.851562 113 L 54.726562 113 Z M 54.726562 110 "/>
</clipPath>
<clipPath id="clip9">
  <path d="M 54.726562 79 L 298.851562 79 L 298.851562 81 L 54.726562 81 Z M 54.726562 79 "/>
</clipPath>
<clipPath id="clip10">
  <path d="M 54.726562 47 L 298.851562 47 L 298.851562 50 L 54.726562 50 Z M 54.726562 47 "/>
</clipPath>
<clipPath id="clip11">
  <path d="M 54.726562 16 L 298.851562 16 L 298.851562 18 L 54.726562 18 Z M 54.726562 16 "/>
</clipPath>
</defs>
<g id="surface1">
<path style=" stroke:none;fill-rule:nonzero;fill:rgb(100%,100%,100%);fill-opacity:1;" d="M 0 229.195312 L 307.851562 229.195312 L 307.851562 0 L 0 0 Z M 0 229.195312 "/>
<path style=" stroke:none;fill-rule:nonzero;fill:rgb(100%,100%,100%);fill-opacity:1;" d="M 54.726562 182.25 L 298.851562 182.25 L 298.851562 9 L 54.726562 9 Z M 54.726562 182.25 "/>
<g clip-path="url(#clip1)" clip-rule="nonzero">
<path style="fill:none;stroke-width:0.8;stroke-linecap:square;stroke-linejoin:round;stroke:rgb(69.019608%,69.019608%,69.019608%);stroke-opacity:1;stroke-miterlimit:4;" d="M 60.73125 145.8 L 60.73125 7.2 " transform="matrix(1.25,0,0,1.25,0,0)"/>
</g>
<path style="fill:none;stroke-width:0.8;stroke-linecap:butt;stroke-linejoin:round;stroke:rgb(0%,0%,0%);stroke-opacity:1;stroke-miterlimit:4;" d="M -0.001191 0 L -0.001191 3.5 " transform="matrix(1.25,0,0,1.25,75.915551,182.25)"/>
<path style=" stroke:none;fill-rule:nonzero;fill:rgb(0%,0%,0%);fill-opacity:1;" d="M 75.910156 192.199219 C 75.277344 192.199219 74.800781 192.511719 74.480469 193.136719 C 74.160156 193.757812 74 194.699219 74 195.953125 C 74 197.199219 74.160156 198.136719 74.480469 198.761719 C 74.800781 199.386719 75.277344 199.699219 75.910156 199.699219 C 76.550781 199.699219 77.03125 199.386719 77.347656 198.761719 C 77.667969 198.136719 77.828125 197.199219 77.828125 195.953125 C 77.828125 194.699219 77.667969 193.757812 77.347656 193.136719 C 77.03125 192.511719 76.550781 192.199219 75.910156 192.199219 Z M 75.910156 191.222656 C 76.933594 191.222656 77.714844 191.625 78.253906 192.433594 C 78.792969 193.242188 79.0625 194.414062 79.0625 195.953125 C 79.0625 197.484375 78.792969 198.65625 78.253906 199.464844 C 77.714844 200.273438 76.933594 200.675781 75.910156 200.675781 C 74.890625 200.675781 74.109375 200.273438 73.570312 199.464844 C 73.03125 198.65625 72.761719 197.484375 72.761719 195.953125 C 72.761719 194.414062 73.03125 193.242188 73.570312 192.433594 C 74.109375 191.625 74.890625 191.222656 75.910156 191.222656 Z M 75.910156 191.222656 "/>
<g clip-path="url(#clip2)" clip-rule="nonzero">
<path style="fill:none;stroke-width:0.8;stroke-linecap:square;stroke-linejoin:round;stroke:rgb(69.019608%,69.019608%,69.019608%);stroke-opacity:1;stroke-miterlimit:4;" d="M 101.103125 145.8 L 101.103125 7.2 " transform="matrix(1.25,0,0,1.25,0,0)"/>
</g>
<path style="fill:none;stroke-width:0.8;stroke-linecap:butt;stroke-linejoin:round;stroke:rgb(0%,0%,0%);stroke-opacity:1;stroke-miterlimit:4;" d="M 0.001094 0 L 0.001094 3.5 " transform="matrix(1.25,0,0,1.25,126.377539,182.25)"/>
<path style=" stroke:none;fill-rule:nonzero;fill:rgb(0%,0%,0%);fill-opacity:1;" d="M 123.75 191.386719 L 128.589844 191.386719 L 128.589844 192.425781 L 124.878906 192.425781 L 124.878906 194.65625 C 125.058594 194.59375 125.234375 194.550781 125.414062 194.519531 C 125.59375 194.488281 125.773438 194.476562 125.953125 194.476562 C 126.96875 194.476562 127.777344 194.753906 128.371094 195.3125 C 128.964844 195.867188 129.261719 196.621094 129.261719 197.574219 C 129.261719 198.554688 128.957031 199.316406 128.347656 199.863281 C 127.734375 200.40625 126.875 200.675781 125.765625 200.675781 C 125.382812 200.675781 124.992188 200.644531 124.59375 200.578125 C 124.199219 200.511719 123.789062 200.414062 123.367188 200.285156 L 123.367188 199.046875 C 123.730469 199.246094 124.109375 199.394531 124.5 199.492188 C 124.890625 199.589844 125.304688 199.636719 125.738281 199.636719 C 126.441406 199.636719 127 199.453125 127.410156 199.082031 C 127.820312 198.710938 128.027344 198.210938 128.027344 197.574219 C 128.027344 196.941406 127.820312 196.4375 127.410156 196.070312 C 127 195.699219 126.441406 195.511719 125.738281 195.511719 C 125.410156 195.511719 125.082031 195.546875 124.753906 195.621094 C 124.425781 195.695312 124.089844 195.808594 123.75 195.964844 Z M 123.75 191.386719 "/>
<g clip-path="url(#clip3)" clip-rule="nonzero">
<path style="fill:none;stroke-width:0.8;stroke-linecap:square;stroke-linejoin:round;stroke:rgb(69.019608%,69.019608%,69.019608%);stroke-opacity:1;stroke-miterlimit:4;" d="M 141.471875 145.8 L 141.471875 7.2 " transform="matrix(1.25,0,0,1.25,0,0)"/>
</g>
<path style="fill:none;stroke-width:0.8;stroke-linecap:butt;stroke-linejoin:round;stroke:rgb(0%,0%,0%);stroke-opacity:1;stroke-miterlimit:4;" d="M 0.000254 0 L 0.000254 3.5 " transform="matrix(1.25,0,0,1.25,176.839526,182.25)"/>
<path style=" stroke:none;fill-rule:nonzero;fill:rgb(0%,0%,0%);fill-opacity:1;" d="M 170.4375 199.460938 L 172.449219 199.460938 L 172.449219 192.507812 L 170.257812 192.949219 L 170.257812 191.824219 L 172.4375 191.386719 L 173.671875 191.386719 L 173.671875 199.460938 L 175.683594 199.460938 L 175.683594 200.5 L 170.4375 200.5 Z M 170.4375 199.460938 "/>
<path style=" stroke:none;fill-rule:nonzero;fill:rgb(0%,0%,0%);fill-opacity:1;" d="M 180.8125 192.199219 C 180.179688 192.199219 179.699219 192.511719 179.378906 193.136719 C 179.0625 193.757812 178.902344 194.699219 178.902344 195.953125 C 178.902344 197.199219 179.0625 198.136719 179.378906 198.761719 C 179.699219 199.386719 180.179688 199.699219 180.8125 199.699219 C 181.453125 199.699219 181.929688 199.386719 182.25 198.761719 C 182.570312 198.136719 182.730469 197.199219 182.730469 195.953125 C 182.730469 194.699219 182.570312 193.757812 182.25 193.136719 C 181.929688 192.511719 181.453125 192.199219 180.8125 192.199219 Z M 180.8125 191.222656 C 181.835938 191.222656 182.613281 191.625 183.152344 192.433594 C 183.691406 193.242188 183.960938 194.414062 183.960938 195.953125 C 183.960938 197.484375 183.691406 198.65625 183.152344 199.464844 C 182.613281 200.273438 181.835938 200.675781 180.8125 200.675781 C 179.792969 200.675781 179.011719 200.273438 178.472656 199.464844 C 177.933594 198.65625 177.664062 197.484375 177.664062 195.953125 C 177.664062 194.414062 177.933594 193.242188 178.472656 192.433594 C 179.011719 191.625 179.792969 191.222656 180.8125 191.222656 Z M 180.8125 191.222656 "/>
<g clip-path="url(#clip4)" clip-rule="nonzero">
<path style="fill:none;stroke-width:0.8;stroke-linecap:square;stroke-linejoin:round;stroke:rgb(69.019608%,69.019608%,69.019608%);stroke-opacity:1;stroke-miterlimit:4;" d="M 181.840625 145.8 L 181.840625 7.2 " transform="matrix(1.25,0,0,1.25,0,0)"/>
</g>
<path style="fill:none;stroke-width:0.8;stroke-linecap:butt;stroke-linejoin:round;stroke:rgb(0%,0%,0%);stroke-opacity:1;stroke-miterlimit:4;" d="M -0.000585 0 L -0.000585 3.5 " transform="matrix(1.25,0,0,1.25,227.301513,182.25)"/>
<path style=" stroke:none;fill-rule:nonzero;fill:rgb(0%,0%,0%);fill-opacity:1;" d="M 220.898438 199.460938 L 222.914062 199.460938 L 222.914062 192.507812 L 220.722656 192.949219 L 220.722656 191.824219 L 222.902344 191.386719 L 224.132812 191.386719 L 224.132812 199.460938 L 226.148438 199.460938 L 226.148438 200.5 L 220.898438 200.5 Z M 220.898438 199.460938 "/>
<path style=" stroke:none;fill-rule:nonzero;fill:rgb(0%,0%,0%);fill-opacity:1;" d="M 228.652344 191.386719 L 233.492188 191.386719 L 233.492188 192.425781 L 229.78125 192.425781 L 229.78125 194.65625 C 229.957031 194.59375 230.136719 194.550781 230.316406 194.519531 C 230.496094 194.488281 230.675781 194.476562 230.855469 194.476562 C 231.871094 194.476562 232.675781 194.753906 233.269531 195.3125 C 233.863281 195.867188 234.164062 196.621094 234.164062 197.574219 C 234.164062 198.554688 233.855469 199.316406 233.246094 199.863281 C 232.636719 200.40625 231.773438 200.675781 230.664062 200.675781 C 230.28125 200.675781 229.890625 200.644531 229.496094 200.578125 C 229.097656 200.511719 228.6875 200.414062 228.265625 200.285156 L 228.265625 199.046875 C 228.632812 199.246094 229.011719 199.394531 229.402344 199.492188 C 229.792969 199.589844 230.203125 199.636719 230.640625 199.636719 C 231.34375 199.636719 231.902344 199.453125 232.3125 199.082031 C 232.722656 198.710938 232.929688 198.210938 232.929688 197.574219 C 232.929688 196.941406 232.722656 196.4375 232.3125 196.070312 C 231.902344 195.699219 231.34375 195.511719 230.640625 195.511719 C 230.308594 195.511719 229.980469 195.546875 229.652344 195.621094 C 229.324219 195.695312 228.992188 195.808594 228.652344 195.964844 Z M 228.652344 191.386719 "/>
<g clip-path="url(#clip5)" clip-rule="nonzero">
<path style="fill:none;stroke-width:0.8;stroke-linecap:square;stroke-linejoin:round;stroke:rgb(69.019608%,69.019608%,69.019608%);stroke-opacity:1;stroke-miterlimit:4;" d="M 222.209375 145.8 L 222.209375 7.2 " transform="matrix(1.25,0,0,1.25,0,0)"/>
</g>
<path style="fill:none;stroke-width:0.8;stroke-linecap:butt;stroke-linejoin:round;stroke:rgb(0%,0%,0%);stroke-opacity:1;stroke-miterlimit:4;" d="M -0.001425 0 L -0.001425 3.5 " transform="matrix(1.25,0,0,1.25,277.7635,182.25)"/>
<path style=" stroke:none;fill-rule:nonzero;fill:rgb(0%,0%,0%);fill-opacity:1;" d="M 272.207031 199.460938 L 276.511719 199.460938 L 276.511719 200.5 L 270.726562 200.5 L 270.726562 199.460938 C 271.195312 198.976562 271.832031 198.328125 272.636719 197.511719 C 273.445312 196.695312 273.953125 196.167969 274.160156 195.933594 C 274.554688 195.488281 274.832031 195.113281 274.988281 194.808594 C 275.144531 194.5 275.222656 194.199219 275.222656 193.902344 C 275.222656 193.417969 275.054688 193.023438 274.714844 192.71875 C 274.375 192.410156 273.933594 192.257812 273.386719 192.257812 C 273 192.257812 272.589844 192.324219 272.160156 192.460938 C 271.734375 192.59375 271.273438 192.796875 270.785156 193.070312 L 270.785156 191.824219 C 271.28125 191.625 271.746094 191.476562 272.175781 191.375 C 272.609375 191.273438 273.003906 191.222656 273.363281 191.222656 C 274.308594 191.222656 275.058594 191.457031 275.621094 191.929688 C 276.183594 192.402344 276.460938 193.03125 276.460938 193.820312 C 276.460938 194.195312 276.390625 194.550781 276.25 194.886719 C 276.113281 195.222656 275.855469 195.617188 275.484375 196.074219 C 275.382812 196.191406 275.0625 196.53125 274.515625 197.097656 C 273.972656 197.660156 273.203125 198.449219 272.207031 199.460938 Z M 272.207031 199.460938 "/>
<path style=" stroke:none;fill-rule:nonzero;fill:rgb(0%,0%,0%);fill-opacity:1;" d="M 281.734375 192.199219 C 281.101562 192.199219 280.625 192.511719 280.304688 193.136719 C 279.984375 193.757812 279.824219 194.699219 279.824219 195.953125 C 279.824219 197.199219 279.984375 198.136719 280.304688 198.761719 C 280.625 199.386719 281.101562 199.699219 281.734375 199.699219 C 282.375 199.699219 282.855469 199.386719 283.171875 198.761719 C 283.492188 198.136719 283.652344 197.199219 283.652344 195.953125 C 283.652344 194.699219 283.492188 193.757812 283.171875 193.136719 C 282.855469 192.511719 282.375 192.199219 281.734375 192.199219 Z M 281.734375 191.222656 C 282.757812 191.222656 283.539062 191.625 284.078125 192.433594 C 284.617188 193.242188 284.886719 194.414062 284.886719 195.953125 C 284.886719 197.484375 284.617188 198.65625 284.078125 199.464844 C 283.539062 200.273438 282.757812 200.675781 281.734375 200.675781 C 280.714844 200.675781 279.933594 200.273438 279.394531 199.464844 C 278.855469 198.65625 278.585938 197.484375 278.585938 195.953125 C 278.585938 194.414062 278.855469 193.242188 279.394531 192.433594 C 279.933594 191.625 280.714844 191.222656 281.734375 191.222656 Z M 281.734375 191.222656 "/>
<path style=" stroke:none;fill-rule:nonzero;fill:rgb(0%,0%,0%);fill-opacity:1;" d="M 179.953125 210.761719 L 177.476562 214.085938 L 180.078125 217.597656 L 178.753906 217.597656 L 176.765625 214.910156 L 174.773438 217.597656 L 173.449219 217.597656 L 176.105469 214.019531 L 173.675781 210.761719 L 175 210.761719 L 176.8125 213.195312 L 178.625 210.761719 Z M 179.953125 210.761719 "/>
<g clip-path="url(#clip6)" clip-rule="nonzero">
<path style="fill:none;stroke-width:0.8;stroke-linecap:square;stroke-linejoin:round;stroke:rgb(69.019608%,69.019608%,69.019608%);stroke-opacity:1;stroke-miterlimit:4;" d="M 43.78125 139.5 L 239.08125 139.5 " transform="matrix(1.25,0,0,1.25,0,0)"/>
</g>
<path style="fill:none;stroke-width:0.8;stroke-linecap:butt;stroke-linejoin:round;stroke:rgb(0%,0%,0%);stroke-opacity:1;stroke-miterlimit:4;" d="M 0 0 L -3.5 0 " transform="matrix(1.25,0,0,1.25,54.726562,174.375)"/>
<path style=" stroke:none;fill-rule:nonzero;fill:rgb(0%,0%,0%);fill-opacity:1;" d="M 30.070312 170.824219 C 29.4375 170.824219 28.960938 171.136719 28.640625 171.761719 C 28.320312 172.382812 28.160156 173.324219 28.160156 174.578125 C 28.160156 175.824219 28.320312 176.761719 28.640625 177.386719 C 28.960938 178.011719 29.4375 178.324219 30.070312 178.324219 C 30.710938 178.324219 31.1875 178.011719 31.507812 177.386719 C 31.828125 176.761719 31.988281 175.824219 31.988281 174.578125 C 31.988281 173.324219 31.828125 172.382812 31.507812 171.761719 C 31.1875 171.136719 30.710938 170.824219 30.070312 170.824219 Z M 30.070312 169.847656 C 31.09375 169.847656 31.875 170.25 32.414062 171.058594 C 32.953125 171.867188 33.21875 173.039062 33.21875 174.578125 C 33.21875 176.109375 32.953125 177.28125 32.414062 178.089844 C 31.875 178.898438 31.09375 179.300781 30.070312 179.300781 C 29.050781 179.300781 28.269531 178.898438 27.730469 178.089844 C 27.191406 177.28125 26.921875 176.109375 26.921875 174.578125 C 26.921875 173.039062 27.191406 171.867188 27.730469 171.058594 C 28.269531 170.25 29.050781 169.847656 30.070312 169.847656 Z M 30.070312 169.847656 "/>
<path style=" stroke:none;fill-rule:nonzero;fill:rgb(0%,0%,0%);fill-opacity:1;" d="M 35.386719 177.574219 L 36.675781 177.574219 L 36.675781 179.125 L 35.386719 179.125 Z M 35.386719 177.574219 "/>
<path style=" stroke:none;fill-rule:nonzero;fill:rgb(0%,0%,0%);fill-opacity:1;" d="M 41.996094 170.824219 C 41.363281 170.824219 40.886719 171.136719 40.566406 171.761719 C 40.246094 172.382812 40.085938 173.324219 40.085938 174.578125 C 40.085938 175.824219 40.246094 176.761719 40.566406 177.386719 C 40.886719 178.011719 41.363281 178.324219 41.996094 178.324219 C 42.636719 178.324219 43.113281 178.011719 43.433594 177.386719 C 43.753906 176.761719 43.914062 175.824219 43.914062 174.578125 C 43.914062 173.324219 43.753906 172.382812 43.433594 171.761719 C 43.113281 171.136719 42.636719 170.824219 41.996094 170.824219 Z M 41.996094 169.847656 C 43.019531 169.847656 43.800781 170.25 44.339844 171.058594 C 44.878906 171.867188 45.148438 173.039062 45.148438 174.578125 C 45.148438 176.109375 44.878906 177.28125 44.339844 178.089844 C 43.800781 178.898438 43.019531 179.300781 41.996094 179.300781 C 40.976562 179.300781 40.195312 178.898438 39.65625 178.089844 C 39.117188 177.28125 38.847656 176.109375 38.847656 174.578125 C 38.847656 173.039062 39.117188 171.867188 39.65625 171.058594 C 40.195312 170.25 40.976562 169.847656 41.996094 169.847656 Z M 41.996094 169.847656 "/>
<g clip-path="url(#clip7)" clip-rule="nonzero">
<path style="fill:none;stroke-width:0.8;stroke-linecap:square;stroke-linejoin:round;stroke:rgb(69.019608%,69.019608%,69.019608%);stroke-opacity:1;stroke-miterlimit:4;" d="M 43.78125 114.3 L 239.08125 114.3 " transform="matrix(1.25,0,0,1.25,0,0)"/>
</g>
<path style="fill:none;stroke-width:0.8;stroke-linecap:butt;stroke-linejoin:round;stroke:rgb(0%,0%,0%);stroke-opacity:1;stroke-miterlimit:4;" d="M 0 0 L -3.5 0 " transform="matrix(1.25,0,0,1.25,54.726562,142.875)"/>
<path style=" stroke:none;fill-rule:nonzero;fill:rgb(0%,0%,0%);fill-opacity:1;" d="M 30.070312 139.324219 C 29.4375 139.324219 28.960938 139.636719 28.640625 140.261719 C 28.320312 140.882812 28.160156 141.824219 28.160156 143.078125 C 28.160156 144.324219 28.320312 145.261719 28.640625 145.886719 C 28.960938 146.511719 29.4375 146.824219 30.070312 146.824219 C 30.710938 146.824219 31.1875 146.511719 31.507812 145.886719 C 31.828125 145.261719 31.988281 144.324219 31.988281 143.078125 C 31.988281 141.824219 31.828125 140.882812 31.507812 140.261719 C 31.1875 139.636719 30.710938 139.324219 30.070312 139.324219 Z M 30.070312 138.347656 C 31.09375 138.347656 31.875 138.75 32.414062 139.558594 C 32.953125 140.367188 33.21875 141.539062 33.21875 143.078125 C 33.21875 144.609375 32.953125 145.78125 32.414062 146.589844 C 31.875 147.398438 31.09375 147.800781 30.070312 147.800781 C 29.050781 147.800781 28.269531 147.398438 27.730469 146.589844 C 27.191406 145.78125 26.921875 144.609375 26.921875 143.078125 C 26.921875 141.539062 27.191406 140.367188 27.730469 139.558594 C 28.269531 138.75 29.050781 138.347656 30.070312 138.347656 Z M 30.070312 138.347656 "/>
<path style=" stroke:none;fill-rule:nonzero;fill:rgb(0%,0%,0%);fill-opacity:1;" d="M 35.386719 146.074219 L 36.675781 146.074219 L 36.675781 147.625 L 35.386719 147.625 Z M 35.386719 146.074219 "/>
<path style=" stroke:none;fill-rule:nonzero;fill:rgb(0%,0%,0%);fill-opacity:1;" d="M 40.421875 146.585938 L 44.726562 146.585938 L 44.726562 147.625 L 38.941406 147.625 L 38.941406 146.585938 C 39.40625 146.101562 40.042969 145.453125 40.851562 144.636719 C 41.660156 143.820312 42.167969 143.292969 42.375 143.058594 C 42.769531 142.613281 43.046875 142.238281 43.203125 141.933594 C 43.359375 141.625 43.4375 141.324219 43.4375 141.027344 C 43.4375 140.542969 43.269531 140.148438 42.929688 139.84375 C 42.589844 139.535156 42.144531 139.382812 41.601562 139.382812 C 41.214844 139.382812 40.804688 139.449219 40.375 139.585938 C 39.945312 139.71875 39.488281 139.921875 39 140.195312 L 39 138.949219 C 39.496094 138.75 39.960938 138.601562 40.390625 138.5 C 40.824219 138.398438 41.21875 138.347656 41.578125 138.347656 C 42.519531 138.347656 43.273438 138.582031 43.835938 139.054688 C 44.394531 139.527344 44.675781 140.15625 44.675781 140.945312 C 44.675781 141.320312 44.605469 141.675781 44.464844 142.011719 C 44.324219 142.347656 44.070312 142.742188 43.699219 143.199219 C 43.597656 143.316406 43.273438 143.65625 42.730469 144.222656 C 42.183594 144.785156 41.414062 145.574219 40.421875 146.585938 Z M 40.421875 146.585938 "/>
<g clip-path="url(#clip8)" clip-rule="nonzero">
<path style="fill:none;stroke-width:0.8;stroke-linecap:square;stroke-linejoin:round;stroke:rgb(69.019608%,69.019608%,69.019608%);stroke-opacity:1;stroke-miterlimit:4;" d="M 43.78125 89.1 L 239.08125 89.1 " transform="matrix(1.25,0,0,1.25,0,0)"/>
</g>
<path style="fill:none;stroke-width:0.8;stroke-linecap:butt;stroke-linejoin:round;stroke:rgb(0%,0%,0%);stroke-opacity:1;stroke-miterlimit:4;" d="M 0 0 L -3.5 0 " transform="matrix(1.25,0,0,1.25,54.726562,111.375)"/>
<path style=" stroke:none;fill-rule:nonzero;fill:rgb(0%,0%,0%);fill-opacity:1;" d="M 30.070312 107.824219 C 29.4375 107.824219 28.960938 108.136719 28.640625 108.761719 C 28.320312 109.382812 28.160156 110.324219 28.160156 111.578125 C 28.160156 112.824219 28.320312 113.761719 28.640625 114.386719 C 28.960938 115.011719 29.4375 115.324219 30.070312 115.324219 C 30.710938 115.324219 31.1875 115.011719 31.507812 114.386719 C 31.828125 113.761719 31.988281 112.824219 31.988281 111.578125 C 31.988281 110.324219 31.828125 109.382812 31.507812 108.761719 C 31.1875 108.136719 30.710938 107.824219 30.070312 107.824219 Z M 30.070312 106.847656 C 31.09375 106.847656 31.875 107.25 32.414062 108.058594 C 32.953125 108.867188 33.21875 110.039062 33.21875 111.578125 C 33.21875 113.109375 32.953125 114.28125 32.414062 115.089844 C 31.875 115.898438 31.09375 116.300781 30.070312 116.300781 C 29.050781 116.300781 28.269531 115.898438 27.730469 115.089844 C 27.191406 114.28125 26.921875 113.109375 26.921875 111.578125 C 26.921875 110.039062 27.191406 108.867188 27.730469 108.058594 C 28.269531 107.25 29.050781 106.847656 30.070312 106.847656 Z M 30.070312 106.847656 "/>
<path style=" stroke:none;fill-rule:nonzero;fill:rgb(0%,0%,0%);fill-opacity:1;" d="M 35.386719 114.574219 L 36.675781 114.574219 L 36.675781 116.125 L 35.386719 116.125 Z M 35.386719 114.574219 "/>
<path style=" stroke:none;fill-rule:nonzero;fill:rgb(0%,0%,0%);fill-opacity:1;" d="M 42.75 108.085938 L 39.636719 112.949219 L 42.75 112.949219 Z M 42.425781 107.011719 L 43.976562 107.011719 L 43.976562 112.949219 L 45.277344 112.949219 L 45.277344 113.976562 L 43.976562 113.976562 L 43.976562 116.125 L 42.75 116.125 L 42.75 113.976562 L 38.636719 113.976562 L 38.636719 112.785156 Z M 42.425781 107.011719 "/>
<g clip-path="url(#clip9)" clip-rule="nonzero">
<path style="fill:none;stroke-width:0.8;stroke-linecap:square;stroke-linejoin:round;stroke:rgb(69.019608%,69.019608%,69.019608%);stroke-opacity:1;stroke-miterlimit:4;" d="M 43.78125 63.9 L 239.08125 63.9 " transform="matrix(1.25,0,0,1.25,0,0)"/>
</g>
<path style="fill:none;stroke-width:0.8;stroke-linecap:butt;stroke-linejoin:round;stroke:rgb(0%,0%,0%);stroke-opacity:1;stroke-miterlimit:4;" d="M 0 0 L -3.5 0 " transform="matrix(1.25,0,0,1.25,54.726562,79.875)"/>
<path style=" stroke:none;fill-rule:nonzero;fill:rgb(0%,0%,0%);fill-opacity:1;" d="M 30.070312 76.324219 C 29.4375 76.324219 28.960938 76.636719 28.640625 77.261719 C 28.320312 77.882812 28.160156 78.824219 28.160156 80.078125 C 28.160156 81.324219 28.320312 82.261719 28.640625 82.886719 C 28.960938 83.511719 29.4375 83.824219 30.070312 83.824219 C 30.710938 83.824219 31.1875 83.511719 31.507812 82.886719 C 31.828125 82.261719 31.988281 81.324219 31.988281 80.078125 C 31.988281 78.824219 31.828125 77.882812 31.507812 77.261719 C 31.1875 76.636719 30.710938 76.324219 30.070312 76.324219 Z M 30.070312 75.347656 C 31.09375 75.347656 31.875 75.75 32.414062 76.558594 C 32.953125 77.367188 33.21875 78.539062 33.21875 80.078125 C 33.21875 81.609375 32.953125 82.78125 32.414062 83.589844 C 31.875 84.398438 31.09375 84.800781 30.070312 84.800781 C 29.050781 84.800781 28.269531 84.398438 27.730469 83.589844 C 27.191406 82.78125 26.921875 81.609375 26.921875 80.078125 C 26.921875 78.539062 27.191406 77.367188 27.730469 76.558594 C 28.269531 75.75 29.050781 75.347656 30.070312 75.347656 Z M 30.070312 75.347656 "/>
<path style=" stroke:none;fill-rule:nonzero;fill:rgb(0%,0%,0%);fill-opacity:1;" d="M 35.386719 83.074219 L 36.675781 83.074219 L 36.675781 84.625 L 35.386719 84.625 Z M 35.386719 83.074219 "/>
<path style=" stroke:none;fill-rule:nonzero;fill:rgb(0%,0%,0%);fill-opacity:1;" d="M 42.152344 79.578125 C 41.597656 79.578125 41.160156 79.765625 40.835938 80.144531 C 40.511719 80.523438 40.351562 81.042969 40.351562 81.699219 C 40.351562 82.355469 40.511719 82.875 40.835938 83.253906 C 41.160156 83.636719 41.597656 83.824219 42.152344 83.824219 C 42.703125 83.824219 43.140625 83.636719 43.464844 83.253906 C 43.789062 82.875 43.949219 82.355469 43.949219 81.699219 C 43.949219 81.042969 43.789062 80.523438 43.464844 80.144531 C 43.140625 79.765625 42.703125 79.578125 42.152344 79.578125 Z M 44.597656 75.710938 L 44.597656 76.835938 C 44.289062 76.6875 43.976562 76.578125 43.660156 76.5 C 43.34375 76.421875 43.03125 76.382812 42.722656 76.382812 C 41.910156 76.382812 41.289062 76.660156 40.859375 77.207031 C 40.429688 77.757812 40.183594 78.585938 40.125 79.699219 C 40.363281 79.34375 40.664062 79.074219 41.027344 78.882812 C 41.390625 78.695312 41.789062 78.601562 42.222656 78.601562 C 43.136719 78.601562 43.863281 78.878906 44.394531 79.433594 C 44.925781 79.988281 45.191406 80.746094 45.191406 81.699219 C 45.191406 82.636719 44.914062 83.386719 44.359375 83.953125 C 43.804688 84.519531 43.070312 84.800781 42.152344 84.800781 C 41.097656 84.800781 40.289062 84.398438 39.734375 83.589844 C 39.175781 82.78125 38.898438 81.609375 38.898438 80.078125 C 38.898438 78.636719 39.238281 77.488281 39.921875 76.632812 C 40.605469 75.773438 41.523438 75.347656 42.675781 75.347656 C 42.984375 75.347656 43.296875 75.378906 43.613281 75.4375 C 43.925781 75.5 44.253906 75.589844 44.597656 75.710938 Z M 44.597656 75.710938 "/>
<g clip-path="url(#clip10)" clip-rule="nonzero">
<path style="fill:none;stroke-width:0.8;stroke-linecap:square;stroke-linejoin:round;stroke:rgb(69.019608%,69.019608%,69.019608%);stroke-opacity:1;stroke-miterlimit:4;" d="M 43.78125 38.7 L 239.08125 38.7 " transform="matrix(1.25,0,0,1.25,0,0)"/>
</g>
<path style="fill:none;stroke-width:0.8;stroke-linecap:butt;stroke-linejoin:round;stroke:rgb(0%,0%,0%);stroke-opacity:1;stroke-miterlimit:4;" d="M 0 0 L -3.5 0 " transform="matrix(1.25,0,0,1.25,54.726562,48.375)"/>
<path style=" stroke:none;fill-rule:nonzero;fill:rgb(0%,0%,0%);fill-opacity:1;" d="M 30.070312 44.824219 C 29.4375 44.824219 28.960938 45.136719 28.640625 45.761719 C 28.320312 46.382812 28.160156 47.324219 28.160156 48.578125 C 28.160156 49.824219 28.320312 50.761719 28.640625 51.386719 C 28.960938 52.011719 29.4375 52.324219 30.070312 52.324219 C 30.710938 52.324219 31.1875 52.011719 31.507812 51.386719 C 31.828125 50.761719 31.988281 49.824219 31.988281 48.578125 C 31.988281 47.324219 31.828125 46.382812 31.507812 45.761719 C 31.1875 45.136719 30.710938 44.824219 30.070312 44.824219 Z M 30.070312 43.847656 C 31.09375 43.847656 31.875 44.25 32.414062 45.058594 C 32.953125 45.867188 33.21875 47.039062 33.21875 48.578125 C 33.21875 50.109375 32.953125 51.28125 32.414062 52.089844 C 31.875 52.898438 31.09375 53.300781 30.070312 53.300781 C 29.050781 53.300781 28.269531 52.898438 27.730469 52.089844 C 27.191406 51.28125 26.921875 50.109375 26.921875 48.578125 C 26.921875 47.039062 27.191406 45.867188 27.730469 45.058594 C 28.269531 44.25 29.050781 43.847656 30.070312 43.847656 Z M 30.070312 43.847656 "/>
<path style=" stroke:none;fill-rule:nonzero;fill:rgb(0%,0%,0%);fill-opacity:1;" d="M 35.386719 51.574219 L 36.675781 51.574219 L 36.675781 53.125 L 35.386719 53.125 Z M 35.386719 51.574219 "/>
<path style=" stroke:none;fill-rule:nonzero;fill:rgb(0%,0%,0%);fill-opacity:1;" d="M 41.996094 48.796875 C 41.410156 48.796875 40.949219 48.953125 40.613281 49.265625 C 40.277344 49.582031 40.113281 50.011719 40.113281 50.558594 C 40.113281 51.109375 40.277344 51.539062 40.613281 51.855469 C 40.949219 52.167969 41.410156 52.324219 41.996094 52.324219 C 42.582031 52.324219 43.042969 52.167969 43.382812 51.851562 C 43.71875 51.535156 43.890625 51.105469 43.890625 50.558594 C 43.890625 50.011719 43.722656 49.582031 43.386719 49.265625 C 43.050781 48.953125 42.585938 48.796875 41.996094 48.796875 Z M 40.765625 48.273438 C 40.234375 48.140625 39.824219 47.894531 39.527344 47.535156 C 39.234375 47.171875 39.085938 46.730469 39.085938 46.207031 C 39.085938 45.480469 39.34375 44.90625 39.863281 44.480469 C 40.382812 44.058594 41.09375 43.847656 41.996094 43.847656 C 42.902344 43.847656 43.617188 44.058594 44.132812 44.480469 C 44.648438 44.90625 44.910156 45.480469 44.910156 46.207031 C 44.910156 46.730469 44.761719 47.171875 44.464844 47.535156 C 44.171875 47.894531 43.761719 48.140625 43.238281 48.273438 C 43.832031 48.410156 44.292969 48.679688 44.625 49.085938 C 44.957031 49.488281 45.121094 49.980469 45.121094 50.558594 C 45.121094 51.445312 44.851562 52.121094 44.3125 52.59375 C 43.773438 53.066406 43 53.300781 41.996094 53.300781 C 40.992188 53.300781 40.21875 53.066406 39.679688 52.59375 C 39.140625 52.121094 38.871094 51.445312 38.871094 50.558594 C 38.871094 49.980469 39.039062 49.488281 39.371094 49.085938 C 39.707031 48.679688 40.171875 48.410156 40.765625 48.273438 Z M 40.3125 46.324219 C 40.3125 46.796875 40.460938 47.164062 40.753906 47.429688 C 41.050781 47.691406 41.464844 47.824219 41.996094 47.824219 C 42.527344 47.824219 42.941406 47.691406 43.238281 47.429688 C 43.539062 47.164062 43.6875 46.796875 43.6875 46.324219 C 43.6875 45.851562 43.539062 45.484375 43.238281 45.21875 C 42.941406 44.957031 42.527344 44.824219 41.996094 44.824219 C 41.464844 44.824219 41.050781 44.957031 40.753906 45.21875 C 40.460938 45.484375 40.3125 45.851562 40.3125 46.324219 Z M 40.3125 46.324219 "/>
<g clip-path="url(#clip11)" clip-rule="nonzero">
<path style="fill:none;stroke-width:0.8;stroke-linecap:square;stroke-linejoin:round;stroke:rgb(69.019608%,69.019608%,69.019608%);stroke-opacity:1;stroke-miterlimit:4;" d="M 43.78125 13.5 L 239.08125 13.5 " transform="matrix(1.25,0,0,1.25,0,0)"/>
</g>
<path style="fill:none;stroke-width:0.8;stroke-linecap:butt;stroke-linejoin:round;stroke:rgb(0%,0%,0%);stroke-opacity:1;stroke-miterlimit:4;" d="M 0 0 L -3.5 0 " transform="matrix(1.25,0,0,1.25,54.726562,16.875)"/>
<path style=" stroke:none;fill-rule:nonzero;fill:rgb(0%,0%,0%);fill-opacity:1;" d="M 27.648438 20.585938 L 29.664062 20.585938 L 29.664062 13.632812 L 27.46875 14.074219 L 27.46875 12.949219 L 29.648438 12.511719 L 30.882812 12.511719 L 30.882812 20.585938 L 32.898438 20.585938 L 32.898438 21.625 L 27.648438 21.625 Z M 27.648438 20.585938 "/>
<path style=" stroke:none;fill-rule:nonzero;fill:rgb(0%,0%,0%);fill-opacity:1;" d="M 35.386719 20.074219 L 36.675781 20.074219 L 36.675781 21.625 L 35.386719 21.625 Z M 35.386719 20.074219 "/>
<path style=" stroke:none;fill-rule:nonzero;fill:rgb(0%,0%,0%);fill-opacity:1;" d="M 41.996094 13.324219 C 41.363281 13.324219 40.886719 13.636719 40.566406 14.261719 C 40.246094 14.882812 40.085938 15.824219 40.085938 17.078125 C 40.085938 18.324219 40.246094 19.261719 40.566406 19.886719 C 40.886719 20.511719 41.363281 20.824219 41.996094 20.824219 C 42.636719 20.824219 43.113281 20.511719 43.433594 19.886719 C 43.753906 19.261719 43.914062 18.324219 43.914062 17.078125 C 43.914062 15.824219 43.753906 14.882812 43.433594 14.261719 C 43.113281 13.636719 42.636719 13.324219 41.996094 13.324219 Z M 41.996094 12.347656 C 43.019531 12.347656 43.800781 12.75 44.339844 13.558594 C 44.878906 14.367188 45.148438 15.539062 45.148438 17.078125 C 45.148438 18.609375 44.878906 19.78125 44.339844 20.589844 C 43.800781 21.398438 43.019531 21.800781 41.996094 21.800781 C 40.976562 21.800781 40.195312 21.398438 39.65625 20.589844 C 39.117188 19.78125 38.847656 18.609375 38.847656 17.078125 C 38.847656 15.539062 39.117188 14.367188 39.65625 13.558594 C 40.195312 12.75 40.976562 12.347656 41.996094 12.347656 Z M 41.996094 12.347656 "/>
<path style=" stroke:none;fill-rule:nonzero;fill:rgb(0%,0%,0%);fill-opacity:1;" d="M 11.921875 104.636719 L 12.972656 104.636719 C 12.796875 104.957031 12.667969 105.273438 12.578125 105.59375 C 12.492188 105.910156 12.449219 106.234375 12.449219 106.558594 C 12.449219 107.289062 12.679688 107.855469 13.140625 108.257812 C 13.601562 108.660156 14.25 108.863281 15.085938 108.863281 C 15.921875 108.863281 16.570312 108.660156 17.03125 108.257812 C 17.492188 107.855469 17.722656 107.289062 17.722656 106.558594 C 17.722656 106.234375 17.679688 105.910156 17.589844 105.59375 C 17.503906 105.273438 17.371094 104.957031 17.195312 104.636719 L 18.234375 104.636719 C 18.382812 104.953125 18.492188 105.277344 18.5625 105.613281 C 18.636719 105.945312 18.675781 106.304688 18.675781 106.683594 C 18.675781 107.710938 18.351562 108.53125 17.703125 109.136719 C 17.058594 109.742188 16.183594 110.046875 15.085938 110.046875 C 13.972656 110.046875 13.09375 109.738281 12.457031 109.128906 C 11.816406 108.515625 11.496094 107.675781 11.496094 106.609375 C 11.496094 106.261719 11.535156 105.925781 11.605469 105.597656 C 11.675781 105.265625 11.78125 104.949219 11.921875 104.636719 Z M 11.921875 104.636719 "/>
<path style=" stroke:none;fill-rule:nonzero;fill:rgb(0%,0%,0%);fill-opacity:1;" d="M 16.945312 102.527344 L 16.945312 101.238281 L 18.496094 101.238281 L 18.496094 102.527344 Z M 16.945312 102.527344 "/>
<path style=" stroke:none;fill-rule:nonzero;fill:rgb(0%,0%,0%);fill-opacity:1;" d="M 12.699219 94.214844 L 9 94.214844 L 9 93.089844 L 18.496094 93.089844 L 18.496094 94.214844 L 17.472656 94.214844 C 17.878906 94.449219 18.179688 94.746094 18.378906 95.109375 C 18.578125 95.46875 18.675781 95.898438 18.675781 96.40625 C 18.675781 97.230469 18.347656 97.902344 17.6875 98.421875 C 17.027344 98.941406 16.160156 99.199219 15.085938 99.199219 C 14.011719 99.199219 13.144531 98.941406 12.484375 98.421875 C 11.828125 97.902344 11.496094 97.230469 11.496094 96.40625 C 11.496094 95.898438 11.597656 95.46875 11.792969 95.109375 C 11.992188 94.746094 12.292969 94.449219 12.699219 94.214844 Z M 15.085938 98.039062 C 15.910156 98.039062 16.558594 97.871094 17.027344 97.53125 C 17.5 97.191406 17.734375 96.722656 17.734375 96.128906 C 17.734375 95.535156 17.5 95.070312 17.027344 94.726562 C 16.558594 94.386719 15.910156 94.214844 15.085938 94.214844 C 14.261719 94.214844 13.613281 94.386719 13.140625 94.726562 C 12.671875 95.070312 12.4375 95.535156 12.4375 96.128906 C 12.4375 96.722656 12.671875 97.191406 13.140625 97.53125 C 13.613281 97.871094 14.261719 98.039062 15.085938 98.039062 Z M 15.085938 98.039062 "/>
<path style=" stroke:none;fill-rule:nonzero;fill:rgb(0%,0%,0%);fill-opacity:1;" d="M 16.945312 90.617188 L 16.945312 89.328125 L 18.496094 89.328125 L 18.496094 90.617188 Z M 16.945312 90.617188 "/>
<path style=" stroke:none;fill-rule:nonzero;fill:rgb(0%,0%,0%);fill-opacity:1;" d="M 9 83.34375 L 9.933594 83.34375 L 9.933594 84.417969 C 9.933594 84.820312 10.015625 85.097656 10.179688 85.257812 C 10.34375 85.414062 10.636719 85.492188 11.058594 85.492188 L 11.660156 85.492188 L 11.660156 83.640625 L 12.535156 83.640625 L 12.535156 85.492188 L 18.496094 85.492188 L 18.496094 86.621094 L 12.535156 86.621094 L 12.535156 87.695312 L 11.660156 87.695312 L 11.660156 86.621094 L 11.183594 86.621094 C 10.425781 86.621094 9.871094 86.441406 9.523438 86.089844 C 9.175781 85.734375 9 85.171875 9 84.40625 Z M 9 83.34375 "/>
<path style=" stroke:none;fill-rule:nonzero;fill:rgb(0%,0%,0%);fill-opacity:1;" d="M 16.945312 83.152344 L 16.945312 81.863281 L 18.496094 81.863281 L 18.496094 83.152344 Z M 16.945312 83.152344 "/>
<path style="fill:none;stroke-width:1.5;stroke-linecap:square;stroke-linejoin:round;stroke:rgb(12.156863%,46.666667%,70.588235%);stroke-opacity:1;stroke-miterlimit:4;" d="M 52.659375 139.5 L 60.653125 139.5 L 60.8125 138.65 L 68.725 138.65 L 68.8875 134.40625 L 76.8 134.40625 L 76.9625 123.79375 L 84.875 123.79375 L 85.034375 106.10625 L 92.946875 106.10625 L 93.109375 83.996875 L 101.021875 83.996875 L 101.18125 61.8875 L 109.09375 61.8875 L 109.25625 43.465625 L 117.16875 43.465625 L 117.33125 30.30625 L 125.24375 30.30625 L 125.403125 22.08125 L 133.315625 22.08125 L 133.478125 17.509375 L 141.390625 17.509375 L 141.634375 13.5 L 230.203125 13.5 " transform="matrix(1.25,0,0,1.25,0,0)"/>
<path style="fill:none;stroke-width:0.8;stroke-linecap:square;stroke-linejoin:miter;stroke:rgb(0%,0%,0%);stroke-opacity:1;stroke-miterlimit:4;" d="M 43.78125 145.8 L 43.78125 7.2 " transform="matrix(1.25,0,0,1.25,0,0)"/>
<path style="fill:none;stroke-width:0.8;stroke-linecap:square;stroke-linejoin:miter;stroke:rgb(0%,0%,0%);stroke-opacity:1;stroke-miterlimit:4;" d="M 239.08125 145.8 L 239.08125 7.2 " transform="matrix(1.25,0,0,1.25,0,0)"/>
<path style="fill:none;stroke-width:0.8;stroke-linecap:square;stroke-linejoin:miter;stroke:rgb(0%,0%,0%);stroke-opacity:1;stroke-miterlimit:4;" d="M 43.78125 145.8 L 239.08125 145.8 " transform="matrix(1.25,0,0,1.25,0,0)"/>
<path style="fill:none;stroke-width:0.8;stroke-linecap:square;stroke-linejoin:miter;stroke:rgb(0%,0%,0%);stroke-opacity:1;stroke-miterlimit:4;" d="M 43.78125 7.2 L 239.08125 7.2 " transform="matrix(1.25,0,0,1.25,0,0)"/>
</g>
</svg>
